<svg width="556" height="414" viewBox="0 0 556 414" fill="none" xmlns="http://www.w3.org/2000/svg">
    <rect x="45" width="472" height="362" rx="16" fill="#282828" />
    <path d="M45 16C45 7.16345 52.1634 0 61 0H501C509.837 0 517 7.16344 517 16V58H45V16Z" fill="#00AAA9" />
    <path fill-rule="evenodd" clip-rule="evenodd"
        d="M555.342 341.682C555.374 341.803 555.391 341.929 555.391 342.055V361.678C555.391 361.93 555.326 362.178 555.201 362.396C555.077 362.613 554.899 362.794 554.684 362.92L538.476 372.402V391.197C538.476 391.708 538.208 392.181 537.772 392.438L503.939 412.229C503.862 412.274 503.777 412.303 503.693 412.333C503.661 412.344 503.631 412.363 503.598 412.372C503.361 412.436 503.113 412.436 502.876 412.372C502.837 412.362 502.802 412.34 502.765 412.326C502.688 412.297 502.607 412.272 502.533 412.229L468.708 392.438C468.493 392.313 468.314 392.132 468.19 391.914C468.066 391.696 468 391.449 468 391.197V332.328C468 332.199 468.018 332.074 468.049 331.952C468.06 331.911 468.084 331.874 468.099 331.832C468.125 331.757 468.15 331.68 468.188 331.611C468.215 331.564 468.253 331.527 468.285 331.484C468.326 331.427 468.363 331.367 468.41 331.317C468.451 331.276 468.503 331.246 468.549 331.21C468.6 331.167 468.646 331.121 468.704 331.087L485.619 321.191C485.834 321.066 486.076 321 486.323 321C486.57 321 486.813 321.066 487.027 321.191L503.941 331.087H503.944C504.001 331.122 504.048 331.167 504.099 331.208C504.145 331.244 504.196 331.276 504.237 331.316C504.286 331.367 504.321 331.427 504.363 331.484C504.393 331.527 504.434 331.564 504.458 331.611C504.499 331.682 504.522 331.757 504.55 331.832C504.564 331.874 504.589 331.911 504.599 331.954C504.632 332.076 504.648 332.202 504.648 332.328V369.097L518.743 360.85V342.054C518.743 341.928 518.76 341.801 518.792 341.682C518.804 341.639 518.827 341.601 518.841 341.56C518.869 341.485 518.894 341.408 518.933 341.338C518.959 341.292 518.998 341.254 519.028 341.211C519.07 341.154 519.105 341.095 519.154 341.045C519.195 341.004 519.246 340.973 519.292 340.938C519.344 340.895 519.39 340.848 519.447 340.814L536.364 330.919C536.578 330.793 536.821 330.727 537.068 330.727C537.315 330.727 537.558 330.793 537.772 330.919L554.685 340.814C554.745 340.85 554.791 340.895 554.844 340.936C554.888 340.972 554.939 341.004 554.979 341.043C555.028 341.095 555.064 341.154 555.106 341.211C555.138 341.254 555.176 341.292 555.201 341.338C555.241 341.408 555.264 341.485 555.292 341.56C555.308 341.601 555.331 341.639 555.342 341.682ZM552.572 360.85V344.532L546.653 347.995L538.476 352.779V369.097L552.573 360.85H552.572ZM535.658 390.369V374.04L527.615 378.708L504.647 392.029V408.511L535.658 390.369ZM470.82 334.805V390.369L501.827 408.509V392.03L485.628 382.714L485.623 382.711L485.616 382.707C485.561 382.675 485.516 382.628 485.464 382.589C485.42 382.553 485.369 382.525 485.331 382.485L485.327 382.48C485.281 382.435 485.25 382.38 485.211 382.33C485.176 382.281 485.134 382.24 485.105 382.19L485.104 382.185C485.072 382.131 485.053 382.067 485.03 382.006C485.007 381.952 484.977 381.902 484.963 381.845C484.945 381.777 484.942 381.704 484.935 381.634C484.928 381.58 484.914 381.527 484.914 381.473V381.469V343.052L476.738 338.266L470.82 334.805ZM486.325 324.085L472.233 332.328L486.322 340.571L500.412 332.326L486.322 324.085H486.325ZM493.654 375.528L501.829 370.746V334.805L495.91 338.267L487.733 343.052V378.992L493.654 375.528ZM537.068 333.812L522.977 342.055L537.068 350.298L551.156 342.054L537.068 333.812ZM535.658 352.779L527.481 347.995L521.562 344.532V360.85L529.737 365.633L535.658 369.097V352.779ZM503.235 389.552L523.903 377.562L534.234 371.57L520.154 363.333L503.943 372.817L489.168 381.461L503.235 389.552Z"
        fill="#00AAA9" />
    <path
        d="M81.9942 205.842C81.9942 200.498 75.3068 195.434 65.0538 192.294C67.4198 181.837 66.3683 173.517 61.7347 170.854C60.6667 170.229 59.4179 169.933 58.0541 169.933V173.6C58.81 173.6 59.4179 173.748 59.9273 174.027C62.1619 175.31 63.1313 180.193 62.3755 186.474C62.1948 188.019 61.899 189.647 61.5375 191.307C58.317 190.518 54.8008 189.91 51.1038 189.515C48.8856 186.474 46.5852 183.711 44.2684 181.294C49.625 176.313 54.6529 173.583 58.0706 173.583V169.917C53.552 169.917 47.6368 173.139 41.6559 178.729C35.675 173.172 29.7598 169.983 25.2412 169.983V173.649C28.6425 173.649 33.6868 176.362 39.0434 181.311C36.743 183.728 34.4427 186.474 32.2573 189.515C28.5439 189.91 25.0276 190.518 21.8071 191.324C21.4292 189.68 21.1499 188.085 20.9527 186.556C20.1805 180.275 21.1335 175.392 23.3517 174.093C23.8446 173.797 24.4854 173.665 25.2412 173.665V169.999C23.861 169.999 22.6123 170.295 21.5278 170.92C16.9107 173.583 15.8755 181.886 18.258 192.31C8.03789 195.467 1.3833 200.515 1.3833 205.842C1.3833 211.185 8.07075 216.249 18.3238 219.39C15.9577 229.847 17.0093 238.166 21.6428 240.83C22.7109 241.455 23.9596 241.75 25.3398 241.75C29.8584 241.75 35.7736 238.528 41.7545 232.938C47.7354 238.495 53.6506 241.685 58.1691 241.685C59.5494 241.685 60.7981 241.389 61.8826 240.764C66.4997 238.1 67.5349 229.797 65.1524 219.373C75.3396 216.233 81.9942 211.169 81.9942 205.842ZM60.6009 194.875C59.993 196.996 59.2372 199.183 58.3827 201.37C57.7091 200.054 57.0025 198.739 56.2303 197.424C55.4744 196.108 54.6693 194.826 53.8642 193.576C56.1974 193.922 58.4485 194.349 60.6009 194.875ZM53.0755 212.386C51.7939 214.605 50.4794 216.71 49.1156 218.666C46.6674 218.88 44.1863 218.995 41.6888 218.995C39.2077 218.995 36.7266 218.88 34.2948 218.683C32.931 216.726 31.6001 214.638 30.3184 212.435C29.0697 210.281 27.9359 208.094 26.9008 205.891C27.9195 203.688 29.0697 201.485 30.302 199.331C31.5836 197.111 32.8981 195.007 34.2619 193.05C36.7101 192.836 39.1912 192.721 41.6888 192.721C44.1699 192.721 46.6509 192.836 49.0827 193.034C50.4465 194.99 51.7775 197.078 53.0591 199.282C54.3078 201.435 55.4416 203.622 56.4767 205.825C55.4416 208.029 54.3078 210.232 53.0755 212.386ZM58.3827 210.248C59.27 212.451 60.0259 214.655 60.6502 216.792C58.4978 217.318 56.2303 217.762 53.8806 218.107C54.6858 216.841 55.4909 215.542 56.2467 214.211C57.0025 212.895 57.7091 211.564 58.3827 210.248ZM41.7216 227.791C40.1935 226.213 38.6654 224.454 37.1538 222.53C38.6326 222.596 40.1442 222.645 41.6723 222.645C43.2169 222.645 44.7449 222.612 46.2402 222.53C44.7614 224.454 43.2333 226.213 41.7216 227.791ZM29.4969 218.107C27.1637 217.762 24.9126 217.335 22.7601 216.808C23.3681 214.687 24.1239 212.501 24.9783 210.314C25.652 211.629 26.3586 212.945 27.1308 214.26C27.9031 215.575 28.6918 216.858 29.4969 218.107ZM41.6395 183.892C43.1676 185.471 44.6956 187.23 46.2073 189.154C44.7285 189.088 43.2169 189.038 41.6888 189.038C40.1442 189.038 38.6161 189.071 37.1209 189.154C38.5997 187.23 40.1278 185.471 41.6395 183.892ZM29.4805 193.576C28.6753 194.842 27.8702 196.141 27.1144 197.473C26.3586 198.788 25.652 200.104 24.9783 201.419C24.0911 199.216 23.3352 197.013 22.7109 194.875C24.8633 194.366 27.1308 193.922 29.4805 193.576ZM14.6103 214.161C8.79372 211.679 5.031 208.423 5.031 205.842C5.031 203.26 8.79372 199.989 14.6103 197.522C16.0234 196.914 17.5679 196.371 19.1617 195.862C20.0983 199.084 21.3306 202.438 22.8587 205.875C21.3471 209.295 20.1312 212.632 19.211 215.838C17.5844 215.329 16.0398 214.77 14.6103 214.161ZM23.4503 237.656C21.2156 236.374 20.2462 231.491 21.002 225.21C21.1828 223.665 21.4785 222.037 21.84 220.376C25.0605 221.165 28.5768 221.774 32.2738 222.168C34.4919 225.21 36.7923 227.972 39.1091 230.389C33.7525 235.371 28.7246 238.1 25.307 238.1C24.5676 238.084 23.9432 237.936 23.4503 237.656ZM62.4248 225.128C63.1971 231.409 62.244 236.292 60.0259 237.591C59.5329 237.887 58.8921 238.018 58.1363 238.018C54.735 238.018 49.6907 235.305 44.3342 230.356C46.6345 227.939 48.9349 225.194 51.1202 222.152C54.8336 221.757 58.3499 221.149 61.5704 220.343C61.9483 222.004 62.2441 223.599 62.4248 225.128ZM68.7508 214.161C67.3377 214.77 65.7932 215.312 64.1994 215.822C63.2628 212.599 62.0304 209.245 60.5024 205.809C62.014 202.389 63.2299 199.051 64.1501 195.845C65.7767 196.355 67.3213 196.914 68.7672 197.522C74.5838 200.005 78.3465 203.26 78.3465 205.842C78.3301 208.423 74.5674 211.695 68.7508 214.161Z"
        fill="#00AAA9" />
    <path
        d="M41.6723 213.356C45.8194 213.356 49.1813 209.992 49.1813 205.842C49.1813 201.692 45.8194 198.328 41.6723 198.328C37.5252 198.328 34.1633 201.692 34.1633 205.842C34.1633 209.992 37.5252 213.356 41.6723 213.356Z"
        fill="#00AAA9" />
    <rect x="366" y="75" width="131" height="48" rx="16" fill="#323232" />
    <rect x="187" y="140" width="310" height="24" rx="12" fill="#323232" />
    <rect x="187" y="181" width="310" height="117" rx="16" fill="#323232" />
    <path
        d="M480.708 26.7075L477.414 30L480.708 33.2925C480.8 33.3854 480.874 33.4957 480.924 33.6171C480.975 33.7385 481.001 33.8686 481.001 34C481.001 34.1314 480.975 34.2615 480.924 34.3829C480.874 34.5043 480.8 34.6146 480.708 34.7075C480.615 34.8004 480.504 34.8741 480.383 34.9244C480.262 34.9747 480.131 35.0006 480 35.0006C479.869 35.0006 479.739 34.9747 479.617 34.9244C479.496 34.8741 479.385 34.8004 479.293 34.7075L476 31.4137L472.708 34.7075C472.615 34.8004 472.504 34.8741 472.383 34.9244C472.262 34.9747 472.131 35.0006 472 35.0006C471.869 35.0006 471.739 34.9747 471.617 34.9244C471.496 34.8741 471.385 34.8004 471.293 34.7075C471.2 34.6146 471.126 34.5043 471.076 34.3829C471.025 34.2615 470.999 34.1314 470.999 34C470.999 33.8686 471.025 33.7385 471.076 33.6171C471.126 33.4957 471.2 33.3854 471.293 33.2925L474.586 30L471.293 26.7075C471.105 26.5199 470.999 26.2654 470.999 26C470.999 25.7346 471.105 25.4801 471.293 25.2925C471.48 25.1049 471.735 24.9994 472 24.9994C472.265 24.9994 472.52 25.1049 472.708 25.2925L476 28.5863L479.293 25.2925C479.385 25.1996 479.496 25.1259 479.617 25.0756C479.739 25.0253 479.869 24.9994 480 24.9994C480.131 24.9994 480.262 25.0253 480.383 25.0756C480.504 25.1259 480.615 25.1996 480.708 25.2925C480.8 25.3854 480.874 25.4957 480.924 25.6171C480.975 25.7385 481.001 25.8686 481.001 26C481.001 26.1314 480.975 26.2615 480.924 26.3829C480.874 26.5043 480.8 26.6146 480.708 26.7075ZM489 30C489 32.5712 488.238 35.0846 486.809 37.2224C485.381 39.3603 483.35 41.0265 480.975 42.0104C478.599 42.9944 475.986 43.2518 473.464 42.7502C470.942 42.2486 468.626 41.0105 466.808 39.1924C464.99 37.3743 463.751 35.0579 463.25 32.5362C462.748 30.0144 463.006 27.4006 463.99 25.0251C464.974 22.6497 466.64 20.6194 468.778 19.1909C470.915 17.7624 473.429 17 476 17C479.447 17.0036 482.751 18.3744 485.188 20.8116C487.626 23.2488 488.996 26.5533 489 30ZM487 30C487 27.8244 486.355 25.6977 485.146 23.8887C483.937 22.0798 482.22 20.6699 480.21 19.8373C478.2 19.0048 475.988 18.7869 473.854 19.2114C471.72 19.6358 469.76 20.6834 468.222 22.2218C466.683 23.7602 465.636 25.7202 465.211 27.854C464.787 29.9878 465.005 32.1995 465.837 34.2095C466.67 36.2195 468.08 37.9375 469.889 39.1462C471.698 40.3549 473.824 41 476 41C478.916 40.9967 481.712 39.8367 483.775 37.7745C485.837 35.7123 486.997 32.9164 487 30Z"
        fill="white" />
</svg>