<svg width="324" height="463" viewBox="0 0 324 463" fill="none" xmlns="http://www.w3.org/2000/svg">
<g opacity="0.72">
<path d="M138.003 184.038L106.576 234.643L125.475 268.941L127.125 268.03L108.759 234.699L139.604 185.03L138.003 184.038Z" fill="url(#paint0_linear_60_2219)"/>
<path d="M141.438 158.141L89.5695 241.663L106.845 272.716L108.489 271.8L91.7543 241.715L143.039 159.134L141.438 158.141Z" fill="url(#paint1_linear_60_2219)"/>
<path d="M143.289 184.535C143.289 187.012 141.28 189.021 138.803 189.021C136.324 189.021 134.316 187.012 134.316 184.535C134.316 182.055 136.324 180.046 138.803 180.046C141.28 180.046 143.289 182.055 143.289 184.535Z" fill="url(#paint2_linear_60_2219)"/>
<path d="M146.725 158.636C146.725 161.116 144.716 163.125 142.239 163.125C139.762 163.125 137.752 161.116 137.752 158.636C137.752 156.159 139.762 154.15 142.239 154.15C144.716 154.15 146.725 156.159 146.725 158.636Z" fill="url(#paint3_linear_60_2219)"/>
<path d="M170.392 225.332C170.392 227.81 168.384 229.821 165.905 229.821C163.428 229.821 161.42 227.81 161.42 225.332C161.42 222.853 163.428 220.842 165.905 220.842C168.384 220.842 170.392 222.853 170.392 225.332Z" fill="url(#paint4_linear_60_2219)"/>
<path d="M80.583 380.941C80.583 383.419 78.5733 385.429 76.0965 385.429C73.6178 385.429 71.61 383.419 71.61 380.941C71.61 378.461 73.6178 376.454 76.0965 376.454C78.5733 376.454 80.583 378.461 80.583 380.941Z" fill="url(#paint5_linear_60_2219)"/>
<path d="M58.393 443.701C58.393 446.181 56.3851 448.189 53.9064 448.189C51.4296 448.189 49.4199 446.181 49.4199 443.701C49.4199 441.224 51.4296 439.215 53.9064 439.215C56.3851 439.215 58.393 441.224 58.393 443.701Z" fill="url(#paint6_linear_60_2219)"/>
<path d="M54.722 444.172L189.108 211.33L187.477 210.388L53.0908 443.23" fill="url(#paint7_linear_60_2219)"/>
<path d="M76.9121 381.412L166.72 225.804L165.089 224.862L75.2809 380.47" fill="url(#paint8_linear_60_2219)"/>
<path d="M-7.27043 501.798L127.116 268.955L125.484 268.013L-8.90155 500.856" fill="url(#paint9_linear_60_2219)"/>
<path d="M-25.904 505.572L108.484 272.729L106.853 271.787L-27.5352 504.63" fill="url(#paint10_linear_60_2219)"/>
<path d="M296.872 275.377L268.823 326.675L230.779 327.078L230.8 328.963L269.945 328.548L298.526 276.281L296.872 275.377Z" fill="url(#paint11_linear_60_2219)"/>
<path d="M317.721 259.642L271.083 344.935L236.666 345.163L236.679 347.047L272.204 346.814L319.373 260.546L317.721 259.642Z" fill="url(#paint12_linear_60_2219)"/>
<path d="M295.492 271.919C293.336 273.14 292.575 275.877 293.795 278.037C295.014 280.194 297.751 280.953 299.907 279.734C302.066 278.513 302.827 275.776 301.606 273.62C300.388 271.461 297.651 270.7 295.492 271.919Z" fill="url(#paint13_linear_60_2219)"/>
<path d="M316.34 256.188C314.182 257.405 313.423 260.145 314.641 262.302C315.86 264.462 318.597 265.223 320.753 264.002C322.912 262.783 323.673 260.045 322.454 257.886C321.234 255.728 318.497 254.967 316.34 256.188Z" fill="url(#paint14_linear_60_2219)"/>
<path d="M246.652 268.388C244.493 269.609 243.734 272.347 244.951 274.506C246.172 276.664 248.908 277.423 251.065 276.204C253.224 274.983 253.983 272.245 252.766 270.09C251.545 267.93 248.809 267.169 246.652 268.388Z" fill="url(#paint15_linear_60_2219)"/>
<path d="M155.412 423.164C153.255 424.383 152.494 427.123 153.715 429.278C154.932 431.437 157.668 432.199 159.827 430.978C161.984 429.758 162.745 427.021 161.526 424.862C160.307 422.704 157.571 421.945 155.412 423.164Z" fill="url(#paint16_linear_60_2219)"/>
<path d="M114.728 477.754L251.252 246.159L249.63 245.201L113.105 476.797" fill="url(#paint17_linear_60_2219)"/>
<path d="M158.431 427.549L249.669 272.777L248.048 271.82L156.808 426.591" fill="url(#paint18_linear_60_2219)"/>
<path d="M95.0766 560.095L231.6 328.499L229.979 327.542L93.4548 559.138" fill="url(#paint19_linear_60_2219)"/>
<path d="M100.959 578.179L237.483 346.583L235.861 345.626L99.3372 577.222" fill="url(#paint20_linear_60_2219)"/>
<path d="M120.93 22.1316L26.2584 197.449L57.3686 277.334L-75 505.552L-68.483 509.333L65.7051 277.979L34.544 197.963L127.558 25.7135L120.93 22.1316Z" fill="url(#paint21_linear_60_2219)"/>
<path d="M120.137 13.1045H123.904C123.906 11.5557 124.52 10.1878 125.534 9.16842C126.553 8.15473 127.922 7.53862 129.47 7.53673C131.018 7.53862 132.386 8.15473 133.405 9.16842C134.418 10.1878 135.034 11.5557 135.036 13.1045C135.034 14.6552 134.418 16.0231 133.405 17.0424C132.386 18.0561 131.018 18.6722 129.47 18.6741C127.922 18.6722 126.553 18.0561 125.534 17.0424C124.52 16.0231 123.906 14.6552 123.904 13.1045H120.137H116.37C116.372 20.3435 122.234 26.207 129.47 26.2108C136.707 26.207 142.566 20.3435 142.57 13.1045C142.566 5.86547 136.707 0.00378227 129.47 1.33514e-05C122.234 0.00378227 116.372 5.86547 116.37 13.1045H120.137Z" fill="url(#paint22_linear_60_2219)"/>
</g>
<defs>
<linearGradient id="paint0_linear_60_2219" x1="123.09" y1="268.941" x2="123.09" y2="184.038" gradientUnits="userSpaceOnUse">
<stop stop-color="white"/>
<stop offset="1" stop-color="#00AAA9" stop-opacity="0"/>
</linearGradient>
<linearGradient id="paint1_linear_60_2219" x1="116.304" y1="272.716" x2="116.304" y2="158.141" gradientUnits="userSpaceOnUse">
<stop stop-color="white"/>
<stop offset="1" stop-color="#00AAA9" stop-opacity="0"/>
</linearGradient>
<linearGradient id="paint2_linear_60_2219" x1="138.803" y1="189.021" x2="138.803" y2="180.046" gradientUnits="userSpaceOnUse">
<stop stop-color="white"/>
<stop offset="1" stop-color="#00AAA9" stop-opacity="0"/>
</linearGradient>
<linearGradient id="paint3_linear_60_2219" x1="142.239" y1="163.125" x2="142.239" y2="154.15" gradientUnits="userSpaceOnUse">
<stop stop-color="white"/>
<stop offset="1" stop-color="#00AAA9" stop-opacity="0"/>
</linearGradient>
<linearGradient id="paint4_linear_60_2219" x1="165.906" y1="229.821" x2="165.906" y2="220.842" gradientUnits="userSpaceOnUse">
<stop stop-color="white"/>
<stop offset="1" stop-color="#00AAA9" stop-opacity="0"/>
</linearGradient>
<linearGradient id="paint5_linear_60_2219" x1="76.0965" y1="385.429" x2="76.0965" y2="376.454" gradientUnits="userSpaceOnUse">
<stop stop-color="white"/>
<stop offset="1" stop-color="#00AAA9" stop-opacity="0"/>
</linearGradient>
<linearGradient id="paint6_linear_60_2219" x1="53.9064" y1="448.189" x2="53.9064" y2="439.215" gradientUnits="userSpaceOnUse">
<stop stop-color="white"/>
<stop offset="1" stop-color="#00AAA9" stop-opacity="0"/>
</linearGradient>
<linearGradient id="paint7_linear_60_2219" x1="121.099" y1="444.172" x2="121.099" y2="210.388" gradientUnits="userSpaceOnUse">
<stop stop-color="white"/>
<stop offset="1" stop-color="#00AAA9" stop-opacity="0"/>
</linearGradient>
<linearGradient id="paint8_linear_60_2219" x1="121.001" y1="381.412" x2="121.001" y2="224.862" gradientUnits="userSpaceOnUse">
<stop stop-color="white"/>
<stop offset="1" stop-color="#00AAA9" stop-opacity="0"/>
</linearGradient>
<linearGradient id="paint9_linear_60_2219" x1="59.107" y1="501.798" x2="59.107" y2="268.013" gradientUnits="userSpaceOnUse">
<stop stop-color="white"/>
<stop offset="1" stop-color="#00AAA9" stop-opacity="0"/>
</linearGradient>
<linearGradient id="paint10_linear_60_2219" x1="40.4743" y1="505.572" x2="40.4743" y2="271.787" gradientUnits="userSpaceOnUse">
<stop stop-color="white"/>
<stop offset="1" stop-color="#00AAA9" stop-opacity="0"/>
</linearGradient>
<linearGradient id="paint11_linear_60_2219" x1="264.653" y1="328.963" x2="264.653" y2="275.377" gradientUnits="userSpaceOnUse">
<stop stop-color="white"/>
<stop offset="1" stop-color="#00AAA9" stop-opacity="0"/>
</linearGradient>
<linearGradient id="paint12_linear_60_2219" x1="278.019" y1="347.047" x2="278.019" y2="259.642" gradientUnits="userSpaceOnUse">
<stop stop-color="white"/>
<stop offset="1" stop-color="#00AAA9" stop-opacity="0"/>
</linearGradient>
<linearGradient id="paint13_linear_60_2219" x1="297.701" y1="280.316" x2="297.701" y2="271.338" gradientUnits="userSpaceOnUse">
<stop stop-color="white"/>
<stop offset="1" stop-color="#00AAA9" stop-opacity="0"/>
</linearGradient>
<linearGradient id="paint14_linear_60_2219" x1="318.547" y1="264.584" x2="318.547" y2="255.606" gradientUnits="userSpaceOnUse">
<stop stop-color="white"/>
<stop offset="1" stop-color="#00AAA9" stop-opacity="0"/>
</linearGradient>
<linearGradient id="paint15_linear_60_2219" x1="248.858" y1="276.785" x2="248.858" y2="267.807" gradientUnits="userSpaceOnUse">
<stop stop-color="white"/>
<stop offset="1" stop-color="#00AAA9" stop-opacity="0"/>
</linearGradient>
<linearGradient id="paint16_linear_60_2219" x1="157.62" y1="431.56" x2="157.62" y2="422.582" gradientUnits="userSpaceOnUse">
<stop stop-color="white"/>
<stop offset="1" stop-color="#00AAA9" stop-opacity="0"/>
</linearGradient>
<linearGradient id="paint17_linear_60_2219" x1="182.178" y1="477.754" x2="182.178" y2="245.201" gradientUnits="userSpaceOnUse">
<stop stop-color="white"/>
<stop offset="1" stop-color="#00AAA9" stop-opacity="0"/>
</linearGradient>
<linearGradient id="paint18_linear_60_2219" x1="203.239" y1="427.549" x2="203.239" y2="271.82" gradientUnits="userSpaceOnUse">
<stop stop-color="white"/>
<stop offset="1" stop-color="#00AAA9" stop-opacity="0"/>
</linearGradient>
<linearGradient id="paint19_linear_60_2219" x1="162.528" y1="560.095" x2="162.528" y2="327.542" gradientUnits="userSpaceOnUse">
<stop stop-color="white"/>
<stop offset="1" stop-color="#00AAA9" stop-opacity="0"/>
</linearGradient>
<linearGradient id="paint20_linear_60_2219" x1="168.41" y1="578.179" x2="168.41" y2="345.626" gradientUnits="userSpaceOnUse">
<stop stop-color="white"/>
<stop offset="1" stop-color="#00AAA9" stop-opacity="0"/>
</linearGradient>
<linearGradient id="paint21_linear_60_2219" x1="26.2791" y1="509.333" x2="26.2791" y2="22.1316" gradientUnits="userSpaceOnUse">
<stop stop-color="white"/>
<stop offset="1" stop-color="#00AAA9" stop-opacity="0"/>
</linearGradient>
<linearGradient id="paint22_linear_60_2219" x1="129.47" y1="26.2108" x2="129.47" y2="1.33514e-05" gradientUnits="userSpaceOnUse">
<stop stop-color="white"/>
<stop offset="1" stop-color="#00AAA9" stop-opacity="0"/>
</linearGradient>
</defs>
</svg>
