<svg width="345" height="538" viewBox="0 0 345 538" fill="none" xmlns="http://www.w3.org/2000/svg">
<g opacity="0.72">
<path d="M185.032 353.142L216.459 302.536L197.56 268.239L195.91 269.149L214.276 302.48L183.431 352.149L185.032 353.142Z" fill="url(#paint0_linear_60_2267)"/>
<path d="M181.597 379.039L233.466 295.517L216.19 264.464L214.546 265.379L231.281 295.464L179.996 378.046L181.597 379.039Z" fill="url(#paint1_linear_60_2267)"/>
<path d="M179.745 352.645C179.745 350.167 181.755 348.158 184.232 348.158C186.711 348.158 188.719 350.167 188.719 352.645C188.719 355.124 186.711 357.133 184.232 357.133C181.755 357.133 179.745 355.124 179.745 352.645Z" fill="url(#paint2_linear_60_2267)"/>
<path d="M176.309 378.543C176.309 376.063 178.319 374.055 180.796 374.055C183.273 374.055 185.282 376.063 185.282 378.543C185.282 381.02 183.273 383.029 180.796 383.029C178.319 383.029 176.309 381.02 176.309 378.543Z" fill="url(#paint3_linear_60_2267)"/>
<path d="M152.643 311.847C152.643 309.369 154.651 307.359 157.13 307.359C159.607 307.359 161.615 309.369 161.615 311.847C161.615 314.326 159.607 316.337 157.13 316.337C154.651 316.337 152.643 314.326 152.643 311.847Z" fill="url(#paint4_linear_60_2267)"/>
<path d="M242.452 156.238C242.452 153.76 244.461 151.75 246.938 151.75C249.417 151.75 251.425 153.76 251.425 156.238C251.425 158.718 249.417 160.726 246.938 160.726C244.461 160.726 242.452 158.718 242.452 156.238Z" fill="url(#paint5_linear_60_2267)"/>
<path d="M264.642 93.4782C264.642 90.9986 266.65 88.9901 269.128 88.9901C271.605 88.9901 273.615 90.9986 273.615 93.4782C273.615 95.9555 271.605 97.9643 269.128 97.9643C266.65 97.9643 264.642 95.9555 264.642 93.4782Z" fill="url(#paint6_linear_60_2267)"/>
<path d="M268.313 93.0068L133.927 325.849L135.558 326.792L269.944 93.9489" fill="url(#paint7_linear_60_2267)"/>
<path d="M246.123 155.767L156.314 311.375L157.946 312.318L247.754 156.709" fill="url(#paint8_linear_60_2267)"/>
<path d="M330.305 35.3815L195.919 268.224L197.551 269.166L331.937 36.3236" fill="url(#paint9_linear_60_2267)"/>
<path d="M348.939 31.6069L214.551 264.45L216.182 265.392L350.57 32.549" fill="url(#paint10_linear_60_2267)"/>
<path d="M26.1626 261.803L54.2121 210.504L92.2556 210.101L92.2348 208.217L53.0896 208.631L24.5089 260.898L26.1626 261.803Z" fill="url(#paint11_linear_60_2267)"/>
<path d="M5.3136 277.537L51.9517 192.244L86.3694 192.016L86.3561 190.132L50.831 190.366L3.66174 276.633L5.3136 277.537Z" fill="url(#paint12_linear_60_2267)"/>
<path d="M27.5427 265.26C29.6993 264.04 30.4603 261.302 29.2398 259.143C28.0211 256.985 25.2843 256.226 23.1277 257.445C20.9692 258.666 20.2082 261.404 21.4287 263.559C22.6474 265.718 25.3841 266.48 27.5427 265.26Z" fill="url(#paint13_linear_60_2267)"/>
<path d="M6.6948 280.991C8.85332 279.774 9.61239 277.034 8.39374 274.877C7.1751 272.718 4.43839 271.956 2.28175 273.177C0.123224 274.396 -0.637773 277.134 0.580871 279.293C1.8014 281.451 4.53816 282.212 6.6948 280.991Z" fill="url(#paint14_linear_60_2267)"/>
<path d="M76.383 268.791C78.5415 267.57 79.3005 264.832 78.0838 262.673C76.8632 260.516 74.1265 259.756 71.9699 260.975C69.8113 262.196 69.0523 264.934 70.2691 267.09C71.4896 269.249 74.2263 270.01 76.383 268.791Z" fill="url(#paint15_linear_60_2267)"/>
<path d="M167.623 114.016C169.779 112.796 170.54 110.057 169.32 107.901C168.103 105.742 165.366 104.981 163.208 106.201C161.051 107.421 160.29 110.158 161.509 112.318C162.727 114.475 165.464 115.235 167.623 114.016Z" fill="url(#paint16_linear_60_2267)"/>
<path d="M208.307 59.4254L71.783 291.021L73.4047 291.978L209.93 60.3822" fill="url(#paint17_linear_60_2267)"/>
<path d="M164.603 109.63L73.3654 264.403L74.9871 265.36L166.227 110.588" fill="url(#paint18_linear_60_2267)"/>
<path d="M227.958 -22.916L91.4345 208.68L93.0563 209.637L229.58 -21.9584" fill="url(#paint19_linear_60_2267)"/>
<path d="M222.076 -41L85.5523 190.596L87.1741 191.553L223.698 -40.0425" fill="url(#paint20_linear_60_2267)"/>
<path d="M202.105 515.048L296.777 339.73L265.666 259.845L398.035 31.6276L391.518 27.846L257.33 259.201L288.491 339.216L195.477 511.466L202.105 515.048Z" fill="url(#paint21_linear_60_2267)"/>
<path d="M202.898 524.075H199.131C199.129 525.624 198.515 526.992 197.501 528.011C196.482 529.025 195.113 529.641 193.565 529.643C192.017 529.641 190.649 529.025 189.63 528.011C188.617 526.992 188.001 525.624 187.999 524.075C188.001 522.524 188.617 521.156 189.63 520.137C190.649 519.123 192.017 518.507 193.565 518.505C195.113 518.507 196.482 519.123 197.501 520.137C198.515 521.156 199.129 522.524 199.131 524.075H202.898H206.665C206.663 516.836 200.801 510.972 193.565 510.968C186.328 510.972 180.469 516.836 180.465 524.075C180.469 531.314 186.328 537.175 193.565 537.179C200.801 537.175 206.663 531.314 206.665 524.075H202.898Z" fill="url(#paint22_linear_60_2267)"/>
</g>
<defs>
<linearGradient id="paint0_linear_60_2267" x1="199.945" y1="268.239" x2="199.945" y2="353.142" gradientUnits="userSpaceOnUse">
<stop stop-color="white"/>
<stop offset="1" stop-color="#00AAA9" stop-opacity="0"/>
</linearGradient>
<linearGradient id="paint1_linear_60_2267" x1="206.731" y1="264.464" x2="206.731" y2="379.039" gradientUnits="userSpaceOnUse">
<stop stop-color="white"/>
<stop offset="1" stop-color="#00AAA9" stop-opacity="0"/>
</linearGradient>
<linearGradient id="paint2_linear_60_2267" x1="184.232" y1="348.158" x2="184.232" y2="357.133" gradientUnits="userSpaceOnUse">
<stop stop-color="white"/>
<stop offset="1" stop-color="#00AAA9" stop-opacity="0"/>
</linearGradient>
<linearGradient id="paint3_linear_60_2267" x1="180.796" y1="374.055" x2="180.796" y2="383.029" gradientUnits="userSpaceOnUse">
<stop stop-color="white"/>
<stop offset="1" stop-color="#00AAA9" stop-opacity="0"/>
</linearGradient>
<linearGradient id="paint4_linear_60_2267" x1="157.129" y1="307.359" x2="157.129" y2="316.337" gradientUnits="userSpaceOnUse">
<stop stop-color="white"/>
<stop offset="1" stop-color="#00AAA9" stop-opacity="0"/>
</linearGradient>
<linearGradient id="paint5_linear_60_2267" x1="246.938" y1="151.75" x2="246.938" y2="160.726" gradientUnits="userSpaceOnUse">
<stop stop-color="white"/>
<stop offset="1" stop-color="#00AAA9" stop-opacity="0"/>
</linearGradient>
<linearGradient id="paint6_linear_60_2267" x1="269.128" y1="88.9901" x2="269.128" y2="97.9643" gradientUnits="userSpaceOnUse">
<stop stop-color="white"/>
<stop offset="1" stop-color="#00AAA9" stop-opacity="0"/>
</linearGradient>
<linearGradient id="paint7_linear_60_2267" x1="201.936" y1="93.0068" x2="201.936" y2="326.792" gradientUnits="userSpaceOnUse">
<stop stop-color="white"/>
<stop offset="1" stop-color="#00AAA9" stop-opacity="0"/>
</linearGradient>
<linearGradient id="paint8_linear_60_2267" x1="202.034" y1="155.767" x2="202.034" y2="312.318" gradientUnits="userSpaceOnUse">
<stop stop-color="white"/>
<stop offset="1" stop-color="#00AAA9" stop-opacity="0"/>
</linearGradient>
<linearGradient id="paint9_linear_60_2267" x1="263.928" y1="35.3815" x2="263.928" y2="269.166" gradientUnits="userSpaceOnUse">
<stop stop-color="white"/>
<stop offset="1" stop-color="#00AAA9" stop-opacity="0"/>
</linearGradient>
<linearGradient id="paint10_linear_60_2267" x1="282.561" y1="31.6069" x2="282.561" y2="265.392" gradientUnits="userSpaceOnUse">
<stop stop-color="white"/>
<stop offset="1" stop-color="#00AAA9" stop-opacity="0"/>
</linearGradient>
<linearGradient id="paint11_linear_60_2267" x1="58.3823" y1="208.217" x2="58.3823" y2="261.803" gradientUnits="userSpaceOnUse">
<stop stop-color="white"/>
<stop offset="1" stop-color="#00AAA9" stop-opacity="0"/>
</linearGradient>
<linearGradient id="paint12_linear_60_2267" x1="45.0156" y1="190.132" x2="45.0156" y2="277.537" gradientUnits="userSpaceOnUse">
<stop stop-color="white"/>
<stop offset="1" stop-color="#00AAA9" stop-opacity="0"/>
</linearGradient>
<linearGradient id="paint13_linear_60_2267" x1="25.3343" y1="256.863" x2="25.3343" y2="265.842" gradientUnits="userSpaceOnUse">
<stop stop-color="white"/>
<stop offset="1" stop-color="#00AAA9" stop-opacity="0"/>
</linearGradient>
<linearGradient id="paint14_linear_60_2267" x1="4.48754" y1="272.595" x2="4.48754" y2="281.574" gradientUnits="userSpaceOnUse">
<stop stop-color="white"/>
<stop offset="1" stop-color="#00AAA9" stop-opacity="0"/>
</linearGradient>
<linearGradient id="paint15_linear_60_2267" x1="74.1764" y1="260.394" x2="74.1764" y2="269.372" gradientUnits="userSpaceOnUse">
<stop stop-color="white"/>
<stop offset="1" stop-color="#00AAA9" stop-opacity="0"/>
</linearGradient>
<linearGradient id="paint16_linear_60_2267" x1="165.415" y1="105.619" x2="165.415" y2="114.597" gradientUnits="userSpaceOnUse">
<stop stop-color="white"/>
<stop offset="1" stop-color="#00AAA9" stop-opacity="0"/>
</linearGradient>
<linearGradient id="paint17_linear_60_2267" x1="140.857" y1="59.4254" x2="140.857" y2="291.978" gradientUnits="userSpaceOnUse">
<stop stop-color="white"/>
<stop offset="1" stop-color="#00AAA9" stop-opacity="0"/>
</linearGradient>
<linearGradient id="paint18_linear_60_2267" x1="119.796" y1="109.63" x2="119.796" y2="265.36" gradientUnits="userSpaceOnUse">
<stop stop-color="white"/>
<stop offset="1" stop-color="#00AAA9" stop-opacity="0"/>
</linearGradient>
<linearGradient id="paint19_linear_60_2267" x1="160.507" y1="-22.916" x2="160.507" y2="209.637" gradientUnits="userSpaceOnUse">
<stop stop-color="white"/>
<stop offset="1" stop-color="#00AAA9" stop-opacity="0"/>
</linearGradient>
<linearGradient id="paint20_linear_60_2267" x1="154.625" y1="-41" x2="154.625" y2="191.553" gradientUnits="userSpaceOnUse">
<stop stop-color="white"/>
<stop offset="1" stop-color="#00AAA9" stop-opacity="0"/>
</linearGradient>
<linearGradient id="paint21_linear_60_2267" x1="296.756" y1="27.846" x2="296.756" y2="515.048" gradientUnits="userSpaceOnUse">
<stop stop-color="white"/>
<stop offset="1" stop-color="#00AAA9" stop-opacity="0"/>
</linearGradient>
<linearGradient id="paint22_linear_60_2267" x1="193.565" y1="510.968" x2="193.565" y2="537.179" gradientUnits="userSpaceOnUse">
<stop stop-color="white"/>
<stop offset="1" stop-color="#00AAA9" stop-opacity="0"/>
</linearGradient>
</defs>
</svg>
