<svg width="100" height="100" viewBox="0 0 100 100" fill="none" xmlns="http://www.w3.org/2000/svg">
<path d="M51.434 85.9581C76.0902 85.9581 96.078 75.2801 96.078 62.1081C96.078 48.9361 76.0902 38.2581 51.434 38.2581C26.7778 38.2581 6.78998 48.9361 6.78998 62.1081C6.78998 75.2801 26.7778 85.9581 51.434 85.9581Z" fill="#F5F5F5"/>
<path d="M33.468 75.3841L19.234 67.1081L43.31 53.1941L33.468 75.3841Z" fill="#E0E0E0"/>
<path d="M12.922 66.6002L18.722 69.9442C18.8426 70.0053 18.9758 70.0372 19.111 70.0372C19.2462 70.0372 19.3795 70.0053 19.5 69.9442L27.5 65.2762C27.5471 65.2606 27.588 65.2305 27.6171 65.1903C27.6461 65.1501 27.6617 65.1018 27.6617 65.0522C27.6617 65.0026 27.6461 64.9542 27.6171 64.914C27.588 64.8738 27.5471 64.8438 27.5 64.8282L21.7 61.4822C21.5795 61.421 21.4462 61.3892 21.311 61.3892C21.1758 61.3892 21.0426 61.421 20.922 61.4822L12.922 66.1502C12.8752 66.1663 12.8346 66.1967 12.8058 66.237C12.7771 66.2773 12.7616 66.3256 12.7616 66.3752C12.7616 66.4247 12.7771 66.473 12.8058 66.5133C12.8346 66.5537 12.8752 66.584 12.922 66.6002Z" fill="#E0E0E0"/>
<path d="M13.55 66.08C13.15 65.436 11.916 64.728 10.296 64.378C8.67603 64.028 7.04803 63.6 7.42003 62.654C7.82003 61.64 9.32803 61.59 10.802 62.194C12.412 62.854 13.602 64.486 13.624 65.514L13.55 66.08Z" fill="#00AAA9"/>
<g opacity="0.1">
<path d="M13.55 66.08C13.15 65.436 11.916 64.728 10.296 64.378C8.67603 64.028 7.04803 63.6 7.42003 62.654C7.82003 61.64 9.32803 61.59 10.802 62.194C12.412 62.854 13.602 64.486 13.624 65.514L13.55 66.08Z" fill="black"/>
</g>
<path d="M13.676 65.7879C13.6532 65.7877 13.631 65.781 13.6119 65.7686C13.5927 65.7562 13.5775 65.7387 13.568 65.7179C12.282 63.0579 9.30004 62.6279 8.36804 62.7739C8.33624 62.7785 8.30391 62.7704 8.27807 62.7513C8.25223 62.7322 8.23497 62.7037 8.23004 62.6719C8.22747 62.6563 8.22803 62.6403 8.23168 62.6249C8.23532 62.6095 8.24199 62.5949 8.25128 62.5821C8.26058 62.5693 8.27233 62.5584 8.28584 62.5502C8.29936 62.5419 8.31438 62.5364 8.33004 62.5339C9.31804 62.3819 12.448 62.8279 13.794 65.6139C13.8079 65.6429 13.8098 65.6761 13.7993 65.7064C13.7888 65.7368 13.7668 65.7617 13.738 65.7759C13.7186 65.7849 13.6974 65.789 13.676 65.7879Z" fill="white"/>
<path d="M13.55 66.08C13.55 66.08 12.776 63.014 10.814 61.366C10.232 60.876 9.614 60.262 9.176 59.84C8.244 58.932 8.634 57.942 9.924 57.962C11.844 57.988 13.248 59.604 13.856 61.718C14.464 63.832 13.55 66.08 13.55 66.08Z" fill="#00AAA9"/>
<path d="M13.856 64.8899C13.8257 64.8901 13.7963 64.8789 13.7738 64.8585C13.7512 64.8382 13.737 64.8101 13.734 64.7799C13.374 60.8799 10.398 58.9199 9.58804 58.7119C9.55701 58.7039 9.53041 58.684 9.51409 58.6564C9.49778 58.6289 9.49308 58.5959 9.50104 58.5649C9.509 58.5339 9.52895 58.5073 9.55652 58.491C9.58409 58.4746 9.61701 58.4699 9.64804 58.4779C10.632 58.7299 13.606 60.7639 13.976 64.7579C13.9788 64.79 13.9688 64.8218 13.9482 64.8466C13.9276 64.8713 13.8981 64.8869 13.866 64.8899H13.856Z" fill="white"/>
<path d="M18.918 69.4519L13.454 66.2959L13.452 54.5759L18.918 57.7319V69.4519Z" fill="#263238"/>
<path d="M18.918 57.7319L26.726 53.2239V64.9439L18.918 69.4519V57.7319Z" fill="#37474F"/>
<path d="M26.726 53.2239L18.918 57.7319L13.452 54.5759L21.262 50.0679L26.726 53.2239Z" fill="#455A64"/>
<path d="M22.2921 57.5879L23.3541 56.9739C23.4921 56.8939 23.6041 56.9299 23.6041 57.0559C23.5939 57.1325 23.566 57.2056 23.5226 57.2695C23.4792 57.3334 23.4215 57.3863 23.3541 57.4239L22.2921 58.0379C22.1541 58.1179 22.0421 58.0819 22.0421 57.9559C22.0522 57.8793 22.0801 57.8062 22.1235 57.7423C22.1669 57.6784 22.2246 57.6255 22.2921 57.5879Z" fill="#263238"/>
<path d="M19.556 63.6758L25.802 60.0698L25.946 60.1518L25.802 64.4098L25.946 64.4938L19.7 68.0998L19.556 68.0158V63.6758Z" fill="#263238"/>
<path d="M19.7 63.7579L25.946 60.1519V64.4939L19.7 68.0999V63.7579Z" fill="#455A64"/>
<path d="M22.148 63.0799L23.21 62.4679C23.348 62.3879 23.46 62.4239 23.46 62.5479C23.45 62.6248 23.4222 62.6983 23.3788 62.7625C23.3354 62.8267 23.2776 62.8799 23.21 62.9179L22.148 63.5319C22.01 63.6119 21.898 63.5739 21.898 63.4499C21.9083 63.3731 21.9362 63.2998 21.9796 63.2356C22.023 63.1714 22.0806 63.1181 22.148 63.0799Z" fill="#263238"/>
<path d="M19.556 58.2759L25.802 54.6699L25.946 54.7519L25.802 59.0099L25.946 59.0939L19.7 62.6999L19.556 62.6159V58.2759Z" fill="#263238"/>
<path d="M19.7 58.358L25.946 54.752V59.094L19.7 62.7V58.358Z" fill="#455A64"/>
<path d="M22.148 57.6798L23.21 57.0678C23.348 56.9878 23.46 57.0238 23.46 57.1478C23.45 57.2246 23.4222 57.2981 23.3788 57.3623C23.3354 57.4266 23.2776 57.4798 23.21 57.5178L22.148 58.1318C22.01 58.2118 21.898 58.1738 21.898 58.0498C21.9083 57.973 21.9362 57.8996 21.9796 57.8354C22.023 57.7712 22.0806 57.718 22.148 57.6798Z" fill="#263238"/>
<path d="M18.918 57.234L13.454 54.078L13.452 42.356L18.918 45.512V57.234Z" fill="#263238"/>
<path d="M18.918 45.5119L26.726 41.0039V52.7259L18.918 57.2339V45.5119Z" fill="#37474F"/>
<path d="M26.726 41.0039L18.918 45.5119L13.452 42.3559L21.262 37.8479L26.726 41.0039Z" fill="#455A64"/>
<path d="M19.7 45.962L25.946 42.356L26.09 42.44V46.78L19.844 50.388L19.7 50.304V45.962Z" fill="#263238"/>
<path d="M22.2921 45.3679L23.3541 44.7539C23.4921 44.6739 23.6041 44.7119 23.6041 44.8359C23.5938 44.9127 23.5658 44.9861 23.5225 45.0503C23.4791 45.1144 23.4214 45.1677 23.3541 45.2059L22.2921 45.8179C22.1541 45.8979 22.0421 45.8619 22.0421 45.7379C22.052 45.6611 22.0799 45.5876 22.1233 45.5233C22.1667 45.4591 22.2245 45.4059 22.2921 45.3679Z" fill="#263238"/>
<path d="M19.556 51.4559L25.802 47.8499V52.1919L25.946 52.2739L19.7 55.8799L19.556 55.7979V51.4559Z" fill="#263238"/>
<path d="M19.7 51.5399L25.946 47.9319V52.2739L19.7 55.8799V51.5399Z" fill="#455A64"/>
<path d="M22.148 50.8618L23.21 50.2478C23.348 50.1678 23.46 50.2038 23.46 50.3298C23.4499 50.4064 23.422 50.4795 23.3786 50.5434C23.3352 50.6073 23.2775 50.6602 23.21 50.6978L22.148 51.3118C22.01 51.3918 21.898 51.3558 21.898 51.2298C21.9082 51.1533 21.936 51.0801 21.9794 51.0162C22.0228 50.9523 22.0806 50.8995 22.148 50.8618Z" fill="#263238"/>
<path d="M19.7 45.962L25.946 42.356V46.698L19.7 50.304V45.962Z" fill="#263238"/>
<path d="M29.07 44.4998L25.65 42.5278V46.3518L29.07 48.3258V44.4998Z" fill="#263238"/>
<path d="M22.0421 50.9219V45.5119L23.3821 44.7359L23.6041 45.0619L27.5081 42.8059V47.7659L22.0421 50.9219Z" fill="#00AAA9"/>
<g opacity="0.2">
<path d="M22.0421 50.9219V45.5119L23.3821 44.7359L23.6041 45.0619L27.5081 42.8059V47.7659L22.0421 50.9219Z" fill="black"/>
</g>
<path d="M22.0421 50.922L22.4321 46.188L27.8981 43.032L27.5081 47.766L22.0421 50.922Z" fill="#00AAA9"/>
<path d="M22.822 48.1079L19.842 46.3879V50.2119L22.822 51.9319V48.1079Z" fill="#37474F"/>
<path d="M22.822 47.7659L29.07 44.1599V48.4999L22.822 52.1079V47.7659Z" fill="#455A64"/>
<path d="M25.272 47.0879L26.334 46.4739C26.472 46.3939 26.584 46.4319 26.584 46.5559C26.5737 46.6327 26.5458 46.706 26.5024 46.7702C26.4591 46.8344 26.4014 46.8877 26.334 46.9259L25.272 47.5379C25.134 47.6179 25.022 47.5819 25.022 47.4579C25.0323 47.3811 25.0603 47.3078 25.1036 47.2436C25.147 47.1794 25.2046 47.1261 25.272 47.0879Z" fill="#263238"/>
<path d="M22.822 47.766L22.614 47.646V51.988L22.822 52.108V47.766Z" fill="#263238"/>
<path d="M22.614 47.6458L28.862 44.0398L29.07 44.1598L22.822 47.7658L22.614 47.6458Z" fill="#37474F"/>
<path d="M75 16.46L74.188 15.988L32.75 39.908V74.554C32.7389 74.6613 32.7564 74.7696 32.8007 74.8679C32.8449 74.9663 32.9144 75.0512 33.002 75.114L33.814 75.586C33.9125 75.6313 34.0212 75.6496 34.1291 75.6391C34.237 75.6285 34.3401 75.5895 34.428 75.526L74.128 52.6C74.38 52.4356 74.5897 52.2141 74.7402 51.9535C74.8906 51.6929 74.9776 51.4005 74.994 51.1L75 16.46Z" fill="#E6E6E6"/>
<path d="M33.562 75.0262C33.562 75.5782 33.948 75.8022 34.428 75.5262L74.128 52.6002C74.38 52.4357 74.5897 52.2142 74.7402 51.9536C74.8906 51.693 74.9776 51.4007 74.994 51.1002V16.4602L33.562 40.3822V75.0262Z" fill="#FAFAFA"/>
<path d="M74.8 16.8001V51.1041C74.7836 51.3696 74.7058 51.6276 74.5729 51.8581C74.44 52.0885 74.2556 52.2849 74.034 52.4321L34.334 75.3521C34.2474 75.4069 34.1483 75.4385 34.046 75.4441C33.794 75.4441 33.768 75.1521 33.768 75.0261V40.4961L74.8 16.8001ZM75 16.4541L33.562 40.3821V75.0261C33.562 75.4261 33.762 75.6441 34.04 75.6441C34.1773 75.6388 34.311 75.5981 34.428 75.5261L74.128 52.6001C74.38 52.4356 74.5897 52.2141 74.7402 51.9535C74.8906 51.6929 74.9776 51.4006 74.994 51.1001V16.4601L75 16.4541Z" fill="#E0E0E0"/>
<path d="M33.562 40.3822V44.1322L74.994 20.2102V16.4602L33.562 40.3822Z" fill="#00AAA9"/>
<path d="M59.558 26.8421V27.6421C59.558 27.8061 59.676 27.8741 59.818 27.7921L72.556 20.4361V19.0361L59.818 26.4001C59.7437 26.4489 59.6816 26.5142 59.6365 26.5908C59.5914 26.6675 59.5645 26.7535 59.558 26.8421Z" fill="#FAFAFA"/>
<path d="M73.922 18.2502C74.066 18.1662 74.182 18.2342 74.182 18.4002V19.2002C74.1773 19.2904 74.1513 19.3782 74.1061 19.4564C74.0609 19.5346 73.9978 19.601 73.922 19.6502L72.556 20.4382V19.0382L73.922 18.2502Z" fill="#455A64"/>
<path d="M73.822 19.356L73.6681 19.308C73.685 19.2427 73.6937 19.1755 73.6941 19.108C73.7009 19.0465 73.6916 18.9843 73.667 18.9275C73.6425 18.8706 73.6035 18.8212 73.554 18.784C73.5204 18.7642 73.4821 18.7537 73.4431 18.7537C73.404 18.7537 73.3657 18.7642 73.3321 18.784C73.2352 18.8584 73.1572 18.9546 73.1043 19.0647C73.0515 19.1749 73.0254 19.2959 73.0281 19.418C73.0208 19.4796 73.0299 19.542 73.0545 19.5989C73.0791 19.6557 73.1183 19.7051 73.1681 19.742C73.1969 19.7597 73.2302 19.7687 73.2641 19.768C73.3078 19.7671 73.3506 19.7547 73.3881 19.732C73.5046 19.6526 73.5912 19.5364 73.6341 19.402L73.7881 19.45H73.8001C73.8119 19.4502 73.8235 19.4467 73.8332 19.4398C73.843 19.433 73.8502 19.4233 73.854 19.412C73.8549 19.4006 73.8523 19.3891 73.8466 19.3792C73.8409 19.3692 73.8323 19.3612 73.822 19.356ZM73.3321 19.648C73.3168 19.6597 73.2986 19.6668 73.2795 19.6686C73.2604 19.6704 73.2412 19.6667 73.2241 19.658C73.1931 19.6299 73.1694 19.5945 73.1551 19.5552C73.1408 19.5158 73.1363 19.4735 73.142 19.432C73.14 19.3299 73.1611 19.2287 73.2037 19.1359C73.2463 19.0431 73.3093 18.9611 73.3881 18.896C73.4092 18.8829 73.4332 18.8754 73.4581 18.874C73.4723 18.874 73.4862 18.8782 73.498 18.886C73.5286 18.9145 73.552 18.9499 73.5663 18.9892C73.5805 19.0285 73.5852 19.0706 73.58 19.112C73.5817 19.2143 73.5602 19.3156 73.5173 19.4084C73.4743 19.5012 73.411 19.5831 73.3321 19.648Z" fill="#FAFAFA"/>
<path d="M73.9362 13.6183C73.8376 13.57 73.7277 13.5497 73.6184 13.5596C73.509 13.5694 73.4045 13.6091 73.3162 13.6743L33.6162 36.6003C33.3639 36.7644 33.1539 36.9858 33.0034 37.2465C32.8529 37.5071 32.7661 37.7997 32.7502 38.1003V39.9143L33.5622 40.3883L75.0002 16.4603V14.6463C75.0124 14.5394 74.9956 14.4312 74.9516 14.333C74.9076 14.2349 74.838 14.1503 74.7502 14.0883C74.6002 14.0003 74.0782 13.7043 73.9362 13.6183Z" fill="#263238"/>
<path d="M33.562 38.568C33.5776 38.2673 33.6643 37.9747 33.8148 37.7139C33.9653 37.4532 34.1755 37.2319 34.428 37.068L74.128 14.146C74.606 13.87 74.994 14.094 74.994 14.646V16.46L33.562 40.382V38.568Z" fill="#37474F"/>
<path d="M74.752 14.0921C74.6531 14.0427 74.5425 14.0217 74.4324 14.0312C74.3223 14.0407 74.2169 14.0805 74.128 14.1461L34.428 37.0661C34.1722 37.2256 33.9615 37.448 33.816 37.7121L33 37.2421C33.1462 36.9774 33.3576 36.7544 33.614 36.5941L73.316 13.6721C73.4045 13.6073 73.5091 13.5679 73.6185 13.5584C73.7278 13.5489 73.8376 13.5695 73.936 13.6181C74.078 13.7041 74.598 14.0021 74.736 14.0861L74.752 14.0921Z" fill="#455A64"/>
<path d="M70.12 17.4001C70.0028 17.478 69.9056 17.5822 69.8361 17.7045C69.7666 17.8268 69.7269 17.9637 69.72 18.1041C69.72 18.3621 69.902 18.4681 70.12 18.3381C70.2371 18.2603 70.3343 18.1561 70.4038 18.0338C70.4733 17.9115 70.5131 17.7746 70.52 17.6341C70.526 17.3721 70.344 17.2661 70.12 17.4001Z" fill="#00AAA9"/>
<path d="M71.542 16.5782C71.4249 16.6556 71.3276 16.7595 71.2581 16.8814C71.1887 17.0034 71.1488 17.14 71.142 17.2802C71.142 17.5402 71.324 17.6442 71.542 17.5162C71.6589 17.4381 71.756 17.3338 71.8254 17.2116C71.8949 17.0894 71.9348 16.9526 71.942 16.8122C71.948 16.5522 71.766 16.4482 71.542 16.5782Z" fill="#00AAA9"/>
<path d="M72.962 15.758C72.8449 15.8358 72.7476 15.9401 72.6782 16.0624C72.6087 16.1846 72.5689 16.3215 72.562 16.462C72.562 16.722 72.744 16.826 72.962 16.696C73.0795 16.6185 73.177 16.5144 73.2465 16.392C73.316 16.2696 73.3556 16.1326 73.362 15.992C73.37 15.734 73.188 15.628 72.962 15.758Z" fill="#00AAA9"/>
<path d="M34.428 75.5262L41.686 71.3362V39.4402L33.562 44.1322V75.0262C33.562 75.5782 33.948 75.8002 34.428 75.5262Z" fill="#F5F5F5"/>
<path d="M41.486 39.7862V71.2202L34.328 75.3522C34.2414 75.4069 34.1423 75.4386 34.04 75.4442C33.788 75.4442 33.762 75.1522 33.762 75.0262V44.2462L41.486 39.7862ZM41.686 39.4402L33.562 44.1322V75.0262C33.562 75.4262 33.762 75.6442 34.04 75.6442C34.1773 75.6388 34.311 75.5982 34.428 75.5262L41.686 71.3362V39.4402Z" fill="#E0E0E0"/>
<path d="M36.258 44.4501L40.146 42.2001C40.288 42.1161 40.404 42.1841 40.404 42.3501V42.6881C40.3991 42.778 40.3732 42.8655 40.3284 42.9437C40.2836 43.0218 40.2211 43.0884 40.146 43.1381L36.258 45.3841C36.114 45.4681 35.998 45.4001 35.998 45.2341V44.9001C36.0034 44.81 36.0297 44.7225 36.0748 44.6444C36.12 44.5662 36.1827 44.4997 36.258 44.4501Z" fill="#E0E0E0"/>
<path d="M35.186 45.3701V45.7081C35.1811 45.7983 35.155 45.886 35.1099 45.9642C35.0647 46.0424 35.0017 46.1089 34.926 46.1581L34.634 46.3261C34.49 46.4101 34.374 46.3421 34.374 46.1761V45.8381C34.3789 45.748 34.405 45.6602 34.4502 45.582C34.4954 45.5038 34.5583 45.4374 34.634 45.3881L34.926 45.2201C35.07 45.1361 35.186 45.2001 35.186 45.3701Z" fill="#00AAA9"/>
<path d="M36.258 46.3202L40.146 44.0742C40.288 43.9902 40.404 44.0582 40.404 44.2222V44.5602C40.3991 44.6504 40.3732 44.7382 40.3284 44.8166C40.2836 44.8951 40.2212 44.962 40.146 45.0122L36.258 47.2582C36.114 47.3402 35.998 47.2742 35.998 47.1082V46.7702C36.0031 46.6801 36.0292 46.5924 36.0744 46.5142C36.1196 46.436 36.1825 46.3696 36.258 46.3202Z" fill="#E0E0E0"/>
<path d="M35.186 47.2381V47.5761C35.1813 47.6663 35.1553 47.7541 35.1101 47.8323C35.0649 47.9105 35.0018 47.9769 34.926 48.0261L34.634 48.1961C34.49 48.2781 34.374 48.2121 34.374 48.0461V47.7081C34.3787 47.6179 34.4048 47.5301 34.45 47.4519C34.4952 47.3736 34.5582 47.3072 34.634 47.2581L34.926 47.0881C35.07 47.0001 35.186 47.0721 35.186 47.2381Z" fill="#00AAA9"/>
<path d="M36.258 48.1882L40.146 45.9422C40.288 45.8602 40.404 45.9262 40.404 46.0922V46.4302C40.3994 46.5201 40.3736 46.6078 40.3288 46.686C40.284 46.7641 40.2214 46.8307 40.146 46.8802L36.258 49.1262C36.114 49.2102 35.998 49.1422 35.998 48.9782V48.6382C36.0036 48.5481 36.0299 48.4606 36.075 48.3825C36.1201 48.3044 36.1828 48.2379 36.258 48.1882Z" fill="#E0E0E0"/>
<path d="M35.186 49.108V49.446C35.1813 49.5362 35.1553 49.624 35.1101 49.7023C35.0649 49.7805 35.0018 49.8469 34.926 49.896L34.634 50.066C34.49 50.148 34.374 50.08 34.374 49.916V49.576C34.3792 49.4859 34.4054 49.3983 34.4506 49.3202C34.4957 49.242 34.5586 49.1755 34.634 49.126L34.926 48.958C35.07 48.876 35.186 48.942 35.186 49.108Z" fill="#00AAA9"/>
<path d="M36.258 54.3881L40.146 52.1402C40.288 52.0582 40.404 52.1242 40.404 52.2902V52.6282C40.3994 52.7181 40.3736 52.8058 40.3288 52.884C40.284 52.9621 40.2214 53.0287 40.146 53.0782L36.258 55.3261C36.114 55.4081 35.998 55.3421 35.998 55.1761V54.8381C36.0031 54.748 36.0292 54.6603 36.0744 54.5822C36.1196 54.504 36.1825 54.4375 36.258 54.3881Z" fill="#E0E0E0"/>
<path d="M35.186 55.306V55.644C35.1813 55.7342 35.1553 55.822 35.1101 55.9003C35.0649 55.9785 35.0018 56.0449 34.926 56.094L34.634 56.264C34.49 56.346 34.374 56.28 34.374 56.114V55.776C34.3787 55.6858 34.4048 55.598 34.45 55.5198C34.4952 55.4416 34.5582 55.3752 34.634 55.326L34.926 55.156C35.07 55.074 35.186 55.14 35.186 55.306Z" fill="#00AAA9"/>
<path d="M36.258 56.0421L40.146 53.8001C40.288 53.7181 40.404 53.7841 40.404 53.9501V54.2881C40.3994 54.3781 40.3736 54.4657 40.3288 54.5439C40.284 54.622 40.2214 54.6886 40.146 54.7381L36.258 56.9801C36.114 57.0641 35.998 56.9961 35.998 56.8301V56.4921C36.0036 56.402 36.0299 56.3145 36.075 56.2364C36.1201 56.1583 36.1828 56.0918 36.258 56.0421Z" fill="#E0E0E0"/>
<path d="M35.186 56.962V57.3C35.1813 57.3903 35.1553 57.4781 35.1101 57.5563C35.0649 57.6345 35.0018 57.7009 34.926 57.75L34.634 57.918C34.49 58.002 34.374 57.934 34.374 57.768V57.43C34.3792 57.3399 34.4054 57.2523 34.4506 57.1742C34.4957 57.096 34.5586 57.0296 34.634 56.98L34.926 56.812C35.07 56.73 35.186 56.8 35.186 56.962Z" fill="#00AAA9"/>
<path d="M36.258 57.6981L40.146 55.4521C40.288 55.3681 40.404 55.4361 40.404 55.6021V55.9401C40.3991 56.03 40.3732 56.1175 40.3284 56.1956C40.2836 56.2738 40.2211 56.3403 40.146 56.3901L36.258 58.6361C36.114 58.7201 35.998 58.6521 35.998 58.4861V58.1481C36.0034 58.058 36.0297 57.9704 36.0748 57.8923C36.12 57.8142 36.1827 57.7477 36.258 57.6981Z" fill="#E0E0E0"/>
<path d="M35.186 58.6182V58.9562C35.1811 59.0464 35.155 59.1341 35.1099 59.2123C35.0647 59.2905 35.0017 59.3569 34.926 59.4062L34.634 59.5742C34.49 59.6582 34.374 59.5902 34.374 59.4242V59.0862C34.3789 58.996 34.405 58.9083 34.4502 58.8301C34.4954 58.7519 34.5583 58.6854 34.634 58.6362L34.926 58.4682C35.07 58.3842 35.186 58.4522 35.186 58.6182Z" fill="#00AAA9"/>
<path d="M35.998 50.23V50.812L36.504 50.23H35.998Z" fill="#00AAA9"/>
<path d="M36.812 50.1081C36.812 50.2181 36.888 50.2601 36.984 50.2041L40.232 48.3361C40.2823 48.3032 40.324 48.2588 40.3539 48.2067C40.3838 48.1546 40.401 48.0962 40.404 48.0361C40.404 47.9261 40.328 47.8821 40.232 47.9381L36.984 49.8121C36.9341 49.8445 36.8925 49.8881 36.8626 49.9396C36.8327 49.991 36.8154 50.0488 36.812 50.1081Z" fill="#E0E0E0"/>
<path d="M35.998 51.166V51.75L36.504 51.166H35.998Z" fill="#00AAA9"/>
<path d="M36.812 51.0461C36.812 51.1541 36.888 51.1981 36.984 51.1421L40.232 49.2721C40.2823 49.2397 40.3242 49.1958 40.3541 49.144C40.384 49.0921 40.4011 49.0339 40.404 48.9741C40.404 48.8641 40.328 48.8201 40.232 48.8761L36.984 50.7501C36.9341 50.7825 36.8925 50.8261 36.8626 50.8775C36.8327 50.929 36.8154 50.9867 36.812 51.0461Z" fill="#E0E0E0"/>
<path d="M35.998 52.104V52.688L36.504 52.104H35.998Z" fill="#00AAA9"/>
<path d="M36.812 51.9841C36.812 52.0921 36.888 52.1361 36.984 52.0801L40.232 50.2101C40.2823 50.1777 40.3242 50.1338 40.3541 50.0819C40.384 50.0301 40.4011 49.9719 40.404 49.9121C40.404 49.8021 40.328 49.7581 40.232 49.8141L36.984 51.6881C36.9341 51.7204 36.8925 51.7641 36.8626 51.8155C36.8327 51.867 36.8154 51.9247 36.812 51.9841Z" fill="#E0E0E0"/>
<path d="M35.998 53.042V53.626L36.504 53.042H35.998Z" fill="#00AAA9"/>
<path d="M36.812 52.9221C36.812 53.0301 36.888 53.0741 36.984 53.0181L40.232 51.1481C40.2823 51.1157 40.3242 51.0718 40.3541 51.0199C40.384 50.9681 40.4011 50.9099 40.404 50.8501C40.404 50.7401 40.328 50.6961 40.232 50.7521L36.984 52.6261C36.9341 52.6584 36.8925 52.7021 36.8626 52.7535C36.8327 52.805 36.8154 52.8627 36.812 52.9221Z" fill="#E0E0E0"/>
<path d="M44.1219 40.5581V45.4461C44.1219 45.6461 44.2659 45.7341 44.4439 45.6321L49.8179 42.5281C49.9118 42.4675 49.9899 42.3855 50.0459 42.2888C50.1018 42.1922 50.1341 42.0836 50.1399 41.9721V37.9541C50.1399 37.7541 49.9959 37.6661 49.8179 37.7681L46.6999 39.5681C46.5219 39.6701 46.3779 39.5881 46.3779 39.3841V39.2561C46.3779 39.0561 46.2359 38.9681 46.0579 39.0701L44.4439 40.0001C44.3502 40.0612 44.2722 40.1436 44.2162 40.2406C44.1603 40.3375 44.128 40.4463 44.1219 40.5581Z" fill="#00AAA9"/>
<path d="M45.1799 46.368V46.682C45.1799 46.834 45.2879 46.896 45.4199 46.82L49.4519 44.492C49.5219 44.4465 49.5801 44.3851 49.6218 44.3128C49.6635 44.2405 49.6875 44.1594 49.6919 44.076V43.762C49.6919 43.61 49.5839 43.548 49.4519 43.624L45.4199 45.952C45.35 45.9976 45.2918 46.059 45.2501 46.1313C45.2084 46.2036 45.1844 46.2847 45.1799 46.368Z" fill="#E0E0E0"/>
<path d="M51.6 36.2681V41.1561C51.6 41.3561 51.744 41.4421 51.92 41.3401L57.294 38.2381C57.3875 38.1771 57.4653 38.095 57.5213 37.9985C57.5772 37.9019 57.6096 37.7935 57.616 37.6821V33.6621C57.616 33.4621 57.472 33.3741 57.294 33.4761L54.176 35.2761C53.998 35.3781 53.856 35.2941 53.856 35.0901V34.9621C53.856 34.7621 53.712 34.6761 53.534 34.7781L51.92 35.7101C51.8265 35.7713 51.7488 35.8538 51.6932 35.9507C51.6376 36.0477 51.6056 36.1564 51.6 36.2681Z" fill="#00AAA9"/>
<path d="M52.652 42.0781V42.4001C52.652 42.5541 52.76 42.6161 52.892 42.5401L56.924 40.2001C56.9938 40.154 57.0519 40.0921 57.0936 40.0196C57.1353 39.947 57.1594 39.8656 57.164 39.7821V39.4701C57.164 39.3161 57.056 39.2541 56.924 39.3321L52.892 41.6601C52.8221 41.7061 52.764 41.768 52.7223 41.8406C52.6807 41.9131 52.6566 41.9945 52.652 42.0781Z" fill="#E0E0E0"/>
<path d="M44.1219 50.3781V55.2661C44.1219 55.4661 44.2659 55.5541 44.4439 55.4521L49.8179 52.3481C49.9105 52.288 49.9878 52.2073 50.0437 52.1121C50.0996 52.017 50.1325 51.9102 50.1399 51.8001V47.7801C50.1399 47.5801 49.9959 47.4941 49.8179 47.5961L46.6999 49.3961C46.5219 49.4981 46.3779 49.4161 46.3779 49.2121V49.0841C46.3779 48.8841 46.2359 48.7961 46.0579 48.8981L44.4439 49.8301C44.3514 49.8901 44.2741 49.9709 44.2182 50.066C44.1623 50.1612 44.1294 50.268 44.1219 50.3781Z" fill="#00AAA9"/>
<path d="M45.1799 56.1881V56.5021C45.1799 56.6541 45.2879 56.7161 45.4199 56.6401L49.4519 54.3121C49.5216 54.2663 49.5797 54.2048 49.6213 54.1326C49.663 54.0604 49.6872 53.9794 49.6919 53.8961V53.5821C49.6919 53.4301 49.5839 53.3681 49.4519 53.4441L45.4199 55.7721C45.35 55.8176 45.2918 55.8791 45.2501 55.9514C45.2084 56.0236 45.1844 56.1048 45.1799 56.1881Z" fill="#E0E0E0"/>
<path d="M51.6 46.0861V50.9741C51.6 51.1741 51.744 51.2621 51.92 51.1601L57.294 48.0561C57.3875 47.9957 57.4655 47.9141 57.5214 47.8178C57.5774 47.7215 57.6098 47.6133 57.616 47.5021V43.4821C57.616 43.2821 57.472 43.1941 57.294 43.2961L54.176 45.0961C53.998 45.1981 53.856 45.1141 53.856 44.9101V44.7821C53.856 44.5821 53.712 44.4941 53.534 44.5981L51.92 45.5301C51.8266 45.5911 51.749 45.6732 51.6934 45.7698C51.6378 45.8664 51.6058 45.9748 51.6 46.0861Z" fill="#00AAA9"/>
<path d="M52.652 51.8981V52.2101C52.652 52.3641 52.76 52.4261 52.892 52.3481L56.924 50.0221C56.9938 49.976 57.0519 49.9141 57.0936 49.8416C57.1353 49.769 57.1594 49.6876 57.164 49.6041V49.2921C57.164 49.1381 57.056 49.0761 56.924 49.1521L52.892 51.4801C52.8221 51.5261 52.764 51.588 52.7223 51.6606C52.6807 51.7331 52.6566 51.8145 52.652 51.8981Z" fill="#E0E0E0"/>
<path d="M59.156 31.7402V36.6282C59.156 36.8282 59.3 36.9162 59.476 36.8142L64.852 33.7102C64.9452 33.6491 65.0228 33.567 65.0784 33.4704C65.134 33.3738 65.166 33.2655 65.172 33.1542V29.1362C65.172 28.9362 65.028 28.8482 64.852 28.9502L61.732 30.7502C61.556 30.8542 61.412 30.7702 61.412 30.5662V30.4382C61.412 30.2382 61.268 30.1502 61.09 30.2522L59.476 31.1862C59.3829 31.2469 59.3055 31.3287 59.2499 31.425C59.1943 31.5212 59.1621 31.6292 59.156 31.7402Z" fill="#00AAA9"/>
<path d="M60.124 37.7862V38.1002C60.124 38.2522 60.232 38.3142 60.366 38.2382L64.4 35.9102C64.4704 35.865 64.5291 35.8037 64.5712 35.7314C64.6133 35.659 64.6375 35.5777 64.642 35.4942V35.1822C64.642 35.0282 64.534 34.9662 64.4 35.0422L60.37 37.3702C60.2989 37.4149 60.2394 37.476 60.1966 37.5484C60.1538 37.6207 60.129 37.7023 60.124 37.7862Z" fill="#E0E0E0"/>
<path d="M66.54 27.686V32.574C66.54 32.774 66.684 32.86 66.862 32.758L72.236 29.656C72.3293 29.595 72.4068 29.5128 72.4624 29.4162C72.518 29.3196 72.5501 29.2113 72.556 29.1V25.08C72.556 24.88 72.414 24.792 72.236 24.894L69.118 26.694C68.94 26.796 68.796 26.712 68.796 26.508V26.38C68.796 26.18 68.654 26.094 68.476 26.196L66.862 27.128C66.7679 27.1888 66.6897 27.2711 66.6337 27.3682C66.5777 27.4652 66.5456 27.5741 66.54 27.686Z" fill="#00AAA9"/>
<path d="M67.6 33.4962V33.8002C67.6 33.9542 67.706 34.0162 67.84 33.9402L71.872 31.6122C71.9416 31.5663 71.9995 31.5048 72.0412 31.4325C72.0828 31.3603 72.1071 31.2794 72.112 31.1962V30.8822C72.112 30.7282 72.004 30.6662 71.872 30.7442L67.84 33.0702C67.7688 33.1168 67.7099 33.1798 67.6681 33.254C67.6264 33.3281 67.603 33.4111 67.6 33.4962Z" fill="#E0E0E0"/>
<path d="M60.124 47.6001V47.9141C60.124 48.0661 60.232 48.1281 60.366 48.0521L64.4 45.7261C64.4704 45.6809 64.5291 45.6196 64.5712 45.5472C64.6133 45.4749 64.6375 45.3936 64.642 45.3101V45.0001C64.642 44.8481 64.534 44.7861 64.4 44.8621L60.37 47.1901C60.2997 47.2342 60.2407 47.2944 60.198 47.3656C60.1552 47.4369 60.1299 47.5172 60.124 47.6001Z" fill="#E0E0E0"/>
<path d="M60.226 40.7322L64.4 38.3182C64.59 38.2082 64.746 38.2982 64.746 38.5182V43.3462C64.7395 43.4663 64.7048 43.5833 64.6447 43.6875C64.5846 43.7918 64.5008 43.8804 64.4 43.9462L60.226 46.3602C60.026 46.4702 59.88 46.3822 59.88 46.1602V41.3322C59.8867 41.2121 59.9214 41.0952 59.9815 40.991C60.0416 40.8868 60.1254 40.7981 60.226 40.7322Z" fill="#FAFAFA"/>
<path d="M60.0699 46.5082C60.0209 46.5086 59.9727 46.4962 59.9299 46.4722C59.8793 46.4384 59.8386 46.3916 59.8123 46.3367C59.7859 46.2818 59.7747 46.2209 59.7799 46.1602V41.3322C59.7869 41.1942 59.8269 41.0599 59.8965 40.9405C59.9661 40.8211 60.0633 40.7202 60.1799 40.6462L64.3619 38.2322C64.4118 38.1975 64.4701 38.1769 64.5306 38.1727C64.5912 38.1685 64.6518 38.1807 64.7059 38.2082C64.7565 38.2417 64.7972 38.2881 64.8239 38.3426C64.8506 38.3971 64.8624 38.4577 64.8579 38.5182V43.3462C64.851 43.4842 64.811 43.6185 64.7414 43.7379C64.6718 43.8572 64.5746 43.9582 64.4579 44.0322L60.2759 46.4482C60.2137 46.4858 60.1427 46.5064 60.0699 46.5082ZM64.5619 38.3722C64.5248 38.3736 64.4888 38.3854 64.4579 38.4062L60.2759 40.8202C60.1902 40.8766 60.1188 40.9523 60.0674 41.0412C60.016 41.1301 59.9861 41.2297 59.9799 41.3322V46.1602C59.9799 46.2302 59.9979 46.2802 60.0299 46.2982C60.0544 46.3062 60.0805 46.3083 60.1059 46.3041C60.1313 46.2999 60.1553 46.2896 60.1759 46.2742L64.3579 43.8602C64.4434 43.803 64.5146 43.7269 64.5659 43.6377C64.6173 43.5486 64.6474 43.4488 64.6539 43.3462V38.5182C64.657 38.4927 64.6538 38.4669 64.6448 38.4428C64.6357 38.4188 64.621 38.3973 64.6019 38.3802C64.5895 38.3743 64.5757 38.3715 64.5619 38.3722Z" fill="#EBEBEB"/>
<path d="M64.9 38.97L63.968 39.508C63.8669 39.5736 63.7827 39.6621 63.7222 39.7664C63.6617 39.8707 63.6267 39.9877 63.62 40.108V41.184C63.62 41.406 63.776 41.496 63.968 41.384L64.9 40.846C65.0007 40.7802 65.0846 40.6916 65.1447 40.5874C65.2048 40.4831 65.2395 40.3662 65.246 40.246V39.17C65.246 38.95 65.09 38.86 64.9 38.97Z" fill="#00AAA9"/>
<path d="M60.544 41.254L62.64 40.054C62.734 40 62.812 40.044 62.812 40.156V40.222C62.8085 40.2819 62.7911 40.3402 62.7613 40.3922C62.7314 40.4443 62.6899 40.4887 62.64 40.522L60.544 41.722C60.448 41.778 60.37 41.734 60.372 41.622V41.554C60.375 41.494 60.3922 41.4355 60.4221 41.3834C60.452 41.3313 60.4937 41.2869 60.544 41.254Z" fill="#EBEBEB"/>
<path d="M60.544 42.2L62.64 41C62.734 40.944 62.812 40.99 62.812 41.1V41.166C62.8089 41.226 62.7918 41.2844 62.7619 41.3366C62.732 41.3887 62.6902 41.433 62.64 41.466L60.544 42.666C60.448 42.722 60.37 42.666 60.372 42.566V42.496C60.3757 42.4367 60.3931 42.379 60.423 42.3276C60.4528 42.2763 60.4943 42.2325 60.544 42.2Z" fill="#EBEBEB"/>
<path d="M60.544 43.1281L62.64 41.9281C62.734 41.8741 62.812 41.9181 62.812 42.0281V42.0961C62.8085 42.156 62.7911 42.2142 62.7613 42.2663C62.7314 42.3183 62.6899 42.3628 62.64 42.3961L60.544 43.5961C60.448 43.6521 60.37 43.6081 60.372 43.4961V43.4281C60.3749 43.368 60.392 43.3095 60.4219 43.2574C60.4518 43.2052 60.4936 43.1609 60.544 43.1281Z" fill="#EBEBEB"/>
<path d="M60.544 44.0641L64.024 42.0641C64.12 42.0101 64.198 42.0641 64.198 42.1641V42.2321C64.1946 42.2922 64.177 42.3507 64.1468 42.4028C64.1166 42.4549 64.0745 42.4992 64.024 42.5321L60.544 44.5321C60.448 44.5861 60.37 44.5421 60.372 44.4321V44.3621C60.3753 44.3024 60.3927 44.2444 60.4225 44.1926C60.4524 44.1408 60.494 44.0968 60.544 44.0641Z" fill="#EBEBEB"/>
<path d="M60.544 45L64.024 43C64.12 42.944 64.198 43 64.198 43.1V43.166C64.1947 43.2262 64.1772 43.2847 64.147 43.3369C64.1168 43.389 64.0746 43.4333 64.024 43.466L60.544 45.466C60.448 45.522 60.37 45.476 60.372 45.366V45.298C60.3749 45.2382 60.392 45.18 60.4219 45.1282C60.4518 45.0763 60.4937 45.0324 60.544 45Z" fill="#EBEBEB"/>
<path d="M67.436 43.3822V43.6942C67.436 43.8482 67.544 43.9102 67.676 43.8342L71.708 41.5062C71.7781 41.4603 71.8364 41.3986 71.8781 41.3259C71.9198 41.2533 71.9438 41.1718 71.948 41.0882V40.7762C71.948 40.6222 71.842 40.5602 71.708 40.6362L67.676 42.9642C67.6062 43.0103 67.5481 43.0721 67.5064 43.1447C67.4647 43.2173 67.4406 43.2986 67.436 43.3822Z" fill="#E0E0E0"/>
<path d="M67.5379 36.512L71.7179 34.098C71.9179 33.986 72.0659 34.076 72.0659 34.298V39.126C72.0589 39.2463 72.0238 39.3632 71.9633 39.4674C71.9029 39.5716 71.8188 39.6602 71.7179 39.726L67.5379 42.14C67.3379 42.25 67.1899 42.16 67.1899 41.94V37.112C67.1965 36.9916 67.2314 36.8745 67.2919 36.7702C67.3524 36.6659 67.4367 36.5775 67.5379 36.512Z" fill="#FAFAFA"/>
<path d="M67.382 42.286C67.333 42.2865 67.2847 42.2741 67.242 42.25C67.1915 42.2165 67.1507 42.1701 67.124 42.1156C67.0973 42.0611 67.0856 42.0005 67.09 41.94V37.112C67.0967 36.9737 67.1365 36.839 67.2061 36.7192C67.2757 36.5995 67.3731 36.4982 67.49 36.424L71.67 34.01C71.7187 33.9719 71.7777 33.9492 71.8395 33.9449C71.9012 33.9405 71.9628 33.9548 72.0163 33.9857C72.0699 34.0167 72.113 34.063 72.14 34.1187C72.167 34.1743 72.1768 34.2368 72.168 34.298V39.126C72.1612 39.2641 72.1213 39.3984 72.0517 39.5178C71.9821 39.6372 71.8848 39.7381 71.768 39.812L67.588 42.226C67.5257 42.2636 67.4547 42.2843 67.382 42.286ZM67.582 36.598C67.4959 36.6547 67.4241 36.7306 67.3723 36.8198C67.3206 36.909 67.2904 37.0091 67.284 37.112V41.94C67.281 41.9655 67.2841 41.9914 67.2932 42.0154C67.3022 42.0394 67.3169 42.0609 67.336 42.078C67.3606 42.0861 67.3868 42.088 67.4123 42.0835C67.4378 42.0789 67.4618 42.0681 67.482 42.052L71.662 39.638C71.748 39.5817 71.8198 39.5061 71.8715 39.4172C71.9232 39.3283 71.9535 39.2286 71.96 39.126V34.298C71.9709 34.2719 71.9718 34.2427 71.9627 34.216C71.9535 34.1892 71.9349 34.1667 71.9103 34.1527C71.8858 34.1387 71.8569 34.1342 71.8293 34.14C71.8016 34.1457 71.777 34.1614 71.76 34.184L67.582 36.598Z" fill="#EBEBEB"/>
<path d="M72.21 34.7501L71.278 35.2881C71.1773 35.3539 71.0934 35.4425 71.0333 35.5468C70.9732 35.651 70.9385 35.7679 70.932 35.8881V36.9641C70.932 37.1841 71.088 37.2741 71.278 37.1641L72.21 36.6261C72.3109 36.5603 72.3949 36.4717 72.4554 36.3675C72.5158 36.2633 72.551 36.1464 72.558 36.0261V34.9501C72.558 34.7281 72.4 34.6381 72.21 34.7501Z" fill="#00AAA9"/>
<path d="M67.856 37.032L69.95 35.832C70.046 35.776 70.124 35.832 70.124 35.932V36C70.121 36.0603 70.1037 36.119 70.0734 36.1712C70.0432 36.2233 70.0008 36.2675 69.95 36.3L67.856 37.5C67.76 37.556 67.682 37.51 67.682 37.4V37.33C67.6857 37.2702 67.7034 37.2121 67.7336 37.1604C67.7639 37.1086 67.8058 37.0647 67.856 37.032Z" fill="#EBEBEB"/>
<path d="M67.856 37.9701L69.95 36.7701C70.046 36.7161 70.124 36.7701 70.124 36.8701V36.9381C70.1206 36.9983 70.103 37.0568 70.0728 37.1089C70.0426 37.161 70.0005 37.2053 69.95 37.2381L67.856 38.4381C67.76 38.4941 67.682 38.4501 67.682 38.3381V38.2701C67.6853 38.2099 67.7028 38.1514 67.733 38.0992C67.7632 38.0471 67.8054 38.0029 67.856 37.9701Z" fill="#EBEBEB"/>
<path d="M67.856 38.906L69.95 37.706C70.046 37.65 70.124 37.706 70.124 37.806V37.872C70.1207 37.9322 70.1033 37.9908 70.073 38.0429C70.0428 38.0951 70.0006 38.1393 69.95 38.172L67.856 39.372C67.76 39.426 67.682 39.382 67.682 39.272V39.2C67.6864 39.1409 67.7043 39.0836 67.7345 39.0326C67.7647 38.9816 67.8063 38.9383 67.856 38.906Z" fill="#EBEBEB"/>
<path d="M67.856 39.844L71.336 37.844C71.432 37.788 71.51 37.834 71.51 37.944V38C71.5066 38.0601 71.489 38.1186 71.4588 38.1707C71.4286 38.2229 71.3865 38.2671 71.336 38.3L67.856 40.3C67.76 40.356 67.682 40.31 67.682 40.2V40.132C67.6868 40.0738 67.705 40.0175 67.7352 39.9676C67.7654 39.9176 67.8067 39.8753 67.856 39.844Z" fill="#EBEBEB"/>
<path d="M67.856 40.7801L71.336 38.7801C71.432 38.7261 71.51 38.7701 71.51 38.8801V38.9481C71.5066 39.0083 71.489 39.0668 71.4588 39.1189C71.4286 39.171 71.3865 39.2153 71.336 39.2481L67.856 41.2481C67.76 41.3021 67.682 41.2581 67.682 41.1481V41.0781C67.6857 41.0183 67.7034 40.9602 67.7336 40.9085C67.7639 40.8567 67.8058 40.8128 67.856 40.7801Z" fill="#EBEBEB"/>
<path d="M60.124 57.566V57.88C60.124 58.032 60.232 58.094 60.366 58.018L64.4 55.69C64.4704 55.6448 64.5291 55.5835 64.5712 55.5112C64.6133 55.4389 64.6375 55.3576 64.642 55.274V54.96C64.642 54.808 64.534 54.746 64.4 54.822L60.37 57.15C60.2989 57.1948 60.2394 57.2559 60.1966 57.3282C60.1538 57.4006 60.129 57.4821 60.124 57.566Z" fill="#E0E0E0"/>
<path d="M60.226 50.6961L64.4 48.2821C64.59 48.1721 64.746 48.2621 64.746 48.4821V53.3101C64.7391 53.4301 64.7043 53.547 64.6442 53.6512C64.5841 53.7553 64.5005 53.844 64.4 53.9101L60.218 56.3241C60.018 56.4341 59.8719 56.3461 59.8719 56.1241V51.2961C59.8792 51.1751 59.915 51.0577 59.9766 50.9534C60.0381 50.849 60.1236 50.7608 60.226 50.6961Z" fill="#FAFAFA"/>
<path d="M60.07 56.4722C60.021 56.4726 59.9727 56.4602 59.93 56.4362C59.8797 56.4021 59.8392 56.3552 59.8129 56.3004C59.7865 56.2456 59.7752 56.1848 59.78 56.1242V51.2962C59.787 51.1582 59.8269 51.0239 59.8965 50.9045C59.9661 50.7852 60.0633 50.6842 60.18 50.6102L64.358 48.2002C64.4066 48.1629 64.4652 48.1409 64.5263 48.1369C64.5874 48.1329 64.6484 48.1471 64.7014 48.1777C64.7545 48.2083 64.7973 48.2539 64.8245 48.3088C64.8516 48.3637 64.8619 48.4254 64.854 48.4862V53.3142C64.847 53.4522 64.8071 53.5865 64.7375 53.7059C64.6679 53.8252 64.5707 53.9262 64.454 54.0002L60.272 56.4142C60.2106 56.4503 60.1412 56.4702 60.07 56.4722ZM64.562 48.3342C64.525 48.3365 64.4892 48.3482 64.458 48.3682L60.276 50.7842C60.1901 50.8405 60.1186 50.9162 60.0672 51.0051C60.0158 51.094 59.986 51.1937 59.98 51.2962V56.1242C59.9692 56.1503 59.9682 56.1795 59.9774 56.2062C59.9865 56.233 60.0051 56.2555 60.0297 56.2695C60.0543 56.2835 60.0831 56.288 60.1108 56.2823C60.1384 56.2765 60.1631 56.2608 60.18 56.2382L64.362 53.8242C64.4475 53.767 64.5187 53.6909 64.57 53.6017C64.6213 53.5126 64.6514 53.4128 64.658 53.3102V48.4822C64.661 48.4567 64.6579 48.4309 64.6489 48.4068C64.6398 48.3828 64.6251 48.3613 64.606 48.3442C64.5925 48.3369 64.5773 48.3334 64.562 48.3342Z" fill="#EBEBEB"/>
<path d="M64.9 48.9342L63.968 49.4722C63.8669 49.5377 63.7827 49.6263 63.7222 49.7305C63.6617 49.8348 63.6267 49.9518 63.62 50.0722V51.1482C63.62 51.3702 63.776 51.4582 63.968 51.3482L64.9 50.8102C65.0007 50.7444 65.0846 50.6557 65.1447 50.5515C65.2048 50.4473 65.2395 50.3303 65.246 50.2102V49.1342C65.246 48.9142 65.09 48.8242 64.9 48.9342Z" fill="#00AAA9"/>
<path d="M60.544 51.2182L62.64 50.0182C62.734 49.9642 62.812 50.0082 62.812 50.1182V50.1862C62.8085 50.2461 62.7911 50.3043 62.7613 50.3564C62.7314 50.4084 62.6899 50.4529 62.64 50.4862L60.544 51.6862C60.448 51.7422 60.37 51.6982 60.372 51.5862V51.5182C60.3749 51.4581 60.392 51.3996 60.4219 51.3475C60.4518 51.2953 60.4936 51.251 60.544 51.2182Z" fill="#EBEBEB"/>
<path d="M60.544 52.1541L62.64 50.9541C62.734 50.8981 62.812 50.9441 62.812 51.0541V51.1201C62.8088 51.1801 62.7915 51.2384 62.7617 51.2905C62.7318 51.3426 62.6901 51.387 62.64 51.4201L60.544 52.6201C60.448 52.6741 60.37 52.6301 60.372 52.5201V52.4501C60.3757 52.3908 60.3931 52.3331 60.423 52.2817C60.4528 52.2304 60.4943 52.1866 60.544 52.1541Z" fill="#EBEBEB"/>
<path d="M60.544 53.0922L62.64 51.8922C62.734 51.8382 62.812 51.8822 62.812 51.9922V52.0602C62.8085 52.1201 62.7911 52.1783 62.7613 52.2304C62.7314 52.2825 62.6899 52.3269 62.64 52.3602L60.544 53.5602C60.448 53.6162 60.37 53.5702 60.372 53.4602V53.4002C60.3733 53.3387 60.3896 53.2785 60.4196 53.2248C60.4496 53.1711 60.4923 53.1255 60.544 53.0922Z" fill="#EBEBEB"/>
<path d="M60.544 54.0282L64.024 52.0282C64.12 51.9742 64.198 52.0182 64.198 52.1282V52.2002C64.1946 52.2603 64.177 52.3188 64.1468 52.3709C64.1166 52.423 64.0745 52.4673 64.024 52.5002L60.544 54.5002C60.448 54.5542 60.37 54.5102 60.372 54.4002V54.3302C60.3747 54.2698 60.3918 54.211 60.4217 54.1585C60.4516 54.106 60.4935 54.0613 60.544 54.0282Z" fill="#EBEBEB"/>
<path d="M60.544 54.9662L64.024 52.9662C64.12 52.9102 64.198 52.9542 64.198 53.0662V53.1322C64.1946 53.1923 64.177 53.2508 64.1468 53.3029C64.1166 53.3551 64.0745 53.3993 64.024 53.4322L60.544 55.4322C60.448 55.4882 60.37 55.4422 60.372 55.3322V55.2642C60.3749 55.2044 60.392 55.1462 60.4219 55.0943C60.4518 55.0425 60.4937 54.9986 60.544 54.9662Z" fill="#EBEBEB"/>
<path d="M67.436 53.3441V53.6581C67.436 53.8121 67.544 53.8741 67.676 53.7961L71.708 51.4701C71.7781 51.4242 71.8364 51.3624 71.8781 51.2898C71.9198 51.2172 71.9438 51.1357 71.948 51.0521V50.7401C71.948 50.5861 71.842 50.5241 71.708 50.6001L67.676 52.9281C67.6064 52.974 67.5485 53.0355 67.5068 53.1077C67.4652 53.1799 67.4409 53.2608 67.436 53.3441Z" fill="#E0E0E0"/>
<path d="M67.5379 46.4761L71.7179 44.0621C71.9179 43.9501 72.0659 44.0401 72.0659 44.2621V49.0881C72.0594 49.2085 72.0244 49.3256 71.964 49.4299C71.9035 49.5341 71.8192 49.6226 71.7179 49.6881L67.5379 52.1041C67.3379 52.2141 67.1899 52.1241 67.1899 51.9041V47.0761C67.1965 46.9557 67.2314 46.8386 67.2919 46.7343C67.3524 46.6301 67.4367 46.5416 67.5379 46.4761Z" fill="#FAFAFA"/>
<path d="M67.382 52.2501C67.333 52.2506 67.2847 52.2382 67.242 52.2141C67.1915 52.1806 67.1507 52.1342 67.124 52.0797C67.0973 52.0252 67.0856 51.9646 67.09 51.9041V47.0761C67.0965 46.9378 67.1362 46.803 67.2059 46.6832C67.2755 46.5634 67.373 46.4622 67.49 46.3881L71.67 43.9741C71.7187 43.936 71.7777 43.9133 71.8395 43.909C71.9012 43.9046 71.9628 43.9189 72.0163 43.9498C72.0699 43.9808 72.113 44.0271 72.14 44.0828C72.167 44.1384 72.1768 44.2009 72.168 44.2621V49.0881C72.1615 49.2265 72.1218 49.3613 72.0522 49.4811C71.9825 49.6008 71.8851 49.702 71.768 49.7761L67.588 52.2001C67.5248 52.2342 67.4538 52.2514 67.382 52.2501ZM67.582 46.5621C67.4959 46.6188 67.4241 46.6947 67.3723 46.7839C67.3206 46.8732 67.2904 46.9732 67.284 47.0761V51.9041C67.2806 51.9293 67.2836 51.955 67.2927 51.9788C67.3018 52.0025 67.3167 52.0236 67.336 52.0401C67.3604 52.0487 67.3866 52.051 67.4121 52.0468C67.4376 52.0426 67.4617 52.0321 67.482 52.0161L71.668 49.6001C71.7542 49.5435 71.826 49.4675 71.8777 49.3783C71.9294 49.2891 71.9597 49.1891 71.966 49.0861V44.2621C71.9769 44.236 71.9778 44.2069 71.9687 44.1801C71.9595 44.1533 71.9409 44.1309 71.9163 44.1169C71.8918 44.1029 71.8629 44.0983 71.8353 44.1041C71.8076 44.1098 71.783 44.1255 71.766 44.1481L67.582 46.5621Z" fill="#EBEBEB"/>
<path d="M72.21 44.7141L71.278 45.2521C71.1773 45.3179 71.0934 45.4065 71.0333 45.5108C70.9732 45.615 70.9385 45.7319 70.932 45.8521V46.9281C70.932 47.1481 71.088 47.2381 71.278 47.1281L72.21 46.5901C72.3109 46.5243 72.3949 46.4357 72.4554 46.3315C72.5158 46.2273 72.551 46.1104 72.558 45.9901V44.9141C72.558 44.6921 72.4 44.6001 72.21 44.7141Z" fill="#00AAA9"/>
<path d="M67.856 47L69.95 45.8C70.046 45.744 70.124 45.79 70.124 45.9V45.966C70.1207 46.0262 70.1033 46.0848 70.073 46.1369C70.0428 46.1891 70.0006 46.2333 69.95 46.266L67.856 47.466C67.76 47.52 67.682 47.466 67.682 47.366V47.296C67.6861 47.2366 67.7039 47.1789 67.7341 47.1275C67.7643 47.0761 67.806 47.0325 67.856 47Z" fill="#EBEBEB"/>
<path d="M67.856 47.934L69.95 46.734C70.046 46.68 70.124 46.734 70.124 46.834V46.902C70.1206 46.9621 70.103 47.0206 70.0728 47.0728C70.0426 47.1249 70.0005 47.1691 69.95 47.202L67.856 48.402C67.76 48.458 67.682 48.412 67.682 48.302V48.234C67.685 48.1737 67.7023 48.115 67.7326 48.0629C67.7628 48.0107 67.8052 47.9665 67.856 47.934Z" fill="#EBEBEB"/>
<path d="M67.856 48.87L69.95 47.67C70.046 47.614 70.124 47.658 70.124 47.77V47.836C70.1206 47.8962 70.103 47.9547 70.0728 48.0068C70.0426 48.0589 70.0005 48.1032 69.95 48.136L67.856 49.336C67.76 49.39 67.682 49.346 67.682 49.236V49.166C67.6861 49.1066 67.7039 49.0489 67.7341 48.9975C67.7643 48.9461 67.806 48.9025 67.856 48.87Z" fill="#EBEBEB"/>
<path d="M67.856 49.8002L71.336 47.8002C71.432 47.7442 71.51 47.7882 71.51 47.9002V47.9662C71.5066 48.0263 71.489 48.0848 71.4588 48.1369C71.4286 48.189 71.3865 48.2333 71.336 48.2662L67.856 50.2662C67.76 50.3222 67.682 50.2762 67.682 50.1662V50.0982C67.6853 50.0382 67.7028 49.98 67.733 49.9281C67.7633 49.8763 67.8054 49.8324 67.856 49.8002Z" fill="#EBEBEB"/>
<path d="M67.856 50.7441L71.336 48.7441C71.432 48.6881 71.51 48.7341 71.51 48.8441V48.9101C71.507 48.9704 71.4897 49.0291 71.4594 49.0813C71.4292 49.1335 71.3868 49.1776 71.336 49.2101L67.856 51.2101C67.76 51.2641 67.682 51.2201 67.682 51.1101V51.0401C67.6861 50.9807 67.7039 50.923 67.7341 50.8716C67.7643 50.8202 67.806 50.7766 67.856 50.7441Z" fill="#EBEBEB"/>
<path d="M45.1799 66.2002V66.5122C45.1799 66.6662 45.2879 66.7282 45.4219 66.6522L49.4519 64.3242C49.5222 64.2789 49.5808 64.2175 49.6229 64.1452C49.6649 64.0729 49.6893 63.9917 49.6939 63.9082V63.6002C49.6939 63.4462 49.5859 63.3842 49.4519 63.4622L45.4219 65.7882C45.3524 65.8333 45.2943 65.8941 45.2523 65.9656C45.2103 66.0371 45.1855 66.1174 45.1799 66.2002Z" fill="#E0E0E0"/>
<path d="M45.282 59.33L49.464 56.916C49.664 56.806 49.81 56.894 49.81 57.116V61.944C49.8031 62.064 49.7682 62.1808 49.7081 62.2849C49.648 62.3891 49.5645 62.4778 49.464 62.544L45.282 64.958C45.082 65.068 44.936 64.978 44.936 64.758V59.93C44.9422 59.8097 44.9768 59.6927 45.0369 59.5884C45.0971 59.4841 45.1811 59.3955 45.282 59.33Z" fill="#FAFAFA"/>
<path d="M45.1259 65.104C45.0769 65.1045 45.0286 65.092 44.9859 65.068C44.9356 65.0344 44.8952 64.9879 44.8688 64.9334C44.8424 64.8789 44.8311 64.8183 44.8359 64.758V59.93C44.8429 59.792 44.8829 59.6577 44.9525 59.5383C45.0221 59.419 45.1193 59.318 45.2359 59.244L49.4179 56.83C49.4663 56.7917 49.5251 56.7688 49.5866 56.7643C49.6481 56.7597 49.7096 56.7738 49.763 56.8046C49.8165 56.8354 49.8594 56.8816 49.8863 56.9371C49.9133 56.9926 49.9229 57.0549 49.9139 57.116V61.944C49.907 62.082 49.867 62.2163 49.7974 62.3357C49.7278 62.455 49.6306 62.556 49.5139 62.63L45.3319 65.044C45.2697 65.0816 45.1987 65.1023 45.1259 65.104ZM45.3319 59.416C45.2461 59.4729 45.1747 59.5489 45.1234 59.6381C45.072 59.7273 45.0421 59.8272 45.0359 59.93V64.758C45.0251 64.7841 45.0242 64.8133 45.0333 64.84C45.0425 64.8668 45.0611 64.8893 45.0856 64.9033C45.1102 64.9173 45.139 64.9218 45.1667 64.9161C45.1944 64.9103 45.219 64.8946 45.2359 64.872L49.4179 62.456C49.5034 62.3992 49.5745 62.3235 49.6259 62.2346C49.6772 62.1458 49.7074 62.0464 49.7139 61.944V57.116C49.7248 57.0899 49.7257 57.0607 49.7166 57.034C49.7074 57.0072 49.6888 56.9847 49.6643 56.9707C49.6397 56.9567 49.6109 56.9522 49.5832 56.9579C49.5555 56.9637 49.5309 56.9794 49.5139 57.002L45.3319 59.416Z" fill="#EBEBEB"/>
<path d="M49.956 57.5681L49.024 58.1061C48.9228 58.1715 48.8385 58.26 48.778 58.3643C48.7175 58.4686 48.6826 58.5857 48.676 58.7061V59.7821C48.676 60.0021 48.832 60.0921 49.024 59.9821L49.956 59.4441C50.0566 59.378 50.1402 59.2894 50.2003 59.1852C50.2604 59.081 50.2952 58.9641 50.302 58.8441V57.7681C50.302 57.5461 50.146 57.4581 49.956 57.5681Z" fill="#00AAA9"/>
<path d="M45.6 59.8521L47.696 58.6521C47.79 58.5961 47.868 58.6421 47.868 58.7521V58.8181C47.8649 58.8781 47.8478 58.9365 47.8179 58.9887C47.788 59.0408 47.7462 59.0851 47.696 59.1181L45.6 60.3181C45.504 60.3741 45.428 60.3181 45.428 60.2181V60.1501C45.4309 60.0903 45.448 60.0321 45.4779 59.9803C45.5078 59.9284 45.5497 59.8845 45.6 59.8521Z" fill="#EBEBEB"/>
<path d="M45.6 60.7882L47.696 59.5882C47.79 59.5342 47.868 59.5782 47.868 59.6902V59.7562C47.8645 59.8161 47.8471 59.8743 47.8172 59.9264C47.7874 59.9784 47.7459 60.0229 47.696 60.0562L45.6 61.2562C45.504 61.3102 45.428 61.2562 45.428 61.1562V61.0862C45.4313 61.0265 45.4487 60.9685 45.4785 60.9167C45.5084 60.865 45.55 60.8209 45.6 60.7882Z" fill="#EBEBEB"/>
<path d="M45.6 61.7261L47.696 60.5261C47.79 60.4701 47.868 60.5161 47.868 60.6261V60.6921C47.8649 60.7521 47.8478 60.8106 47.8179 60.8627C47.788 60.9148 47.7462 60.9592 47.696 60.9921L45.6 62.2001C45.504 62.2561 45.428 62.2001 45.428 62.1001V62.0301C45.4299 61.9693 45.4466 61.9099 45.4765 61.8569C45.5065 61.804 45.5489 61.7591 45.6 61.7261Z" fill="#EBEBEB"/>
<path d="M45.6 62.6621L49.08 60.6621C49.176 60.6061 49.254 60.6621 49.254 60.7621V60.8281C49.251 60.8884 49.2337 60.947 49.2034 60.9992C49.1731 61.0514 49.1308 61.0956 49.08 61.1281L45.6 63.1281C45.504 63.1841 45.428 63.1401 45.428 63.0281V62.9601C45.4313 62.9004 45.4487 62.8424 45.4785 62.7906C45.5084 62.7389 45.55 62.6949 45.6 62.6621Z" fill="#EBEBEB"/>
<path d="M45.6 63.6002L49.08 61.6002C49.176 61.5462 49.254 61.6002 49.254 61.7002V61.7682C49.2505 61.8283 49.233 61.8868 49.2028 61.939C49.1725 61.9911 49.1305 62.0353 49.08 62.0682L45.6 64.0682C45.504 64.1222 45.428 64.0782 45.428 63.9682V63.8982C45.4313 63.8385 45.4487 63.7805 45.4785 63.7287C45.5084 63.677 45.55 63.633 45.6 63.6002Z" fill="#EBEBEB"/>
<path d="M52.4919 61.9781V62.2921C52.4919 62.4441 52.5999 62.5081 52.7319 62.4301L56.7639 60.1021C56.8342 60.0569 56.8927 59.9956 56.9344 59.9232C56.9762 59.8508 57 59.7695 57.0039 59.6861V59.3741C57.0039 59.2201 56.8979 59.1581 56.7639 59.2341L52.7319 61.5621C52.6622 61.6079 52.6042 61.6693 52.5625 61.7416C52.5209 61.8138 52.4967 61.8948 52.4919 61.9781Z" fill="#E0E0E0"/>
<path d="M52.6 55.1082L56.78 52.6942C56.98 52.5842 57.128 52.6742 57.128 52.8942V57.7222C57.1214 57.8425 57.0864 57.9597 57.026 58.0639C56.9655 58.1682 56.8812 58.2567 56.78 58.3222L52.6 60.7362C52.4 60.8482 52.252 60.7582 52.252 60.5362V55.7082C52.259 55.5879 52.2941 55.471 52.3546 55.3668C52.415 55.2626 52.4991 55.174 52.6 55.1082Z" fill="#FAFAFA"/>
<path d="M52.438 60.8841C52.389 60.8846 52.3407 60.8722 52.298 60.8481C52.2475 60.8141 52.2068 60.7673 52.1801 60.7125C52.1534 60.6578 52.1417 60.5969 52.146 60.5361V55.7081C52.1532 55.5701 52.1932 55.4359 52.2628 55.3166C52.3324 55.1972 52.4295 55.0963 52.546 55.0221L56.724 52.6001C56.7726 52.5622 56.8314 52.5396 56.8929 52.5352C56.9544 52.5308 57.0158 52.5449 57.0692 52.5756C57.1227 52.6063 57.1658 52.6522 57.193 52.7075C57.2202 52.7629 57.2303 52.825 57.222 52.8861V57.7141C57.2156 57.8522 57.1758 57.9867 57.1062 58.1062C57.0365 58.2256 56.939 58.3265 56.822 58.4001L52.642 60.8161C52.5811 60.8562 52.5108 60.8796 52.438 60.8841ZM56.93 52.7481C56.8922 52.7492 56.8554 52.761 56.824 52.7821L52.644 55.2001C52.558 55.2564 52.4863 55.332 52.4346 55.4209C52.3828 55.5098 52.3525 55.6095 52.346 55.7121V60.5401C52.3425 60.5656 52.3454 60.5916 52.3544 60.6157C52.3635 60.6398 52.3785 60.6613 52.398 60.6781C52.4225 60.6862 52.4486 60.6882 52.474 60.684C52.4994 60.6798 52.5234 60.6696 52.544 60.6541L56.724 58.2401C56.8101 58.1833 56.8818 58.1074 56.9335 58.0182C56.9852 57.929 57.0155 57.829 57.022 57.7261V52.8941C57.0251 52.8686 57.0219 52.8428 57.0129 52.8188C57.0038 52.7947 56.9891 52.7733 56.97 52.7561C56.9575 52.7504 56.9438 52.7477 56.93 52.7481Z" fill="#EBEBEB"/>
<path d="M57.266 53.346L56.334 53.884C56.2336 53.9502 56.15 54.0389 56.09 54.143C56.0299 54.2472 55.995 54.364 55.988 54.484V55.56C55.988 55.782 56.144 55.872 56.334 55.76L57.266 55.222C57.3673 55.1566 57.4516 55.0681 57.512 54.9638C57.5725 54.8595 57.6075 54.7424 57.614 54.622V53.546C57.614 53.326 57.458 53.236 57.266 53.346Z" fill="#00AAA9"/>
<path d="M52.912 55.63L55.006 54.43C55.102 54.376 55.18 54.42 55.18 54.532V54.6C55.1766 54.6601 55.1591 54.7186 55.1288 54.7707C55.0986 54.8229 55.0565 54.8671 55.006 54.9L52.912 56.1C52.816 56.154 52.738 56.11 52.738 55.998V55.93C52.7415 55.8698 52.759 55.8113 52.7892 55.7592C52.8195 55.7071 52.8615 55.6628 52.912 55.63Z" fill="#EBEBEB"/>
<path d="M52.912 56.5682L55.006 55.3682C55.102 55.3122 55.18 55.3582 55.18 55.4682V55.5342C55.1771 55.5944 55.1597 55.6531 55.1295 55.7053C55.0992 55.7575 55.0569 55.8017 55.006 55.8342L52.912 57.0342C52.816 57.0902 52.738 57.0442 52.738 56.9342V56.8642C52.7416 56.8046 52.7592 56.7467 52.7895 56.6953C52.8197 56.6438 52.8617 56.6003 52.912 56.5682Z" fill="#EBEBEB"/>
<path d="M52.912 57.504L55.006 56.304C55.102 56.25 55.18 56.294 55.18 56.404V56.472C55.1766 56.5322 55.1591 56.5907 55.1288 56.6428C55.0986 56.6949 55.0565 56.7392 55.006 56.772L52.912 57.972C52.816 58.028 52.738 57.984 52.738 57.872V57.8C52.7421 57.7406 52.7599 57.6829 52.7901 57.6315C52.8203 57.5801 52.8621 57.5365 52.912 57.504Z" fill="#EBEBEB"/>
<path d="M52.912 58.44L56.392 56.44C56.488 56.386 56.566 56.43 56.566 56.54V56.6C56.5626 56.6602 56.5451 56.7187 56.5148 56.7708C56.4846 56.8229 56.4425 56.8672 56.392 56.9L52.912 58.9C52.816 58.954 52.738 58.91 52.738 58.8V58.73C52.743 58.6716 52.7612 58.6151 52.7914 58.5648C52.8216 58.5146 52.8628 58.4719 52.912 58.44Z" fill="#EBEBEB"/>
<path d="M52.912 59.3782L56.392 57.3782C56.488 57.3222 56.566 57.3682 56.566 57.4782V57.5442C56.5628 57.6043 56.5453 57.6629 56.515 57.715C56.4848 57.7672 56.4426 57.8114 56.392 57.8442L52.912 59.8442C52.816 59.9002 52.738 59.8442 52.738 59.7442V59.6762C52.7413 59.6162 52.7588 59.558 52.789 59.5061C52.8193 59.4543 52.8615 59.4105 52.912 59.3782Z" fill="#EBEBEB"/>
<path d="M33.5622 40.3822L32.7502 39.9082V43.6622L33.5622 44.1322V40.3822Z" fill="#00AAA9"/>
<path opacity="0.1" d="M33.5622 40.3822L32.7502 39.9082V43.6622L33.5622 44.1322V40.3822Z" fill="black"/>
<path d="M81.5461 55.894C81.4536 55.8521 81.3517 55.8352 81.2506 55.845C81.1495 55.8548 81.0528 55.891 80.9701 55.95C80.7341 56.1033 80.5374 56.3098 80.3956 56.553C80.2539 56.7961 80.1712 57.0691 80.1541 57.35C80.1434 57.451 80.1596 57.553 80.201 57.6457C80.2425 57.7385 80.3077 57.8186 80.3901 57.878L90.5141 64.278C90.7141 64.418 91.0161 64.41 91.3461 64.22C91.6777 64.0053 91.954 63.7153 92.1525 63.3737C92.3509 63.0321 92.4659 62.6484 92.4881 62.254C92.4881 61.874 92.3481 61.612 92.1241 61.502L81.5461 55.894Z" fill="#00AAA9"/>
<path opacity="0.15" d="M80.1541 57.358C80.1541 57.876 80.5161 58.088 80.9661 57.83C81.202 57.6767 81.3988 57.4702 81.5405 57.227C81.6822 56.9839 81.765 56.7109 81.7821 56.43C81.7821 55.912 81.4201 55.7 80.9701 55.958C80.7341 56.1113 80.5373 56.3179 80.3956 56.561C80.2539 56.8041 80.1712 57.0771 80.1541 57.358Z" fill="black"/>
<path d="M77.9141 54.5479C77.7704 54.6409 77.6508 54.7666 77.565 54.9147C77.4791 55.0627 77.4295 55.229 77.4201 55.3999C77.4137 55.4607 77.4235 55.5221 77.4485 55.5779C77.4734 55.6337 77.5126 55.682 77.5621 55.7179L80.6181 57.4919C80.6735 57.5177 80.7349 57.5281 80.7957 57.5221C80.8566 57.5161 80.9147 57.494 80.9641 57.4579C81.1093 57.3648 81.23 57.2384 81.3163 57.0891C81.4026 56.9399 81.4519 56.7721 81.4601 56.5999C81.4672 56.5387 81.4578 56.4767 81.4328 56.4205C81.4079 56.3642 81.3682 56.3156 81.3181 56.2799L78.2621 54.5059C78.2056 54.4813 78.1436 54.4722 78.0824 54.4795C78.0212 54.4869 77.9631 54.5105 77.9141 54.5479Z" fill="#263238"/>
<path opacity="0.1" d="M81.3481 57.498L91.7641 63.898C91.6407 64.026 91.5008 64.137 91.3481 64.2281C91.0181 64.4181 90.7221 64.428 90.5141 64.286L80.3921 57.886C80.4841 57.9286 80.5858 57.9458 80.6867 57.936C80.7876 57.9262 80.884 57.8896 80.9661 57.83C81.1115 57.7421 81.2407 57.6298 81.3481 57.498Z" fill="black"/>
<path d="M83.0961 48.3859C83.0961 48.2999 83.0961 48.2179 83.0841 48.1339C83.0721 48.0499 83.0741 47.9679 83.0641 47.8859C83.0541 47.8039 83.0541 47.7779 83.0481 47.7239C83.0341 47.5799 83.0121 47.4399 82.9901 47.3059C82.9781 47.2459 82.9681 47.1819 82.9561 47.1219C82.9441 47.0619 82.9321 47.0079 82.9201 46.9499C82.8841 46.7959 82.8481 46.6439 82.8041 46.4999C82.7801 46.4319 82.7601 46.3619 82.7361 46.2999C82.7322 46.2895 82.7288 46.2788 82.7261 46.2679C82.7001 46.1999 82.6781 46.1359 82.6521 46.0679C82.6251 45.9944 82.5944 45.9223 82.5601 45.8519C82.5383 45.7993 82.5136 45.7479 82.4861 45.6979C82.4718 45.6602 82.4537 45.624 82.4321 45.5899C82.4121 45.5459 82.3881 45.5019 82.3641 45.4599L82.3461 45.4299C82.3261 45.3919 82.3021 45.3559 82.2801 45.3179C82.2581 45.2799 82.2481 45.2699 82.2341 45.2459C82.1263 45.0771 82.006 44.9167 81.8741 44.7659C81.8501 44.7419 81.8281 44.7159 81.8061 44.6919C81.7841 44.6679 81.7681 44.6519 81.7501 44.6319L81.6761 44.5599C81.608 44.4885 81.5352 44.4217 81.4581 44.3599C81.4232 44.3291 81.3865 44.3004 81.3481 44.2739C81.3101 44.2439 81.2721 44.2159 81.2321 44.1899C81.1726 44.1456 81.1105 44.1048 81.0461 44.0679L80.9961 44.0359H80.9861L78.7861 42.7579L78.7701 42.7479C78.2007 42.4304 77.558 42.2677 76.9061 42.2759C75.9341 42.2759 74.8381 42.5959 73.6761 43.2659C69.6761 45.5699 66.4481 51.1739 66.4481 55.7859C66.4481 58.0839 67.2481 59.6999 68.5521 60.4579H68.5641L70.7641 61.7339H70.7761L70.8121 61.7539C70.8701 61.7859 70.9261 61.8159 70.9841 61.8439C71.0421 61.8719 71.1281 61.9099 71.2021 61.9399C71.2761 61.9699 71.3341 61.9919 71.4021 62.0119C71.4373 62.0253 71.4734 62.036 71.5101 62.0439C71.5469 62.0589 71.5851 62.0703 71.6241 62.0779L71.7421 62.1079C71.7704 62.1158 71.7991 62.1219 71.8281 62.1259L71.9841 62.1539H72.0201L72.2081 62.1779C73.2861 62.2919 74.5381 61.9879 75.8781 61.2159C79.8781 58.9099 83.1061 53.3039 83.1061 48.6959C83.1021 48.5999 83.1001 48.4959 83.0961 48.3859ZM78.2541 45.1259C78.4106 45.6993 78.4873 46.2916 78.4821 46.8859C78.4821 50.9519 75.5061 56.1039 71.9861 58.1359C71.4722 58.4419 70.9173 58.6729 70.3381 58.8219C70.1815 58.2479 70.1048 57.655 70.1101 57.0599C70.1101 52.9939 73.0841 47.8419 76.6061 45.8099C77.1199 45.5042 77.6749 45.2739 78.2541 45.1259Z" fill="#00AAA9"/>
<path opacity="0.1" d="M70.66 61.684L68.54 60.456C67.24 59.696 66.436 58.078 66.436 55.784C66.436 53.728 67.08 51.476 68.146 49.406L70.346 50.684C69.278 52.752 68.634 55.006 68.634 57.062C68.642 59.31 69.4 60.904 70.66 61.684Z" fill="black"/>
<path opacity="0.4" d="M83.096 48.3859C83.096 48.2999 83.096 48.2179 83.084 48.1339C83.072 48.0499 83.074 47.9679 83.064 47.8859C83.054 47.8039 83.054 47.7779 83.048 47.7239C83.034 47.5799 83.012 47.4399 82.99 47.3059C82.978 47.2459 82.968 47.1819 82.956 47.1219C82.944 47.0619 82.932 47.0079 82.92 46.9499C82.884 46.7959 82.848 46.6439 82.804 46.4999C82.78 46.4319 82.76 46.3619 82.736 46.2999C82.732 46.2894 82.7287 46.2787 82.726 46.2679C82.7 46.1999 82.678 46.1359 82.652 46.0679C82.625 45.9944 82.5943 45.9223 82.56 45.8519C82.5382 45.7992 82.5135 45.7478 82.486 45.6979C82.4717 45.6601 82.4536 45.624 82.432 45.5899C82.412 45.5459 82.388 45.5019 82.364 45.4599L82.346 45.4299C82.326 45.3919 82.302 45.3559 82.28 45.3179C82.258 45.2799 82.248 45.2699 82.234 45.2459C82.1262 45.0771 82.0059 44.9166 81.874 44.7659C81.85 44.7419 81.828 44.7159 81.806 44.6919C81.784 44.6679 81.768 44.6519 81.75 44.6319L81.676 44.5599C81.6079 44.4884 81.5351 44.4216 81.458 44.3599C81.4231 44.329 81.3864 44.3003 81.348 44.2739C81.31 44.2439 81.272 44.2159 81.232 44.1899C81.1725 44.1455 81.1104 44.1048 81.046 44.0679C79.734 43.2679 77.846 43.2879 75.874 44.5339C71.912 47.0299 68.664 52.5639 68.644 57.0539C68.634 59.3899 69.472 61.0199 70.81 61.7619C70.868 61.7939 70.924 61.8239 70.982 61.8519C71.04 61.8799 71.126 61.9179 71.2 61.9479C71.274 61.9779 71.332 61.9999 71.4 62.0199C71.4351 62.0333 71.4712 62.044 71.508 62.0519C71.5448 62.0669 71.583 62.0782 71.622 62.0859L71.74 62.1159C71.7682 62.1238 71.797 62.1298 71.826 62.1339L71.982 62.1619H72.018L72.206 62.1859C73.284 62.2999 74.536 61.9959 75.876 61.2239C79.876 58.9179 83.104 53.3119 83.104 48.7039C83.102 48.5999 83.1 48.4959 83.096 48.3859ZM75.14 59.9659C74.244 60.4839 73.382 60.7559 72.644 60.7559C71.26 60.7559 70.624 59.8119 70.338 58.8219C70.1814 58.2478 70.1047 57.6549 70.11 57.0599C70.11 52.9939 73.084 47.8419 76.606 45.8099C77.1198 45.5041 77.6748 45.2738 78.254 45.1259C78.5316 45.0579 78.8162 45.0223 79.102 45.0199C81.39 45.0199 81.634 47.6039 81.634 48.7159C81.634 52.7819 78.662 57.9339 75.14 59.9659Z" fill="white"/>
<path opacity="0.1" d="M81.6341 48.716C81.6341 52.78 78.6621 57.934 75.1401 59.966C74.2441 60.484 73.3821 60.756 72.6461 60.756C72.3244 60.7689 72.004 60.7085 71.7091 60.5792C71.4142 60.45 71.1526 60.2553 70.9441 60.01C70.9081 59.968 70.8741 59.924 70.8401 59.88C70.8061 59.836 70.7741 59.79 70.7461 59.742C70.7235 59.7092 70.7028 59.6752 70.6841 59.64C70.6701 59.618 70.6561 59.596 70.6441 59.574C70.6321 59.552 70.6161 59.518 70.6001 59.49C70.5841 59.462 70.5741 59.438 70.5621 59.412C70.5501 59.386 70.5361 59.36 70.5241 59.332L70.4641 59.188C70.4401 59.128 70.4181 59.068 70.3981 59.006C70.3781 58.944 70.3561 58.884 70.3401 58.822C70.9193 58.673 71.4742 58.442 71.9881 58.136C75.5081 56.104 78.4841 50.952 78.4841 46.886C78.4893 46.2917 78.4126 45.6994 78.2561 45.126C78.5337 45.058 78.8183 45.0225 79.1041 45.02C79.2157 45.0204 79.3272 45.0271 79.4381 45.04L79.5421 45.056C81.4201 45.368 81.6341 47.68 81.6341 48.716Z" fill="black"/>
<path opacity="0.7" d="M80.37 47.9999C80.37 52.0659 77.398 57.2179 73.876 59.2499C72.98 59.7679 72.118 60.0499 71.38 60.0499C71.2332 60.0505 71.0867 60.0385 70.942 60.0139C70.906 59.9719 70.872 59.9279 70.838 59.8839C70.804 59.8399 70.772 59.7939 70.744 59.7459C70.7215 59.7131 70.7008 59.6791 70.682 59.6439C70.668 59.6219 70.654 59.5999 70.642 59.5779C70.63 59.5559 70.614 59.5219 70.598 59.4939C70.582 59.4659 70.572 59.4419 70.56 59.4159C70.548 59.3899 70.534 59.3639 70.522 59.3359L70.462 59.1919C70.438 59.1319 70.416 59.0719 70.396 59.0099C70.376 58.9479 70.354 58.8879 70.338 58.8259C70.9172 58.6769 71.4721 58.4459 71.986 58.1399C75.506 56.1079 78.482 50.9559 78.482 46.8899C78.4872 46.2956 78.4105 45.7033 78.254 45.1299C78.5316 45.0619 78.8162 45.0264 79.102 45.0239C79.2136 45.0243 79.3251 45.031 79.436 45.0439L79.54 45.0599C80.264 45.9079 80.37 47.2739 80.37 47.9999Z" fill="white"/>
</svg>
