<svg width="100" height="100" viewBox="0 0 100 100" fill="none" xmlns="http://www.w3.org/2000/svg">
<path d="M100 76.48H0V76.53H100V76.48Z" fill="#EBEBEB"/>
<path d="M17.8999 77.842H10.4919V77.892H17.8999V77.842Z" fill="#EBEBEB"/>
<path d="M48 78.9241H33.8V78.9741H48V78.9241Z" fill="#EBEBEB"/>
<path d="M29.134 77.866H18.984V77.916H29.134V77.866Z" fill="#EBEBEB"/>
<path d="M91.09 79.3621H81.356V79.4121H91.09V79.3621Z" fill="#EBEBEB"/>
<path d="M80.466 79.3621H74.072V79.4121H80.466V79.3621Z" fill="#EBEBEB"/>
<path d="M67.844 78.5181H55.442V78.5681H67.844V78.5181Z" fill="#EBEBEB"/>
<path d="M47.4 67.56H8.78197C8.47944 67.5595 8.18948 67.4389 7.97574 67.2248C7.76201 67.0107 7.64197 66.7205 7.64197 66.418V12.132C7.6446 11.8312 7.76581 11.5436 7.97926 11.3316C8.19271 11.1197 8.48116 11.0005 8.78197 11H47.4C47.7029 11 47.9933 11.1203 48.2075 11.3345C48.4217 11.5487 48.542 11.8391 48.542 12.142V66.418C48.542 66.7209 48.4217 67.0114 48.2075 67.2255C47.9933 67.4397 47.7029 67.56 47.4 67.56ZM8.78197 11.04C8.4927 11.0405 8.21546 11.1558 8.0111 11.3605C7.80674 11.5653 7.69197 11.8427 7.69197 12.132V66.418C7.69197 66.7073 7.80674 66.9847 8.0111 67.1895C8.21546 67.3942 8.4927 67.5095 8.78197 67.51H47.4C47.6894 67.5095 47.9669 67.3943 48.1716 67.1896C48.3762 66.9849 48.4914 66.7075 48.492 66.418V12.132C48.4914 11.8425 48.3762 11.5651 48.1716 11.3604C47.9669 11.1557 47.6894 11.0405 47.4 11.04H8.78197Z" fill="#EBEBEB"/>
<path d="M90.662 67.56H52.042C51.7393 67.5595 51.4491 67.439 51.2351 67.2249C51.021 67.0109 50.9006 66.7207 50.9 66.418V12.132C50.9032 11.831 51.0248 11.5434 51.2386 11.3315C51.4524 11.1196 51.741 11.0005 52.042 11H90.662C90.9625 11.001 91.2504 11.1204 91.4634 11.3323C91.6765 11.5442 91.7974 11.8316 91.8 12.132V66.418C91.8 66.7202 91.6803 67.0101 91.467 67.2241C91.2537 67.4382 90.9642 67.5589 90.662 67.56ZM52.042 11.04C51.7526 11.0405 51.4751 11.1557 51.2704 11.3604C51.0658 11.5651 50.9506 11.8425 50.95 12.132V66.418C50.9506 66.7075 51.0658 66.9849 51.2704 67.1896C51.4751 67.3943 51.7526 67.5095 52.042 67.51H90.662C90.9515 67.5095 91.2289 67.3943 91.4336 67.1896C91.6383 66.9849 91.7535 66.7075 91.754 66.418V12.132C91.7535 11.8425 91.6383 11.5651 91.4336 11.3604C91.2289 11.1557 90.9515 11.0405 90.662 11.04H52.042Z" fill="#EBEBEB"/>
<path d="M87.124 75.864H71.524C70.7963 75.864 70.0983 75.5749 69.5837 75.0603C69.0691 74.5457 68.78 73.8478 68.78 73.12V59.104C68.78 58.3763 69.0691 57.6783 69.5837 57.1637C70.0983 56.6491 70.7963 56.36 71.524 56.36H87.124V75.864Z" fill="#F0F0F0"/>
<path d="M86.996 75.864H87.254C88.7695 75.864 89.998 74.6355 89.998 73.12V59.104C89.998 57.5885 88.7695 56.36 87.254 56.36H86.996C85.4806 56.36 84.252 57.5885 84.252 59.104V73.12C84.252 74.6355 85.4806 75.864 86.996 75.864Z" fill="#FAFAFA"/>
<path d="M85.034 63.554H50.85V75.864H85.034V63.554Z" fill="#F0F0F0"/>
<path d="M86.708 76.48H36.184C36.11 76.4803 36.0367 76.4659 35.9683 76.4378C35.8999 76.4097 35.8377 76.3683 35.7853 76.3161C35.7329 76.2639 35.6913 76.2019 35.663 76.1335C35.6346 76.0652 35.62 75.992 35.62 75.918V75.864H71.512L87.27 75.918C87.27 76.0671 87.2108 76.21 87.1054 76.3154C87 76.4208 86.857 76.48 86.708 76.48Z" fill="#E0E0E0"/>
<path d="M39.448 48.2681H72.216C73.2307 48.2681 74.2039 48.6712 74.9214 49.3887C75.6389 50.1062 76.042 51.0793 76.042 52.0941V66.3361H35.62V52.0941C35.62 51.0793 36.0231 50.1062 36.7406 49.3887C37.4581 48.6712 38.4313 48.2681 39.446 48.2681H39.448Z" fill="#E0E0E0"/>
<path d="M42.0721 48.2681H75.2001C76.166 48.2681 77.0923 48.6518 77.7753 49.3348C78.4583 50.0178 78.8421 50.9441 78.8421 51.9101V66.3381H38.4301V51.9101C38.4301 50.9441 38.8138 50.0178 39.4968 49.3348C40.1798 48.6518 41.1061 48.2681 42.0721 48.2681Z" fill="#FAFAFA"/>
<path d="M83.4 62.4299H53.452C52.9937 62.4299 52.5542 62.612 52.2301 62.9361C51.9061 63.2601 51.724 63.6996 51.724 64.1579V65.7159C51.724 66.1742 51.9061 66.6137 52.2301 66.9378C52.5542 67.2619 52.9937 67.4439 53.452 67.4439H83.4C83.7293 67.4439 84.0553 67.379 84.3595 67.253C84.6636 67.1269 84.94 66.9422 85.1727 66.7092C85.4054 66.4763 85.59 66.1998 85.7158 65.8956C85.8416 65.5913 85.9063 65.2652 85.906 64.9359C85.906 64.2713 85.642 63.6339 85.172 63.1639C84.702 62.694 84.0646 62.4299 83.4 62.4299Z" fill="#E0E0E0"/>
<path d="M50.762 75.864H35.162C34.4342 75.864 33.7363 75.5749 33.2217 75.0603C32.7071 74.5457 32.418 73.8478 32.418 73.12V59.104C32.418 58.3763 32.7071 57.6783 33.2217 57.1637C33.7363 56.6491 34.4342 56.36 35.162 56.36H50.762V75.864Z" fill="#F0F0F0"/>
<path d="M50.632 75.864H50.89C52.4055 75.864 53.634 74.6355 53.634 73.12V59.104C53.634 57.5885 52.4055 56.36 50.89 56.36H50.632C49.1166 56.36 47.888 57.5885 47.888 59.104V73.12C47.888 74.6355 49.1166 75.864 50.632 75.864Z" fill="#FAFAFA"/>
<path d="M80.2119 18.5039H66.0859V39.2759H80.2119V18.5039Z" fill="#E0E0E0"/>
<path d="M81.062 18.5039H66.472V39.2759H81.062V18.5039Z" fill="#FAFAFA"/>
<path d="M67.694 20.1399V37.6379H79.84V20.1399H67.694Z" fill="white"/>
<path d="M72.256 29.7339V31.0659C72.6528 31.0659 73.0458 30.9878 73.4125 30.8359C73.7791 30.684 74.1122 30.4614 74.3929 30.1808C74.6735 29.9002 74.8961 29.567 75.0479 29.2004C75.1998 28.8337 75.278 28.4408 75.278 28.0439V26.7119C74.8811 26.7117 74.488 26.7896 74.1212 26.9414C73.7544 27.0932 73.4212 27.3158 73.1405 27.5965C72.8599 27.8771 72.6373 28.2104 72.4855 28.5771C72.3337 28.9439 72.2557 29.337 72.256 29.7339Z" fill="#FAFAFA"/>
<path d="M72.256 25.242V26.574C73.0573 26.5735 73.8257 26.2549 74.3923 25.6883C74.9589 25.1217 75.2775 24.3533 75.278 23.552V22.218C74.881 22.218 74.4878 22.2963 74.1211 22.4482C73.7543 22.6002 73.421 22.823 73.1404 23.1038C72.8598 23.3847 72.6372 23.7181 72.4854 24.0849C72.3337 24.4518 72.2557 24.845 72.256 25.242Z" fill="#FAFAFA"/>
<path d="M72.256 34.228V35.56C73.0577 35.5594 73.8263 35.2406 74.393 34.6735C74.9597 34.1065 75.278 33.3376 75.278 32.5359V31.2C74.8806 31.2 74.4872 31.2783 74.1201 31.4306C73.7531 31.5828 73.4197 31.8059 73.139 32.0872C72.8583 32.3684 72.6358 32.7023 72.4843 33.0696C72.3328 33.437 72.2552 33.8306 72.256 34.228Z" fill="#FAFAFA"/>
<path d="M59.2319 34.7959V20.1399L13.0999 20.1399V34.7959H59.2319Z" fill="#EBEBEB"/>
<path d="M13.1 34.7959L13.1 20.1399H12.822V34.7959H13.1Z" fill="#E0E0E0"/>
<path d="M56.958 22.4141H15.374V32.5221H56.958V22.4141Z" fill="#FAFAFA"/>
<path d="M25.34 32.5221H21.886L24.59 22.4141H28.044L25.34 32.5221Z" fill="white"/>
<path d="M28.552 32.5221H26.554L29.258 22.4141H31.256L28.552 32.5221Z" fill="white"/>
<path d="M45.9379 32.5221H43.9399L46.6439 22.4141H48.6419L45.9379 32.5221Z" fill="white"/>
<path d="M31.064 59.7179H19.882L18.498 44.5259H29.682L31.064 59.7179Z" fill="#E6E6E6"/>
<path d="M31.644 59.7179H20.46L19.078 44.5259H30.262L31.644 59.7179Z" fill="#F0F0F0"/>
<path d="M21.988 58.036L20.912 46.208H28.732L29.808 58.036H21.988Z" fill="white"/>
<path d="M39.4459 59.718H37.9399V76.478H39.4459V59.718Z" fill="#E6E6E6"/>
<path d="M39.92 59.718H38.874V76.478H39.92V59.718Z" fill="#FAFAFA"/>
<path d="M24.352 61.5681H40.244V59.7181H24.352V61.5681Z" fill="#FAFAFA"/>
<path d="M23.678 61.5681H22.172V76.4801H23.678V61.5681Z" fill="#E6E6E6"/>
<path d="M24.154 61.5681H23.108V76.4801H24.154V61.5681Z" fill="#FAFAFA"/>
<path d="M14.15 61.5681H12.644V76.4801H14.15V61.5681Z" fill="#E6E6E6"/>
<path d="M14.626 61.5681H13.58V76.4801H14.626V61.5681Z" fill="#FAFAFA"/>
<path d="M29.918 61.5681H28.412V76.4801H29.918V61.5681Z" fill="#E6E6E6"/>
<path d="M30.3919 61.5681H29.3459V76.4801H30.3919V61.5681Z" fill="#FAFAFA"/>
<path d="M24.352 59.718H12.644V61.568H24.352V59.718Z" fill="#E6E6E6"/>
<path d="M50 85.5119C71.4165 85.5119 88.7781 84.4983 88.7781 83.2479C88.7781 81.9975 71.4165 80.9839 50 80.9839C28.5835 80.9839 11.222 81.9975 11.222 83.2479C11.222 84.4983 28.5835 85.5119 50 85.5119Z" fill="#FAFAFA"/>
<path d="M30.5026 82.3385L53.1225 80.3635C54.6586 80.2293 55.7952 78.8753 55.6611 77.3392L50.9498 23.3805C50.8157 21.8443 49.4617 20.7078 47.9255 20.8419L25.3056 22.8169C23.7694 22.951 22.6329 24.3051 22.767 25.8412L27.4783 79.7999C27.6124 81.336 28.9664 82.4726 30.5026 82.3385Z" fill="#00AAA9"/>
<path d="M24.4601 41.778C24.6696 41.7582 24.8629 41.6566 24.998 41.4952C25.1332 41.3339 25.1993 41.1258 25.1821 40.916L24.5601 33.8C24.5407 33.5905 24.4396 33.397 24.2787 33.2615C24.1177 33.126 23.9098 33.0593 23.7001 33.076C23.4902 33.0953 23.2964 33.1967 23.1608 33.3581C23.0252 33.5195 22.9588 33.7279 22.9761 33.938L23.6001 41.054C23.6194 41.2635 23.7205 41.457 23.8815 41.5925C24.0424 41.728 24.2503 41.7947 24.4601 41.778Z" fill="#00AAA9"/>
<path d="M52.0872 36.1497L52.3641 36.1255C52.6888 36.0972 52.9289 35.8111 52.9006 35.4865L52.521 31.139C52.4927 30.8144 52.2065 30.5742 51.8819 30.6025L51.605 30.6267C51.2804 30.6551 51.0402 30.9412 51.0685 31.2658L51.4481 35.6133C51.4765 35.9379 51.7626 36.1781 52.0872 36.1497Z" fill="#263238"/>
<path d="M52.4119 43.4683L52.6899 43.4432C53.0158 43.4139 53.2561 43.126 53.2268 42.8001L52.834 38.4361C52.8047 38.1103 52.5168 37.8699 52.1909 37.8992L51.9129 37.9243C51.5871 37.9536 51.3467 38.2415 51.376 38.5674L51.7688 42.9314C51.7981 43.2572 52.0861 43.4976 52.4119 43.4683Z" fill="#263238"/>
<path d="M30.9779 82.2957L53.5979 80.3207C55.134 80.1866 56.2705 78.8326 56.1364 77.2965L51.4251 23.3377C51.291 21.8016 49.937 20.6651 48.4009 20.7992L25.7809 22.7742C24.2448 22.9083 23.1082 24.2623 23.2423 25.7985L27.9536 79.7572C28.0878 81.2933 29.4418 82.4299 30.9779 82.2957Z" fill="#263238"/>
<path opacity="0.4" d="M28.75 78.936L55.2 76.626C55.3383 76.6133 55.4659 76.5464 55.555 76.44C55.6442 76.3336 55.6877 76.1963 55.676 76.058L51.2 24.738C51.1873 24.6001 51.1208 24.4728 51.0148 24.3837C50.9088 24.2946 50.772 24.2508 50.634 24.262L24.174 26.574C24.1057 26.58 24.0393 26.5994 23.9785 26.6311C23.9178 26.6628 23.8638 26.7062 23.8198 26.7588C23.7758 26.8113 23.7426 26.8721 23.722 26.9375C23.7015 27.0029 23.694 27.0717 23.7 27.14L28.184 78.462C28.1898 78.5303 28.2091 78.5969 28.2407 78.6578C28.2723 78.7187 28.3157 78.7728 28.3683 78.8168C28.4209 78.8609 28.4818 78.8941 28.5473 78.9146C28.6128 78.935 28.6817 78.9423 28.75 78.936Z" fill="#00AAA9"/>
<path opacity="0.3" d="M47.138 24.5679L43.814 77.6199L38.286 78.1039L41.61 25.0499L47.138 24.5679Z" fill="#00AAA9"/>
<path opacity="0.2" d="M40.0242 22.8653L34.3756 23.3584C34.2447 23.3699 34.1478 23.4853 34.1593 23.6162L34.1793 23.8454C34.1907 23.9763 34.3061 24.0732 34.4371 24.0618L40.0856 23.5686C40.2165 23.5572 40.3134 23.4417 40.302 23.3108L40.282 23.0817C40.2705 22.9507 40.1551 22.8538 40.0242 22.8653Z" fill="white"/>
<path d="M34.7601 43.4238H62.2821C62.997 43.4259 63.682 43.7109 64.1875 44.2164C64.693 44.7219 64.9779 45.4069 64.9801 46.1218V59.6218C64.978 60.3369 64.6931 61.0222 64.1876 61.528C63.6822 62.0338 62.9971 62.3192 62.2821 62.3218H52.7581L48.5201 66.5598L44.2821 62.3218H34.7601C34.0446 62.3197 33.3591 62.0346 32.8532 61.5287C32.3473 61.0228 32.0622 60.3373 32.0601 59.6218V46.1218C32.0622 45.4066 32.3474 44.7213 32.8533 44.2157C33.3593 43.7101 34.0448 43.4254 34.7601 43.4238Z" fill="#00AAA9"/>
<path opacity="0.3" d="M34.7601 43.4238H62.2821C62.997 43.4259 63.682 43.7109 64.1875 44.2164C64.693 44.7219 64.9779 45.4069 64.9801 46.1218V59.6218C64.978 60.3369 64.6931 61.0222 64.1876 61.528C63.6822 62.0338 62.9971 62.3192 62.2821 62.3218H52.7581L48.5201 66.5598L44.2821 62.3218H34.7601C34.0446 62.3197 33.3591 62.0346 32.8532 61.5287C32.3473 61.0228 32.0622 60.3373 32.0601 59.6218V46.1218C32.0622 45.4066 32.3474 44.7213 32.8533 44.2157C33.3593 43.7101 34.0448 43.4254 34.7601 43.4238Z" fill="white"/>
<path d="M36.524 48.1019V57.6419C36.5208 58.0119 36.6641 58.368 36.9227 58.6326C37.1813 58.8972 37.5341 59.0487 37.904 59.0539H59.136C59.5059 59.0487 59.8587 58.8972 60.1173 58.6326C60.3758 58.368 60.5192 58.0119 60.516 57.6419V48.1019C60.5158 47.9212 60.4819 47.7422 60.416 47.5739C60.3153 47.3156 60.1396 47.0933 59.9115 46.9358C59.6833 46.7782 59.4132 46.6926 59.136 46.6899H37.904C37.627 46.6925 37.357 46.778 37.1292 46.9357C36.9014 47.0933 36.7261 47.3156 36.626 47.5739C36.5582 47.7417 36.5235 47.921 36.524 48.1019Z" fill="white"/>
<path opacity="0.1" d="M36.626 47.5739L46.89 52.0439C47.4044 52.2686 47.9597 52.3845 48.521 52.3845C49.0823 52.3845 49.6376 52.2686 50.152 52.0439L60.416 47.5739C60.3153 47.3156 60.1396 47.0933 59.9115 46.9358C59.6833 46.7782 59.4132 46.6926 59.136 46.6899H37.904C37.6269 46.6925 37.357 46.778 37.1292 46.9357C36.9014 47.0933 36.7261 47.3156 36.626 47.5739Z" fill="black"/>
<path d="M37.0863 47.5248C38.689 45.9221 38.689 43.3235 37.0863 41.7208C35.4836 40.1181 32.885 40.1181 31.2823 41.7208C29.6796 43.3235 29.6796 45.9221 31.2823 47.5248C32.885 49.1275 35.4836 49.1275 37.0863 47.5248Z" fill="#DE5753"/>
<path d="M34.976 47.124H34.02V43.524C33.6666 43.8527 33.2454 44.0998 32.786 44.248V43.382C33.081 43.2735 33.3555 43.116 33.598 42.916C33.8711 42.7128 34.0795 42.435 34.198 42.116H34.974L34.976 47.124Z" fill="white"/>
<path d="M57.2739 19.1839C57.1316 19.1828 56.9943 19.131 56.8866 19.038C56.7789 18.9449 56.7078 18.8166 56.6859 18.6759C56.4116 16.8729 55.4335 15.2522 53.9661 14.1691C52.4987 13.086 50.6618 12.6289 48.8579 12.8979C48.7115 12.9018 48.5687 12.8519 48.4565 12.7578C48.3443 12.6636 48.2704 12.5317 48.2488 12.3868C48.2271 12.2419 48.2592 12.0941 48.339 11.9713C48.4188 11.8485 48.5408 11.7591 48.682 11.7199C50.798 11.4045 52.9527 11.9411 54.6736 13.2121C56.3945 14.4831 57.5411 16.3847 57.8619 18.4999C57.8838 18.6557 57.8437 18.8137 57.7502 18.9402C57.6567 19.0666 57.5173 19.1513 57.3619 19.1759C57.333 19.1815 57.3035 19.1842 57.2739 19.1839Z" fill="#00AAA9"/>
<path d="M54.316 19.628C54.174 19.6269 54.0369 19.5754 53.9293 19.4828C53.8216 19.3901 53.7503 19.2623 53.728 19.122C53.5735 18.1025 53.021 17.186 52.1917 16.5733C51.3623 15.9607 50.3238 15.702 49.304 15.854C49.1574 15.8584 49.0142 15.8089 48.9016 15.7149C48.789 15.6209 48.7147 15.4889 48.6928 15.3439C48.6709 15.1988 48.7028 15.0508 48.7827 14.9277C48.8625 14.8046 48.9846 14.7151 49.126 14.676C50.4582 14.4769 51.815 14.8145 52.8986 15.6147C53.9822 16.4148 54.7042 17.6122 54.906 18.944C54.9285 19.1 54.8886 19.2586 54.795 19.3855C54.7015 19.5123 54.5617 19.5973 54.406 19.622C54.3762 19.6259 54.3461 19.6279 54.316 19.628Z" fill="#00AAA9"/>
<path d="M51.36 20.074C51.2176 20.0728 51.0803 20.0211 50.9726 19.928C50.8649 19.8349 50.7938 19.7066 50.772 19.566C50.7546 19.449 50.7143 19.3366 50.6534 19.2352C50.5925 19.1338 50.5122 19.0454 50.417 18.9752C50.3219 18.905 50.2138 18.8542 50.099 18.8258C49.9842 18.7975 49.8649 18.7921 49.748 18.81C49.6028 18.8119 49.4619 18.7612 49.3513 18.6673C49.2407 18.5733 49.1679 18.4424 49.1464 18.2988C49.1249 18.1553 49.1562 18.0088 49.2344 17.8865C49.3127 17.7643 49.4326 17.6746 49.572 17.634C49.8442 17.5929 50.1218 17.6061 50.3889 17.6727C50.656 17.7394 50.9073 17.8582 51.1283 18.0223C51.3493 18.1864 51.5357 18.3926 51.6767 18.6291C51.8177 18.8655 51.9106 19.1275 51.95 19.4C51.9718 19.5557 51.9317 19.7138 51.8382 19.8402C51.7447 19.9666 51.6053 20.0513 51.45 20.076C51.42 20.0783 51.3898 20.0776 51.36 20.074Z" fill="#00AAA9"/>
</svg>
