<svg width="100" height="100" viewBox="0 0 100 100" fill="none" xmlns="http://www.w3.org/2000/svg">
<path d="M100 76.48H0V76.53H100V76.48Z" fill="#EBEBEB"/>
<path d="M47.4 67.56H8.78197C8.47944 67.5595 8.18948 67.4389 7.97574 67.2248C7.76201 67.0107 7.64197 66.7205 7.64197 66.418V12.132C7.6446 11.8312 7.76581 11.5436 7.97926 11.3316C8.19271 11.1197 8.48116 11.0005 8.78197 11H47.4C47.7028 11 47.9933 11.1203 48.2075 11.3345C48.4216 11.5487 48.542 11.8391 48.542 12.142V66.418C48.542 66.7209 48.4216 67.0113 48.2075 67.2255C47.9933 67.4397 47.7028 67.56 47.4 67.56ZM8.78197 11.04C8.4927 11.0405 8.21546 11.1558 8.0111 11.3605C7.80674 11.5653 7.69197 11.8427 7.69197 12.132V66.418C7.69197 66.7073 7.80674 66.9847 8.0111 67.1894C8.21546 67.3942 8.4927 67.5095 8.78197 67.51H47.4C47.6894 67.5095 47.9669 67.3942 48.1715 67.1896C48.3762 66.9849 48.4914 66.7075 48.492 66.418V12.132C48.4914 11.8425 48.3762 11.5651 48.1715 11.3604C47.9669 11.1557 47.6894 11.0405 47.4 11.04H8.78197Z" fill="#EBEBEB"/>
<path d="M90.662 67.56H52.042C51.7393 67.5595 51.4491 67.439 51.2351 67.2249C51.021 67.0109 50.9006 66.7207 50.9 66.418V12.132C50.9032 11.831 51.0248 11.5434 51.2386 11.3315C51.4524 11.1196 51.741 11.0005 52.042 11H90.662C90.9625 11.001 91.2504 11.1204 91.4634 11.3323C91.6765 11.5442 91.7974 11.8316 91.8 12.132V66.418C91.8 66.7202 91.6803 67.01 91.467 67.2241C91.2537 67.4382 90.9642 67.5589 90.662 67.56ZM52.042 11.04C51.7526 11.0405 51.4751 11.1557 51.2704 11.3604C51.0658 11.5651 50.9506 11.8425 50.95 12.132V66.418C50.9506 66.7075 51.0658 66.9849 51.2704 67.1896C51.4751 67.3942 51.7526 67.5095 52.042 67.51H90.662C90.9515 67.5095 91.2289 67.3942 91.4336 67.1896C91.6383 66.9849 91.7535 66.7075 91.754 66.418V12.132C91.7535 11.8425 91.6383 11.5651 91.4336 11.3604C91.2289 11.1557 90.9515 11.0405 90.662 11.04H52.042Z" fill="#EBEBEB"/>
<path d="M89.98 78.384H83.666V78.434H89.98V78.384Z" fill="#EBEBEB"/>
<path d="M67.068 77.842H60.386V77.892H67.068V77.842Z" fill="#EBEBEB"/>
<path d="M91.804 80.2419H79.318V80.2919H91.804V80.2419Z" fill="#EBEBEB"/>
<path d="M14.3379 79.906H10.4919V79.956H14.3379V79.906Z" fill="#EBEBEB"/>
<path d="M22.178 79.906H16.12V79.956H22.178V79.906Z" fill="#EBEBEB"/>
<path d="M48.828 79.062H37.916V79.112H48.828V79.062Z" fill="#EBEBEB"/>
<path d="M91.2901 51.048C89.2621 50.198 85.9021 51.018 83.1181 54.394C81.8321 55.954 80.5921 58.242 80.2581 60.584C80.2801 57.912 80.3081 55.042 80.3341 52.332C80.641 51.0028 81.1246 49.7208 81.7721 48.52C83.8141 44.416 85.5021 44.87 88.2761 41.658C92.8901 36.314 95.5341 26.232 90.9441 30.258C86.7821 33.898 84.7681 37.542 83.3701 40.704C81.4781 44.978 80.7181 47.96 80.3481 50.952C80.3741 48.408 80.3981 46.072 80.4201 44.27C80.4921 38.392 80.6521 36.502 80.6821 35.918C80.7541 34.504 81.2201 33.68 81.3501 33.478C82.4441 31.76 84.1621 30.636 85.8441 28.678C89.7661 24.12 92.0301 18.478 90.1401 17.946C88.1661 17.4 85.5721 19.888 82.6901 25.73C81.0381 29.078 80.6161 29.87 80.2901 36.43C80.2621 37 80.1361 39.148 80.0761 42.132C79.6101 38.922 78.7241 35.732 77.1781 33.618C74.1961 29.54 71.9281 29.15 70.2761 29.54C68.6241 29.93 69.3161 34.212 71.1801 36.5C73.9801 39.944 78.6601 39.212 80.0461 43.794C79.9761 47.84 79.9261 52.964 79.8981 57.736C79.4261 55.272 78.9321 53.222 77.8481 51.292C75.8321 47.704 73.3521 46.138 71.6481 47.828C70.5861 48.88 71.8181 51.828 74.0381 53.028C76.2921 54.256 78.1421 55.954 78.8581 56.976C79.0241 57.214 79.5781 58.126 79.8941 58.652C79.8641 64.478 79.8681 69.62 79.9181 71.374L80.2001 71.4C80.1821 70.948 80.2001 67.984 80.2241 64.062C80.7161 59.168 84.1721 58.902 86.3821 57.97C90.3321 56.3 93.3181 51.9 91.2901 51.048Z" fill="#E6E6E6"/>
<path d="M77.2 76.48H83.028C83.1712 76.4885 83.3132 76.4494 83.4319 76.3687C83.5505 76.288 83.6392 76.1704 83.684 76.0341L84.1 68.8H76.132L76.544 76.0281C76.588 76.1653 76.6762 76.2841 76.7949 76.3659C76.9136 76.4477 77.056 76.4878 77.2 76.48Z" fill="#E6E6E6"/>
<path d="M76.278 71.2661H83.954C84.138 71.2661 84.292 71.0241 84.314 70.7041L84.47 68.2641C84.494 67.8881 84.326 67.5601 84.112 67.5601H76.112C75.896 67.5601 75.728 67.8881 75.754 68.2641L75.91 70.7041C75.938 71.0241 76.094 71.2661 76.278 71.2661Z" fill="#FAFAFA"/>
<path d="M37.2 60.894H29.634V75.156H37.2V60.894Z" fill="#F0F0F0"/>
<path d="M68.402 75.156H31.088V76.48H68.402V75.156Z" fill="#F0F0F0"/>
<path d="M37.2 75.1541H69.854V60.8921H37.2V75.1541Z" fill="#FAFAFA"/>
<path d="M40.176 67.0181H66.88V62.6301H40.176V67.0181Z" fill="#F0F0F0"/>
<path d="M40.176 72.656H66.88V68.268H40.176V72.656Z" fill="#F0F0F0"/>
<path d="M56.804 62.084H50.252C49.9979 62.084 49.792 62.2899 49.792 62.544V62.564C49.792 62.818 49.9979 63.024 50.252 63.024H56.804C57.058 63.024 57.264 62.818 57.264 62.564V62.544C57.264 62.2899 57.058 62.084 56.804 62.084Z" fill="#FAFAFA"/>
<path d="M56.804 67.7219H50.252C49.9979 67.7219 49.792 67.9279 49.792 68.1819V68.2019C49.792 68.456 49.9979 68.6619 50.252 68.6619H56.804C57.058 68.6619 57.264 68.456 57.264 68.2019V68.1819C57.264 67.9279 57.058 67.7219 56.804 67.7219Z" fill="#FAFAFA"/>
<path d="M70.864 59.614H37.202V60.892H70.864V59.614Z" fill="#F0F0F0"/>
<path d="M28.576 60.894H37.2V59.616H28.576V60.894Z" fill="#E6E6E6"/>
<path d="M22.3681 65.296C21.5041 64.844 19.9881 65.078 18.6301 66.464C17.9094 67.1931 17.3928 68.0986 17.1321 69.09C17.2421 67.912 17.3641 66.644 17.4781 65.448C17.6645 64.8725 17.9268 64.3243 18.2581 63.818C19.3161 62.082 20.0461 62.346 21.3921 61.032C23.6361 58.846 25.1921 54.49 23.0061 56.092C21.4418 57.2275 20.1606 58.7086 19.2621 60.42C18.2621 62.238 17.8141 63.526 17.5361 64.834C17.6441 63.712 17.7361 62.68 17.8221 61.884C18.0781 59.284 18.2221 58.46 18.2561 58.204C18.2937 57.8254 18.4272 57.4627 18.6441 57.15C19.2001 56.432 20.0001 56 20.8121 55.2C22.7181 53.334 23.9321 50.924 23.1181 50.62C22.2661 50.304 21.0241 51.306 19.5301 53.776C18.6721 55.194 18.4561 55.528 18.0601 58.414C18.0241 58.666 17.8881 59.614 17.7481 60.926C17.6641 59.49 17.3941 58.048 16.7901 57.054C15.6281 55.138 14.6401 54.88 13.8961 55C13.1521 55.12 13.2961 57.028 14.0301 58.11C15.1401 59.738 17.2301 59.592 17.6721 61.67C17.4881 63.454 17.2721 65.718 17.0721 67.826C16.9581 66.718 16.8181 65.794 16.4121 64.9C15.6581 63.238 14.6121 62.452 13.8121 63.134C13.3041 63.558 13.7361 64.906 14.6721 65.534C15.6081 66.162 16.3741 66.982 16.6521 67.462C16.7161 67.572 16.9261 67.998 17.0521 68.242C16.8001 70.8 16.6121 73.07 16.5681 73.846L16.6981 73.864C16.7081 73.664 16.8261 72.356 16.9881 70.624C17.3881 68.478 18.9281 68.492 19.9401 68.164C21.7461 67.58 23.2321 65.748 22.3681 65.296Z" fill="#F0F0F0"/>
<path d="M8.98803 60.8401C10.106 60.3361 11.988 60.7421 13.588 62.5841C14.4383 63.5503 15.0203 64.7227 15.276 65.9841C15.222 64.4941 15.166 62.8941 15.11 61.3841C14.9189 60.6477 14.6303 59.9402 14.252 59.2801C13.052 57.0221 12.116 57.3001 10.522 55.5501C7.86803 52.6381 6.24203 47.0561 8.86403 49.2281C10.7428 50.771 12.2415 52.7254 13.244 54.9401C14.362 57.2961 14.83 58.9401 15.082 60.6101C15.03 59.1921 14.98 57.8901 14.94 56.8841C14.814 53.6081 14.696 52.5561 14.67 52.2301C14.6516 51.7537 14.5141 51.2896 14.27 50.8801C13.634 49.9381 12.67 49.3381 11.69 48.2701C9.43603 45.7861 8.09003 42.6701 9.13403 42.3501C10.228 42.0161 11.712 43.3641 13.406 46.5781C14.378 48.4221 14.624 48.8561 14.908 52.5101C14.934 52.8281 15.034 54.0241 15.108 55.6881C15.32 53.8881 15.766 52.1001 16.598 50.8881C18.198 48.5681 19.458 48.3181 20.384 48.5101C21.31 48.7021 20.984 51.1101 19.984 52.4061C18.472 54.3681 15.854 54.0281 15.15 56.6061C15.248 58.8601 15.35 61.7181 15.44 64.3781C15.666 62.9981 15.912 61.8461 16.486 60.7541C17.558 58.7221 18.918 57.8121 19.886 58.7301C20.486 59.3001 19.852 60.9621 18.63 61.6701C17.408 62.3781 16.4 63.3801 16.016 63.9601C15.926 64.0941 15.632 64.6121 15.464 64.9101C15.568 68.1581 15.642 71.0261 15.64 72.0041L15.474 72.0181C15.474 71.7661 15.426 70.1141 15.35 67.9261C15 65.2001 13.072 65.1081 11.826 64.6221C9.60003 63.7541 7.87003 61.3441 8.98803 60.8401Z" fill="#E6E6E6"/>
<path d="M13.7179 76.48H18.8879C19.0157 76.4868 19.1422 76.4513 19.2477 76.379C19.3533 76.3067 19.4321 76.2016 19.4719 76.08L19.8379 69.668H12.7679L13.1359 76.08C13.1751 76.2016 13.2535 76.3068 13.3588 76.3792C13.4641 76.4516 13.5904 76.487 13.7179 76.48Z" fill="#E6E6E6"/>
<path d="M12.898 71.8561H19.708C19.872 71.8561 20.008 71.6401 20.028 71.3561L20.166 69.1921C20.188 68.8581 20.04 68.5681 19.848 68.5681H12.76C12.56 68.5681 12.42 68.8581 12.44 69.1921L12.58 71.3561C12.6 71.6401 12.736 71.8561 12.898 71.8561Z" fill="#FAFAFA"/>
<path d="M54.646 15.9719H12.038V40.0639H54.646V15.9719Z" fill="#E6E6E6"/>
<path d="M55.978 15.9719H12.264V40.0639H55.978V15.9719Z" fill="#FAFAFA"/>
<path d="M54.9141 38.1659V17.8719C54.9141 17.4102 54.5398 17.0359 54.0781 17.0359L14.1621 17.0359C13.7004 17.0359 13.3261 17.4102 13.3261 17.8719V38.1659C13.3261 38.6276 13.7004 39.0019 14.1621 39.0019H54.0781C54.5398 39.0019 54.9141 38.6276 54.9141 38.1659Z" fill="white"/>
<path d="M50 85.5119C71.4165 85.5119 88.7781 84.4983 88.7781 83.2479C88.7781 81.9975 71.4165 80.9839 50 80.9839C28.5835 80.9839 11.222 81.9975 11.222 83.2479C11.222 84.4983 28.5835 85.5119 50 85.5119Z" fill="#FAFAFA"/>
<path d="M80.382 62.4821H75.582V62.2821H80.382C80.9466 62.2705 81.498 62.1097 81.9802 61.816C82.4625 61.5223 82.8585 61.1063 83.128 60.6101L83.304 60.7061C83.0173 61.2339 82.5958 61.6762 82.0825 61.9882C81.5693 62.3001 80.9825 62.4706 80.382 62.4821Z" fill="#00AAA9"/>
<path d="M74.632 62.282H72.666V62.482H74.632V62.282Z" fill="#00AAA9"/>
<path d="M80.382 61.782H24.222C23.9141 61.788 23.6085 61.7284 23.3254 61.6071C23.0423 61.4859 22.7882 61.3058 22.5801 61.0787C22.372 60.8517 22.2146 60.583 22.1184 60.2905C22.0222 59.9979 21.9893 59.6882 22.022 59.382L25.056 24.582C25.1239 23.9344 25.4252 23.3336 25.9037 22.8919C26.3821 22.4503 27.0051 22.1979 27.656 22.182H83.816C84.1239 22.1763 84.4294 22.2362 84.7123 22.3575C84.9952 22.4789 85.2491 22.659 85.4572 22.886C85.6652 23.1129 85.8226 23.3815 85.919 23.6739C86.0153 23.9663 86.0484 24.2758 86.016 24.582L83 59.382C82.9318 60.0327 82.6279 60.6359 82.1457 61.0779C81.6634 61.52 81.0361 61.7704 80.382 61.782Z" fill="#00AAA9"/>
<path d="M79.212 61.052H24.452C24.1898 61.0559 23.9298 61.004 23.6892 60.8996C23.4487 60.7953 23.2331 60.6409 23.0568 60.4468C22.8805 60.2527 22.7475 60.0233 22.6666 59.7739C22.5858 59.5244 22.559 59.2607 22.588 59L25.352 27.298C25.3685 27.1392 25.4424 26.9918 25.5599 26.8835C25.6773 26.7752 25.8303 26.7136 25.99 26.71H83.664C83.7392 26.7087 83.8139 26.7235 83.883 26.7533C83.9522 26.7831 84.0141 26.8273 84.0649 26.8829C84.1156 26.9385 84.1538 27.0043 84.1771 27.0759C84.2004 27.1475 84.2082 27.2232 84.2 27.298L81.434 59C81.3779 59.5544 81.1211 60.069 80.7118 60.447C80.3024 60.825 79.769 61.0402 79.212 61.052Z" fill="white"/>
<path d="M31.4321 25.1321C31.0543 25.1385 30.6795 25.0645 30.3325 24.915C29.9855 24.7655 29.6743 24.5439 29.4195 24.2649C29.1647 23.9859 28.9722 23.6559 28.8547 23.2968C28.7372 22.9377 28.6975 22.5577 28.7381 22.1821C28.8203 21.3848 29.1909 20.6451 29.7801 20.1018C30.3694 19.5586 31.1368 19.2493 31.9381 19.2321C32.3158 19.2256 32.6906 19.2996 33.0375 19.4491C33.3844 19.5986 33.6955 19.8203 33.9501 20.0993C34.2047 20.3784 34.3971 20.7084 34.5143 21.0675C34.6315 21.4266 34.671 21.8065 34.6301 22.1821H33.4301C33.4543 21.9591 33.4307 21.7335 33.3609 21.5203C33.2911 21.3071 33.1767 21.1112 33.0254 20.9457C32.874 20.7801 32.6891 20.6487 32.4831 20.5601C32.277 20.4716 32.0544 20.4279 31.8301 20.4321C31.3537 20.4408 30.8971 20.6236 30.5463 20.9461C30.1955 21.2685 29.9749 21.7081 29.9261 22.1821C29.9019 22.4051 29.9255 22.6307 29.9953 22.8439C30.0651 23.0571 30.1794 23.2529 30.3308 23.4185C30.4822 23.584 30.667 23.7155 30.8731 23.804C31.0792 23.8926 31.3018 23.9362 31.5261 23.9321L31.4321 25.1321Z" fill="#263238"/>
<path d="M43.302 25.1321C42.9236 25.1397 42.5479 25.0665 42.1999 24.9175C41.852 24.7685 41.5398 24.5471 41.2841 24.268C41.0284 23.9888 40.8352 23.6584 40.7172 23.2988C40.5993 22.9391 40.5593 22.5584 40.6 22.1821C40.6823 21.3848 41.0528 20.6451 41.6421 20.1018C42.2314 19.5586 42.9988 19.2493 43.8 19.2321C44.1778 19.2256 44.5525 19.2996 44.8994 19.4491C45.2463 19.5986 45.5574 19.8203 45.8121 20.0993C46.0667 20.3784 46.259 20.7084 46.3763 21.0675C46.4935 21.4266 46.533 21.8065 46.4921 22.1821H45.2921C45.3162 21.9591 45.2926 21.7335 45.2229 21.5203C45.1531 21.3071 45.0387 21.1112 44.8873 20.9457C44.736 20.7801 44.5511 20.6487 44.345 20.5601C44.1389 20.4716 43.9163 20.4279 43.6921 20.4321C43.2157 20.4408 42.759 20.6236 42.4082 20.9461C42.0574 21.2685 41.8368 21.7081 41.7881 22.1821C41.7642 22.405 41.788 22.6305 41.8579 22.8435C41.9278 23.0566 42.0422 23.2523 42.1935 23.4178C42.3448 23.5833 42.5296 23.7147 42.7355 23.8034C42.9414 23.892 43.1639 23.9359 43.3881 23.9321L43.302 25.1321Z" fill="#263238"/>
<path d="M55.172 25.1321C54.7944 25.1382 54.4198 25.064 54.0731 24.9144C53.7263 24.7648 53.4154 24.5431 53.1608 24.2642C52.9062 23.9852 52.7139 23.6553 52.5965 23.2963C52.4791 22.9374 52.4394 22.5576 52.48 22.1821C52.5614 21.3845 52.9317 20.6443 53.5212 20.1009C54.1106 19.5575 54.8785 19.2484 55.68 19.2321C56.0577 19.2256 56.4325 19.2996 56.7794 19.4491C57.1263 19.5986 57.4374 19.8203 57.692 20.0993C57.9467 20.3784 58.139 20.7084 58.2562 21.0675C58.3735 21.4266 58.413 21.8065 58.372 22.1821H57.172C57.1965 21.959 57.1732 21.7333 57.1035 21.5199C57.0339 21.3066 56.9195 21.1106 56.7681 20.945C56.6167 20.7794 56.4316 20.6479 56.2254 20.5595C56.0191 20.471 55.7964 20.4276 55.572 20.4321C55.0959 20.4409 54.6395 20.6238 54.289 20.9462C53.9386 21.2687 53.7184 21.7083 53.67 22.1821C53.6459 22.4051 53.6695 22.6307 53.7392 22.8439C53.809 23.0571 53.9234 23.2529 54.0747 23.4185C54.2261 23.584 54.411 23.7155 54.6171 23.804C54.8232 23.8926 55.0458 23.9362 55.27 23.9321L55.172 25.1321Z" fill="#263238"/>
<path d="M67.042 25.1321C66.6644 25.1382 66.2898 25.064 65.9431 24.9144C65.5963 24.7648 65.2853 24.5431 65.0308 24.2641C64.7762 23.9852 64.5839 23.6553 64.4665 23.2963C64.3491 22.9374 64.3094 22.5575 64.35 22.1821C64.4318 21.3847 64.8023 20.6447 65.3916 20.1013C65.981 19.558 66.7486 19.2489 67.55 19.2321C67.9278 19.2256 68.3026 19.2996 68.6496 19.4491C68.9966 19.5986 69.3078 19.8202 69.5626 20.0992C69.8174 20.3782 70.0099 20.7082 70.1274 21.0673C70.2449 21.4265 70.2846 21.8064 70.244 22.1821H69.044C69.0682 21.9591 69.0446 21.7335 68.9748 21.5203C68.9051 21.3071 68.7907 21.1112 68.6393 20.9457C68.488 20.7801 68.3031 20.6487 68.097 20.5601C67.8909 20.4716 67.6683 20.4279 67.444 20.4321C66.9679 20.4409 66.5115 20.6238 66.161 20.9462C65.8106 21.2687 65.5904 21.7083 65.542 22.1821C65.5179 22.4051 65.5414 22.6307 65.6112 22.8439C65.681 23.057 65.7954 23.2529 65.9467 23.4185C66.0981 23.584 66.283 23.7155 66.4891 23.804C66.6952 23.8926 66.9178 23.9362 67.142 23.9321L67.042 25.1321Z" fill="#263238"/>
<path d="M78.912 25.1321C78.5344 25.1382 78.1598 25.064 77.8131 24.9144C77.4663 24.7648 77.1553 24.5431 76.9008 24.2641C76.6462 23.9852 76.4539 23.6553 76.3365 23.2963C76.2191 22.9374 76.1794 22.5575 76.22 22.1821C76.3018 21.3847 76.6723 20.6447 77.2616 20.1013C77.851 19.558 78.6186 19.2489 79.42 19.2321C79.7978 19.2256 80.1726 19.2996 80.5196 19.4491C80.8666 19.5986 81.1778 19.8202 81.4326 20.0992C81.6874 20.3782 81.8799 20.7082 81.9974 21.0673C82.1149 21.4265 82.1546 21.8064 82.114 22.1821H80.914C80.9382 21.9591 80.9146 21.7335 80.8448 21.5203C80.775 21.3071 80.6607 21.1112 80.5093 20.9457C80.358 20.7801 80.1731 20.6487 79.967 20.5601C79.7609 20.4716 79.5383 20.4279 79.314 20.4321C78.838 20.4413 78.3818 20.6243 78.0315 20.9467C77.6811 21.2691 77.4608 21.7085 77.412 22.1821C77.3879 22.4051 77.4114 22.6307 77.4812 22.8439C77.551 23.057 77.6654 23.2529 77.8167 23.4185C77.9681 23.584 78.153 23.7155 78.3591 23.804C78.5652 23.8926 78.7877 23.9362 79.012 23.9321L78.912 25.1321Z" fill="#263238"/>
<path d="M79.0681 59.614H24.9341C24.9213 59.6144 24.9085 59.612 24.8968 59.607C24.885 59.6019 24.8744 59.5944 24.8659 59.5849C24.8573 59.5754 24.8509 59.5641 24.8471 59.5518C24.8434 59.5396 24.8423 59.5267 24.8441 59.514L27.5421 28.582C27.5446 28.5549 27.557 28.5297 27.5769 28.5112C27.5968 28.4928 27.6229 28.4824 27.6501 28.482H81.7821C81.795 28.4816 81.8078 28.484 81.8196 28.489C81.8315 28.494 81.8422 28.5015 81.8509 28.511C81.8596 28.5205 81.8662 28.5317 81.8702 28.544C81.8742 28.5562 81.8755 28.5692 81.8741 28.582L79.1761 59.514C79.1736 59.541 79.1612 59.5662 79.1413 59.5847C79.1213 59.6032 79.0953 59.6136 79.0681 59.614ZM25.0521 59.414H78.9841L81.6661 28.682H27.7341L25.0521 59.414Z" fill="#E0E0E0"/>
<path d="M79.6 53.4281H25.474C25.4613 53.4281 25.4487 53.4255 25.4371 53.4204C25.4254 53.4153 25.415 53.4077 25.4065 53.3983C25.398 53.3888 25.3916 53.3777 25.3877 53.3656C25.3838 53.3535 25.3826 53.3407 25.384 53.3281C25.386 53.3008 25.3983 53.2754 25.4183 53.2568C25.4383 53.2383 25.4647 53.228 25.492 53.2281H79.624C79.6369 53.2277 79.6497 53.2301 79.6615 53.2351C79.6734 53.2401 79.6841 53.2476 79.6928 53.2571C79.7015 53.2666 79.7081 53.2778 79.7121 53.2901C79.7161 53.3023 79.7174 53.3153 79.716 53.3281C79.7125 53.3562 79.6987 53.382 79.6773 53.4004C79.6558 53.4189 79.6283 53.4288 79.6 53.4281Z" fill="#E0E0E0"/>
<path d="M80.146 47.242H26.014C26.0012 47.2421 25.9885 47.2395 25.9768 47.2343C25.9651 47.2292 25.9546 47.2217 25.9459 47.2123C25.9373 47.2029 25.9307 47.1918 25.9265 47.1797C25.9224 47.1676 25.9209 47.1548 25.922 47.142C25.9249 47.1148 25.9377 47.0896 25.958 47.0711C25.9783 47.0527 26.0046 47.0424 26.032 47.042H80.164C80.1769 47.0417 80.1897 47.0441 80.2015 47.0491C80.2134 47.0541 80.2241 47.0616 80.2328 47.0711C80.2415 47.0805 80.2481 47.0918 80.2521 47.104C80.2561 47.1163 80.2574 47.1292 80.256 47.142C80.2526 47.1691 80.2397 47.1941 80.2195 47.2124C80.1993 47.2308 80.1733 47.2413 80.146 47.242Z" fill="#E0E0E0"/>
<path d="M80.686 41.054H26.554C26.5411 41.0544 26.5283 41.052 26.5164 41.047C26.5046 41.042 26.4939 41.0345 26.4852 41.025C26.4765 41.0155 26.4699 41.0043 26.4659 40.992C26.4619 40.9798 26.4606 40.9668 26.462 40.954C26.4653 40.9269 26.4783 40.902 26.4984 40.8836C26.5186 40.8653 26.5447 40.8548 26.572 40.854H80.704C80.7167 40.8539 80.7293 40.8565 80.7409 40.8617C80.7525 40.8668 80.7629 40.8743 80.7714 40.8838C80.7799 40.8932 80.7864 40.9044 80.7902 40.9165C80.7941 40.9286 80.7954 40.9414 80.794 40.954C80.792 40.9812 80.7797 41.0067 80.7597 41.0253C80.7396 41.0438 80.7133 41.0541 80.686 41.054Z" fill="#E0E0E0"/>
<path d="M81.226 34.868H27.094C27.0812 34.8684 27.0683 34.866 27.0565 34.861C27.0446 34.856 27.034 34.8485 27.0252 34.839C27.0165 34.8295 27.0099 34.8183 27.0059 34.806C27.0019 34.7938 27.0006 34.7808 27.002 34.768C27.0045 34.7409 27.0169 34.7158 27.0368 34.6973C27.0568 34.6788 27.0829 34.6684 27.11 34.668H81.244C81.2568 34.6676 81.2696 34.67 81.2814 34.675C81.2931 34.68 81.3037 34.6876 81.3123 34.6971C81.3208 34.7066 81.3272 34.7179 81.331 34.7302C81.3347 34.7424 81.3358 34.7553 81.334 34.768C81.332 34.7952 81.3197 34.8207 81.2997 34.8393C81.2797 34.8578 81.2533 34.8681 81.226 34.868Z" fill="#E0E0E0"/>
<path d="M72.3001 59.614C72.2873 59.6144 72.2745 59.612 72.2627 59.607C72.2509 59.6019 72.2404 59.5944 72.2318 59.5849C72.2233 59.5754 72.2169 59.5641 72.2131 59.5518C72.2093 59.5396 72.2083 59.5267 72.2101 59.514L74.9081 28.582C74.9105 28.5549 74.9229 28.5297 74.9429 28.5112C74.9628 28.4928 74.9889 28.4824 75.0161 28.482C75.0289 28.4816 75.0417 28.484 75.0536 28.489C75.0655 28.494 75.0761 28.5015 75.0849 28.511C75.0936 28.5205 75.1002 28.5317 75.1042 28.544C75.1082 28.5562 75.1095 28.5692 75.1081 28.582L72.4101 59.514C72.4071 59.5412 72.3943 59.5664 72.374 59.5848C72.3538 59.6033 72.3275 59.6136 72.3001 59.614Z" fill="#E0E0E0"/>
<path d="M65.5341 59.614C65.5212 59.6143 65.5084 59.6119 65.4965 59.6069C65.4847 59.6019 65.474 59.5944 65.4653 59.5849C65.4566 59.5755 65.45 59.5642 65.446 59.552C65.442 59.5397 65.4407 59.5268 65.4421 59.514L68.1401 28.582C68.143 28.5547 68.1558 28.5295 68.1761 28.5111C68.1964 28.4927 68.2227 28.4823 68.2501 28.482C68.2629 28.4816 68.2756 28.484 68.2874 28.489C68.2992 28.494 68.3098 28.5015 68.3183 28.5111C68.3269 28.5206 68.3333 28.5319 68.337 28.5441C68.3408 28.5564 68.3418 28.5693 68.3401 28.582L65.6421 59.514C65.6401 59.5412 65.6278 59.5667 65.6078 59.5852C65.5877 59.6038 65.5614 59.6141 65.5341 59.614Z" fill="#E0E0E0"/>
<path d="M58.768 59.614C58.7551 59.6143 58.7423 59.6119 58.7304 59.6069C58.7186 59.6019 58.7079 59.5944 58.6992 59.5849C58.6905 59.5755 58.6839 59.5642 58.6799 59.552C58.6759 59.5397 58.6745 59.5268 58.676 59.514L61.374 28.582C61.3769 28.5547 61.3897 28.5295 61.41 28.5111C61.4303 28.4927 61.4566 28.4823 61.484 28.482C61.4968 28.4816 61.5095 28.484 61.5213 28.489C61.5331 28.494 61.5436 28.5015 61.5522 28.5111C61.5608 28.5206 61.5672 28.5319 61.5709 28.5441C61.5747 28.5564 61.5757 28.5693 61.574 28.582L58.876 59.514C58.8735 59.541 58.8611 59.5662 58.8412 59.5847C58.8212 59.6032 58.7952 59.6136 58.768 59.614Z" fill="#E0E0E0"/>
<path d="M52 59.614C51.9872 59.6143 51.9744 59.6119 51.9625 59.6069C51.9506 59.6019 51.94 59.5944 51.9312 59.5849C51.9225 59.5755 51.9159 59.5642 51.9119 59.552C51.9079 59.5397 51.9066 59.5268 51.908 59.514L54.6 28.582C54.6025 28.5549 54.6149 28.5297 54.6348 28.5112C54.6548 28.4928 54.6809 28.4824 54.708 28.482C54.7209 28.4816 54.7337 28.484 54.7456 28.489C54.7574 28.494 54.7681 28.5015 54.7768 28.511C54.7855 28.5205 54.7921 28.5317 54.7961 28.544C54.8001 28.5562 54.8015 28.5692 54.8 28.582L52.11 59.514C52.1075 59.5414 52.0948 59.5669 52.0745 59.5854C52.0541 59.6039 52.0276 59.6141 52 59.614Z" fill="#E0E0E0"/>
<path d="M45.234 59.614C45.2212 59.6144 45.2085 59.612 45.1967 59.607C45.1849 59.6019 45.1744 59.5944 45.1658 59.5849C45.1572 59.5754 45.1508 59.5641 45.1471 59.5518C45.1433 59.5396 45.1423 59.5267 45.144 59.514L47.842 28.582C47.844 28.5547 47.8563 28.5293 47.8763 28.5107C47.8964 28.4922 47.9227 28.4819 47.95 28.482C47.9629 28.4816 47.9757 28.484 47.9876 28.489C47.9994 28.494 48.0101 28.5015 48.0188 28.511C48.0275 28.5205 48.0341 28.5317 48.0381 28.544C48.0421 28.5562 48.0435 28.5692 48.042 28.582L45.344 59.514C45.3411 59.5412 45.3283 59.5664 45.308 59.5848C45.2877 59.6033 45.2614 59.6136 45.234 59.614Z" fill="#E0E0E0"/>
<path d="M38.468 59.614C38.4552 59.6143 38.4424 59.6119 38.4305 59.6069C38.4186 59.6019 38.408 59.5944 38.3993 59.5849C38.3905 59.5755 38.3839 59.5642 38.3799 59.552C38.3759 59.5397 38.3746 59.5268 38.376 59.514L41.074 28.582C41.077 28.5547 41.0898 28.5295 41.1101 28.5111C41.1303 28.4927 41.1567 28.4823 41.184 28.482C41.1969 28.4816 41.2096 28.484 41.2214 28.489C41.2332 28.494 41.2437 28.5015 41.2523 28.5111C41.2609 28.5206 41.2672 28.5319 41.271 28.5441C41.2748 28.5564 41.2758 28.5693 41.274 28.582L38.576 59.514C38.574 59.5412 38.5618 59.5667 38.5417 59.5852C38.5217 59.6038 38.4954 59.6141 38.468 59.614Z" fill="#E0E0E0"/>
<path d="M31.7021 59.614C31.6892 59.6143 31.6764 59.6119 31.6645 59.6069C31.6526 59.6019 31.642 59.5944 31.6333 59.5849C31.6245 59.5755 31.618 59.5642 31.614 59.552C31.6099 59.5397 31.6086 59.5268 31.6101 59.514L34.3081 28.582C34.311 28.5547 34.3238 28.5295 34.3441 28.5111C34.3643 28.4927 34.3907 28.4823 34.4181 28.482C34.4309 28.4816 34.4436 28.484 34.4554 28.489C34.4672 28.494 34.4777 28.5015 34.4863 28.5111C34.4949 28.5206 34.5013 28.5319 34.505 28.5441C34.5088 28.5564 34.5098 28.5693 34.5081 28.582L31.8101 59.514C31.8076 59.541 31.7952 59.5662 31.7752 59.5847C31.7553 59.6032 31.7292 59.6136 31.7021 59.614Z" fill="#E0E0E0"/>
<path d="M59.134 40.3361H55C54.9182 40.3375 54.837 40.3214 54.7618 40.2889C54.6867 40.2564 54.6194 40.2083 54.5643 40.1477C54.5092 40.0871 54.4677 40.0155 54.4425 39.9377C54.4172 39.8598 54.4089 39.7775 54.418 39.6961L54.738 36.0261C54.7551 35.8529 54.8353 35.692 54.9632 35.5741C55.0912 35.4561 55.258 35.3892 55.432 35.3861H59.566C59.648 35.3845 59.7294 35.4003 59.8048 35.4327C59.8802 35.4651 59.9478 35.5131 60.0031 35.5737C60.0584 35.6343 60.1001 35.706 60.1254 35.784C60.1507 35.8621 60.1591 35.9446 60.15 36.0261L59.83 39.6961C59.8128 39.8696 59.7324 40.0308 59.604 40.1488C59.4757 40.2668 59.3084 40.3335 59.134 40.3361Z" fill="#00AAA9"/>
<path opacity="0.6" d="M59.134 40.3361H55C54.9182 40.3375 54.837 40.3214 54.7618 40.2889C54.6867 40.2564 54.6194 40.2083 54.5643 40.1477C54.5092 40.0871 54.4677 40.0155 54.4425 39.9377C54.4172 39.8598 54.4089 39.7775 54.418 39.6961L54.738 36.0261C54.7551 35.8529 54.8353 35.692 54.9632 35.5741C55.0912 35.4561 55.258 35.3892 55.432 35.3861H59.566C59.648 35.3845 59.7294 35.4003 59.8048 35.4327C59.8802 35.4651 59.9478 35.5131 60.0031 35.5737C60.0584 35.6343 60.1001 35.706 60.1254 35.784C60.1507 35.8621 60.1591 35.9446 60.15 36.0261L59.83 39.6961C59.8128 39.8696 59.7324 40.0308 59.604 40.1488C59.4757 40.2668 59.3084 40.3335 59.134 40.3361Z" fill="white"/>
<path d="M87.9781 40.336H83.6321L84.0621 35.386H88.4101L86.7761 37.862L87.9781 40.336Z" fill="white"/>
<path d="M88.1401 40.4361H83.5221L83.9721 35.2861H88.6001L86.9021 37.8621L88.1401 40.4361ZM83.7401 40.2361H87.8141L86.6601 37.8621L88.2281 35.4861H84.1541L83.7401 40.2361Z" fill="#00AAA9"/>
<path d="M72.0881 46.522H67.9541C67.8722 46.5237 67.791 46.5078 67.7158 46.4756C67.6406 46.4433 67.5731 46.3954 67.5178 46.3351C67.4626 46.2747 67.4208 46.2033 67.3953 46.1255C67.3698 46.0477 67.3612 45.9654 67.3701 45.884L67.6901 42.212C67.7081 42.039 67.7889 41.8786 67.9171 41.7611C68.0453 41.6435 68.2121 41.577 68.3861 41.574H72.5201C72.6018 41.5728 72.6829 41.5888 72.7579 41.6212C72.833 41.6535 72.9003 41.7014 72.9555 41.7617C73.0107 41.822 73.0525 41.8933 73.0781 41.9709C73.1037 42.0486 73.1126 42.1307 73.1041 42.212L72.7841 45.884C72.766 46.0571 72.6852 46.2175 72.557 46.335C72.4288 46.4525 72.262 46.5191 72.0881 46.522Z" fill="#00AAA9"/>
<path opacity="0.4" d="M72.0881 46.522H67.9541C67.8722 46.5237 67.791 46.5078 67.7158 46.4756C67.6406 46.4433 67.5731 46.3954 67.5178 46.3351C67.4626 46.2747 67.4208 46.2033 67.3953 46.1255C67.3698 46.0477 67.3612 45.9654 67.3701 45.884L67.6901 42.212C67.7081 42.039 67.7889 41.8786 67.9171 41.7611C68.0453 41.6435 68.2121 41.577 68.3861 41.574H72.5201C72.6018 41.5728 72.6829 41.5888 72.7579 41.6212C72.833 41.6535 72.9003 41.7014 72.9555 41.7617C73.0107 41.822 73.0525 41.8933 73.0781 41.9709C73.1037 42.0486 73.1126 42.1307 73.1041 42.212L72.7841 45.884C72.766 46.0571 72.6852 46.2175 72.557 46.335C72.4288 46.4525 72.262 46.5191 72.0881 46.522Z" fill="white"/>
<path d="M80.01 34.15H69.034C68.952 34.1517 68.8706 34.1358 68.7952 34.1034C68.7198 34.0711 68.6522 34.023 68.5969 33.9624C68.5416 33.9018 68.4999 33.8301 68.4746 33.7521C68.4492 33.6741 68.4409 33.5915 68.45 33.51L68.77 29.84C68.7871 29.6668 68.8673 29.506 68.9952 29.388C69.1232 29.27 69.29 29.2031 69.464 29.2H80.442C80.5239 29.1987 80.6052 29.2148 80.6804 29.2473C80.7556 29.2797 80.8231 29.3278 80.8783 29.3884C80.9335 29.4489 80.9752 29.5204 81.0007 29.5983C81.0262 29.6762 81.0348 29.7586 81.026 29.84L80.706 33.51C80.6888 33.6836 80.6084 33.8447 80.48 33.9627C80.3517 34.0808 80.1843 34.1474 80.01 34.15Z" fill="#00AAA9"/>
<path d="M36.2241 39.5C34.5561 39.5 33.1661 38.91 32.1801 37.78C30.9141 36.326 30.7241 34.522 31.6821 33.07C33.1041 30.92 36.8101 29.774 39.2481 30.092C39.2608 30.0936 39.2731 30.0979 39.2841 30.1045C39.2951 30.1112 39.3046 30.1201 39.3119 30.1306C39.3193 30.1412 39.3243 30.1532 39.3268 30.1658C39.3292 30.1784 39.329 30.1914 39.3261 30.204C39.3199 30.2304 39.3043 30.2537 39.2822 30.2695C39.2602 30.2854 39.2331 30.2926 39.2061 30.29C36.8281 29.98 33.2241 31.09 31.8481 33.17C30.7641 34.81 31.3901 36.554 32.3381 37.642C33.6601 39.158 35.4621 39.372 36.7381 39.282C39.1761 39.112 41.8461 37.718 43.3841 35.814C43.8141 35.282 44.4741 34.26 44.0701 33.414C43.4701 32.148 41.4701 32.236 39.8021 32.452C39.7895 32.4536 39.7767 32.4527 39.7646 32.4492C39.7524 32.4457 39.7411 32.4397 39.7313 32.4317C39.7215 32.4236 39.7135 32.4136 39.7078 32.4023C39.7021 32.391 39.6988 32.3786 39.6981 32.366C39.6974 32.3387 39.7068 32.3122 39.7245 32.2915C39.7422 32.2708 39.767 32.2574 39.7941 32.254C40.9101 32.108 43.5221 31.77 44.2521 33.318C44.7041 34.27 43.9961 35.37 43.5361 35.942C41.9621 37.89 39.2281 39.318 36.7361 39.49C36.5641 39.494 36.4001 39.5 36.2241 39.5Z" fill="#00AAA9"/>
<path d="M69.6 45.4202H69.584C69.5527 45.418 69.5225 45.4076 69.4965 45.3901C69.4705 45.3725 69.4496 45.3484 69.436 45.3202C69.2299 44.8486 68.9467 44.4146 68.598 44.0362C68.5587 43.9972 68.5366 43.9442 68.5364 43.8889C68.5362 43.8336 68.558 43.7804 68.597 43.7412C68.636 43.7019 68.6889 43.6798 68.7443 43.6796C68.7996 43.6794 68.8527 43.7012 68.892 43.7402C69.2127 44.0754 69.478 44.4596 69.678 44.8782C70.3652 44.1724 71.1097 43.5249 71.904 42.9422C71.9453 42.9101 71.9975 42.8955 72.0495 42.9015C72.1015 42.9074 72.149 42.9335 72.182 42.9742C72.1973 42.9962 72.2079 43.0211 72.2134 43.0474C72.2189 43.0736 72.219 43.1007 72.2138 43.127C72.2085 43.1534 72.1981 43.1783 72.183 43.2005C72.1679 43.2227 72.1485 43.2416 72.126 43.2562C71.2739 43.8791 70.4818 44.5801 69.76 45.3502C69.7396 45.3722 69.7148 45.3898 69.6873 45.4019C69.6598 45.4139 69.63 45.4202 69.6 45.4202Z" fill="white"/>
<path d="M62.234 58.6661C61.9465 58.6709 61.6612 58.6145 61.3971 58.5006C61.1331 58.3867 60.8962 58.2179 60.7024 58.0055C60.5085 57.7931 60.362 57.5419 60.2726 57.2686C60.1833 56.9952 60.1531 56.706 60.184 56.4201C60.2465 55.8122 60.5294 55.2483 60.9794 54.8349C61.4293 54.4214 62.0151 54.1871 62.626 54.1761C62.9135 54.171 63.1987 54.2272 63.4628 54.3408C63.7268 54.4545 63.9637 54.623 64.1576 54.8353C64.3515 55.0476 64.498 55.2986 64.5874 55.5719C64.6768 55.8451 64.707 56.1343 64.676 56.4201C64.6136 57.0281 64.3307 57.5923 63.8808 58.0061C63.431 58.4199 62.8452 58.6546 62.234 58.6661ZM62.6 54.5761C62.0992 54.5871 61.6197 54.7805 61.2514 55.12C60.8832 55.4596 60.6515 55.9219 60.6 56.4201C60.5745 56.655 60.5992 56.8927 60.6725 57.1174C60.7459 57.342 60.8662 57.5485 61.0254 57.7231C61.1847 57.8977 61.3793 58.0364 61.5963 58.13C61.8133 58.2237 62.0477 58.27 62.284 58.2661C62.785 58.2546 63.2645 58.0608 63.6328 57.7209C64.001 57.3811 64.2325 56.9185 64.284 56.4201C64.309 56.1854 64.2838 55.948 64.2102 55.7238C64.1366 55.4995 64.0162 55.2934 63.857 55.1191C63.6979 54.9448 63.5035 54.8063 63.2868 54.7127C63.0701 54.6191 62.836 54.5725 62.6 54.5761Z" fill="#00AAA9"/>
<path d="M43 46.2701C42.7125 46.2749 42.4272 46.2185 42.1631 46.1046C41.8991 45.9907 41.6622 45.822 41.4684 45.6096C41.2745 45.3972 41.128 45.1459 41.0386 44.8726C40.9493 44.5993 40.9191 44.31 40.95 44.0241C41.0126 43.4147 41.2966 42.8495 41.7482 42.4355C42.1997 42.0216 42.7875 41.7876 43.4 41.7781C43.6876 41.7733 43.9728 41.8297 44.2369 41.9436C44.501 42.0575 44.7378 42.2263 44.9317 42.4387C45.1255 42.6511 45.272 42.9023 45.3614 43.1756C45.4508 43.449 45.481 43.7382 45.45 44.0241C45.387 44.6333 45.1029 45.1983 44.6514 45.6122C44.1999 46.0261 43.6124 46.2602 43 46.2701ZM43.356 42.1781C42.8549 42.1892 42.3751 42.3829 42.0068 42.7228C41.6385 43.0627 41.4071 43.5255 41.356 44.0241C41.3304 44.2591 41.3552 44.4967 41.4285 44.7214C41.5019 44.9461 41.6222 45.1525 41.7814 45.3271C41.9407 45.5017 42.1353 45.6404 42.3523 45.7341C42.5693 45.8277 42.8037 45.8741 43.04 45.8701C43.541 45.8586 44.0205 45.6648 44.3887 45.3249C44.757 44.9851 44.9885 44.5225 45.04 44.0241C45.0652 43.7896 45.0404 43.5524 44.9671 43.3281C44.8939 43.1039 44.7739 42.8977 44.6152 42.7233C44.4564 42.5488 44.2624 42.41 44.0461 42.3161C43.8297 42.2221 43.5959 42.1751 43.36 42.1781H43.356Z" fill="#00AAA9"/>
</svg>
