<svg width="100" height="100" viewBox="0 0 100 100" fill="none" xmlns="http://www.w3.org/2000/svg">
<path d="M82.536 50.488C64.45 40.046 35.22 40.046 17.25 50.488C-0.720037 60.93 -0.624037 77.864 17.462 88.306C35.548 98.748 64.78 98.748 82.75 88.306C100.72 77.864 100.624 60.932 82.536 50.488Z" fill="#F5F5F5"/>
<path d="M45.536 84.2561C42.336 82.4101 37.168 82.4101 33.99 84.2561C30.812 86.1021 30.828 89.0981 34.028 90.9441C37.228 92.7901 42.396 92.7921 45.574 90.9441C48.752 89.0961 48.736 86.1041 45.536 84.2561Z" fill="#E6E6E6"/>
<path d="M65.022 85.442C61.832 83.602 56.68 83.602 53.512 85.442C50.344 87.282 50.362 90.268 53.55 92.108C56.738 93.948 61.892 93.95 65.058 92.108C68.224 90.266 68.21 87.284 65.022 85.442Z" fill="#E6E6E6"/>
<path d="M79.824 70.662C77.024 69.046 72.502 69.046 69.722 70.662C66.942 72.278 66.956 74.898 69.754 76.512C72.552 78.126 77.076 78.128 79.856 76.512C82.636 74.896 82.622 72.278 79.824 70.662Z" fill="#E6E6E6"/>
<path d="M69.422 59.4519C66.444 57.7319 61.632 57.7319 58.674 59.4519C55.716 61.1719 55.73 63.9579 58.708 65.6779C61.686 67.3979 66.498 67.3979 69.456 65.6779C72.414 63.9579 72.4 61.1719 69.422 59.4519Z" fill="#E6E6E6"/>
<path d="M63.92 44.344C63.92 43.832 63.738 43.47 63.448 43.296H63.436L61.714 42.296C61.6771 42.271 61.6375 42.2502 61.596 42.234C61.5108 42.198 61.4203 42.1763 61.328 42.17C61.2715 42.165 61.2146 42.165 61.158 42.17H61.102L60.976 42.194L60.912 42.212C60.8665 42.2246 60.8217 42.24 60.778 42.258L60.718 42.282C60.6492 42.3109 60.5824 42.3443 60.518 42.382L14.784 68.716C14.7233 68.7507 14.6645 68.7887 14.608 68.83L14.552 68.87L14.434 68.962L14.374 69.014L14.266 69.112L14.208 69.17L14.106 69.28L14.052 69.338L13.952 69.46C13.936 69.48 13.922 69.5 13.906 69.518C13.872 69.564 13.838 69.61 13.806 69.658L13.77 69.71C13.734 69.762 13.7 69.816 13.666 69.872C13.658 69.8835 13.6506 69.8955 13.644 69.908C13.5788 70.0174 13.5194 70.1303 13.466 70.246C13.466 70.266 13.448 70.284 13.438 70.304L13.39 70.422C13.378 70.448 13.368 70.472 13.358 70.498C13.348 70.524 13.332 70.57 13.318 70.608C13.304 70.646 13.3 70.666 13.29 70.694C13.2782 70.7274 13.2682 70.7615 13.26 70.796L13.236 70.894L13.2 71C13.2 71.036 13.186 71.072 13.18 71.108C13.18 71.136 13.168 71.164 13.164 71.192C13.164 71.232 13.164 71.274 13.15 71.314C13.15 71.336 13.15 71.36 13.15 71.382C13.15 71.444 13.15 71.508 13.15 71.568L13.232 72.354C13.2273 72.5699 13.2675 72.7844 13.35 72.984C13.3855 73.0659 13.4319 73.1426 13.488 73.212C13.5402 73.2766 13.6015 73.3332 13.67 73.38C13.6993 73.3997 13.7301 73.417 13.762 73.432L15.46 74.422L15.486 74.436H15.498C15.794 74.592 16.196 74.562 16.64 74.308L31.258 65.888L38.858 70.45C38.956 70.506 39.058 70.558 39.156 70.608L39.256 70.656C39.324 70.688 39.394 70.72 39.456 70.748L39.576 70.796C39.64 70.822 39.706 70.846 39.776 70.868L39.904 70.912L40.104 70.97L40.234 71.004C40.3 71.022 40.366 71.036 40.434 71.05L40.558 71.076C40.63 71.09 40.704 71.102 40.778 71.112L40.884 71.128C40.992 71.142 41.102 71.154 41.212 71.162C41.322 71.17 41.444 71.172 41.56 71.172C41.676 71.172 41.792 71.172 41.91 71.162C42.1423 71.1476 42.3735 71.1182 42.602 71.074C42.734 71.048 42.864 71.016 42.992 70.982L43.112 70.946C43.204 70.918 43.292 70.89 43.382 70.858L43.514 70.808C43.602 70.774 43.69 70.738 43.776 70.7L43.894 70.648C44.016 70.588 44.138 70.526 44.258 70.458L50.1 67.116C50.4936 66.8864 50.8062 66.5403 50.9947 66.1254C51.1831 65.7106 51.2381 65.2474 51.152 64.8C51.0968 64.4943 50.9764 64.204 50.799 63.949C50.6216 63.694 50.3914 63.4801 50.124 63.322L46.784 61.322L45.366 60.472C45.2963 60.4284 45.2295 60.3803 45.166 60.328C44.8415 60.071 44.6086 59.716 44.502 59.316C44.4596 59.1547 44.4381 58.9887 44.438 58.822V58.3L62.368 47.974C63.276 47.45 64.012 46.174 64.008 45.132L63.92 44.344Z" fill="#E6E6E6"/>
<path d="M86.6599 65.1841L85.7319 64.4241C85.6759 62.9601 85.6179 61.4241 85.8619 59.9781C86.1059 58.5321 86.6719 57.1061 87.7039 56.0701C88.1359 55.6361 88.6719 55.2701 89.2819 55.1961C89.8919 55.1221 90.5699 55.4321 90.7799 56.0081C90.9899 56.5841 90.6679 57.2661 90.3159 57.8081C89.5639 58.9501 88.6659 59.9921 87.9299 61.1441C87.1577 62.3552 86.7195 63.749 86.6599 65.1841Z" fill="#00AAA9"/>
<path d="M86.66 65.3841L87.588 66.1461C88.274 64.6981 89.22 63.3581 90.524 62.4301C90.9902 62.1418 91.4258 61.8067 91.824 61.4301C92.2 61.0301 92.46 60.4761 92.352 59.9381C92.212 59.2501 91.48 58.7941 90.776 58.7901C90.072 58.7861 89.414 59.1421 88.87 59.5901C87.2 60.9501 86.238 63.2661 86.66 65.3841Z" fill="#00AAA9"/>
<path opacity="0.3" d="M86.66 65.3841L87.588 66.1461C88.274 64.6981 89.22 63.3581 90.524 62.4301C90.9902 62.1418 91.4258 61.8067 91.824 61.4301C92.2 61.0301 92.46 60.4761 92.352 59.9381C92.212 59.2501 91.48 58.7941 90.776 58.7901C90.072 58.7861 89.414 59.1421 88.87 59.5901C87.2 60.9501 86.238 63.2661 86.66 65.3841Z" fill="black"/>
<path d="M86.136 64.8362C86.1148 64.8352 86.0947 64.8262 86.0799 64.811C86.065 64.7957 86.0565 64.7755 86.056 64.7542C86.094 62.5862 86.582 58.5802 89.416 56.1182C89.4322 56.1041 89.4533 56.0971 89.4747 56.0986C89.4961 56.1001 89.516 56.11 89.53 56.1262C89.5441 56.1424 89.5511 56.1635 89.5496 56.1849C89.5481 56.2062 89.5382 56.2261 89.522 56.2402C88.322 57.2802 86.304 59.7682 86.218 64.7562C86.217 64.7774 86.208 64.7975 86.1928 64.8123C86.1776 64.8272 86.1573 64.8357 86.136 64.8362Z" fill="white"/>
<path d="M87.108 65.8342C87.0974 65.8332 87.0872 65.8301 87.0779 65.8252C87.0686 65.8202 87.0603 65.8134 87.0536 65.8052C87.0469 65.7971 87.0419 65.7876 87.0389 65.7775C87.0358 65.7674 87.0349 65.7567 87.036 65.7462C87.224 63.7962 88.076 61.1122 91.05 59.3922C91.0685 59.3816 91.0905 59.3788 91.1112 59.3844C91.1318 59.3901 91.1494 59.4036 91.16 59.4222C91.1706 59.4408 91.1734 59.4628 91.1677 59.4834C91.1621 59.5041 91.1485 59.5216 91.13 59.5322C88.214 61.2162 87.38 63.8502 87.194 65.7602C87.1932 65.7707 87.1904 65.781 87.1856 65.7904C87.1809 65.7998 87.1743 65.8082 87.1663 65.8151C87.1584 65.822 87.1491 65.8272 87.1391 65.8305C87.129 65.8338 87.1185 65.835 87.108 65.8342Z" fill="white"/>
<path d="M9.89799 61.7742C9.35599 61.3182 8.75399 60.9322 8.24199 60.4422C7.89399 60.1082 7.57199 59.6782 7.59599 59.1962C7.61751 58.972 7.7017 58.7584 7.83893 58.5797C7.97616 58.4011 8.16089 58.2648 8.37199 58.1862C8.79899 58.0347 9.26687 58.0461 9.68599 58.2182C10.0997 58.3923 10.4811 58.6351 10.814 58.9362C12.697 60.5487 13.8855 62.8254 14.132 65.2922C14.1821 65.5708 14.1494 65.858 14.038 66.1182C13.9629 66.2493 13.8522 66.3564 13.7188 66.4272C13.5854 66.4979 13.4346 66.5295 13.284 66.5182C12.512 66.4442 12.416 65.4402 12.182 64.8842C11.8615 64.1204 11.428 63.4091 10.896 62.7742C10.5929 62.4126 10.259 62.078 9.89799 61.7742Z" fill="#00AAA9"/>
<path d="M13.42 65.7302C13.4056 65.7297 13.3918 65.7246 13.3806 65.7156C13.3694 65.7066 13.3614 65.6941 13.358 65.6802C13.076 64.5202 11.908 60.5982 8.70796 58.8802C8.70047 58.8761 8.69386 58.8706 8.6885 58.864C8.68315 58.8574 8.67915 58.8497 8.67673 58.8416C8.67432 58.8334 8.67354 58.8248 8.67443 58.8164C8.67533 58.8079 8.67789 58.7997 8.68196 58.7922C8.68603 58.7847 8.69153 58.7781 8.69816 58.7727C8.70478 58.7674 8.7124 58.7634 8.72057 58.761C8.72874 58.7585 8.73731 58.7578 8.74578 58.7587C8.75426 58.7596 8.76247 58.7621 8.76996 58.7662C12.018 60.5162 13.2 64.4842 13.484 65.6582C13.486 65.6665 13.4864 65.6751 13.4851 65.6835C13.4838 65.6919 13.4809 65.7 13.4764 65.7073C13.4719 65.7146 13.466 65.7209 13.4591 65.7258C13.4521 65.7308 13.4443 65.7343 13.436 65.7362L13.42 65.7302Z" fill="#EBEBEB"/>
<path d="M14 67.3542C13.9928 67.6219 13.9315 67.8853 13.8198 68.1287C13.7081 68.372 13.5483 68.5902 13.35 68.7702C12.9682 69.0526 12.5153 69.223 12.042 69.2622C11.5622 69.3012 11.0795 69.2831 10.604 69.2082C10.368 69.1762 10.102 69.1242 10.026 68.8562C10.0075 68.7853 10.0051 68.7111 10.019 68.6391C10.0328 68.5672 10.0625 68.4992 10.106 68.4402C10.1423 68.3873 10.1817 68.3365 10.224 68.2882C10.2431 68.2664 10.2552 68.2393 10.2586 68.2105C10.2621 68.1817 10.2568 68.1525 10.2434 68.1268C10.23 68.1011 10.2091 68.08 10.1835 68.0663C10.158 68.0527 10.1288 68.047 10.1 68.0502C9.96735 68.0674 9.83379 68.0767 9.70002 68.0782C9.38668 68.0895 9.07599 68.017 8.80002 67.8682C8.59845 67.7491 8.42997 67.5813 8.31002 67.3802C8.25004 67.3006 8.21325 67.206 8.20372 67.1068C8.19419 67.0076 8.21229 66.9077 8.25602 66.8182C8.32822 66.7269 8.42451 66.6576 8.53402 66.6182C8.62802 66.5782 8.72202 66.5402 8.81802 66.5062C8.84494 66.496 8.86786 66.4774 8.88338 66.4531C8.8989 66.4288 8.90619 66.4002 8.90417 66.3715C8.90215 66.3428 8.89093 66.3155 8.87217 66.2936C8.85341 66.2718 8.82811 66.2565 8.80002 66.2502L8.35002 66.1582C8.22279 66.1433 8.10119 66.0973 7.99602 66.0242C7.92382 65.9519 7.86846 65.8646 7.83389 65.7685C7.79932 65.6724 7.78639 65.5699 7.79602 65.4682C7.79602 65.1982 7.83602 64.9302 7.84602 64.6682C7.86869 64.3951 7.82476 64.1206 7.71802 63.8682C8.47967 63.6275 9.27829 63.5252 10.076 63.5662C10.3141 63.5678 10.5493 63.6196 10.766 63.7182C10.9057 63.8006 11.022 63.9174 11.1039 64.0574C11.1859 64.1974 11.2306 64.356 11.234 64.5182C11.2351 64.5324 11.2412 64.5457 11.2513 64.5558C11.2613 64.5659 11.2746 64.5721 11.2888 64.5733C11.303 64.5745 11.3171 64.5706 11.3287 64.5624C11.3403 64.5541 11.3485 64.542 11.352 64.5282L11.522 63.9862C11.547 63.9082 11.6009 63.8427 11.6727 63.8032C11.7446 63.7638 11.8288 63.7534 11.908 63.7742C12.1641 63.8441 12.4031 63.9659 12.61 64.1322C12.7235 64.2193 12.8185 64.3282 12.8892 64.4525C12.96 64.5769 13.0051 64.7141 13.022 64.8562C13.0656 65.2479 13.0763 65.6427 13.054 66.0362C13.0521 66.0585 13.0574 66.0809 13.069 66.1C13.0806 66.1192 13.098 66.1342 13.1187 66.1428C13.1393 66.1515 13.1622 66.1534 13.184 66.1482C13.2058 66.1431 13.2254 66.1312 13.24 66.1142H13.252C13.3123 66.0447 13.3966 66.0004 13.488 65.9902C13.728 65.9742 13.834 66.2002 13.888 66.4002C13.9638 66.7125 14.0014 67.0328 14 67.3542Z" fill="#00AAA9"/>
<path opacity="0.2" d="M14 67.3542C13.9928 67.6219 13.9315 67.8853 13.8198 68.1287C13.7081 68.372 13.5483 68.5902 13.35 68.7702C12.9682 69.0526 12.5153 69.223 12.042 69.2622C11.5622 69.3012 11.0795 69.2831 10.604 69.2082C10.368 69.1762 10.102 69.1242 10.026 68.8562C10.0075 68.7853 10.0051 68.7111 10.019 68.6391C10.0328 68.5672 10.0625 68.4992 10.106 68.4402C10.1423 68.3873 10.1817 68.3365 10.224 68.2882C10.2431 68.2664 10.2552 68.2393 10.2586 68.2105C10.2621 68.1817 10.2568 68.1525 10.2434 68.1268C10.23 68.1011 10.2091 68.08 10.1835 68.0663C10.158 68.0527 10.1288 68.047 10.1 68.0502C9.96735 68.0674 9.83379 68.0767 9.70002 68.0782C9.38668 68.0895 9.07599 68.017 8.80002 67.8682C8.59845 67.7491 8.42997 67.5813 8.31002 67.3802C8.25004 67.3006 8.21325 67.206 8.20372 67.1068C8.19419 67.0076 8.21229 66.9077 8.25602 66.8182C8.32822 66.7269 8.42451 66.6576 8.53402 66.6182C8.62802 66.5782 8.72202 66.5402 8.81802 66.5062C8.84494 66.496 8.86786 66.4774 8.88338 66.4531C8.8989 66.4288 8.90619 66.4002 8.90417 66.3715C8.90215 66.3428 8.89093 66.3155 8.87217 66.2936C8.85341 66.2718 8.82811 66.2565 8.80002 66.2502L8.35002 66.1582C8.22279 66.1433 8.10119 66.0973 7.99602 66.0242C7.92382 65.9519 7.86846 65.8646 7.83389 65.7685C7.79932 65.6724 7.78639 65.5699 7.79602 65.4682C7.79602 65.1982 7.83602 64.9302 7.84602 64.6682C7.86869 64.3951 7.82476 64.1206 7.71802 63.8682C8.47967 63.6275 9.27829 63.5252 10.076 63.5662C10.3141 63.5678 10.5493 63.6196 10.766 63.7182C10.9057 63.8006 11.022 63.9174 11.1039 64.0574C11.1859 64.1974 11.2306 64.356 11.234 64.5182C11.2351 64.5324 11.2412 64.5457 11.2513 64.5558C11.2613 64.5659 11.2746 64.5721 11.2888 64.5733C11.303 64.5745 11.3171 64.5706 11.3287 64.5624C11.3403 64.5541 11.3485 64.542 11.352 64.5282L11.522 63.9862C11.547 63.9082 11.6009 63.8427 11.6727 63.8032C11.7446 63.7638 11.8288 63.7534 11.908 63.7742C12.1641 63.8441 12.4031 63.9659 12.61 64.1322C12.7235 64.2193 12.8185 64.3282 12.8892 64.4525C12.96 64.5769 13.0051 64.7141 13.022 64.8562C13.0656 65.2479 13.0763 65.6427 13.054 66.0362C13.0521 66.0585 13.0574 66.0809 13.069 66.1C13.0806 66.1192 13.098 66.1342 13.1187 66.1428C13.1393 66.1515 13.1622 66.1534 13.184 66.1482C13.2058 66.1431 13.2254 66.1312 13.24 66.1142H13.252C13.3123 66.0447 13.3966 66.0004 13.488 65.9902C13.728 65.9742 13.834 66.2002 13.888 66.4002C13.9638 66.7125 14.0014 67.0328 14 67.3542Z" fill="black"/>
<path d="M13 68.772C12.7313 68.1767 12.4022 67.6104 12.018 67.0821C12.0135 67.0638 12.002 67.048 11.986 67.0381C11.966 67.0101 11.944 66.9821 11.924 66.9521C11.8537 66.2127 11.9215 65.4666 12.124 64.7521C12.1268 64.744 12.1279 64.7356 12.1274 64.7271C12.1269 64.7187 12.1247 64.7104 12.121 64.7028C12.1173 64.6952 12.1121 64.6883 12.1058 64.6827C12.0994 64.6771 12.092 64.6728 12.084 64.6701C12.076 64.6673 12.0675 64.6661 12.0591 64.6667C12.0506 64.6672 12.0424 64.6694 12.0347 64.6731C12.0271 64.6768 12.0203 64.682 12.0147 64.6883C12.0091 64.6947 12.0048 64.702 12.002 64.71C11.8072 65.3749 11.7287 66.0685 11.77 66.76C10.9072 65.6027 9.76865 64.6793 8.45802 64.0741C8.44209 64.0673 8.42416 64.0671 8.40807 64.0735C8.39199 64.0798 8.37905 64.0922 8.37202 64.1081C8.36529 64.124 8.36509 64.1419 8.37144 64.158C8.3778 64.1741 8.39022 64.187 8.40602 64.1941C9.74677 64.8158 10.9047 65.7726 11.768 66.972C11.0122 66.7956 10.2214 66.8429 9.49202 67.1081C9.47856 67.1142 9.46754 67.1246 9.46073 67.1378C9.45393 67.1509 9.45173 67.166 9.4545 67.1805C9.45727 67.195 9.46484 67.2082 9.476 67.2179C9.48715 67.2276 9.50125 67.2333 9.51602 67.2341H9.54002C10.2973 66.9605 11.1212 66.9311 11.896 67.1501C12.2771 67.6733 12.6035 68.2342 12.87 68.824C12.8751 68.8358 12.8834 68.8459 12.8941 68.853C12.9047 68.8601 12.9172 68.8639 12.93 68.8641H12.954C12.9637 68.862 12.9727 68.8577 12.9805 68.8517C12.9883 68.8456 12.9946 68.8379 12.9991 68.8291C13.0035 68.8202 13.0059 68.8105 13.006 68.8007C13.0062 68.7908 13.0041 68.781 13 68.772Z" fill="#EBEBEB"/>
<path d="M18.222 11.2679C19.062 10.7819 19.774 11.0199 20 11.7739C20.2052 11.3636 20.5193 11.0176 20.908 10.7739C21.568 10.3919 22.108 10.6979 22.108 11.4559V11.7999L23 11.2819C23.462 11.0159 23.838 11.2299 23.84 11.7619C23.8231 12.0508 23.7382 12.3316 23.5922 12.5815C23.4462 12.8314 23.2433 13.0433 23 13.1999L15.5 17.5339C15.038 17.7999 14.662 17.5859 14.662 17.0559C14.677 16.7664 14.7604 16.4846 14.9054 16.2336C15.0504 15.9826 15.2528 15.7696 15.496 15.6119L16.38 15.0999V14.4599C16.374 13.2859 17.2 11.8579 18.222 11.2679Z" fill="#E6E6E6"/>
<path d="M25.57 14.1039C26.17 13.7559 26.684 13.9259 26.846 14.4679C26.9914 14.1698 27.2172 13.9184 27.498 13.7419C27.97 13.4679 28.356 13.6879 28.358 14.2319V14.4819L29 14.1139C29.332 13.9139 29.6 14.0779 29.6 14.4579C29.5881 14.6655 29.5276 14.8674 29.4234 15.0474C29.3191 15.2273 29.1741 15.3803 29 15.4939L23.616 18.5999C23.284 18.7999 23.016 18.6379 23.016 18.2579C23.0268 18.0501 23.0868 17.8477 23.1911 17.6676C23.2955 17.4875 23.4411 17.3347 23.616 17.2219L24.252 16.8539V16.3999C24.2746 15.9403 24.4059 15.4926 24.635 15.0935C24.8641 14.6944 25.1845 14.3553 25.57 14.1039Z" fill="#E6E6E6"/>
<path opacity="0.2" d="M51.1521 62.718C51.0969 62.4123 50.9765 62.1221 50.7991 61.867C50.6217 61.612 50.3915 61.3982 50.1241 61.24L45.3661 58.386C45.0809 58.2149 44.8449 57.9727 44.6812 57.6832C44.5175 57.3936 44.4317 57.0666 44.4321 56.734V54.468L33.6761 60.686L32.7781 61.2V63.752C32.7777 64.0098 32.8292 64.265 32.9295 64.5024C33.0298 64.7399 33.177 64.9547 33.3621 65.134C33.4141 65.184 33.4701 65.232 33.5281 65.278C33.5958 65.3306 33.6673 65.3781 33.7421 65.42L38.8521 68.366C39.5694 68.7815 40.3729 69.0258 41.2001 69.08C41.3161 69.088 41.4321 69.092 41.5481 69.092C41.6641 69.092 41.7801 69.092 41.8981 69.092C42.7245 69.041 43.528 68.8001 44.2461 68.388L50.0881 65.044C50.487 64.8169 50.8044 64.4701 50.9954 64.0527C51.1863 63.6353 51.2411 63.1683 51.1521 62.718Z" fill="#455A64"/>
<path d="M51.1521 62.718C51.0969 62.4123 50.9765 62.1221 50.7991 61.867C50.6217 61.612 50.3915 61.3982 50.1241 61.24L45.3661 58.386C45.0809 58.2149 44.8449 57.9727 44.6812 57.6832C44.5175 57.3936 44.4317 57.0666 44.4321 56.734V54.468L33.6761 60.686L32.7781 61.2V63.752C32.7778 64.0903 32.8667 64.4226 33.036 64.7155C33.2053 65.0084 33.4488 65.2514 33.7421 65.42L38.8521 68.366C39.6736 68.8382 40.6045 69.0867 41.5521 69.0867C42.4996 69.0867 43.4306 68.8382 44.2521 68.366L50.0941 65.022C50.4878 64.7953 50.8012 64.4517 50.9908 64.0389C51.1804 63.626 51.2367 63.1644 51.1521 62.718Z" fill="#455A64"/>
<path d="M50.0861 64.2198L44.2861 67.5378C43.4528 68.0159 42.5088 68.2675 41.5481 68.2675C40.5874 68.2675 39.6434 68.0159 38.8101 67.5378L34.5061 65.0558C34.2551 64.9119 34.0465 64.7042 33.9015 64.4538C33.7565 64.2034 33.6801 63.9192 33.6801 63.6298V60.6938L32.7781 61.1998V63.7518C32.7778 64.0901 32.8667 64.4225 33.036 64.7154C33.2053 65.0082 33.4488 65.2512 33.7421 65.4198L38.8521 68.3658C39.6736 68.838 40.6045 69.0865 41.5521 69.0865C42.4996 69.0865 43.4306 68.838 44.2521 68.3658L50.0941 65.0218C50.4915 64.7956 50.8081 64.4506 50.9993 64.0352C51.1905 63.6197 51.2467 63.1549 51.1601 62.7058C51.1042 63.0219 50.9789 63.3217 50.7931 63.5835C50.6074 63.8453 50.3659 64.0626 50.0861 64.2198Z" fill="#37474F"/>
<path d="M34.5061 65.0478C34.2551 64.9038 34.0465 64.6961 33.9015 64.4458C33.7565 64.1954 33.6801 63.9111 33.6801 63.6218V60.6858L32.7781 61.1998V63.7518C32.7778 64.0901 32.8667 64.4224 33.036 64.7153C33.2053 65.0082 33.4488 65.2512 33.7421 65.4198L35.5541 66.4658V65.6498L34.5061 65.0478Z" fill="#263238"/>
<path d="M34.506 65.048L35.554 65.648L46.784 59.23L45.366 58.38C45.0808 58.2089 44.8449 57.9667 44.6812 57.6772C44.5175 57.3877 44.4316 57.0606 44.432 56.728V54.468L33.676 60.686V63.622C33.6764 63.9118 33.7534 64.1963 33.8992 64.4467C34.0449 64.6971 34.2543 64.9046 34.506 65.048Z" fill="#37474F"/>
<path d="M63.9202 6.26404C63.9202 5.75004 63.7381 5.38804 63.4481 5.21404H63.4361L61.7141 4.21404C61.6767 4.19049 61.6372 4.17041 61.5962 4.15404C61.511 4.11803 61.4204 4.0964 61.3282 4.09004C61.042 4.08117 60.7598 4.15852 60.5182 4.31204L14.7842 30.636C14.7242 30.67 14.6662 30.708 14.6082 30.748L14.5522 30.79L14.4342 30.882L14.3742 30.934L14.2662 31.032L14.2082 31.09L14.1062 31.198L14.0522 31.258C14.0182 31.298 13.9842 31.338 13.9522 31.38L13.9062 31.438C13.8722 31.484 13.8382 31.53 13.8062 31.578L13.7702 31.628C13.7342 31.682 13.7002 31.736 13.6662 31.792C13.6581 31.8036 13.6508 31.8156 13.6442 31.828C13.5789 31.9375 13.5195 32.0503 13.4662 32.166L13.4382 32.224L13.3902 32.342C13.3782 32.366 13.3682 32.392 13.3582 32.418L13.3182 32.526L13.2902 32.614C13.2782 32.648 13.2682 32.682 13.2582 32.716L13.2342 32.814L13.2102 32.908C13.2102 32.944 13.1962 32.98 13.1902 33.014C13.1842 33.048 13.1782 33.072 13.1742 33.098C13.1702 33.124 13.1742 33.182 13.1602 33.222C13.1462 33.262 13.1602 33.266 13.1602 33.29C13.1602 33.352 13.1602 33.414 13.1602 33.476L13.2422 70.264C13.2375 70.4799 13.2776 70.6945 13.3602 70.894C13.4257 71.0556 13.5369 71.1946 13.6802 71.294C13.7099 71.313 13.7406 71.3303 13.7722 71.346L15.4702 72.336L15.4962 72.35H15.5082C15.8042 72.506 16.2062 72.476 16.6502 72.22L62.3621 45.894C63.2701 45.37 64.0062 44.094 64.0022 43.052L63.9202 6.26404ZM16.5202 34.494C16.5598 34.091 16.7209 33.7095 16.9822 33.4C16.7242 33.7086 16.5653 34.0878 16.5262 34.488L16.5202 34.494ZM61.1202 7.85404L17.3402 33.054L62.2981 7.18204L61.1342 7.85404H61.1202ZM16.5202 34.746L16.6002 69.128V70.368L16.5202 34.746Z" fill="#37474F"/>
<path d="M63.9201 6.26407C63.9201 5.75007 63.7381 5.38807 63.4481 5.21407H63.4361L61.7141 4.21407C61.4141 4.01407 60.9901 4.04007 60.5141 4.31207L14.7841 30.6361C13.8741 31.1621 13.1401 32.4361 13.1441 33.4781L13.2261 70.2661C13.2261 70.7581 13.3941 71.1101 13.6641 71.2921C13.6938 71.311 13.7245 71.3284 13.7561 71.3441L15.4541 72.3341L15.4801 72.3481H15.4921C15.7881 72.5041 16.1901 72.4741 16.6341 72.2181L62.3621 45.8941C63.2701 45.3701 64.0061 44.0941 64.0021 43.0521L63.9201 6.26407ZM61.2121 42.4881C61.1813 42.7712 61.0918 43.0449 60.9492 43.2915C60.8066 43.5381 60.6142 43.7522 60.3841 43.9201L16.6001 69.1281V70.3681L16.5201 34.4941C16.5506 34.2111 16.64 33.9377 16.7826 33.6914C16.9252 33.4451 17.1178 33.2314 17.3481 33.0641L62.2981 7.18207L61.1341 7.85407L61.2121 42.4881Z" fill="#37474F"/>
<path d="M61.212 42.488L61.134 7.854L17.354 33.054C17.1238 33.2213 16.9312 33.435 16.7886 33.6813C16.646 33.9276 16.5565 34.201 16.526 34.484L16.6 69.128L60.382 43.928C60.6134 43.7594 60.8068 43.5441 60.9498 43.2961C61.0928 43.048 61.1821 42.7727 61.212 42.488Z" fill="#00AAA9"/>
<path opacity="0.3" d="M61.212 42.488L61.134 7.854L17.354 33.054C17.1238 33.2213 16.9312 33.435 16.7886 33.6813C16.646 33.9276 16.5565 34.201 16.526 34.484L16.6 69.128L60.382 43.928C60.6134 43.7594 60.8068 43.5441 60.9498 43.2961C61.0928 43.048 61.1821 42.7727 61.212 42.488Z" fill="black"/>
<path opacity="0.2" d="M61.212 42.488L61.134 7.854L17.354 33.054C17.1238 33.2213 16.9312 33.435 16.7886 33.6813C16.646 33.9276 16.5565 34.201 16.526 34.484L16.6 69.128L60.382 43.928C60.6134 43.7594 60.8068 43.5441 60.9498 43.2961C61.0928 43.048 61.1821 42.7727 61.212 42.488Z" fill="white"/>
<path d="M61.706 4.19991C61.406 3.99991 60.982 4.02591 60.506 4.29791L14.784 30.6359C14.2433 30.9773 13.8078 31.4619 13.526 32.0359L15.286 33.0519C15.5666 32.4777 16.0015 31.9929 16.542 31.6519L62.268 5.32391C62.72 5.06191 63.13 5.03591 63.428 5.20391L61.706 4.19991Z" fill="#455A64"/>
<path d="M13.144 33.4778L13.226 70.2658C13.226 70.7578 13.394 71.1098 13.664 71.2918C13.6938 71.3108 13.7245 71.3281 13.756 71.3438L15.454 72.3338C15.162 72.1598 14.982 71.7958 14.982 71.2838L14.9 34.4978C14.9146 33.993 15.0468 33.4986 15.286 33.0538L13.526 32.0378C13.288 32.4814 13.1572 32.9746 13.144 33.4778Z" fill="#263238"/>
<path d="M62.2981 7.18188L61.1341 7.85388L61.2121 42.4879C61.1814 42.7711 61.0918 43.0447 60.9493 43.2913C60.8067 43.5379 60.6142 43.752 60.3841 43.9199L16.6001 69.1279V70.3679L61.5501 44.4859C61.7803 44.3186 61.9729 44.1049 62.1155 43.8586C62.2581 43.6123 62.3476 43.3388 62.3781 43.0559L62.2981 7.18188Z" fill="#263238"/>
<path d="M21.378 40.894L21.37 38.238L19.584 37.208L19.592 39.804V39.864L21.378 40.894Z" fill="#E6E6E6"/>
<path d="M21.464 71.67L21.378 40.894L19.6 39.864L19.686 70.58C19.6767 70.6795 19.6934 70.7797 19.7344 70.8709C19.7754 70.962 19.8393 71.041 19.92 71.1L21.686 72.176C21.6102 72.1164 21.5503 72.0391 21.5116 71.9508C21.4729 71.8626 21.4565 71.7661 21.464 71.67Z" fill="#EBEBEB"/>
<path d="M21.374 38.232V36.702C21.3886 36.4178 21.4703 36.1411 21.6125 35.8946C21.7547 35.6481 21.9533 35.4388 22.192 35.284L68.562 8.50997C68.6441 8.45055 68.7403 8.41373 68.841 8.4032C68.9417 8.39267 69.0435 8.4088 69.136 8.44997L67.368 7.36797C67.2733 7.3197 67.1669 7.29881 67.0609 7.30764C66.9549 7.31647 66.8535 7.35468 66.768 7.41797L20.4 34.2C20.161 34.355 19.9623 34.5646 19.8201 34.8115C19.6779 35.0583 19.5963 35.3354 19.582 35.62V37.15V37.21L21.368 38.24L21.374 38.232Z" fill="#00AAA9"/>
<path opacity="0.3" d="M21.374 38.232V36.702C21.3886 36.4178 21.4703 36.1411 21.6125 35.8946C21.7547 35.6481 21.9533 35.4388 22.192 35.284L68.562 8.50997C68.6441 8.45055 68.7403 8.41373 68.841 8.4032C68.9417 8.39267 69.0435 8.4088 69.136 8.44997L67.368 7.36797C67.2733 7.3197 67.1669 7.29881 67.0609 7.30764C66.9549 7.31647 66.8535 7.35468 66.768 7.41797L20.4 34.2C20.161 34.355 19.9623 34.5646 19.8201 34.8115C19.6779 35.0583 19.5963 35.3354 19.582 35.62V37.15V37.21L21.368 38.24L21.374 38.232Z" fill="white"/>
<path opacity="0.2" d="M21.378 40.894L21.37 38.238L19.584 37.208L19.592 39.804V39.864L21.378 40.894Z" fill="#E0E0E0"/>
<path d="M68.562 8.50986C69.014 8.24786 69.384 8.45986 69.384 8.97986V10.5119L21.374 38.2319V36.7019C21.3886 36.4177 21.4703 36.141 21.6125 35.8945C21.7547 35.648 21.9533 35.4387 22.192 35.2839L68.562 8.50986Z" fill="#00AAA9"/>
<path d="M65.452 11.042C65.696 10.902 65.892 11.014 65.894 11.294C65.8855 11.4458 65.8415 11.5935 65.7654 11.7252C65.6893 11.8569 65.5833 11.9688 65.456 12.052C65.214 12.192 65.016 12.078 65.016 11.8C65.0236 11.6482 65.0671 11.5003 65.1429 11.3686C65.2187 11.2368 65.3246 11.1249 65.452 11.042Z" fill="white"/>
<path d="M66.8 10.2679C67.042 10.1279 67.24 10.2419 67.242 10.5199C67.2331 10.6721 67.1884 10.8201 67.1116 10.9518C67.0348 11.0835 66.9281 11.1952 66.8 11.2779C66.556 11.4179 66.36 11.3059 66.358 11.0259C66.367 10.8737 66.4116 10.7258 66.4884 10.5941C66.5652 10.4624 66.672 10.3506 66.8 10.2679Z" fill="white"/>
<path d="M68.13 9.49606C68.374 9.35606 68.57 9.46806 68.572 9.74806C68.5635 9.8999 68.5195 10.0476 68.4434 10.1793C68.3673 10.311 68.2613 10.4229 68.134 10.5061C67.892 10.6461 67.694 10.5321 67.692 10.2541C67.7005 10.1022 67.7446 9.95451 67.8206 9.82284C67.8967 9.69117 68.0027 9.57923 68.13 9.49606Z" fill="white"/>
<path d="M31.0321 31.1399C31.2121 31.0359 31.3801 31.0519 31.4661 31.1859L31.9021 31.8579C31.9881 31.9919 32.154 32.0119 32.3361 31.9059L69.3841 10.5159V13.1779L21.3781 40.8979V38.2379L22.8001 37.4159C23.002 37.2861 23.1548 37.0925 23.2341 36.8659L23.6641 35.6959C23.7432 35.4703 23.8952 35.2775 24.0961 35.1479L31.0321 31.1399Z" fill="#E6E6E6"/>
<path d="M69.4001 13.1741L69.4861 43.9481C69.4715 44.2323 69.3898 44.509 69.2476 44.7554C69.1054 45.0019 68.9068 45.2112 68.6681 45.3661L22.2881 72.1381C21.8341 72.4001 21.4661 72.1901 21.4641 71.6701L21.3781 40.8941L69.4001 13.1741Z" fill="#F5F5F5"/>
<path d="M67.4921 12.1521C67.8141 11.9661 68.0761 12.1141 68.0761 12.4841C68.0646 12.6846 68.0061 12.8796 67.9054 13.0533C67.8046 13.227 67.6644 13.3746 67.4961 13.4841L26.8541 36.9561C26.5301 37.1441 26.2681 36.9941 26.2681 36.6241C26.2796 36.4234 26.3383 36.2282 26.4394 36.0544C26.5405 35.8807 26.6812 35.7332 26.8501 35.6241L67.4921 12.1521Z" fill="white"/>
<path d="M22.146 38.4739C22.1548 38.4677 22.1652 38.4644 22.176 38.4644C22.1867 38.4644 22.1972 38.4677 22.206 38.4739C22.236 38.4939 22.234 38.5559 22.206 38.6099L21.948 39.0279L22.622 38.6399C22.668 38.6139 22.704 38.6399 22.704 38.6859C22.7024 38.7146 22.6941 38.7425 22.6799 38.7675C22.6657 38.7925 22.6459 38.8138 22.622 38.8299L21.95 39.2179L22.208 39.3399C22.24 39.3559 22.244 39.4139 22.208 39.4699C22.1939 39.4961 22.1732 39.5182 22.148 39.5339C22.1392 39.538 22.1297 39.5401 22.12 39.5401C22.1103 39.5401 22.1008 39.538 22.092 39.5339L21.68 39.3339L21.662 39.3179V39.2859V39.2439L21.678 39.2099L22.078 38.5379C22.0946 38.5109 22.118 38.4888 22.146 38.4739Z" fill="#E6E6E6"/>
<path d="M23.6 37.6339C23.609 37.6292 23.6189 37.6267 23.629 37.6267C23.6391 37.6267 23.6491 37.6292 23.658 37.6339L24.07 37.8339L24.086 37.8519V37.8859V37.9279L24.072 37.9599L23.66 38.6359C23.6461 38.6588 23.6269 38.678 23.604 38.6919C23.5949 38.6972 23.5846 38.6999 23.574 38.6999C23.5635 38.6999 23.5531 38.6972 23.544 38.6919C23.514 38.6719 23.516 38.6119 23.544 38.5559L23.8 38.1399L23.128 38.5279C23.082 38.5539 23.046 38.5279 23.046 38.4799C23.0477 38.452 23.0558 38.4248 23.0697 38.4006C23.0835 38.3763 23.1028 38.3555 23.126 38.3399L23.8 37.9519L23.542 37.8299C23.508 37.8139 23.508 37.7539 23.542 37.6979C23.5554 37.6718 23.5754 37.6497 23.6 37.6339Z" fill="#E6E6E6"/>
<path d="M24.9841 36.8341C25.0246 36.8073 25.0701 36.7891 25.1179 36.7805C25.1657 36.7719 25.2148 36.7731 25.2621 36.7841L25.3241 36.7021C25.3361 36.6856 25.351 36.6714 25.3681 36.6601C25.3814 36.6525 25.3967 36.649 25.4121 36.6501C25.4401 36.6501 25.4541 36.6841 25.4501 36.7241L25.4161 36.9781C25.4114 37.0087 25.399 37.0376 25.3801 37.0621C25.367 37.0776 25.3522 37.0917 25.3361 37.1041H25.3141L25.1141 37.1601C25.1072 37.1622 25.1 37.1628 25.0928 37.1617C25.0857 37.1606 25.079 37.158 25.073 37.154C25.067 37.1499 25.0621 37.1446 25.0585 37.1384C25.0548 37.1322 25.0527 37.1253 25.0521 37.1181C25.0502 37.0977 25.0524 37.077 25.0586 37.0575C25.0647 37.0379 25.0748 37.0197 25.0881 37.0041L25.1081 36.9761C25.0633 36.9782 25.0199 36.992 24.9821 37.0161C24.8966 37.0722 24.8255 37.1476 24.7745 37.2361C24.7234 37.3247 24.6938 37.424 24.6881 37.5261C24.6881 37.7141 24.8221 37.7881 24.9841 37.6961C25.1041 37.6188 25.1954 37.5043 25.2441 37.3701C25.2566 37.3325 25.2821 37.3005 25.3161 37.2801C25.3273 37.2725 25.3405 37.2683 25.3541 37.2681C25.3941 37.2681 25.4101 37.3201 25.3881 37.3781C25.3143 37.5863 25.1736 37.7642 24.9881 37.8841C24.7361 38.0301 24.5281 37.9121 24.5281 37.6201C24.5366 37.4624 24.5824 37.3089 24.6616 37.1723C24.7409 37.0357 24.8514 36.9198 24.9841 36.8341Z" fill="#E6E6E6"/>
<g opacity="0.3">
<path d="M22.146 38.4739C22.1548 38.4677 22.1652 38.4644 22.176 38.4644C22.1867 38.4644 22.1972 38.4677 22.206 38.4739C22.236 38.4939 22.234 38.5559 22.206 38.6099L21.948 39.0279L22.622 38.6399C22.668 38.6139 22.704 38.6399 22.704 38.6859C22.7024 38.7146 22.6941 38.7425 22.6799 38.7675C22.6657 38.7925 22.6459 38.8138 22.622 38.8299L21.95 39.2179L22.208 39.3399C22.24 39.3559 22.244 39.4139 22.208 39.4699C22.1939 39.4961 22.1732 39.5182 22.148 39.5339C22.1392 39.538 22.1297 39.5401 22.12 39.5401C22.1103 39.5401 22.1008 39.538 22.092 39.5339L21.68 39.3339L21.662 39.3179V39.2859V39.2439L21.678 39.2099L22.078 38.5379C22.0946 38.5109 22.118 38.4888 22.146 38.4739Z" fill="black"/>
</g>
<g opacity="0.3">
<path d="M23.6 37.6339C23.609 37.6292 23.6189 37.6267 23.629 37.6267C23.6391 37.6267 23.6491 37.6292 23.658 37.6339L24.07 37.8339L24.086 37.8519V37.8859V37.9279L24.072 37.9599L23.66 38.6359C23.6461 38.6588 23.6269 38.678 23.604 38.6919C23.5949 38.6972 23.5846 38.6999 23.574 38.6999C23.5635 38.6999 23.5531 38.6972 23.544 38.6919C23.514 38.6719 23.516 38.6119 23.544 38.5559L23.8 38.1399L23.128 38.5279C23.082 38.5539 23.046 38.5279 23.046 38.4799C23.0477 38.452 23.0558 38.4248 23.0697 38.4006C23.0835 38.3763 23.1028 38.3555 23.126 38.3399L23.8 37.9519L23.542 37.8299C23.508 37.8139 23.508 37.7539 23.542 37.6979C23.5554 37.6718 23.5754 37.6497 23.6 37.6339Z" fill="black"/>
</g>
<g opacity="0.3">
<path d="M24.9841 36.8341C25.0246 36.8073 25.0701 36.7891 25.1179 36.7805C25.1657 36.7719 25.2148 36.7731 25.2621 36.7841L25.3241 36.7021C25.3361 36.6856 25.351 36.6714 25.3681 36.6601C25.3814 36.6525 25.3967 36.649 25.4121 36.6501C25.4401 36.6501 25.4541 36.6841 25.4501 36.7241L25.4161 36.9781C25.4114 37.0087 25.399 37.0376 25.3801 37.0621C25.367 37.0776 25.3522 37.0917 25.3361 37.1041H25.3141L25.1141 37.1601C25.1072 37.1622 25.1 37.1628 25.0928 37.1617C25.0857 37.1606 25.079 37.158 25.073 37.154C25.067 37.1499 25.0621 37.1446 25.0585 37.1384C25.0548 37.1322 25.0527 37.1253 25.0521 37.1181C25.0502 37.0977 25.0524 37.077 25.0586 37.0575C25.0647 37.0379 25.0748 37.0197 25.0881 37.0041L25.1081 36.9761C25.0633 36.9782 25.0199 36.992 24.9821 37.0161C24.8966 37.0722 24.8255 37.1476 24.7745 37.2361C24.7234 37.3247 24.6938 37.424 24.6881 37.5261C24.6881 37.7141 24.8221 37.7881 24.9841 37.6961C25.1041 37.6188 25.1954 37.5043 25.2441 37.3701C25.2566 37.3325 25.2821 37.3005 25.3161 37.2801C25.3273 37.2725 25.3405 37.2683 25.3541 37.2681C25.3941 37.2681 25.4101 37.3201 25.3881 37.3781C25.3143 37.5863 25.1736 37.7642 24.9881 37.8841C24.7361 38.0301 24.5281 37.9121 24.5281 37.6201C24.5366 37.4624 24.5824 37.3089 24.6616 37.1723C24.7409 37.0357 24.8514 36.9198 24.9841 36.8341Z" fill="black"/>
</g>
<path d="M33.1921 44.698L33.1941 45.362L24.0781 50.626L24.076 49.962L33.1921 44.698Z" fill="#E6E6E6"/>
<path d="M44.404 37.02L44.406 37.684L24.074 49.422L24.072 48.76L44.404 37.02Z" fill="#E6E6E6"/>
<path d="M44.4 35.8179L44.402 36.4799L24.07 48.2179L24.068 47.5559L44.4 35.8179Z" fill="#E6E6E6"/>
<path d="M44.396 34.614L44.398 35.278L24.066 47.016V46.352L44.396 34.614Z" fill="#E6E6E6"/>
<path d="M38.2621 33.668L38.2641 34.412L37.0421 35.116L37.0441 35.458L38.1161 34.84L38.1181 35.546L37.0461 36.164L37.0481 36.548L38.3141 35.818L38.3161 36.558L36.2081 37.776L36.2001 34.86L38.2621 33.668Z" fill="#37474F"/>
<path d="M35.978 34.988L35.98 35.75L35.236 36.18L35.242 38.332L34.388 38.826L34.382 36.674L33.638 37.102L33.636 36.34L35.978 34.988Z" fill="#37474F"/>
<path d="M31.9441 39.336L32.4781 39.936L31.5661 40.464L31.1321 39.98L30.9001 40.114V40.846L30.0441 41.34V38.426L31.2661 37.72C31.9741 37.32 32.4221 37.478 32.4241 38.152C32.4111 38.5914 32.2408 39.0116 31.9441 39.336ZM31.2101 39.184C31.3122 39.1344 31.3986 39.0576 31.4597 38.9619C31.5208 38.8662 31.5541 38.7555 31.5561 38.642C31.5561 38.43 31.4441 38.364 31.2081 38.5L30.8961 38.68V39.364L31.2081 39.184" fill="#37474F"/>
<path d="M29.6461 38.644V40.244C29.6482 40.6714 29.5349 41.0914 29.318 41.4596C29.1011 41.8278 28.7888 42.1307 28.4141 42.336C27.6361 42.786 27.1761 42.546 27.1741 41.67V40.07L28.0281 39.578V41.152C28.0281 41.598 28.1801 41.678 28.4281 41.54C28.6761 41.402 28.8141 41.15 28.8141 40.704V39.13L29.6461 38.644Z" fill="#37474F"/>
<path d="M25.452 41.0001C26.278 40.5241 26.884 40.8161 26.886 41.6981C26.888 42.5801 26.286 43.5741 25.46 44.0501C24.634 44.5261 24.026 44.2361 24.022 43.3521C24.018 42.4681 24.624 41.4761 25.452 41.0001ZM25.452 43.2541C25.6275 43.1393 25.7713 42.9823 25.8702 42.7974C25.9691 42.6125 26.02 42.4057 26.018 42.1961C26.018 41.7421 25.762 41.6141 25.448 41.7961C25.2717 41.9101 25.1272 42.067 25.0279 42.252C24.9286 42.437 24.8777 42.6441 24.88 42.8541C24.88 43.3101 25.134 43.4361 25.452 43.2541Z" fill="#37474F"/>
<path d="M40.3141 32.4839L41.4321 34.7599L40.5481 35.2699L40.3761 34.8699L39.4101 35.4279L39.2421 36.0279L38.3721 36.5299L39.4741 32.9739L40.3141 32.4839ZM39.6441 34.5739L40.1381 34.2899L39.8901 33.6899L39.6441 34.5659" fill="#37474F"/>
<path d="M44.6 30.01L44.616 32.922L43.836 33.372L43.824 32.046L43.278 33.432L42.9 33.65L42.346 32.946L42.35 34.23L41.57 34.68L41.562 31.764L42.264 31.358L43.096 32.436L43.898 30.416L44.6 30.01Z" fill="#37474F"/>
<path d="M50.3301 38.0659L50.3741 53.7619L35.2181 62.5119L35.1741 46.8159L50.3301 38.0659Z" fill="#00AAA9"/>
<path d="M67.462 16.72L67.488 25.564L46.996 37.394L46.97 28.55L67.462 16.72Z" fill="#00AAA9"/>
<path d="M33.696 47.6699L33.74 63.3659L24.13 68.9139L24.084 53.2199L33.696 47.6699Z" fill="#455A64"/>
<path d="M67.3341 28.248L67.3781 43.944L51.8541 52.908L51.8101 37.212L67.3341 28.248Z" fill="#455A64"/>
<path opacity="0.4" d="M33.696 47.6699L33.74 63.3659L24.13 68.9139L24.084 53.2199L33.696 47.6699Z" fill="white"/>
<path opacity="0.4" d="M67.3341 28.248L67.3781 43.944L51.8541 52.908L51.8101 37.212L67.3341 28.248Z" fill="white"/>
<path d="M54.336 25.8459L54.338 26.8939L48.534 30.2539L48.53 29.2059L54.336 25.8459Z" fill="#00AAA9"/>
<path d="M55.778 26.7261L55.78 27.3641L48.538 31.5321L48.536 30.8941L55.778 26.7261Z" fill="#00AAA9"/>
<g opacity="0.3">
<path d="M54.336 25.8459L54.338 26.8939L48.534 30.2539L48.53 29.2059L54.336 25.8459Z" fill="white"/>
<path d="M55.778 26.7258L55.78 27.3638L48.538 31.5318L48.536 30.8938L55.778 26.7258Z" fill="white"/>
<path d="M54.532 31.24L54.534 31.882L48.548 35.374L48.546 34.734L54.532 31.24Z" fill="white"/>
<path d="M55.786 29.2859L55.788 29.9259L48.544 34.0939L48.542 33.4539L55.786 29.2859Z" fill="white"/>
<path d="M51.9261 30.218L51.9281 30.858L48.5401 32.814L48.5381 32.174L51.9261 30.218Z" fill="white"/>
</g>
<path d="M28.906 51.9519L28.91 52.9099L25.206 55.0479L25.204 54.0899L28.906 51.9519Z" fill="#455A64"/>
<path d="M32.594 51.3579L32.596 51.8079L25.21 56.0739L25.208 55.6219L32.594 51.3579Z" fill="#455A64"/>
<path d="M32.598 52.26V52.71L25.212 56.976V56.524L32.598 52.26Z" fill="#455A64"/>
<path d="M30.456 55.656L30.46 56.614L25.22 59.64L25.218 58.682L30.456 55.656Z" fill="#455A64"/>
<path d="M28.906 55.2939L28.908 55.7439L25.214 57.8759V57.4259L28.906 55.2939Z" fill="#455A64"/>
<path d="M27.234 65.458V65.908L25.24 67.06V66.61L27.234 65.458Z" fill="#455A64"/>
<g opacity="0.8">
<path d="M28.906 51.9519L28.91 52.9099L25.206 55.0479L25.204 54.0899L28.906 51.9519Z" fill="white"/>
<path d="M32.594 51.3579L32.596 51.8079L25.21 56.0739L25.208 55.6219L32.594 51.3579Z" fill="white"/>
<path d="M32.598 52.26V52.71L25.212 56.976V56.524L32.598 52.26Z" fill="white"/>
<path d="M30.456 55.656L30.46 56.614L25.22 59.64L25.218 58.682L30.456 55.656Z" fill="white"/>
<path d="M28.906 55.2939L28.908 55.7439L25.214 57.8759V57.4259L28.906 55.2939Z" fill="white"/>
<path d="M27.234 65.458V65.908L25.24 67.06V66.61L27.234 65.458Z" fill="white"/>
<path d="M32.624 61.4438V61.8938L25.238 66.1578V65.7078L32.624 61.4438Z" fill="white"/>
<path d="M32.62 60.542L32.622 60.992L25.236 65.258L25.234 64.806L32.62 60.542Z" fill="white"/>
<path d="M28.44 61.4219L28.442 62.3779L25.232 64.2299L25.23 63.2739L28.44 61.4219Z" fill="white"/>
<path d="M31.3 58.512V58.962L25.228 62.468L25.226 62.016L31.3 58.512Z" fill="white"/>
<path d="M32.61 56.8499L32.612 57.3019L25.226 61.5659L25.224 61.1159L32.61 56.8499Z" fill="white"/>
<path d="M32.6079 55.95L32.6099 56.402L25.2219 60.6659V60.214L32.6079 55.95Z" fill="white"/>
</g>
<path d="M44.884 45.9861L41.874 51.7041L41.022 53.3241L41.608 51.5001L39.95 50.2121L38.1 53.8841L38.106 56.1261L47.806 50.5261L47.8 48.2821L44.884 45.9861Z" fill="#00AAA9"/>
<path d="M41.704 49.018C41.9438 48.8614 42.1434 48.6505 42.2866 48.4024C42.4297 48.1543 42.5124 47.876 42.528 47.59C42.528 47.066 42.154 46.854 41.698 47.118C41.4578 47.2737 41.2579 47.4841 41.1147 47.732C40.9714 47.9798 40.889 48.2581 40.874 48.544C40.876 49.07 41.246 49.28 41.704 49.018Z" fill="#00AAA9"/>
<g opacity="0.3">
<path d="M44.884 45.9861L41.874 51.7041L41.022 53.3241L41.608 51.5001L39.95 50.2121L38.1 53.8841L38.106 56.1261L47.806 50.5261L47.8 48.2821L44.884 45.9861Z" fill="white"/>
<path d="M41.704 49.018C41.9438 48.8614 42.1434 48.6505 42.2866 48.4024C42.4297 48.1543 42.5124 47.876 42.528 47.59C42.528 47.066 42.154 46.854 41.698 47.118C41.4578 47.2737 41.2579 47.4841 41.1147 47.732C40.9714 47.9798 40.889 48.2581 40.874 48.544C40.876 49.07 41.246 49.28 41.704 49.018Z" fill="white"/>
</g>
<path d="M62.05 36.262L59.04 41.98L58.188 43.6L58.774 41.776L57.114 40.488L55.266 44.16L55.272 46.402L64.972 40.802L64.966 38.558L62.05 36.262Z" fill="#455A64"/>
<path d="M58.868 39.2939C59.1084 39.1378 59.3084 38.9271 59.4516 38.6789C59.5949 38.4307 59.6772 38.1521 59.692 37.8659C59.692 37.3419 59.32 37.1299 58.864 37.3939C58.6231 37.5488 58.4227 37.7591 58.2794 38.0071C58.1361 38.2551 58.054 38.5338 58.04 38.8199C58.04 39.3459 58.412 39.5559 58.868 39.2939Z" fill="#455A64"/>
<g opacity="0.8">
<path d="M62.05 36.262L59.04 41.98L58.188 43.6L58.774 41.776L57.114 40.488L55.266 44.16L55.272 46.402L64.972 40.802L64.966 38.558L62.05 36.262Z" fill="white"/>
<path d="M58.868 39.2939C59.1084 39.1378 59.3084 38.9271 59.4516 38.6789C59.5949 38.4307 59.6772 38.1521 59.692 37.8659C59.692 37.3419 59.32 37.1299 58.864 37.3939C58.6231 37.5488 58.4227 37.7591 58.2794 38.0071C58.1361 38.2551 58.054 38.5338 58.04 38.8199C58.04 39.3459 58.412 39.5559 58.868 39.2939Z" fill="white"/>
</g>
<path d="M54.532 31.24L54.534 31.882L48.548 35.374L48.546 34.734L54.532 31.24Z" fill="#00AAA9"/>
<path d="M55.786 29.2859L55.788 29.9259L48.544 34.0939L48.542 33.4539L55.786 29.2859Z" fill="#00AAA9"/>
<path d="M51.9261 30.218L51.9281 30.858L48.5401 32.814L48.5381 32.174L51.9261 30.218Z" fill="#00AAA9"/>
<path d="M32.624 61.4438V61.8938L25.238 66.1578V65.7078L32.624 61.4438Z" fill="#455A64"/>
<path d="M32.62 60.542L32.622 60.992L25.236 65.258L25.234 64.806L32.62 60.542Z" fill="#455A64"/>
<path d="M28.44 61.4219L28.442 62.3779L25.232 64.2299L25.23 63.2739L28.44 61.4219Z" fill="#455A64"/>
<path d="M31.3001 58.512V58.962L25.2281 62.468L25.2261 62.016L31.3001 58.512Z" fill="#455A64"/>
<path d="M32.61 56.8499L32.612 57.3019L25.226 61.5659L25.224 61.1159L32.61 56.8499Z" fill="#455A64"/>
<path d="M32.608 55.95L32.61 56.402L25.222 60.6659V60.214L32.608 55.95Z" fill="#455A64"/>
<path d="M66.228 24.73L65.668 25.052L66.004 30.31L66.538 33.448L68.376 33.662L67.624 30.31L66.774 24.76L66.228 24.73Z" fill="#FFCAC9"/>
<path d="M66.37 33.0639C67.638 32.5899 68.466 33.2639 68.466 33.2639L68.666 38.6419L66.404 37.3479L66.37 33.0639Z" fill="#00AAA9"/>
<path d="M66.37 33.0639C67.638 32.5899 68.466 33.2639 68.466 33.2639L68.666 38.6419L66.404 37.3479L66.37 33.0639Z" fill="#455A64"/>
<path opacity="0.1" d="M66.37 33.0639C67.638 32.5899 68.466 33.2639 68.466 33.2639L68.666 38.6419L66.404 37.3479L66.37 33.0639Z" fill="white"/>
<path d="M64.988 19.446L58.998 22.904L59.012 27.482L65.0021 24.024L64.988 19.446Z" fill="#00AAA9"/>
<path d="M64.988 19.446L65.002 24.024L65.556 24.346L65.542 19.126L64.988 19.446Z" fill="#00AAA9"/>
<path d="M59.0121 27.4819L59.0141 28.1239L65.5561 24.3459L65.0021 24.0239L59.0121 27.4819Z" fill="#00AAA9"/>
<path d="M66.21 17.97L58.326 22.522L58.3461 29.282L66.2281 24.73L66.21 17.97ZM59.01 28.124V27.482L59 22.904L64.9901 19.446L65.544 19.126L65.558 24.346L59.01 28.124Z" fill="#00AAA9"/>
<path d="M66.21 17.9699L65.654 17.6479L57.772 22.1999L58.326 22.5219L66.21 17.9699Z" fill="#00AAA9"/>
<path d="M57.772 22.2L57.79 28.9579L58.346 29.282L58.326 22.522L57.772 22.2Z" fill="#00AAA9"/>
<path d="M58.998 22.904L64.988 19.446L65.0021 24.024L59.012 27.482L58.998 22.904Z" fill="#00AAA9"/>
<path d="M63.086 21.1838L64.718 22.4698L64.722 23.7258L59.29 26.8638L59.286 25.6058L60.322 23.5498L61.25 24.2718L60.922 25.2938L61.4 24.3858L63.086 21.1838Z" fill="#00AAA9"/>
<path d="M61.3 21.8178C61.556 21.6698 61.764 21.7878 61.766 22.0818C61.7573 22.2421 61.711 22.398 61.6307 22.5371C61.5504 22.6761 61.4385 22.7942 61.304 22.8818C61.048 23.0298 60.84 22.9098 60.84 22.6158C60.848 22.4558 60.8939 22.3001 60.9739 22.1614C61.0539 22.0227 61.1656 21.9049 61.3 21.8178Z" fill="#00AAA9"/>
<path opacity="0.5" d="M64.988 19.446L65.002 24.024L65.556 24.346L65.542 19.126L64.988 19.446Z" fill="white"/>
<path opacity="0.8" d="M59.0121 27.4819L59.0141 28.1239L65.5561 24.3459L65.0021 24.0239L59.0121 27.4819Z" fill="white"/>
<path opacity="0.7" d="M66.21 17.97L58.326 22.522L58.3461 29.282L66.2281 24.73L66.21 17.97ZM59.01 28.124V27.482L59 22.904L64.9901 19.446L65.544 19.126L65.558 24.346L59.01 28.124Z" fill="white"/>
<path opacity="0.9" d="M66.21 17.9699L65.654 17.6479L57.772 22.1999L58.326 22.5219L66.21 17.9699Z" fill="white"/>
<path opacity="0.5" d="M57.772 22.2L57.79 28.9579L58.346 29.282L58.326 22.522L57.772 22.2Z" fill="white"/>
<path opacity="0.6" d="M64.988 19.446L59 22.904L59.014 27.482L65 24.024L64.988 19.446ZM61.3 21.818C61.556 21.67 61.764 21.788 61.766 22.082C61.7574 22.2423 61.711 22.3983 61.6308 22.5373C61.5505 22.6764 61.4385 22.7945 61.304 22.882C61.048 23.03 60.84 22.91 60.84 22.616C60.8481 22.4561 60.894 22.3004 60.974 22.1617C61.0539 22.023 61.1657 21.9052 61.3 21.818ZM59.29 26.864V25.608L60.326 23.55L61.254 24.272L60.926 25.294L61.404 24.386L63.09 21.186L64.722 22.472V23.728L59.29 26.864Z" fill="white"/>
<path opacity="0.3" d="M63.086 21.1838L61.4 24.3858L60.922 25.2938L61.25 24.2718L60.322 23.5498L59.286 25.6058L59.29 26.8638L64.722 23.7258L64.718 22.4698L63.086 21.1838Z" fill="white"/>
<path opacity="0.3" d="M61.3041 22.882C61.4386 22.7944 61.5506 22.6763 61.6308 22.5373C61.7111 22.3983 61.7575 22.2423 61.7661 22.082C61.7661 21.788 61.5561 21.67 61.3001 21.818C61.1655 21.9053 61.0536 22.0234 60.9736 22.1625C60.8936 22.3016 60.8479 22.4577 60.8401 22.618C60.8401 22.91 61.0481 23.03 61.3041 22.882Z" fill="white"/>
<path d="M60.816 34.73L59.784 33.4L58.636 27.982C58.6048 27.837 58.6174 27.6859 58.672 27.548L58.812 27.202C58.8841 27.0195 58.9181 26.8242 58.912 26.628L58.888 25.868C58.8855 25.808 58.86 25.7514 58.8168 25.7097C58.7736 25.668 58.716 25.6445 58.656 25.644C58.6018 25.644 58.5493 25.6631 58.5077 25.6978C58.466 25.7325 58.4378 25.7807 58.428 25.834L58.31 26.494L58.03 26.814L57.778 25.912V24.76L57.21 25.584C57.0578 25.8053 56.9969 26.0769 57.04 26.342L57.278 27.784L57.864 33.718C57.924 34.3227 58.1589 34.8967 58.54 35.37L59.182 36.17L60.816 34.73Z" fill="#FFCAC9"/>
<path d="M64.02 66.316C63.949 66.4808 63.832 66.6216 63.683 66.7216C63.534 66.8216 63.3594 66.8766 63.18 66.88C62.8223 66.8804 62.466 66.8347 62.12 66.744C61.334 66.602 60.574 66.744 59.788 66.724C59.5304 66.726 59.2734 66.6984 59.022 66.642C58.7687 66.583 58.5397 66.4475 58.366 66.254C58.2685 66.1397 58.203 66.0018 58.176 65.854C58.1597 65.9681 58.1683 66.0843 58.2011 66.1948C58.2338 66.3052 58.2901 66.4073 58.366 66.494C58.5397 66.6876 58.7687 66.823 59.022 66.882C59.2734 66.9384 59.5304 66.966 59.788 66.964C60.574 66.984 61.334 66.842 62.12 66.984C62.466 67.0747 62.8223 67.1204 63.18 67.12C63.3594 67.1166 63.534 67.0616 63.683 66.9616C63.832 66.8616 63.949 66.7208 64.02 66.556C64.0526 66.4383 64.0615 66.3152 64.046 66.194C64.0407 66.2353 64.032 66.2761 64.02 66.316Z" fill="#455A64"/>
<path d="M64 65.6639L63.856 64.9479C63.8382 64.82 63.7968 64.6966 63.734 64.5839C63.7024 64.5276 63.6562 64.4809 63.6002 64.4488C63.5442 64.4168 63.4805 64.4005 63.416 64.4019C62.984 64.3439 62.378 64.1879 62.016 64.4339C61.4495 64.8215 60.7739 65.0177 60.088 64.9939C59.7336 64.952 59.3765 64.938 59.02 64.9519C58.666 64.9939 58.298 65.1919 58.192 65.5319C58.1631 65.6333 58.1569 65.7398 58.174 65.8439C58.2009 65.9916 58.2665 66.1296 58.364 66.2439C58.5377 66.4374 58.7667 66.5729 59.02 66.6319C59.2713 66.6883 59.5283 66.7158 59.786 66.7139C60.572 66.7319 61.332 66.5919 62.118 66.7339C62.464 66.8245 62.8203 66.8702 63.178 66.8699C63.3574 66.8665 63.532 66.8115 63.681 66.7115C63.8299 66.6114 63.9469 66.4706 64.018 66.3059C64.0305 66.2627 64.0392 66.2185 64.044 66.1739C64.0562 66.0026 64.0413 65.8305 64 65.6639Z" fill="#455A64"/>
<path d="M61.9141 63.6841L61.8821 64.6161C61.8787 64.7119 61.9127 64.8053 61.9769 64.8766C62.0411 64.9478 62.1304 64.9914 62.2261 64.9981C62.5382 65.0231 62.8519 65.0231 63.1641 64.9981C63.2907 64.9855 63.4087 64.9283 63.497 64.8367C63.5853 64.7451 63.6381 64.6251 63.6461 64.4981L63.6821 63.8101L61.9141 63.6841Z" fill="#FFCAC9"/>
<path d="M68.0001 63.1878C67.9966 63.3257 67.9535 63.4597 67.8761 63.5738C67.7648 63.7076 67.6082 63.7959 67.4361 63.8218C67.2302 63.857 67.0185 63.8334 66.8254 63.7538C66.6323 63.6742 66.4654 63.5418 66.3441 63.3718C66.2261 63.2018 66.1601 63.0018 66.0481 62.8278C65.8806 62.5937 65.6735 62.3907 65.4361 62.2278C65.1987 62.0636 64.9905 61.8608 64.8201 61.6278C64.7392 61.5153 64.6863 61.3851 64.6658 61.2481C64.6453 61.1111 64.6577 60.9711 64.7021 60.8398C64.6792 60.871 64.6598 60.9045 64.6441 60.9398C64.592 61.0778 64.5749 61.2264 64.594 61.3726C64.6132 61.5188 64.6682 61.658 64.7541 61.7778C64.9287 62.0148 65.1416 62.221 65.3841 62.3878C65.6262 62.5547 65.8373 62.7625 66.0081 63.0018C66.1221 63.1798 66.1901 63.3858 66.3101 63.5618C66.4329 63.7366 66.6028 63.8729 66.7999 63.955C66.9971 64.0371 67.2135 64.0617 67.4241 64.0258C67.5999 63.9988 67.7595 63.9076 67.8721 63.7698C67.9731 63.6102 68.0194 63.4221 68.0041 63.2338C68.0001 63.2278 68.0001 63.1998 68.0001 63.1878Z" fill="#455A64"/>
<path d="M67.718 62.0179C67.434 61.5219 66.85 61.1599 66.398 60.8179C66.1513 60.6031 65.8478 60.4642 65.524 60.4179C65.3627 60.399 65.1994 60.4285 65.0548 60.5026C64.9102 60.5766 64.7909 60.6919 64.712 60.8339C64.712 60.8339 64.712 60.8519 64.702 60.8599C64.6577 60.9912 64.6452 61.1311 64.6657 61.2682C64.6863 61.4052 64.7391 61.5354 64.82 61.6479C64.9904 61.8809 65.1986 62.0837 65.436 62.2479C65.6734 62.4107 65.8805 62.6138 66.048 62.8479C66.16 63.0219 66.226 63.2219 66.344 63.3919C66.4654 63.5619 66.6322 63.6943 66.8253 63.7739C67.0185 63.8535 67.2301 63.877 67.436 63.8419C67.6081 63.816 67.7647 63.7277 67.876 63.5939C67.9535 63.4798 67.9965 63.3458 68 63.2079C68 63.1639 68 63.1179 68 63.0739C67.9955 62.7039 67.8985 62.3409 67.718 62.0179Z" fill="#455A64"/>
<path d="M66.488 61.5879V62.4359C66.6962 62.5333 66.9249 62.5787 67.1544 62.5683C67.384 62.5578 67.6076 62.4918 67.806 62.3759L67.886 61.6139L66.488 61.5879Z" fill="#FFCAC9"/>
<path d="M68.1081 46.2161C68.3621 46.9801 68.0501 50.6001 67.9081 54.0741C68.4581 55.3881 68.3081 59.1161 67.9921 61.7621C67.9921 61.7621 67.4421 62.1021 66.4461 61.7621L65.2001 54.4561L65.0261 50.3261C65.0261 50.3261 64.7121 53.9901 64.3521 56.3401C64.6901 58.1401 64.6061 58.4801 63.7701 64.0181C63.4793 64.1639 63.1584 64.2399 62.8331 64.2399C62.5077 64.2399 62.1869 64.1639 61.8961 64.0181C61.4221 56.2381 61.5961 49.1481 61.6861 46.5981L68.1081 46.2161Z" fill="#00AAA9"/>
<path opacity="0.5" d="M68.1081 46.2161C68.3621 46.9801 68.0501 50.6001 67.9081 54.0741C68.4581 55.3881 68.3081 59.1161 67.9921 61.7621C67.9921 61.7621 67.4421 62.1021 66.4461 61.7621L65.2001 54.4561L65.0261 50.3261C65.0261 50.3261 64.7121 53.9901 64.3521 56.3401C64.6901 58.1401 64.6061 58.4801 63.7701 64.0181C63.4793 64.1639 63.1584 64.2399 62.8331 64.2399C62.5077 64.2399 62.1869 64.1639 61.8961 64.0181C61.4221 56.2381 61.5961 49.1481 61.6861 46.5981L68.1081 46.2161Z" fill="black"/>
<path opacity="0.1" d="M68.1081 46.2161C68.3621 46.9801 68.0501 50.6001 67.9081 54.0741C68.4581 55.3881 68.3081 59.1161 67.9921 61.7621C67.9921 61.7621 67.4421 62.1021 66.4461 61.7621L65.2001 54.4561L65.0261 50.3261C65.0261 50.3261 64.7121 53.9901 64.3521 56.3401C64.6901 58.1401 64.6061 58.4801 63.7701 64.0181C63.4793 64.1639 63.1584 64.2399 62.8331 64.2399C62.5077 64.2399 62.1869 64.1639 61.8961 64.0181C61.4221 56.2381 61.5961 49.1481 61.6861 46.5981L68.1081 46.2161Z" fill="white"/>
<path opacity="0.3" d="M65.1241 52.8399L64.9821 49.4719C65.8521 49.4719 66.6601 48.8219 67.2741 48.2039C66.8626 48.8733 66.258 49.4025 65.5401 49.7219L65.1241 52.8399Z" fill="black"/>
<path d="M61.5441 46.8C65.4281 48.428 67.9441 46.958 68.2881 46.2C68.1081 43.516 68.7441 40.374 68.6881 39.04C68.6321 37.706 68.4821 36.2 66.4121 36.5L64.2121 36.714L63.0961 36.986L61.7581 39.766L61.5441 46.8Z" fill="#455A64"/>
<path d="M66.412 35.446C66.5689 35.4556 66.7234 35.4032 66.842 35.3C66.8869 35.2507 66.9196 35.1915 66.9373 35.1272C66.955 35.0629 66.9573 34.9954 66.944 34.93C67.0094 34.9178 67.0708 34.8895 67.1224 34.8475C67.1741 34.8056 67.2145 34.7515 67.24 34.69C67.2599 34.6226 67.2641 34.5515 67.2523 34.4822C67.2405 34.4128 67.213 34.3471 67.172 34.29C67.2663 34.2655 67.3541 34.221 67.4297 34.1596C67.5053 34.0982 67.5668 34.0213 67.61 33.934C67.6538 33.8441 67.6781 33.7459 67.6812 33.646C67.6843 33.546 67.6662 33.4465 67.628 33.354C67.7317 33.3267 67.8266 33.2731 67.9037 33.1985C67.9807 33.1239 68.0373 33.0308 68.068 32.928C68.1007 32.8212 68.1064 32.708 68.0848 32.5985C68.0632 32.4889 68.0148 32.3864 67.944 32.3C68.033 32.1807 68.0889 32.04 68.1061 31.8922C68.1233 31.7444 68.1012 31.5946 68.042 31.458C67.9734 31.3212 67.8708 31.2043 67.744 31.1185C67.6172 31.0327 67.4706 30.9809 67.318 30.968C67.3392 30.8247 67.3244 30.6783 67.2748 30.5421C67.2252 30.4059 67.1425 30.2842 67.034 30.188C66.9247 30.0966 66.794 30.0343 66.6541 30.0071C66.5142 29.9798 66.3697 29.9884 66.234 30.032C66.184 29.9126 66.1046 29.8078 66.0033 29.7272C65.902 29.6466 65.782 29.5929 65.6544 29.5709C65.5268 29.549 65.3957 29.5596 65.2733 29.6017C65.1509 29.6439 65.0411 29.7162 64.954 29.812C64.8908 29.7386 64.8105 29.6819 64.7201 29.647C64.6297 29.6121 64.5322 29.6001 64.436 29.612C64.3385 29.6211 64.2447 29.6539 64.1627 29.7076C64.0808 29.7613 64.0133 29.8342 63.966 29.92C63.8433 29.8643 63.7084 29.8411 63.5742 29.8526C63.4399 29.864 63.3109 29.9098 63.1994 29.9855C63.088 30.0612 62.9979 30.1643 62.9377 30.2849C62.8776 30.4055 62.8495 30.5395 62.856 30.674C62.7576 30.7027 62.6714 30.7632 62.611 30.8461C62.5505 30.929 62.5192 31.0295 62.522 31.132C62.5308 31.2369 62.5728 31.3363 62.6418 31.4157C62.7109 31.4952 62.8034 31.5506 62.906 31.574C63.1003 32.6277 63.448 33.6472 63.938 34.6C64.156 35.024 64.424 35.454 64.846 35.674C65.304 35.916 66.022 35.78 66.412 35.446Z" fill="#37474F"/>
<path d="M62.7501 32.96L62.2941 33.752L62.7921 33.938L62.7501 32.96Z" fill="#FFA8A7"/>
<path d="M62.906 31.582C62.6032 32.6789 62.5587 33.8311 62.776 34.948C62.7969 35.1394 62.8657 35.3223 62.976 35.48C63.1271 35.6412 63.3353 35.7367 63.556 35.746C63.7738 35.7543 63.9918 35.7334 64.204 35.684V36.714C64.986 36.898 65.792 36.972 66.404 36.5V35.446C65.9627 35.5866 65.4933 35.6155 65.038 35.53C64.498 35.238 64.39 34.252 64.466 33.992C64.5136 34.0559 64.5792 34.1041 64.6544 34.1305C64.7296 34.1569 64.811 34.1602 64.888 34.14C64.9624 34.1197 65.0318 34.0846 65.0923 34.0368C65.1528 33.9891 65.203 33.9296 65.24 33.862C65.3113 33.7251 65.3554 33.5757 65.37 33.422C65.4085 33.2369 65.3801 33.0442 65.29 32.878C65.2199 32.7871 65.124 32.7194 65.0149 32.6837C64.9057 32.6481 64.7883 32.6461 64.678 32.678C64.456 32.7488 64.2707 32.9039 64.162 33.11C64.1275 33.1745 64.0974 33.2414 64.072 33.31C64.0625 33.336 64.0445 33.358 64.0209 33.3723C63.9973 33.3867 63.9695 33.3926 63.9421 33.3892C63.9146 33.3857 63.8892 33.373 63.87 33.3532C63.8507 33.3333 63.8387 33.3075 63.836 33.28C63.8071 32.9771 63.8639 32.6722 64 32.4C63.9109 32.3909 63.8249 32.3619 63.7484 32.3152C63.6719 32.2685 63.6069 32.2052 63.558 32.13C63.5066 32.0595 63.4722 31.978 63.4577 31.8919C63.4431 31.8058 63.4487 31.7176 63.474 31.634C63.2831 31.6493 63.091 31.6317 62.906 31.582Z" fill="#FFCAC9"/>
<path d="M63.096 36.986L60.722 34.272C59.358 34.606 58.588 36.022 58.588 36.022L61.758 39.766C64.082 40.68 63.096 36.986 63.096 36.986Z" fill="#00AAA9"/>
<path d="M66.0301 24.844L65.8561 24.166L65.6741 23.348C65.6605 23.2974 65.6673 23.2434 65.6931 23.1978C65.719 23.1522 65.7617 23.1185 65.8121 23.104C65.838 23.0941 65.8657 23.0896 65.8934 23.091C65.9212 23.0923 65.9483 23.0995 65.9731 23.1119C65.998 23.1243 66.0199 23.1417 66.0377 23.1631C66.0554 23.1845 66.0685 23.2093 66.0761 23.236L66.2281 23.68V22.426L66.7521 23.362C66.8297 23.503 66.8644 23.6636 66.8521 23.824L66.7741 24.76L66.0301 24.844Z" fill="#FFCAC9"/>
<path d="M63.096 36.986L60.722 34.272C59.358 34.606 58.588 36.022 58.588 36.022L61.758 39.766C64.082 40.68 63.096 36.986 63.096 36.986Z" fill="#455A64"/>
<path opacity="0.1" d="M63.096 36.986L60.722 34.272C59.358 34.606 58.588 36.022 58.588 36.022L61.758 39.766C64.082 40.68 63.096 36.986 63.096 36.986Z" fill="white"/>
<path d="M81.636 51.4799C81.3996 50.6601 81.1158 49.8548 80.786 49.0679C79.746 46.2839 79.06 45.5539 77.83 45.7819L78.678 49.7819L79.748 51.8459L78.776 53.4719L79.85 55.1699L81.472 52.6539C81.5826 52.4818 81.6546 52.2876 81.6829 52.085C81.7112 51.8823 81.6952 51.6758 81.636 51.4799Z" fill="#FFBEA7"/>
<path d="M75.934 74.9359C75.8467 75.064 75.7326 75.1717 75.5997 75.2514C75.4667 75.3312 75.3181 75.3812 75.164 75.3979C74.8113 75.4288 74.456 75.4065 74.11 75.3319C73.5885 75.2596 73.0605 75.2462 72.536 75.2919C72.2116 75.3341 71.8851 75.3575 71.558 75.3619C71.2274 75.3653 70.9044 75.263 70.636 75.0699C70.4512 74.9244 70.3283 74.7143 70.292 74.4819C70.2752 74.6336 70.2981 74.7871 70.3584 74.9273C70.4187 75.0676 70.5143 75.1898 70.636 75.2819C70.9044 75.475 71.2274 75.5773 71.558 75.5739C71.8851 75.5705 72.2117 75.5471 72.536 75.5039C73.0605 75.4582 73.5885 75.4716 74.11 75.5439C74.46 75.5939 74.84 75.6939 75.19 75.6359C75.3438 75.6192 75.4922 75.5692 75.6248 75.4894C75.7574 75.4096 75.8711 75.302 75.958 75.1739L75.934 74.9359Z" fill="#263238"/>
<path d="M72.114 74.3139C72.406 74.3139 72.298 73.8779 72.578 73.5879C72.464 73.5879 72.35 73.5879 72.236 73.5879C71.986 73.9579 71.914 74.3139 72.114 74.3139Z" fill="white"/>
<path d="M72.724 74.29C73.018 74.29 72.942 73.772 73.232 73.47C73.166 73.492 73.098 73.512 73.032 73.528C72.966 73.544 72.916 73.55 72.858 73.56C72.6 73.926 72.522 74.29 72.724 74.29Z" fill="white"/>
<path d="M75.63 73.2978C75.6099 73.2016 75.5551 73.1162 75.476 73.0578L73.89 73.0178C73.7215 73.2316 73.492 73.3892 73.232 73.4698C72.942 73.7718 73.018 74.2898 72.724 74.2898C72.524 74.2898 72.596 73.9258 72.856 73.5598C72.764 73.5738 72.672 73.5818 72.578 73.5878C72.298 73.8778 72.406 74.3138 72.114 74.3138C71.914 74.3138 71.986 73.9578 72.236 73.5958H72.014C71.946 73.5958 71.88 73.5958 71.814 73.5838C71.23 74.0458 71.18 74.5458 71.256 75.3318C71.3565 75.3495 71.4581 75.3602 71.56 75.3638C71.8871 75.3594 72.2137 75.336 72.538 75.2938C73.0625 75.2481 73.5905 75.2615 74.112 75.3338C74.4581 75.4084 74.8134 75.4307 75.166 75.3998C75.3202 75.3831 75.4688 75.3331 75.6017 75.2533C75.7347 75.1736 75.8487 75.0659 75.936 74.9378L75.63 73.2978Z" fill="#455A64"/>
<path d="M71.812 73.582C71.547 73.5394 71.2769 73.5394 71.012 73.582C70.8487 73.6134 70.6966 73.6875 70.5711 73.7968C70.4457 73.906 70.3515 74.0465 70.298 74.204C70.275 74.2949 70.2709 74.3895 70.286 74.482C70.3223 74.7144 70.4452 74.9245 70.63 75.07C70.8115 75.2061 71.0238 75.2954 71.248 75.33C71.178 74.544 71.228 74.044 71.812 73.582Z" fill="white"/>
<path d="M73.844 72.5659V73.3299C73.844 73.4134 73.877 73.4935 73.9358 73.5527C73.9947 73.6119 74.0745 73.6454 74.158 73.6459H74.958C75.0921 73.646 75.221 73.5938 75.3173 73.5005C75.4136 73.4072 75.4698 73.28 75.474 73.1459L75.494 72.5659H73.844Z" fill="#FFBEA7"/>
<path d="M79.134 72.226C79.0895 72.319 79.0218 72.399 78.9373 72.4582C78.8529 72.5174 78.7547 72.5538 78.652 72.564C78.438 72.5793 78.2246 72.5268 78.042 72.414C77.768 72.238 77.66 71.964 77.472 71.716C77.2756 71.4759 77.0529 71.2585 76.808 71.068C76.5445 70.873 76.3279 70.6215 76.174 70.332C76.1361 70.2462 76.1112 70.1552 76.1 70.062C76.0752 70.2382 76.1008 70.4178 76.174 70.58C76.3279 70.8695 76.5445 71.121 76.808 71.316C77.0529 71.5065 77.2756 71.7239 77.472 71.964C77.66 72.212 77.768 72.486 78.042 72.662C78.2246 72.7748 78.438 72.8273 78.652 72.812C78.7547 72.8018 78.8529 72.7654 78.9373 72.7062C79.0218 72.647 79.0895 72.567 79.134 72.474C79.1662 72.3344 79.1756 72.1906 79.162 72.048C79.1625 72.1085 79.153 72.1686 79.134 72.226Z" fill="#263238"/>
<path d="M77.33 70.548C77.3026 70.5856 77.2892 70.6316 77.292 70.678C77.2963 70.7007 77.3065 70.722 77.3216 70.7395C77.3367 70.7571 77.3562 70.7703 77.378 70.778C77.4092 70.7851 77.4416 70.7847 77.4726 70.7767C77.5036 70.7687 77.5322 70.7533 77.556 70.732C77.6021 70.6869 77.6437 70.6373 77.68 70.584C77.7843 70.4507 77.9224 70.3478 78.08 70.286C78.1588 70.2581 78.2408 70.24 78.324 70.232L78.124 70.052C77.999 70.0592 77.8763 70.089 77.762 70.14C77.5805 70.2298 77.43 70.3719 77.33 70.548Z" fill="white"/>
<path d="M77.372 69.9179C77.1874 70.0032 77.0332 70.1427 76.93 70.3179C76.9026 70.3555 76.8891 70.4014 76.892 70.4479C76.896 70.4705 76.9062 70.4916 76.9213 70.5089C76.9365 70.5261 76.9561 70.5389 76.978 70.5459C77.0091 70.5543 77.0419 70.5545 77.0731 70.5464C77.1043 70.5383 77.1328 70.5223 77.156 70.4999C77.2026 70.4559 77.2441 70.4069 77.28 70.3539C77.3837 70.22 77.522 70.1169 77.68 70.0559C77.8079 70.0094 77.9443 69.9909 78.08 70.0019L77.88 69.8239C77.7053 69.8102 77.5301 69.8426 77.372 69.9179Z" fill="white"/>
<path d="M77.768 69.7179C77.5875 69.5428 77.3768 69.4018 77.146 69.3019C77.0059 69.2409 76.8518 69.2196 76.7004 69.2404C76.5491 69.2612 76.4064 69.3233 76.288 69.4199C76.2086 69.5047 76.1502 69.607 76.1176 69.7185C76.0849 69.83 76.0789 69.9476 76.1 70.0619C76.1112 70.155 76.1361 70.246 76.174 70.3319C76.2269 70.4441 76.2942 70.5489 76.374 70.6439C76.448 69.9599 77.04 69.6419 77.768 69.7179Z" fill="white"/>
<path d="M79.148 71.5559C79.1523 71.3239 79.0994 71.0945 78.994 70.8879L78.608 70.4879L78.332 70.2359C78.2488 70.2438 78.1669 70.262 78.088 70.2899C77.9305 70.3516 77.7923 70.4545 77.688 70.5879C77.6517 70.6412 77.6102 70.6908 77.564 70.7359C77.5402 70.7572 77.5116 70.7725 77.4806 70.7805C77.4497 70.7885 77.4172 70.789 77.386 70.7819C77.3642 70.7742 77.3448 70.7609 77.3297 70.7434C77.3146 70.7258 77.3043 70.7046 77.3 70.6819C77.2972 70.6354 77.3106 70.5895 77.338 70.5519C77.442 70.3773 77.596 70.2379 77.78 70.1519C77.8944 70.1009 78.017 70.0711 78.142 70.0639L78.098 70.0219C77.9624 70.0109 77.826 70.0294 77.698 70.0759C77.5401 70.1369 77.4018 70.24 77.298 70.3739C77.2622 70.427 77.2206 70.4759 77.174 70.5199C77.1509 70.5423 77.1223 70.5583 77.0911 70.5664C77.0599 70.5745 77.0272 70.5743 76.996 70.5659C76.9741 70.5589 76.9545 70.5461 76.9394 70.5289C76.9242 70.5116 76.9141 70.4905 76.91 70.4679C76.9072 70.4214 76.9206 70.3755 76.948 70.3379C77.043 70.1704 77.1848 70.0344 77.3561 69.9466C77.5274 69.8589 77.7207 69.8231 77.912 69.8439L77.794 69.7359C77.066 69.6599 76.474 69.9779 76.394 70.6619C76.527 70.8161 76.6736 70.958 76.832 71.0859C77.0769 71.2764 77.2996 71.4937 77.496 71.7339C77.684 71.9819 77.792 72.2559 78.066 72.4319C78.2486 72.5447 78.462 72.5972 78.676 72.5819C78.7787 72.5717 78.8769 72.5353 78.9613 72.4761C79.0458 72.4168 79.1135 72.3369 79.158 72.2439C79.177 72.1865 79.1865 72.1263 79.186 72.0659C79.1828 71.8953 79.1702 71.725 79.148 71.5559Z" fill="#455A64"/>
<path d="M77.756 70.3479L77.802 71.1679C78.32 71.4659 78.864 71.3039 79.046 71.1159L79.08 70.3479H77.756Z" fill="#FFBEA7"/>
<path d="M78.776 52.612C78.7314 52.5242 78.7048 52.4283 78.698 52.33L78.654 51.626L73.636 51.948C73.57 52.3 73.502 52.732 73.436 53.22C75.2298 53.6868 77.1331 53.4701 78.776 52.612Z" fill="#FFBEA7"/>
<path d="M75.526 46.1099L74.182 46.3739C73.886 46.9159 73.582 47.4259 73.286 47.9739C73.064 48.3739 72.834 48.8179 72.85 49.2839C72.8625 49.5319 72.9441 49.7716 73.0854 49.9758C73.2267 50.1801 73.4223 50.3408 73.65 50.4399L73.496 52.2739C75.604 52.9179 78.182 52.3519 78.748 51.8639C78.914 51.0959 79.062 50.2779 79.228 49.5099C79.3529 49.015 79.4306 48.5094 79.46 47.9999C79.486 47.4858 79.3623 46.9752 79.104 46.5299V46.5179C78.9276 46.2528 78.6778 46.0447 78.3852 45.919C78.0926 45.7933 77.7698 45.7554 77.456 45.8099L75.526 46.1099Z" fill="#00AAA9"/>
<path opacity="0.1" d="M75.526 46.1099L74.182 46.3739C73.886 46.9159 73.582 47.4259 73.286 47.9739C73.064 48.3739 72.834 48.8179 72.85 49.2839C72.8625 49.5319 72.9441 49.7716 73.0854 49.9758C73.2267 50.1801 73.4223 50.3408 73.65 50.4399L73.496 52.2739C75.604 52.9179 78.182 52.3519 78.748 51.8639C78.914 51.0959 79.062 50.2779 79.228 49.5099C79.3529 49.015 79.4306 48.5094 79.46 47.9999C79.486 47.4858 79.3623 46.9752 79.104 46.5299V46.5179C78.9276 46.2528 78.6778 46.0447 78.3852 45.919C78.0926 45.7933 77.7698 45.7554 77.456 45.8099L75.526 46.1099Z" fill="black"/>
<path opacity="0.3" d="M75.526 46.1099L74.182 46.3739C73.886 46.9159 73.582 47.4259 73.286 47.9739C73.064 48.3739 72.834 48.8179 72.85 49.2839C72.8625 49.5319 72.9441 49.7716 73.0854 49.9758C73.2267 50.1801 73.4223 50.3408 73.65 50.4399L73.496 52.2739C75.604 52.9179 78.182 52.3519 78.748 51.8639C78.914 51.0959 79.062 50.2779 79.228 49.5099C79.3529 49.015 79.4306 48.5094 79.46 47.9999C79.486 47.4858 79.3623 46.9752 79.104 46.5299V46.5179C78.9276 46.2528 78.6778 46.0447 78.3852 45.919C78.0926 45.7933 77.7698 45.7554 77.456 45.8099L75.526 46.1099Z" fill="black"/>
<path d="M78.8539 52.7398C78.8237 52.6998 78.7976 52.657 78.7759 52.6118C77.1325 53.4668 75.2301 53.6806 73.4379 53.2118C73.0579 56.0258 72.7339 60.7938 72.9339 63.9378C73.0999 67.5978 73.7719 72.7818 73.7719 72.7818C74.6519 73.0458 75.3099 72.8838 75.5599 72.6938C75.8519 69.0638 76.4959 66.5738 75.9979 64.1718C76.3299 62.4938 76.5459 60.3838 76.5459 60.3838L76.7999 64.1018L77.6579 70.6238C77.8992 70.7473 78.1687 70.8051 78.4394 70.7914C78.7101 70.7777 78.9724 70.693 79.1999 70.5458C79.8259 66.8158 80.0599 64.2898 79.5139 62.4378C80.3479 56.3178 80.3999 54.7538 78.8539 52.7398Z" fill="#00AAA9"/>
<path opacity="0.4" d="M78.8539 52.7398C78.8237 52.6998 78.7976 52.657 78.7759 52.6118C77.1325 53.4668 75.2301 53.6806 73.4379 53.2118C73.0579 56.0258 72.7339 60.7938 72.9339 63.9378C73.0999 67.5978 73.7719 72.7818 73.7719 72.7818C74.6519 73.0458 75.3099 72.8838 75.5599 72.6938C75.8519 69.0638 76.4959 66.5738 75.9979 64.1718C76.3299 62.4938 76.5459 60.3838 76.5459 60.3838L76.7999 64.1018L77.6579 70.6238C77.8992 70.7473 78.1687 70.8051 78.4394 70.7914C78.7101 70.7777 78.9724 70.693 79.1999 70.5458C79.8259 66.8158 80.0599 64.2898 79.5139 62.4378C80.3479 56.3178 80.3999 54.7538 78.8539 52.7398Z" fill="white"/>
<path opacity="0.2" d="M76.914 59.66L77.376 57.728C77.7433 57.6673 78.0941 57.5316 78.4066 57.3292C78.719 57.1269 78.9864 56.8623 79.192 56.552C78.5557 57.0497 77.7738 57.3251 76.966 57.336L76.546 60.4L76.634 61.706L76.67 61.232C76.7097 60.7024 76.7913 60.1767 76.914 59.66Z" fill="black"/>
<path d="M73.974 46.3499C73.142 46.3879 71.894 46.5259 70.67 46.5019C69.971 46.4916 69.2746 46.4152 68.59 46.2739C68.59 46.2739 66.95 44.3819 66.47 43.5419C66.584 43.0919 66.7 42.6499 66.814 42.2019C66.8529 42.0487 66.8431 41.8873 66.786 41.7399C66.7069 41.5362 66.607 41.3412 66.488 41.1579C66.328 40.9199 66.22 40.6699 65.944 40.5919C65.522 40.4759 65.988 41.0419 66.126 41.2699C65.8935 41.3513 65.6719 41.4608 65.466 41.5959C65.4337 41.6166 65.4062 41.644 65.3855 41.6763C65.3648 41.7086 65.3513 41.745 65.346 41.783C65.3407 41.821 65.3437 41.8597 65.3547 41.8965C65.3657 41.9332 65.3846 41.9671 65.41 41.9959L65.478 42.0739C65.3474 42.3195 65.2767 42.5925 65.2719 42.8705C65.267 43.1486 65.328 43.4239 65.45 43.6739L66.89 47.3979C66.9772 47.6217 67.1205 47.8192 67.3062 47.9716C67.4918 48.1239 67.7135 48.226 67.95 48.2679L70.262 48.6679L73.146 49.1719C73.4514 49.2221 73.7645 49.1561 74.0236 48.9869C74.2827 48.8178 74.4691 48.5577 74.546 48.2579C74.636 47.8939 74.732 47.5879 74.788 47.2319C74.8042 47.1181 74.795 47.0022 74.7608 46.8924C74.7267 46.7827 74.6685 46.682 74.5906 46.5975C74.5126 46.513 74.4168 46.447 74.3102 46.4042C74.2035 46.3614 74.0887 46.3428 73.974 46.3499Z" fill="#FFBEA7"/>
<path d="M73.678 42.8918L73.264 43.6118L73.718 43.7798L73.678 42.8918Z" fill="#E39B81"/>
<path d="M73.632 42.5698C73.698 41.9378 73.882 41.3418 74.294 41.0398C74.1844 41.826 74.352 42.6258 74.768 43.3018C74.8097 43.0932 74.9169 42.9033 75.074 42.7598C75.1367 42.6926 75.2158 42.6431 75.3036 42.616C75.3914 42.5889 75.4848 42.5853 75.5744 42.6056C75.664 42.6258 75.7467 42.6691 75.8144 42.7313C75.882 42.7934 75.9322 42.8722 75.96 42.9598C76.0149 43.0962 76.0296 43.2455 76.0022 43.39C75.9748 43.5345 75.9064 43.668 75.8053 43.7748C75.7042 43.8816 75.5746 43.9571 75.4318 43.9924C75.2891 44.0277 75.1392 44.0212 75 43.9738C75.0574 44.2545 75.1952 44.5124 75.3965 44.7162C75.5978 44.92 75.854 45.0609 76.134 45.1218C76.5031 45.1959 76.8858 45.159 77.234 45.0158L77.404 45.8678C76.71 46.6078 75.526 46.1118 75.526 46.1118L75.37 45.2738C74.006 45.3538 73.878 45.3318 73.728 44.5798C73.604 43.9174 73.5717 43.241 73.632 42.5698Z" fill="#FFBEA7"/>
<path d="M75.508 39.9239C74.862 39.6919 74.096 40.0419 73.744 40.6299C73.5805 40.9326 73.4891 41.2689 73.477 41.6127C73.4648 41.9565 73.5322 42.2985 73.674 42.6119C73.6735 42.0282 73.8951 41.4662 74.294 41.0399C74.166 42.0079 74.278 42.7119 74.768 43.3019C74.8741 43.4287 74.9328 43.5885 74.934 43.7539C74.934 43.9159 74.896 44.0779 74.906 44.2399C74.93 44.5799 75.16 44.8659 75.376 45.1299C75.592 45.3939 75.816 45.6879 75.824 46.0299C75.834 46.5959 75.662 47.1939 75.624 47.7579C75.573 48.3259 75.7078 48.8951 76.008 49.3799C76.2457 49.7087 76.5719 49.9634 76.9485 50.1142C77.3252 50.265 77.737 50.3058 78.136 50.2319C78.5326 50.1473 78.9026 49.9669 79.2136 49.7065C79.5245 49.4461 79.767 49.1136 79.92 48.7379C80.0668 48.36 80.1347 47.956 80.1196 47.5508C80.1045 47.1456 80.0066 46.7479 79.832 46.3819C79.546 45.7679 79.072 45.2559 78.796 44.6379C78.49 43.9519 78.444 43.1859 78.356 42.4379C78.268 41.6899 78.114 40.9199 77.644 40.3339C77.3814 40.0419 77.0305 39.8438 76.6449 39.7698C76.2593 39.6958 75.86 39.7499 75.508 39.9239Z" fill="#263238"/>
<path d="M64.586 65.8639L64.962 66.6539L64.064 67.6419L64.13 69.9979L67.022 67.4879C67.1531 67.3761 67.2437 67.2243 67.2799 67.0558C67.316 66.8873 67.2957 66.7117 67.222 66.5559L66.34 64.7219L64.586 65.8639Z" fill="#8C5757"/>
<path d="M65.478 67.3601C65.2514 67.17 65.0743 66.9277 64.962 66.6541L64.738 66.9001C64.9145 67.1448 65.1804 67.3101 65.478 67.3601Z" fill="#6E3636"/>
<path d="M64.514 66.054C65.664 65.9541 66.446 64.7641 66.446 64.7641C65.418 62.6601 64.522 60.3201 62.728 60.8781L64.514 66.054Z" fill="#00AAA9"/>
<path opacity="0.4" d="M64.514 66.054C65.664 65.9541 66.446 64.7641 66.446 64.7641C65.418 62.6601 64.522 60.3201 62.728 60.8781L64.514 66.054Z" fill="white"/>
<path d="M60.032 90.7999C59.924 91.1419 59.55 91.3359 59.192 91.3659C58.8336 91.3664 58.4767 91.3207 58.13 91.2299C57.34 91.0859 56.58 91.2299 55.792 91.2099C55.5336 91.2121 55.2758 91.1839 55.024 91.1259C54.7702 91.0669 54.5405 90.9315 54.366 90.7379C54.2669 90.6201 54.2012 90.4778 54.176 90.3259C54.1603 90.4406 54.1691 90.5573 54.2019 90.6683C54.2346 90.7793 54.2906 90.8821 54.366 90.9699C54.54 91.1637 54.77 91.2986 55.024 91.3559C55.2758 91.4139 55.5336 91.4421 55.792 91.4399C56.58 91.4579 57.34 91.3179 58.13 91.4599C58.4791 91.5527 58.8388 91.5998 59.2 91.5999C59.3797 91.5969 59.5547 91.5418 59.7038 91.4413C59.8529 91.3409 59.9697 91.1994 60.04 91.0339C60.0744 90.9165 60.0839 90.7932 60.068 90.6719C60.0597 90.7155 60.0477 90.7584 60.032 90.7999Z" fill="#263238"/>
<path d="M60.0121 90.1419C59.9641 89.9019 59.9141 89.6639 59.8661 89.4239C59.8483 89.2961 59.8069 89.1727 59.7441 89.0599C59.7125 89.0036 59.6663 88.957 59.6103 88.9249C59.5543 88.8928 59.4906 88.8766 59.4261 88.878C58.9941 88.82 58.3861 88.6639 58.0261 88.9099C57.4589 89.2994 56.7816 89.4964 56.0941 89.4719C55.7391 89.4294 55.3813 89.4147 55.0241 89.428C54.6701 89.472 54.3001 89.6699 54.1961 90.0119C54.1654 90.1123 54.1586 90.2185 54.1761 90.3219C54.2013 90.4738 54.2669 90.6162 54.3661 90.734C54.5406 90.9275 54.7702 91.063 55.0241 91.1219C55.2787 91.1785 55.5392 91.2047 55.8001 91.1999C56.5881 91.2179 57.3481 91.0759 58.1381 91.2199C58.4848 91.3107 58.8417 91.3564 59.2001 91.3559C59.5581 91.3259 59.9321 91.132 60.0401 90.79C60.0532 90.7468 60.0626 90.7027 60.0681 90.6579C60.0757 90.4841 60.0568 90.3101 60.0121 90.1419Z" fill="#00AAA9"/>
<path d="M57.9221 88.1599L57.8901 89.0939C57.8872 89.1896 57.9214 89.2827 57.9855 89.3539C58.0495 89.425 58.1386 89.4688 58.2341 89.4759C58.5478 89.4977 58.8628 89.4943 59.1761 89.4659C59.303 89.4541 59.4214 89.3972 59.5099 89.3054C59.5984 89.2136 59.6509 89.0932 59.6581 88.9659L59.6941 88.2759L57.9221 88.1599Z" fill="#FFA8A7"/>
<path d="M64.022 87.662C64.0178 87.8001 63.974 87.934 63.896 88.048C63.7853 88.1826 63.6284 88.271 63.456 88.296C63.2497 88.332 63.0375 88.3089 62.8439 88.2292C62.6503 88.1496 62.4832 88.0167 62.362 87.846C62.244 87.676 62.176 87.476 62.066 87.302C61.8982 87.0675 61.6903 86.8644 61.452 86.702C61.2141 86.5378 61.0052 86.335 60.834 86.102C60.7531 85.9891 60.7002 85.8586 60.6797 85.7212C60.6592 85.5839 60.6716 85.4436 60.716 85.312C60.6936 85.3435 60.6742 85.3769 60.658 85.412C60.6054 85.5505 60.588 85.6999 60.6072 85.8468C60.6264 85.9938 60.6816 86.1336 60.768 86.254C60.9439 86.4905 61.1574 86.6966 61.4 86.864C61.6428 87.0315 61.8546 87.2399 62.026 87.48C62.14 87.658 62.208 87.864 62.328 88.04C62.4508 88.2153 62.621 88.3519 62.8186 88.4341C63.0162 88.5163 63.2331 88.5405 63.444 88.504C63.6208 88.4782 63.7814 88.3868 63.894 88.248C63.9943 88.0882 64.0399 87.9 64.024 87.712C64.024 87.702 64.022 87.682 64.022 87.662Z" fill="#263238"/>
<path d="M63.7381 86.49C63.4541 85.992 62.8681 85.63 62.4161 85.278C62.1693 85.0621 61.8648 84.9231 61.5401 84.878C61.3784 84.8584 61.2145 84.8876 61.0695 84.9617C60.9245 85.0358 60.8049 85.1515 60.7261 85.294C60.7261 85.294 60.7261 85.312 60.7161 85.32C60.6717 85.4516 60.6593 85.5919 60.6798 85.7292C60.7003 85.8666 60.7532 85.9971 60.8341 86.11C61.0053 86.343 61.2141 86.5457 61.4521 86.71C61.6904 86.8723 61.8983 87.0754 62.0661 87.31C62.1761 87.484 62.2441 87.684 62.3621 87.854C62.4833 88.0247 62.6504 88.1576 62.844 88.2372C63.0376 88.3168 63.2498 88.34 63.4561 88.304C63.6285 88.279 63.7854 88.1905 63.8961 88.056C63.9741 87.942 64.0178 87.8081 64.0221 87.67C64.0221 87.626 64.0221 87.58 64.0221 87.536C64.0172 87.1689 63.9195 86.8091 63.7381 86.49Z" fill="#00AAA9"/>
<path d="M62.506 86.0581V86.9081C62.7148 87.0055 62.9441 87.0509 63.1744 87.0405C63.4046 87.03 63.6288 86.964 63.828 86.8481L63.908 86.0841L62.506 86.0581Z" fill="#FFA8A7"/>
<path d="M64.13 70.6541C64.384 71.4181 64.306 75.4241 64.158 78.9041C64.4 80.5981 64.392 84.2701 64.074 86.9221C63.7419 87.0708 63.3832 87.1512 63.0193 87.1584C62.6554 87.1656 62.2938 87.0995 61.956 86.9641L61.2 78.9101L61.026 74.7721C61.026 74.7721 60.712 78.4441 60.352 80.8001C60.482 82.5301 60.196 85.8361 59.942 89.3621C59.942 89.3621 58.58 90.1621 57.228 89.2861C56.752 81.4861 57.522 73.5941 57.68 71.0361L64.13 70.6541Z" fill="#455A64"/>
<path opacity="0.3" d="M61.138 77.292L61 73.916C61.874 73.916 62.682 73.264 63.298 72.646C62.8852 73.3168 62.2794 73.8473 61.56 74.168L61.138 77.292Z" fill="black"/>
<path d="M57.552 64.632V71.244C61.444 72.874 63.966 71.4 64.31 70.634C64.13 67.944 64.766 64.796 64.71 63.458C64.654 62.12 64.496 60.614 62.422 60.916L60.222 61.132L59.108 61.4L57.552 64.632Z" fill="#00AAA9"/>
<path opacity="0.3" d="M57.552 64.632V71.244C61.444 72.874 63.966 71.4 64.31 70.634C64.13 67.944 64.766 64.796 64.71 63.458C64.654 62.12 64.496 60.614 62.422 60.916L60.222 61.132L59.108 61.4L57.552 64.632Z" fill="white"/>
<path d="M55.486 64.2739L54.744 65.0459L52.962 62.6859C53.2026 62.0589 53.3495 61.3998 53.398 60.7299C53.3994 60.7014 53.3949 60.6729 53.385 60.6462C53.3751 60.6194 53.3599 60.595 53.3403 60.5742C53.3207 60.5535 53.2971 60.537 53.2709 60.5256C53.2447 60.5142 53.2166 60.5082 53.188 60.5079C53.1477 60.5068 53.1081 60.5178 53.0742 60.5396C53.0403 60.5613 53.0137 60.5928 52.998 60.6299L52.668 61.3219C52.6218 61.3057 52.5798 61.2794 52.5452 61.2447C52.5106 61.2101 52.4842 61.1681 52.468 61.1219L52.404 60.9379C52.3601 60.8154 52.3378 60.6861 52.338 60.5559V60.0999C52.3375 60.0364 52.3205 59.9741 52.2887 59.919C52.2569 59.864 52.2114 59.8181 52.1566 59.7859C52.1018 59.7537 52.0397 59.7362 51.9761 59.7352C51.9126 59.7341 51.8498 59.7495 51.794 59.7799C51.587 59.8915 51.4041 60.0431 51.256 60.2259C51.1128 60.4 51.035 60.6186 51.036 60.8439V61.4599C51.0361 61.6182 51.0639 61.7752 51.118 61.9239L51.44 62.8099C51.4689 62.8907 51.5058 62.9684 51.55 63.0419L53.848 66.8919C53.9305 67.0303 54.0424 67.1487 54.1759 67.2387C54.3094 67.3288 54.4612 67.3883 54.6203 67.4129C54.7795 67.4375 54.9421 67.4268 55.0966 67.3813C55.251 67.3358 55.3936 67.2568 55.514 67.1499L56.978 65.8499L55.486 64.2739Z" fill="#8C5757"/>
<path d="M54.288 66C54.3617 65.6514 54.5181 65.3256 54.744 65.05L54.544 64.78C54.384 65.06 54.166 65.616 54.288 66Z" fill="#6E3636"/>
<path d="M54.288 66C54.3617 65.6514 54.5181 65.3256 54.744 65.05L54.544 64.78C54.384 65.06 54.166 65.616 54.288 66Z" fill="#6E3636"/>
<path d="M55.302 64.278L57.4 62.2219C57.865 61.7638 58.4696 61.4738 59.118 61.3979H59.154C60.04 63.3359 58.87 64.282 58.87 64.282L56.926 66.068C56.1899 65.6822 55.6145 65.048 55.302 64.278Z" fill="#00AAA9"/>
<path opacity="0.4" d="M55.302 64.278L57.4 62.2219C57.865 61.7638 58.4696 61.4738 59.118 61.3979H59.154C60.04 63.3359 58.87 64.282 58.87 64.282L56.926 66.068C56.1899 65.6822 55.6145 65.048 55.302 64.278Z" fill="white"/>
<path d="M59.1681 56.5999C59.127 56.5532 59.1007 56.4954 59.0926 56.4339C59.0844 56.3723 59.0946 56.3096 59.1221 56.2539C59.0676 56.268 59.0108 56.2705 58.9553 56.2612C58.8998 56.2519 58.8469 56.231 58.8001 56.1999C58.7526 56.171 58.7141 56.1295 58.6887 56.0801C58.6633 56.0307 58.652 55.9753 58.6561 55.9199C58.6623 55.8646 58.6863 55.8128 58.7245 55.7724C58.7628 55.732 58.8132 55.7051 58.8681 55.6959C58.7654 55.6736 58.6756 55.6118 58.6181 55.5239C58.5542 55.4408 58.5254 55.3359 58.5381 55.2319C58.5566 55.1366 58.6005 55.0482 58.6654 54.976C58.7302 54.9038 58.8134 54.8505 58.9061 54.8219C59.0932 54.7679 59.2903 54.7576 59.4821 54.7919C59.4517 54.6869 59.4593 54.5746 59.5035 54.4748C59.5478 54.3749 59.6259 54.2938 59.7241 54.2459C59.8125 54.2157 59.907 54.2079 59.9992 54.2232C60.0913 54.2386 60.1782 54.2766 60.2521 54.3339C60.3982 54.4487 60.524 54.5873 60.6241 54.7439C60.8342 54.6305 61.0664 54.5641 61.3047 54.5494C61.543 54.5348 61.7817 54.5721 62.0041 54.6589C62.2265 54.7456 62.4274 54.8797 62.5928 55.0519C62.7583 55.2241 62.8843 55.4302 62.9621 55.6559C63.1366 55.7138 63.2944 55.8134 63.4217 55.9463C63.5489 56.0791 63.6417 56.241 63.6921 56.4179C63.7817 56.7725 63.76 57.146 63.6301 57.4879C63.5004 57.8265 63.3327 58.1492 63.1301 58.4499L62.8541 58.8879C62.7381 59.0699 62.4441 59.5239 62.3281 59.7079C62.069 59.8278 61.7841 59.8813 61.4992 59.8635C61.2142 59.8457 60.9382 59.7571 60.6961 59.6059C60.2223 59.291 59.8571 58.8378 59.6501 58.3079C59.433 57.756 59.2715 57.1838 59.1681 56.5999Z" fill="#263238"/>
<path d="M61.618 59.896C61.2861 59.8957 60.9608 59.8036 60.678 59.63C60.1989 59.3117 59.8295 58.8536 59.62 58.318C59.4047 57.7646 59.2452 57.1911 59.144 56.606C59.1046 56.5634 59.0778 56.5108 59.0665 56.454C59.0552 56.3972 59.0599 56.3383 59.08 56.284C58.976 56.3007 58.8695 56.2794 58.78 56.224C58.7285 56.1921 58.6868 56.1467 58.6593 56.0927C58.6318 56.0388 58.6196 55.9784 58.624 55.918C58.6289 55.8718 58.6452 55.8275 58.6714 55.7892C58.6975 55.7508 58.7328 55.7195 58.774 55.698C58.701 55.6607 58.6379 55.6065 58.59 55.54C58.5229 55.4507 58.4928 55.3389 58.506 55.228C58.5249 55.1279 58.5709 55.0349 58.639 54.9591C58.707 54.8833 58.7945 54.8276 58.892 54.798C59.0697 54.7458 59.2567 54.7328 59.44 54.76C59.4189 54.6533 59.4338 54.5426 59.4823 54.4453C59.5308 54.348 59.6101 54.2694 59.708 54.222C59.8004 54.191 59.8989 54.1831 59.9951 54.1987C60.0913 54.2144 60.1822 54.2533 60.26 54.312C60.4042 54.4238 60.5286 54.559 60.628 54.712C60.8393 54.6032 61.0712 54.5398 61.3085 54.526C61.5458 54.5122 61.7834 54.5483 62.006 54.632C62.2277 54.7231 62.4283 54.8589 62.5952 55.0309C62.7621 55.203 62.8917 55.4076 62.976 55.632C63.1524 55.6914 63.3116 55.7929 63.4398 55.9278C63.5681 56.0627 63.6615 56.2268 63.712 56.406C63.8016 56.7661 63.7793 57.1449 63.648 57.492C63.5176 57.8325 63.3492 58.1572 63.146 58.46C63.056 58.606 62.962 58.752 62.87 58.898L62.6 59.318C62.5 59.476 62.4 59.632 62.342 59.718C62.118 59.8335 61.87 59.8945 61.618 59.896ZM59.172 56.2L59.146 56.258C59.1205 56.3083 59.1106 56.3652 59.1178 56.4211C59.1249 56.4771 59.1487 56.5297 59.186 56.572C59.2865 57.157 59.4453 57.7306 59.66 58.284C59.8671 58.8077 60.2284 59.2562 60.696 59.57C60.9329 59.7191 61.2034 59.8067 61.4828 59.8249C61.7622 59.8431 62.0417 59.7912 62.296 59.674C62.352 59.582 62.452 59.43 62.55 59.274C62.648 59.118 62.75 58.95 62.818 58.858C62.91 58.712 63.002 58.568 63.094 58.42C63.2958 58.1206 63.4629 57.7992 63.592 57.462C63.7183 57.1256 63.74 56.7589 63.654 56.41C63.6043 56.2373 63.5134 56.0793 63.389 55.9497C63.2646 55.8201 63.1105 55.7227 62.94 55.666H62.928V55.654C62.8479 55.4329 62.7224 55.2311 62.5594 55.0616C62.3965 54.8921 62.1997 54.7587 61.982 54.67C61.7628 54.5874 61.5285 54.5523 61.2947 54.5671C61.0609 54.582 60.833 54.6463 60.626 54.756L60.606 54.766L60.594 54.748C60.4947 54.5949 60.3703 54.4596 60.226 54.348C60.1554 54.2943 60.0728 54.2586 59.9854 54.2439C59.8979 54.2293 59.8082 54.2362 59.724 54.264C59.6324 54.3095 59.5595 54.3856 59.5179 54.479C59.4763 54.5724 59.4685 54.6775 59.496 54.776L59.51 54.816H59.468C59.2808 54.7831 59.0886 54.7934 58.906 54.846C58.8181 54.8728 58.739 54.9228 58.677 54.9907C58.6151 55.0586 58.5726 55.142 58.554 55.232C58.5456 55.3293 58.572 55.4265 58.6283 55.5063C58.6847 55.586 58.7674 55.6433 58.862 55.668L59.062 55.698L58.862 55.72C58.8129 55.7283 58.7679 55.7523 58.7337 55.7883C58.6994 55.8244 58.6778 55.8706 58.672 55.92C58.668 55.9707 58.6783 56.0215 58.7016 56.0667C58.7249 56.1119 58.7604 56.1498 58.804 56.176C58.8487 56.2051 58.8993 56.2241 58.9521 56.2317C59.005 56.2393 59.0588 56.2353 59.11 56.22L59.172 56.2Z" fill="#272525"/>
<path d="M58.916 57.7239L58.568 58.3239L58.912 58.4499C58.9005 58.208 58.9019 57.9656 58.916 57.7239Z" fill="#6E3636"/>
<path d="M59.168 56.6001C59.0401 56.9663 58.9555 57.3462 58.916 57.7321C58.903 57.9759 58.903 58.2203 58.916 58.4641C58.9309 58.8079 58.971 59.1502 59.036 59.4881C59.0576 59.6737 59.1265 59.8507 59.236 60.0021C59.3801 60.1578 59.5801 60.2498 59.792 60.2581C60.0024 60.2651 60.2128 60.2449 60.418 60.1981V61.1981C61.172 61.3761 61.796 61.4541 62.386 60.9981L62.324 59.7221C61.9612 59.7721 61.5917 59.7137 61.262 59.5541C60.742 59.2721 60.596 58.8241 60.662 58.5741C60.7077 58.6341 60.7698 58.6794 60.8409 58.7046C60.9119 58.7299 60.9887 58.7338 61.062 58.7161C61.1337 58.697 61.2008 58.6634 61.2589 58.6173C61.3171 58.5712 61.3651 58.5136 61.4 58.4481C61.4698 58.3173 61.5126 58.1738 61.526 58.0261C61.5634 57.8479 61.5365 57.6623 61.45 57.5021C61.3836 57.4128 61.2916 57.3458 61.1862 57.3101C61.0808 57.2744 60.967 57.2716 60.86 57.3021C60.7541 57.335 60.6557 57.3884 60.5706 57.4595C60.4855 57.5306 60.4153 57.6178 60.364 57.7161C60.3294 57.7803 60.2999 57.8472 60.276 57.9161C60.2668 57.941 60.2494 57.9622 60.2267 57.976C60.204 57.9898 60.1773 57.9956 60.1509 57.9924C60.1245 57.9891 60.1 57.9771 60.0813 57.9581C60.0626 57.9392 60.0509 57.9145 60.048 57.8881C60.021 57.6023 60.0729 57.3145 60.198 57.0561C60.1114 57.0984 60.0164 57.1209 59.92 57.1221C59.869 57.1219 59.8187 57.1108 59.7725 57.0894C59.7262 57.068 59.6851 57.0368 59.652 56.9981C59.6208 56.9582 59.603 56.9094 59.6012 56.8587C59.5994 56.8081 59.6137 56.7581 59.642 56.7161C59.56 56.7425 59.4723 56.7456 59.3886 56.7251C59.3049 56.7046 59.2286 56.6614 59.168 56.6001Z" fill="#8C5757"/>
<path d="M41.186 87.5999C41.819 88.2315 42.6098 88.6818 43.476 88.9039C43.724 88.9679 44.016 89.0439 44.108 89.2839C44.1352 89.4018 44.125 89.5253 44.0788 89.6371C44.0325 89.7489 43.9526 89.8436 43.85 89.9079C43.527 90.1262 43.1335 90.2147 42.748 90.1559C42.3672 90.0963 41.9946 89.9922 41.638 89.8459C41.2813 89.6986 40.9056 89.6023 40.522 89.5599C40.3396 89.5592 40.1573 89.5485 39.976 89.5279C39.8856 89.5173 39.7983 89.488 39.7198 89.4418C39.6413 89.3957 39.5733 89.3337 39.52 89.2599C39.52 88.1499 39.808 87.7519 39.808 87.7519L41.186 87.5999Z" fill="#455A64"/>
<path d="M41.212 87.1099V87.8619C40.706 88.4139 39.904 88.0459 39.812 87.7519L39.786 87.1099H41.212Z" fill="#FFA8A7"/>
<path d="M37.434 84.4139C38.332 83.6019 38.834 83.6339 39.048 83.7959C39.262 83.9579 39.648 84.4799 38.648 85.3579C37.648 86.2359 37.726 86.7779 37.032 86.7779C36.338 86.7779 36.47 86.0839 36.47 86.0839C36.4779 85.8438 36.5141 85.6055 36.578 85.3739L37.434 84.4139Z" fill="#455A64"/>
<path d="M37.758 84.9339V85.4659C37.336 85.8279 36.626 85.6219 36.588 85.3739L36.62 84.8479L37.758 84.9339Z" fill="#FFA8A7"/>
<path d="M41.878 70.1699L42.278 79.4059L41.222 87.1099C40.66 87.4719 39.792 87.1099 39.792 87.1099C39.676 84.7399 39.156 81.3779 39.568 79.5799L38.788 74.6139L38.518 78.5999C38.474 80.9419 37.866 83.4339 37.758 84.9299C37.5742 85.0027 37.3762 85.0327 37.1791 85.0178C36.982 85.0029 36.7908 84.9435 36.62 84.8439C36.27 81.7299 35.576 80.0439 36.24 77.8259C35.778 73.6359 35.382 71.0259 35.964 69.9719L41.878 70.1699Z" fill="#263238"/>
<path opacity="0.2" d="M38.628 73.6679L38.778 74.6139L38.696 75.8719L38.4 73.8999C38.1376 73.8658 37.886 73.7743 37.663 73.6319C37.4401 73.4895 37.2512 73.2996 37.11 73.0759C37.5595 73.3953 38.0809 73.5987 38.628 73.6679Z" fill="black"/>
<path d="M40.084 61.5199L37.36 61.1559C36.22 61.0459 35.73 62.2959 35.746 63.4519C35.746 64.1339 36.11 65.8519 36.328 67.6399C36.0847 68.2151 35.9205 68.8206 35.84 69.4399C35.57 70.7699 40.062 71.5159 41.776 70.6159C41.8794 70.5596 41.965 70.4754 42.0229 70.3729C42.0809 70.2703 42.109 70.1536 42.104 70.0359C42.026 67.6159 41.73 64.6859 41.73 64.6859L40.084 61.5199Z" fill="#455A64"/>
<path opacity="0.3" d="M40.084 61.5199L37.36 61.1559C36.22 61.0459 35.73 62.2959 35.746 63.4519C35.746 64.1339 36.11 65.8519 36.328 67.6399C36.0847 68.2151 35.9205 68.8206 35.84 69.4399C35.57 70.7699 40.062 71.5159 41.776 70.6159C41.8794 70.5596 41.965 70.4754 42.0229 70.3729C42.0809 70.2703 42.109 70.1536 42.104 70.0359C42.026 67.6159 41.73 64.6859 41.73 64.6859L40.084 61.5199Z" fill="white"/>
<path d="M41.4 57.6179C41.6086 57.2222 41.7035 56.7763 41.674 56.3299C41.656 56.1079 41.5853 55.8933 41.4677 55.7041C41.3502 55.5148 41.1891 55.3564 40.998 55.2419C40.8034 55.1366 40.5789 55.1002 40.361 55.1387C40.1432 55.1772 39.9447 55.2883 39.798 55.4539C39.4426 55.255 39.0397 55.1566 38.6326 55.1692C38.2255 55.1818 37.8295 55.305 37.4871 55.5256C37.1446 55.7461 36.8687 56.0557 36.6888 56.4211C36.5089 56.7865 36.4319 57.194 36.466 57.5999C36.496 58.0619 36.666 58.5179 36.614 58.9799C36.582 59.2499 36.476 59.5239 36.546 59.7799C36.5818 59.8884 36.6393 59.9884 36.7149 60.074C36.7906 60.1596 36.8828 60.229 36.986 60.2779C37.186 60.3839 37.662 60.3559 37.884 60.4019C38.566 61.0219 39.422 60.7899 39.966 60.2359C40.51 59.6819 41.4 57.6179 41.4 57.6179Z" fill="#F28F8F"/>
<path opacity="0.5" d="M41.4 57.6179C41.6086 57.2222 41.7035 56.7763 41.674 56.3299C41.656 56.1079 41.5853 55.8933 41.4677 55.7041C41.3502 55.5148 41.1891 55.3564 40.998 55.2419C40.8034 55.1366 40.5789 55.1002 40.361 55.1387C40.1432 55.1772 39.9447 55.2883 39.798 55.4539C39.4426 55.255 39.0397 55.1566 38.6326 55.1692C38.2255 55.1818 37.8295 55.305 37.4871 55.5256C37.1446 55.7461 36.8687 56.0557 36.6888 56.4211C36.5089 56.7865 36.4319 57.194 36.466 57.5999C36.496 58.0619 36.666 58.5179 36.614 58.9799C36.582 59.2499 36.476 59.5239 36.546 59.7799C36.5818 59.8884 36.6393 59.9884 36.7149 60.074C36.7906 60.1596 36.8828 60.229 36.986 60.2779C37.186 60.3839 37.662 60.3559 37.884 60.4019C38.566 61.0219 39.422 60.7899 39.966 60.2359C40.51 59.6819 41.4 57.6179 41.4 57.6179Z" fill="black"/>
<path d="M41.4 57.6179C41.6086 57.2222 41.7035 56.7763 41.674 56.3299C41.656 56.1079 41.5853 55.8933 41.4677 55.7041C41.3502 55.5148 41.1891 55.3564 40.998 55.2419C40.8034 55.1366 40.5789 55.1002 40.361 55.1387C40.1432 55.1772 39.9447 55.2883 39.798 55.4539C39.4426 55.255 39.0397 55.1566 38.6326 55.1692C38.2255 55.1818 37.8295 55.305 37.4871 55.5256C37.1446 55.7461 36.8687 56.0557 36.6888 56.4211C36.5089 56.7865 36.4319 57.194 36.466 57.5999C36.496 58.0619 36.666 58.5179 36.614 58.9799C36.582 59.2499 36.476 59.5239 36.546 59.7799C36.5818 59.8884 36.6393 59.9884 36.7149 60.074C36.7906 60.1596 36.8828 60.229 36.986 60.2779C37.186 60.3839 37.662 60.3559 37.884 60.4019C38.566 61.0219 39.422 60.7899 39.966 60.2359C40.51 59.6819 41.4 57.6179 41.4 57.6179Z" fill="#8C5757"/>
<path d="M41.536 58.2339L41.962 58.9739L41.494 59.1459L41.536 58.2339Z" fill="#F28F8F"/>
<path d="M41.5839 57.904C41.5159 57.254 41.3259 56.642 40.9019 56.332C41.0143 57.1396 40.8425 57.9611 40.4159 58.656C40.3729 58.441 40.2622 58.2455 40.0999 58.098C40.0216 58.0231 39.9241 57.9715 39.8181 57.9489C39.7121 57.9263 39.602 57.9336 39.4999 57.97C39.3613 58.0374 39.2538 58.1556 39.1999 58.3C39.143 58.4402 39.1276 58.5937 39.1555 58.7424C39.1835 58.891 39.2536 59.0285 39.3576 59.1384C39.4615 59.2483 39.5949 59.3259 39.7418 59.362C39.8887 59.3981 40.0429 59.3912 40.1859 59.342C40.1272 59.6304 39.9859 59.8954 39.7792 60.1049C39.5726 60.3144 39.3095 60.4593 39.0219 60.522C38.6428 60.5976 38.2499 60.56 37.8919 60.414L37.7159 61.29C38.4279 62.048 39.6459 61.538 39.6459 61.538L39.8059 60.678C41.2059 60.76 41.3379 60.736 41.4919 59.966C41.6157 59.286 41.6466 58.5924 41.5839 57.904Z" fill="#FFA8A7"/>
<path d="M38.48 56.9619C38.2836 56.3969 37.8874 55.9231 37.3661 55.6299C37.0682 55.8622 36.8309 56.1629 36.6742 56.5066C36.5175 56.8503 36.4461 57.2267 36.4661 57.6039C36.4961 58.0659 36.6661 58.5219 36.6141 58.9839C36.5821 59.2539 36.4761 59.5279 36.5461 59.7839C36.5819 59.8924 36.6393 59.9924 36.715 60.078C36.7906 60.1636 36.8828 60.233 36.986 60.2819C37.186 60.3879 37.6621 60.3599 37.8841 60.4059L37.974 60.4799C38.2118 60.0276 38.3976 59.5499 38.5281 59.0559C38.7189 58.3684 38.7022 57.6399 38.48 56.9619Z" fill="#6E3636"/>
<path d="M38.092 56.474C37.9806 56.1128 37.7575 55.7962 37.4548 55.5698C37.1521 55.3434 36.7853 55.2189 36.4073 55.2142C36.0293 55.2096 35.6596 55.325 35.3513 55.5438C35.0431 55.7626 34.8122 56.0736 34.692 56.432C34.27 57.712 35.352 59.072 35.116 60.398C35.03 60.876 34.778 61.312 34.69 61.788C34.6406 62.0637 34.6478 62.3466 34.7112 62.6195C34.7746 62.8923 34.8929 63.1494 35.0589 63.3751C35.2249 63.6007 35.435 63.7902 35.6766 63.9321C35.9182 64.0739 36.1861 64.1651 36.464 64.2C36.16 63.864 36.154 63.346 36.328 62.928C36.5325 62.5237 36.7843 62.1451 37.078 61.8C38.152 60.326 38.622 58.222 38.092 56.474Z" fill="#F28F8F"/>
<path opacity="0.5" d="M38.092 56.474C37.9806 56.1128 37.7575 55.7962 37.4548 55.5698C37.1521 55.3434 36.7853 55.2189 36.4073 55.2142C36.0293 55.2096 35.6596 55.325 35.3513 55.5438C35.0431 55.7626 34.8122 56.0736 34.692 56.432C34.27 57.712 35.352 59.072 35.116 60.398C35.03 60.876 34.778 61.312 34.69 61.788C34.6406 62.0637 34.6478 62.3466 34.7112 62.6195C34.7746 62.8923 34.8929 63.1494 35.0589 63.3751C35.2249 63.6007 35.435 63.7902 35.6766 63.9321C35.9182 64.0739 36.1861 64.1651 36.464 64.2C36.16 63.864 36.154 63.346 36.328 62.928C36.5325 62.5237 36.7843 62.1451 37.078 61.8C38.152 60.326 38.622 58.222 38.092 56.474Z" fill="black"/>
<path d="M38.092 56.474C37.9806 56.1128 37.7575 55.7962 37.4548 55.5698C37.1521 55.3434 36.7853 55.2189 36.4073 55.2142C36.0293 55.2096 35.6596 55.325 35.3513 55.5438C35.0431 55.7626 34.8122 56.0736 34.692 56.432C34.27 57.712 35.352 59.072 35.116 60.398C35.03 60.876 34.778 61.312 34.69 61.788C34.6406 62.0637 34.6478 62.3466 34.7112 62.6195C34.7746 62.8923 34.8929 63.1494 35.0589 63.3751C35.2249 63.6007 35.435 63.7902 35.6766 63.9321C35.9182 64.0739 36.1861 64.1651 36.464 64.2C36.16 63.864 36.154 63.346 36.328 62.928C36.5325 62.5237 36.7843 62.1451 37.078 61.8C38.152 60.326 38.622 58.222 38.092 56.474Z" fill="#8C5757"/>
<path d="M49.132 59.334L47.218 64.8799L43.262 62.684L45.154 57.2L49.132 59.334Z" fill="#00AAA9"/>
<path opacity="0.3" d="M49.132 59.334L47.218 64.8799L43.262 62.684L45.154 57.2L49.132 59.334Z" fill="black"/>
<path opacity="0.2" d="M49.132 59.334L47.218 64.8799L43.262 62.684L45.154 57.2L49.132 59.334Z" fill="white"/>
<path d="M43.85 62.4598L45.426 57.8918L48.542 59.5638L46.95 64.1798L43.85 62.4598Z" fill="white"/>
<path d="M45.974 58.2319L47.706 59.1399L47.782 58.9099L47.446 58.6139L46.496 58.1359L46.064 58.0559L45.974 58.2319Z" fill="#455A64"/>
<path d="M46.496 58.136L46.572 57.96L47.498 58.458L47.446 58.614L46.496 58.136Z" fill="#455A64"/>
<path d="M46.0339 57.672L48.1279 58.796L48.2179 58.578L46.1059 57.468L46.0339 57.672Z" fill="#455A64"/>
<path d="M46.6 57.728C46.782 57.152 47.878 57.694 47.664 58.288L46.6 57.728Z" fill="#455A64"/>
<path d="M42.978 63.8098L44.438 65.7058L46.976 63.2098C47.1174 63.0699 47.2081 62.887 47.234 62.6898C47.354 61.7418 47.618 61.0658 47.954 61.1858C48.166 61.2598 47.894 62.1858 47.894 62.1858L48.21 62.0058L48.58 60.9358H48.746C48.8339 60.9358 48.9196 60.9632 48.9913 61.0141C49.0629 61.0649 49.117 61.1368 49.146 61.2198L49.304 61.6758C49.3976 61.9459 49.4024 62.2388 49.3179 62.5118C49.2333 62.7849 49.0638 63.0238 48.834 63.1938L48.276 63.5998C48.1935 63.663 48.1219 63.7394 48.064 63.8258C47.1844 65.1766 46.1886 66.4481 45.088 67.6258C44.9646 67.7514 44.8012 67.8301 44.626 67.8483C44.4508 67.8666 44.2748 67.8233 44.128 67.7258C42.574 66.6978 41.29 64.9618 41.29 64.9618L42.978 63.8098Z" fill="#FFA8A7"/>
<path d="M40.0839 61.52L40.3319 61.55C40.7379 61.5998 41.1298 61.7299 41.4849 61.9329C41.84 62.1358 42.1511 62.4075 42.3999 62.732L44.2599 65.154C44.2201 65.578 44.0472 65.9785 43.7659 66.2982C43.4846 66.618 43.1094 66.8405 42.6939 66.934L40.6499 64.774C39.5839 63.61 40.0839 61.52 40.0839 61.52Z" fill="#455A64"/>
<path opacity="0.4" d="M40.0839 61.52L40.3319 61.55C40.7379 61.5998 41.1298 61.7299 41.4849 61.9329C41.84 62.1358 42.1511 62.4075 42.3999 62.732L44.2599 65.154C44.2201 65.578 44.0472 65.9785 43.7659 66.2982C43.4846 66.618 43.1094 66.8405 42.6939 66.934L40.6499 64.774C39.5839 63.61 40.0839 61.52 40.0839 61.52Z" fill="white"/>
</svg>
