<svg width="70" height="70" viewBox="0 0 70 70" fill="none" xmlns="http://www.w3.org/2000/svg">
    <path
        d="M54.6017 25.284C54.6019 22.6816 54.0842 20.105 53.0782 17.7049C52.0721 15.3047 50.5985 13.129 48.7426 11.3045C46.8868 9.48005 44.6863 8.0434 42.2693 7.0784C39.8526 6.11338 37.2677 5.63943 34.6656 5.68403C29.6704 5.83257 24.9143 7.85689 21.3444 11.3541C17.7746 14.8513 15.6528 19.5649 15.4016 24.556C15.2822 27.8866 16.014 31.1925 17.5279 34.1617C19.0418 37.1305 21.2878 39.6645 24.0536 41.524C24.8331 42.0308 25.4741 42.7235 25.919 43.5397C26.3638 44.3562 26.5984 45.2704 26.6016 46.2V50.484H43.4016V46.2C43.4016 45.2729 43.6321 44.3604 44.072 43.5442C44.5118 42.728 45.1475 42.0339 45.9217 41.524C48.5878 39.7351 50.7741 37.3184 52.2875 34.4867C53.8011 31.6551 54.5958 28.4947 54.6017 25.284Z"
        stroke="#00AAA9" stroke-width="1.5" stroke-linecap="round" stroke-linejoin="round" />
    <path d="M43.4 58.9121C40.9766 60.7296 38.0293 61.7121 35 61.7121C31.9707 61.7121 29.0233 60.7296 26.6 58.9121"
        stroke="#00AAA9" stroke-width="1.5" stroke-linecap="round" stroke-linejoin="round" />
    <path
        d="M34.9723 15.792L30.3243 23.5759C30.1137 23.9171 29.9986 24.3086 29.9911 24.7095C29.9835 25.1103 30.0835 25.5059 30.2809 25.8549C30.4783 26.2038 30.7655 26.4934 31.113 26.6935C31.4605 26.8935 31.8553 26.9966 32.2563 26.992H37.8563C38.2527 26.9905 38.6428 27.0944 38.9863 27.293C39.3296 27.4916 39.6141 27.7777 39.8107 28.1223C40.0072 28.467 40.1086 28.8576 40.1047 29.2541C40.1007 29.6508 39.9915 30.0392 39.7883 30.38L35.0843 38.192"
        stroke="#00AAA9" stroke-width="1.5" stroke-linecap="round" stroke-linejoin="round" />
</svg>