<svg width="80" height="80" viewBox="0 0 80 80" fill="none" xmlns="http://www.w3.org/2000/svg">
    <path
        d="M64.2812 36.4453C64.2891 36.4687 64.2969 36.4844 64.3047 36.5078C64.2969 36.4922 64.2891 36.4687 64.2812 36.4453ZM65.2109 39.6875C65.2188 39.7187 65.2266 39.7578 65.2344 39.7891C65.2266 39.7578 65.2188 39.7266 65.2109 39.6875ZM64.9609 38.5859C64.9688 38.6094 64.9766 38.6406 64.9844 38.6641C64.9766 38.6406 64.9688 38.6172 64.9609 38.5859ZM64.4688 36.9375C64.4766 36.9687 64.4922 37 64.5 37.0312C64.4922 37.0078 64.4766 36.9766 64.4688 36.9375ZM46.4609 52.1875C46.4609 52.1797 46.4531 52.1797 46.4531 52.1719C46.4531 52.1797 46.4531 52.1875 46.4609 52.1875ZM49.25 51.2891C49.2266 51.3047 49.2109 51.3281 49.1875 51.3438C49.2031 51.3203 49.2266 51.3047 49.25 51.2891ZM64.8203 38.0469C64.8281 38.0781 64.8359 38.1016 64.8438 38.1328C64.8359 38.1094 64.8281 38.0781 64.8203 38.0469ZM48.7266 51.8281C48.6641 51.9062 48.6016 52 48.5391 52.0859C48.6016 51.9922 48.6641 51.9062 48.7266 51.8281ZM62.7969 33.4609C62.8047 33.4766 62.8203 33.4922 62.8281 33.5078C62.8203 33.5 62.8125 33.4844 62.7969 33.4609ZM48.9375 51.5781C48.9141 51.6094 48.8828 51.6328 48.8594 51.6641C48.8828 51.6406 48.9141 51.6094 48.9375 51.5781ZM46.2656 51.7344C46.2578 51.7188 46.2578 51.7109 46.25 51.6953C46.2578 51.7109 46.2656 51.7188 46.2656 51.7344ZM47.9297 53.3047C47.9141 53.3359 47.9063 53.3672 47.8906 53.4062C47.9063 53.375 47.9141 53.3437 47.9297 53.3047ZM63.3359 34.3906C63.3516 34.4219 63.375 34.4609 63.3906 34.4922C63.375 34.4531 63.3516 34.4219 63.3359 34.3906ZM48.8203 51.7188C48.7891 51.75 48.7656 51.7891 48.7344 51.8203C48.7656 51.7812 48.7891 51.75 48.8203 51.7188ZM54.6562 54.8828C54.6484 54.875 54.6406 54.8672 54.6406 54.8594C54.6406 54.875 54.6484 54.875 54.6562 54.8828ZM49.3906 51.1719C49.375 51.1875 49.3594 51.1953 49.3437 51.2109C49.3594 51.2031 49.375 51.1875 49.3906 51.1719ZM47.7109 53.9375C47.6719 53.9062 47.6328 53.8672 47.5938 53.8281C47.6328 53.8672 47.6719 53.8984 47.7109 53.9375ZM66.0938 44.6484L65.6719 44.3516L66.3125 44.7969L66.0938 44.6484ZM46.0938 51.2266C46.0859 51.2031 46.0781 51.1875 46.0781 51.1641C46.0859 51.1797 46.0938 51.2031 46.0938 51.2266ZM48.1797 52.7266C48.2656 52.5547 48.3516 52.3984 48.4375 52.2422C48.3047 52.4688 48.1719 52.7109 48.0547 52.9844C48.0937 52.8984 48.1406 52.8125 48.1797 52.7266ZM61.5156 31.6953C61.5469 31.7344 61.5703 31.7656 61.6016 31.8047C61.5781 31.7656 61.5469 31.7266 61.5156 31.6953ZM46.1797 51.4844C46.1719 51.4687 46.1641 51.4531 46.1641 51.4297C46.1719 51.4531 46.1719 51.4687 46.1797 51.4844ZM65.6172 42.8828C65.6172 42.9375 65.625 42.9844 65.625 43.0391C65.625 42.9922 65.6172 42.9375 65.6172 42.8828ZM47.8125 53.6172C47.8047 53.6328 47.7969 53.6562 47.7969 53.6719C47.8047 53.6562 47.8125 53.6328 47.8125 53.6172ZM65.3906 40.7188C65.3984 40.75 65.3984 40.7734 65.4063 40.8047C65.3984 40.7812 65.3984 40.75 65.3906 40.7188ZM65.5781 42.3437C65.5859 42.3984 65.5859 42.4609 65.5938 42.5156C65.5859 42.4609 65.5781 42.4062 65.5781 42.3437ZM62.2031 32.5781C62.2188 32.6016 62.2344 32.625 62.2578 32.6484C62.2422 32.6328 62.2266 32.6016 62.2031 32.5781ZM65.5312 41.8281C65.5391 41.875 65.5391 41.9219 65.5469 41.9766C65.5391 41.9297 65.5391 41.875 65.5312 41.8281Z"
        fill="white" />
    <path
        d="M64.2656 50.3828L65.3906 50.8828C66.3593 51.3125 67.0703 52.3125 67.5703 53.9375C68.1953 53.3828 68.8906 52.4453 69.2812 50.875C70.1171 47.5469 66.3437 44.8281 66.3046 44.7969L65.664 44.3516L65.6406 43.5703C65.6328 43.3906 65.625 43.2188 65.6171 43.0469C65.6171 42.9922 65.6093 42.9375 65.6093 42.8906C65.6015 42.7656 65.5937 42.6484 65.5859 42.5234C65.5781 42.4687 65.5781 42.4062 65.5703 42.3516C65.5624 42.2266 65.5468 42.1016 65.539 41.9844C65.5312 41.9375 65.5312 41.8906 65.5234 41.8359C65.5078 41.6641 65.4843 41.5 65.4687 41.3359L65.3984 40.8203C65.3906 40.7891 65.3906 40.7656 65.3828 40.7344C65.3593 40.5938 65.3437 40.4531 65.3203 40.3203L65.2968 40.2031L65.2265 39.8047C65.2187 39.7734 65.2109 39.7344 65.2031 39.7031C65.1718 39.5391 65.1406 39.3828 65.1015 39.2188C65.0624 39.0391 65.0156 38.8594 64.9765 38.6797C64.9687 38.6562 64.9609 38.625 64.9531 38.6016C64.914 38.4453 64.8749 38.2969 64.8281 38.1484C64.8203 38.1172 64.8124 38.0938 64.8046 38.0625C64.7031 37.7188 64.6015 37.3828 64.4843 37.0547C64.4765 37.0234 64.4609 36.9922 64.4531 36.9609C64.3984 36.8125 64.3515 36.6719 64.2968 36.5312C64.289 36.5078 64.2812 36.4922 64.2734 36.4687C64.2109 36.3047 64.1484 36.1484 64.0781 35.9844C64.0703 35.9609 64.0624 35.9375 64.0468 35.9219C63.9921 35.7891 63.9296 35.6484 63.8671 35.5156C63.8515 35.4844 63.8359 35.4453 63.8203 35.4141C63.75 35.2656 63.6796 35.1094 63.6093 34.9609C63.5312 34.8125 63.4531 34.6563 63.3749 34.5078C63.3593 34.4766 63.3359 34.4375 63.3203 34.4062C63.2578 34.2891 63.1874 34.1719 63.1249 34.0547C63.1093 34.0234 63.0859 33.9922 63.0703 33.9609C62.9843 33.8203 62.9062 33.6797 62.8124 33.5391C62.8046 33.5234 62.789 33.5078 62.7812 33.4922C62.7031 33.3672 62.6249 33.25 62.5468 33.125C62.5234 33.0859 62.4999 33.0469 62.4687 33.0156C62.3906 32.9063 62.3124 32.7891 62.2343 32.6797C62.2187 32.6562 62.2031 32.6328 62.1796 32.6094C62.0859 32.4766 61.9921 32.3516 61.8906 32.2187L61.8203 32.125C61.7421 32.0234 61.664 31.9219 61.5859 31.8281C61.5546 31.7891 61.5312 31.7578 61.5 31.7188C61.3984 31.5938 61.289 31.4688 61.1875 31.3438C59.7968 29.7578 58.4062 28.8125 57.6249 28.3594C56.8515 28.8125 55.4609 29.7578 54.0624 31.3438C51.2812 34.5156 49.7812 38.6328 49.6171 43.5938L49.5937 44.375L48.9531 44.8203C48.9218 44.8438 45.1406 47.5625 45.9843 50.8906C46.0078 50.9922 46.039 51.0859 46.0624 51.1797C46.0703 51.2031 46.0781 51.2188 46.0781 51.2422C46.1015 51.3125 46.1171 51.3828 46.1406 51.4531C46.1484 51.4687 46.1562 51.4844 46.1562 51.5078L46.2265 51.7188C46.2343 51.7344 46.2343 51.7422 46.2421 51.7578C46.2656 51.8281 46.2968 51.8984 46.3203 51.9688C46.3203 51.9766 46.3281 51.9844 46.3281 51.9922L46.4218 52.2031C46.4218 52.2109 46.4296 52.2109 46.4296 52.2188C46.4609 52.2891 46.4921 52.3594 46.5312 52.4297C46.6015 52.5703 46.6796 52.7031 46.75 52.8281C46.9765 53.1953 47.2109 53.4922 47.4453 53.7344L47.4609 53.75L47.5624 53.8516C47.6015 53.8906 47.6406 53.9219 47.6796 53.9609C47.7109 53.875 47.7343 53.7812 47.7656 53.6953C47.7734 53.6797 47.7812 53.6562 47.7812 53.6406C47.8046 53.5703 47.8281 53.5 47.8593 53.4297C47.8749 53.3984 47.8828 53.3594 47.8984 53.3281C47.9218 53.2734 47.9375 53.2188 47.9609 53.1641C47.9765 53.1172 48 53.0703 48.0234 53.0234C48.0234 53.0156 48.0312 53.0156 48.0312 53.0078C48.1484 52.7344 48.2812 52.4844 48.414 52.2656L48.4218 52.2578L48.5156 52.1172L48.5234 52.1094C48.5859 52.0156 48.6484 51.9297 48.7109 51.8516L48.7187 51.8437C48.7421 51.8125 48.7734 51.7734 48.8046 51.7422C48.8203 51.7266 48.8359 51.7109 48.8437 51.6953C48.8671 51.6641 48.8984 51.6328 48.9218 51.6094L48.9843 51.5469C49.0234 51.5078 49.0546 51.4688 49.0937 51.4375C49.1171 51.4141 49.1406 51.3906 49.1718 51.3672C49.1953 51.3516 49.2109 51.3281 49.2343 51.3125L49.3281 51.2422C49.3437 51.2266 49.3593 51.2188 49.375 51.2031L49.5156 51.1094C49.5312 51.1016 49.5468 51.0938 49.5625 51.0781L49.6796 51.0078L49.7265 50.9844C49.7812 50.9531 49.8281 50.9297 49.8828 50.9062L51.0078 50.4062L51.7578 51.3828C51.9062 51.5703 52.0546 51.7656 52.2109 51.9609C52.9531 52.9062 53.75 53.8906 54.3281 54.5547C54.4062 54.6406 54.4765 54.7188 54.539 54.7969C54.5703 54.8281 54.5937 54.8594 54.625 54.8906C54.6328 54.8984 54.6406 54.9063 54.6406 54.9141C54.6718 54.9453 54.6953 54.9766 54.7187 55H60.5468C61.1953 54.3125 62.4765 52.7344 63.5156 51.3828L64.2656 50.3828ZM57.4609 43.5391C55.0234 43.5391 53.0468 41.5547 53.0468 39.125C53.0468 36.6875 55.0312 34.7109 57.4609 34.7109C59.8906 34.7109 61.8749 36.6953 61.8749 39.125C61.8749 41.5547 59.8984 43.5391 57.4609 43.5391Z"
        fill="white" />
    <path
        d="M51.8594 29.1172C54.3984 26.2813 56.9219 25.1797 57.0234 25.1328L57.6406 24.8672L58.2578 25.1328C58.3672 25.1797 60.8906 26.2813 63.4219 29.1172C64.2812 30.0781 65.2109 31.3125 66.0469 32.8594C65.875 22.2109 57.1484 13.5938 46.4531 13.5938C38.5781 13.5938 31.5313 18.2812 28.4531 25.4141C29.1172 25.6484 29.7578 25.9297 30.3828 26.25C32.5234 27.3594 34.4063 28.9688 35.8359 30.9141C36.3438 31.6094 36.1953 32.5859 35.5 33.1016C34.8047 33.6094 33.8281 33.4609 33.3125 32.7656C30.9453 29.5469 27.1484 27.625 23.1641 27.625C16.2188 27.625 10.5781 33.2734 10.5781 40.2109C10.5781 47.1562 16.2266 52.7969 23.1641 52.7969H43.3281C43.1953 52.4297 43.0703 52.0469 42.9688 51.625C41.8672 47.2578 45.1172 43.9375 46.5469 42.7266C46.9453 35.9609 49.6328 31.6016 51.8594 29.1172ZM40.0625 20.5859C37.4844 22.0625 36.2031 24.0703 36.1875 24.0938C36.0391 24.3281 35.7813 24.4609 35.5234 24.4609C35.3828 24.4609 35.2344 24.4219 35.1094 24.3438C34.7422 24.1172 34.6328 23.6328 34.8672 23.2656C34.9297 23.1719 36.375 20.9062 39.2891 19.2344C41.9766 17.6953 46.4609 16.3906 52.5703 18.9141C52.9688 19.0781 53.1562 19.5391 52.9922 19.9375C52.8281 20.3359 52.3672 20.5234 51.9688 20.3594C47.5391 18.5234 43.5312 18.6016 40.0625 20.5859Z"
        fill="white" />
    <path
        d="M50.5078 55.5703C50.6875 55.5391 50.8672 55.5078 51.0391 55.4688C50.9062 55.3125 50.7813 55.1562 50.6563 55C50.6016 55.1797 50.5469 55.375 50.5078 55.5703Z"
        fill="#00AAA9" />
    <path
        d="M64.6328 55C64.7656 55.4531 64.875 55.9688 64.9453 56.4453L65.1562 58.0547L66.7578 57.7812C66.9297 57.75 70.9688 57.0078 72.3203 51.6328C73.4219 47.2656 70.1719 43.9453 68.7422 42.7344C68.6719 41.5469 68.5313 40.4375 68.3359 39.3906C68.8984 37.3984 69.1875 35.3203 69.1875 33.1953C69.1875 27.125 66.8203 21.4141 62.5313 17.125C58.2344 12.8281 52.5312 10.4688 46.4609 10.4688C37.1562 10.4688 28.8438 16.1172 25.3906 24.6562C24.6562 24.5547 23.9141 24.5 23.1797 24.5C14.5156 24.5 7.46875 31.5469 7.46875 40.2109C7.46875 48.875 14.5156 55.9219 23.1797 55.9219H45.2891C46.8203 57.4531 48.4375 57.7578 48.5469 57.7734L50.1406 58.0391L50.3516 56.4375C50.3906 56.1484 50.4453 55.8516 50.5156 55.5625C50.5625 55.3672 50.6094 55.1719 50.6641 54.9922C50.7891 55.1484 50.9219 55.3047 51.0469 55.4609C51.8672 56.4609 52.7188 57.4297 53.2031 57.7891L53.6172 58.0938H61.6875L62.1016 57.7891C62.6484 57.3828 63.7031 56.1406 64.6328 55ZM42.9688 51.6328C43.0703 52.0469 43.1953 52.4375 43.3281 52.8047H23.1641C16.2187 52.8047 10.5781 47.1562 10.5781 40.2188C10.5781 33.2734 16.2266 27.6328 23.1641 27.6328C27.1562 27.6328 30.9453 29.5547 33.3125 32.7734C33.8203 33.4688 34.8047 33.6172 35.5 33.1094C36.1953 32.6016 36.3438 31.6172 35.8359 30.9219C34.4062 28.9766 32.5234 27.3672 30.3828 26.2578C29.7578 25.9375 29.1172 25.6562 28.4531 25.4219C31.5312 18.2812 38.5781 13.5938 46.4531 13.5938C57.1484 13.5938 65.875 22.2109 66.0547 32.8672C65.2188 31.3203 64.2891 30.0781 63.4297 29.125C60.8906 26.2891 58.3672 25.1875 58.2656 25.1406L57.6484 24.875L57.0312 25.1406C56.9219 25.1875 54.3984 26.2891 51.8672 29.125C49.6406 31.6094 46.9531 35.9687 46.5547 42.7422C45.1172 43.9453 41.8672 47.2656 42.9688 51.6328ZM60.5469 54.9766H54.7344C54.7109 54.9453 54.6797 54.9219 54.6562 54.8906C54.6484 54.8828 54.6406 54.875 54.6406 54.8672C54.6094 54.8359 54.5859 54.8047 54.5547 54.7734C53.8672 54.0078 52.7188 52.5938 51.7734 51.3594L51.0234 50.3828L49.8984 50.8828C49.8438 50.9062 49.7891 50.9297 49.7422 50.9609L49.6953 50.9844L49.5781 51.0547C49.5625 51.0625 49.5469 51.0703 49.5312 51.0859L49.3906 51.1797C49.375 51.1953 49.3594 51.2031 49.3438 51.2188L49.25 51.2891C49.2266 51.3047 49.2109 51.3281 49.1875 51.3438C49.1641 51.3672 49.1406 51.3906 49.1094 51.4141C49.0703 51.4531 49.0313 51.4844 49 51.5234L48.9375 51.5859C48.9141 51.6172 48.8828 51.6406 48.8594 51.6719C48.8438 51.6875 48.8281 51.7031 48.8203 51.7188C48.7891 51.75 48.7656 51.7891 48.7344 51.8203L48.7266 51.8281L48.5391 52.0859L48.5313 52.0938L48.4375 52.2344L48.4297 52.2422C48.3359 52.3906 48.25 52.5547 48.1719 52.7266C48.1328 52.8125 48.0938 52.8984 48.0469 52.9922C48.0469 53 48.0391 53 48.0391 53.0078C48.0156 53.0547 48 53.1016 47.9766 53.1484C47.9531 53.2031 47.9297 53.2578 47.9141 53.3125C47.8984 53.3438 47.8906 53.375 47.875 53.4141C47.8516 53.4844 47.8203 53.5547 47.7969 53.625C47.7891 53.6406 47.7812 53.6641 47.7812 53.6797C47.75 53.7656 47.7266 53.8516 47.6953 53.9453C47.6562 53.9141 47.6172 53.875 47.5781 53.8359L47.4766 53.7344L47.4609 53.7188C47.1484 53.3984 46.8203 52.9688 46.5391 52.4062C46.5078 52.3359 46.4688 52.2656 46.4375 52.1953C46.4375 52.1875 46.4297 52.1875 46.4297 52.1797L46.3359 51.9688C46.3359 51.9609 46.3281 51.9531 46.3281 51.9453C46.2969 51.875 46.2734 51.8047 46.25 51.7344C46.2422 51.7188 46.2422 51.7109 46.2344 51.6953L46.1641 51.4844C46.1562 51.4688 46.1484 51.4531 46.1484 51.4297C46.125 51.3594 46.1016 51.2891 46.0859 51.2188C46.0781 51.1953 46.0703 51.1797 46.0703 51.1562C46.0469 51.0625 46.0156 50.9687 45.9922 50.8672C45.1562 47.5391 48.9297 44.8203 48.9609 44.7969L49.6016 44.3516L49.625 43.5703C49.7891 38.6094 51.2812 34.4922 54.0703 31.3203C55.4688 29.7344 56.8594 28.7891 57.6328 28.3359C58.4063 28.7891 59.7969 29.7344 61.1953 31.3203C61.3047 31.4453 61.4062 31.5703 61.5078 31.6953C61.5391 31.7344 61.5625 31.7656 61.5938 31.8047C61.6719 31.9062 61.75 32 61.8281 32.1016L61.8984 32.1953C62 32.3203 62.0938 32.4531 62.1875 32.5859C62.2031 32.6094 62.2188 32.6328 62.2422 32.6562C62.3203 32.7656 62.3984 32.875 62.4766 32.9922C62.5 33.0312 62.5234 33.0703 62.5547 33.1016C62.6328 33.2188 62.7109 33.3438 62.7891 33.4688C62.7969 33.4844 62.8125 33.5 62.8203 33.5156L63.0781 33.9375C63.0938 33.9688 63.1172 34 63.1328 34.0312C63.2031 34.1484 63.2656 34.2656 63.3281 34.3828C63.3438 34.4141 63.3672 34.4531 63.3828 34.4844C63.4609 34.6328 63.5391 34.7812 63.6172 34.9375C63.6875 35.0859 63.7656 35.2344 63.8281 35.3906C63.8438 35.4219 63.8594 35.4609 63.875 35.4922C63.9375 35.625 63.9922 35.7578 64.0547 35.8984C64.0625 35.9219 64.0703 35.9453 64.0859 35.9609C64.1562 36.1172 64.2188 36.2812 64.2812 36.4453C64.2891 36.4688 64.2969 36.4844 64.3047 36.5078C64.3594 36.6484 64.4141 36.7969 64.4609 36.9375C64.4688 36.9688 64.4844 37 64.4922 37.0312C64.6094 37.3594 64.7109 37.7031 64.8125 38.0391C64.8203 38.0703 64.8281 38.0938 64.8359 38.125C64.875 38.2734 64.9219 38.4297 64.9609 38.5781C64.9688 38.6016 64.9766 38.6328 64.9844 38.6562C65.0703 38.9922 65.1484 39.3359 65.2109 39.6797C65.2188 39.7109 65.2266 39.75 65.2344 39.7812L65.3047 40.1797L65.3281 40.2969C65.3516 40.4375 65.375 40.5703 65.3906 40.7109C65.3984 40.7422 65.3984 40.7656 65.4063 40.7969L65.4766 41.3125C65.5 41.4766 65.5156 41.6484 65.5312 41.8125C65.5391 41.8594 65.5391 41.9062 65.5469 41.9609C65.5547 42.0859 65.5703 42.2031 65.5781 42.3281C65.5859 42.3828 65.5859 42.4453 65.5938 42.5C65.6016 42.625 65.6094 42.7422 65.6172 42.8672C65.6172 42.9219 65.625 42.9688 65.625 43.0234C65.6328 43.1953 65.6406 43.375 65.6484 43.5469L65.6719 44.3281L66.1016 44.625L66.3125 44.7734C66.3516 44.7969 70.125 47.5156 69.2891 50.8516C68.8906 52.4219 68.2031 53.3594 67.5781 53.9141C67.0781 52.2891 66.3594 51.2891 65.3984 50.8594L64.2734 50.3594L63.5234 51.3359C62.4844 52.7109 61.1953 54.2891 60.5469 54.9766Z"
        fill="#00AAA9" />
    <path
        d="M47.8906 53.4062C47.8672 53.4766 47.8359 53.5469 47.8125 53.6172C47.8437 53.5469 47.8672 53.4766 47.8906 53.4062ZM47.9922 53.1484C47.9687 53.2031 47.9453 53.2578 47.9297 53.3125C47.9531 53.25 47.9687 53.1953 47.9922 53.1484ZM54.6328 54.8672C54.6016 54.8359 54.5781 54.8047 54.5469 54.7734C54.5781 54.8047 54.6094 54.8359 54.6328 54.8672ZM49.3359 51.2109L49.2422 51.2812C49.2812 51.2578 49.3125 51.2344 49.3359 51.2109ZM49.1875 51.3359C49.1641 51.3594 49.1406 51.3828 49.1094 51.4062C49.1328 51.3828 49.1641 51.3594 49.1875 51.3359ZM49.8906 50.8828C49.8359 50.9062 49.7812 50.9297 49.7344 50.9609C49.7891 50.9297 49.8437 50.9062 49.8906 50.8828ZM54.7344 54.9766C54.7109 54.9453 54.6797 54.9219 54.6562 54.8906C54.6797 54.9141 54.7109 54.9453 54.7344 54.9766ZM48.0547 52.9922C48.0547 53 48.0469 53 48.0469 53.0078C48.0547 53 48.0547 53 48.0547 52.9922ZM48.5469 52.0859L48.5391 52.0937C48.5391 52.0937 48.5391 52.0859 48.5469 52.0859ZM48.4453 52.2344L48.4375 52.2422C48.4453 52.2422 48.4453 52.2422 48.4453 52.2344ZM48.8594 51.6641C48.8438 51.6797 48.8281 51.6953 48.8203 51.7109C48.8359 51.7031 48.8438 51.6797 48.8594 51.6641ZM63.8828 35.4922C63.9453 35.625 64 35.7578 64.0625 35.8984C64.0078 35.7656 63.9453 35.625 63.8828 35.4922ZM63.625 34.9375C63.6953 35.0859 63.7734 35.2344 63.8359 35.3906C63.7656 35.2422 63.6953 35.0859 63.625 34.9375ZM64.8437 38.1328C64.8828 38.2812 64.9297 38.4375 64.9687 38.5859C64.9219 38.4375 64.8828 38.2891 64.8437 38.1328ZM65.3281 40.3047C65.3516 40.4453 65.375 40.5781 65.3906 40.7188C65.375 40.5859 65.3516 40.4453 65.3281 40.3047ZM64.5 37.0391C64.6172 37.3672 64.7188 37.7109 64.8203 38.0469C64.7188 37.7031 64.6172 37.3672 64.5 37.0391ZM64.0938 35.9609C64.1641 36.1172 64.2266 36.2812 64.2891 36.4453C64.2188 36.2891 64.1562 36.125 64.0938 35.9609ZM46.5547 52.3984C46.8359 52.9531 47.1562 53.3828 47.4766 53.7109C47.2422 53.4688 47 53.1719 46.7812 52.8047C46.7031 52.6797 46.6328 52.5469 46.5547 52.3984Z"
        fill="#00AAA9" />
    <path
        d="M52.2188 51.9375C52.0625 51.7422 51.9141 51.5469 51.7656 51.3594C52.7109 52.5859 53.8594 54.0078 54.5469 54.7734C54.4766 54.7031 54.4063 54.6172 54.3359 54.5312C53.7578 53.8672 52.9609 52.8906 52.2188 51.9375ZM65.2109 39.6875C65.1406 39.3438 65.0625 39 64.9844 38.6641C65.0312 38.8438 65.0703 39.0234 65.1094 39.2031C65.1484 39.3672 65.1797 39.5312 65.2109 39.6875ZM65.4766 41.3281C65.5 41.4922 65.5156 41.6641 65.5312 41.8281C65.5156 41.6641 65.4922 41.4922 65.4766 41.3281ZM65.5938 42.5156C65.6016 42.6406 65.6094 42.7578 65.6172 42.8828C65.6094 42.7656 65.6016 42.6406 65.5938 42.5156ZM65.625 43.0469C65.6328 43.2188 65.6406 43.3984 65.6484 43.5703C65.6406 43.3906 65.6328 43.2188 65.625 43.0469ZM46.25 51.6953L46.1797 51.4844C46.2031 51.5625 46.2266 51.6328 46.25 51.6953ZM46.0781 51.1641C46.0547 51.0703 46.0234 50.9766 46 50.875C46.0234 50.9688 46.0469 51.0703 46.0781 51.1641ZM46.5547 52.3984C46.5234 52.3281 46.4844 52.2578 46.4531 52.1875C46.4922 52.2656 46.5234 52.3281 46.5547 52.3984ZM61.6094 31.7969C61.6875 31.8984 61.7656 31.9922 61.8437 32.0937C61.7656 32 61.6875 31.8984 61.6094 31.7969ZM63.1406 34.0391C63.2109 34.1563 63.2734 34.2734 63.3359 34.3906C63.2734 34.2656 63.2109 34.1484 63.1406 34.0391ZM61.9141 32.1875C62.0156 32.3125 62.1094 32.4453 62.2031 32.5781C62.1094 32.4531 62.0156 32.3203 61.9141 32.1875Z"
        fill="#00AAA9" />
    <path
        d="M57.4609 36.2656C55.8906 36.2656 54.6094 37.5469 54.6094 39.1172C54.6094 40.6875 55.8906 41.9688 57.4609 41.9688C59.0312 41.9688 60.3125 40.6875 60.3125 39.1172C60.3125 37.5469 59.0312 36.2656 57.4609 36.2656Z"
        fill="white" />
    <path
        d="M57.4609 34.7031C55.0234 34.7031 53.0469 36.6875 53.0469 39.1172C53.0469 41.5547 55.0312 43.5312 57.4609 43.5312C59.8906 43.5312 61.875 41.5469 61.875 39.1172C61.875 36.6875 59.8984 34.7031 57.4609 34.7031ZM57.4609 41.9766C55.8906 41.9766 54.6094 40.6953 54.6094 39.125C54.6094 37.5547 55.8906 36.2734 57.4609 36.2734C59.0312 36.2734 60.3125 37.5547 60.3125 39.125C60.3125 40.6953 59.0312 41.9766 57.4609 41.9766ZM55.3906 59.6016C54.9609 59.6016 54.6094 59.9531 54.6094 60.3828V68.1484C54.6094 68.5781 54.9609 68.9297 55.3906 68.9297C55.8203 68.9297 56.1719 68.5781 56.1719 68.1484V60.3828C56.1719 59.9531 55.8203 59.6016 55.3906 59.6016Z"
        fill="black" />
    <path
        d="M60.2031 58.8203C59.3437 58.8203 58.6406 59.5235 58.6406 60.3828V62.6328C58.6406 63.4922 59.3437 64.1953 60.2031 64.1953C61.0625 64.1953 61.7656 63.4922 61.7656 62.6328V60.3828C61.7656 59.5156 61.0625 58.8203 60.2031 58.8203ZM52.9922 19.9297C53.1562 19.5313 52.9687 19.0703 52.5703 18.9063C46.4609 16.3828 41.9765 17.6875 39.289 19.2266C36.375 20.8984 34.9297 23.1641 34.8672 23.2578C34.6406 23.625 34.75 24.1016 35.1093 24.3359C35.2422 24.4141 35.3828 24.4531 35.5234 24.4531C35.7812 24.4531 36.039 24.3203 36.1875 24.0859C36.2031 24.0625 37.4843 22.0547 40.0625 20.5781C43.5234 18.5938 47.5312 18.5156 51.9687 20.3438C52.3672 20.5234 52.8281 20.3281 52.9922 19.9297Z"
        fill="black" />
</svg>