<svg width="23" height="34" viewBox="0 0 23 34" fill="none" xmlns="http://www.w3.org/2000/svg">
<g clip-path="url(#clip0_207_246)">
<path d="M21.9302 6.7587C21.9302 9.59951 19.6253 11.9024 16.782 11.9024H11.5V1.61499H16.782C19.6253 1.61499 21.9302 3.91791 21.9302 6.7587Z" stroke="black" stroke-width="2"/>
<path d="M1.06982 6.7587C1.06982 9.59951 3.37477 11.9024 6.21808 11.9024H11.5001V1.61499H6.21808C3.37477 1.61499 1.06982 3.91791 1.06982 6.7587Z" stroke="black" stroke-width="2"/>
<path d="M1.06982 17.0463C1.06982 19.8871 3.37477 22.19 6.21808 22.19H11.5001V11.9026H6.21808C3.37477 11.9026 1.06982 14.2055 1.06982 17.0463Z" stroke="black" stroke-width="2"/>
<path d="M1.06982 27.3336C1.06982 30.1744 3.40799 32.4773 6.2513 32.4773C9.13152 32.4773 11.5001 30.1445 11.5001 27.2668V22.1899H6.21808C3.37477 22.1899 1.06982 24.4928 1.06982 27.3336Z" stroke="black" stroke-width="2"/>
<path d="M11.5 17.0463C11.5 19.8871 13.8049 22.19 16.6483 22.19H16.782C19.6253 22.19 21.9302 19.8871 21.9302 17.0463C21.9302 14.2055 19.6253 11.9026 16.782 11.9026H16.6483C13.8049 11.9026 11.5 14.2055 11.5 17.0463Z" stroke="black" stroke-width="2"/>
</g>
<defs>
<clipPath id="clip0_207_246">
<rect width="23" height="33" fill="white" transform="translate(0 0.546143)"/>
</clipPath>
</defs>
</svg>
