<svg width="80" height="80" viewBox="0 0 80 80" fill="none" xmlns="http://www.w3.org/2000/svg">
    <path
        d="M46.4609 62.5312H21.2812C20.4453 62.5312 19.7656 63.2109 19.7656 64.0469C19.7656 64.8828 20.4453 65.5625 21.2812 65.5625H46.4609C47.2969 65.5625 47.9766 64.8828 47.9766 64.0469C47.9766 63.2031 47.2969 62.5312 46.4609 62.5312Z"
        fill="black" />
    <path d="M71.3203 60.2656V63.3125H75.625C74.9922 61.5391 73.3047 60.2656 71.3203 60.2656Z" fill="#E6E6E6" />
    <path
        d="M63.7188 52.8047V18.375C63.7188 17.1172 62.6953 16.1016 61.4453 16.1016H6.29688C5.03906 16.1016 4.02344 17.125 4.02344 18.375V52.8047C4.02344 54.0625 5.04688 55.0781 6.29688 55.0781H61.4453C62.7031 55.0859 63.7188 54.0625 63.7188 52.8047ZM60.2891 49.5234C60.2891 50.7734 59.2656 51.7969 58.0156 51.7969H9.73438C8.48438 51.7969 7.46094 50.7734 7.46094 49.5234V21.6641C7.46094 20.4141 8.48438 19.3906 9.73438 19.3906H58.0156C59.2656 19.3906 60.2891 20.4141 60.2891 21.6641V49.5234Z"
        fill="white" />
    <path
        d="M58.0156 19.3906H9.73437C8.48437 19.3906 7.46094 20.4141 7.46094 21.6641V49.5234C7.46094 50.7734 8.48437 51.7969 9.73437 51.7969H58.0156C59.2656 51.7969 60.2891 50.7734 60.2891 49.5234V21.6641C60.2891 20.4141 59.2656 19.3906 58.0156 19.3906ZM17.1328 21.9062C17.1328 21.7812 17.2344 21.6875 17.3516 21.6875H22.1406C22.2656 21.6875 22.3594 21.7891 22.3594 21.9062V23.2734C22.3594 23.3984 22.2578 23.4922 22.1406 23.4922H17.3516C17.2266 23.4922 17.1328 23.3906 17.1328 23.2734V21.9062ZM14.7656 21.6328C15.2812 21.6328 15.6953 22.0469 15.6953 22.5625C15.6953 23.0781 15.2812 23.4922 14.7656 23.4922C14.25 23.4922 13.8359 23.0781 13.8359 22.5625C13.8359 22.0469 14.2578 21.6328 14.7656 21.6328ZM11.7188 21.6328C12.2344 21.6328 12.6484 22.0469 12.6484 22.5625C12.6484 23.0781 12.2344 23.4922 11.7188 23.4922C11.2031 23.4922 10.7891 23.0781 10.7891 22.5625C10.7891 22.0469 11.2031 21.6328 11.7188 21.6328ZM30.2578 35.8281C30.2578 41.125 25.9453 45.4375 20.6484 45.4375C15.3516 45.4375 11.0391 41.125 11.0391 35.8281C11.0391 30.5312 15.3516 26.2188 20.6484 26.2188H21.4062V35.0703H30.2578V35.8281ZM23.2188 32.8047V25.4063C27.3047 25.4063 30.6172 28.7188 30.6172 32.8047H23.2188ZM52.4062 44.4375H41.4141C40.9922 44.4375 40.6562 44.1016 40.6562 43.6797C40.6562 43.2578 40.9922 42.9219 41.4141 42.9219H52.4062C52.8281 42.9219 53.1641 43.2578 53.1641 43.6797C53.1641 44.0937 52.8281 44.4375 52.4062 44.4375ZM52.4062 38.7109H41.0312C40.6094 38.7109 40.2734 38.375 40.2734 37.9531C40.2734 37.5312 40.6094 37.1953 41.0312 37.1953H52.4062C52.8281 37.1953 53.1641 37.5312 53.1641 37.9531C53.1641 38.375 52.8281 38.7109 52.4062 38.7109ZM52.4062 32.9766H36.0313C35.6094 32.9766 35.2734 32.6406 35.2734 32.2188C35.2734 31.7969 35.6094 31.4609 36.0313 31.4609H52.4141C52.8359 31.4609 53.1719 31.7969 53.1719 32.2188C53.1719 32.6406 52.8281 32.9766 52.4062 32.9766ZM52.4062 27.25H36.0313C35.6094 27.25 35.2734 26.9141 35.2734 26.4922C35.2734 26.0703 35.6094 25.7344 36.0313 25.7344H52.4141C52.8359 25.7344 53.1719 26.0703 53.1719 26.4922C53.1719 26.9141 52.8281 27.25 52.4062 27.25Z"
        fill="white" />
    <path
        d="M19.8906 27.7734C15.7813 28.1563 12.5547 31.625 12.5547 35.8281C12.5547 40.2891 16.1875 43.9219 20.6484 43.9219C24.8516 43.9219 28.3203 40.6953 28.7031 36.5859H19.8906V27.7734Z"
        fill="white" />
    <path
        d="M21.4062 26.2188H20.6484C15.3516 26.2188 11.0391 30.5312 11.0391 35.8281C11.0391 41.125 15.3516 45.4375 20.6484 45.4375C25.9453 45.4375 30.2578 41.125 30.2578 35.8281V35.0703H21.4062V26.2188ZM28.7031 36.5937C28.3203 40.7031 24.8516 43.9297 20.6484 43.9297C16.1875 43.9297 12.5547 40.2969 12.5547 35.8359C12.5547 31.6328 15.7813 28.1641 19.8906 27.7812V36.5937H28.7031Z"
        fill="black" />
    <path d="M23.2188 25.4062V32.8047H30.6172C30.6172 28.7187 27.3047 25.4062 23.2188 25.4062Z" fill="#00AAA9" />
    <path
        d="M10.7891 22.5625C10.7891 22.8091 10.887 23.0455 11.0614 23.2199C11.2357 23.3942 11.4722 23.4922 11.7187 23.4922C11.9653 23.4922 12.2018 23.3942 12.3761 23.2199C12.5505 23.0455 12.6484 22.8091 12.6484 22.5625C12.6484 22.3159 12.5505 22.0795 12.3761 21.9051C12.2018 21.7308 11.9653 21.6328 11.7187 21.6328C11.4722 21.6328 11.2357 21.7308 11.0614 21.9051C10.887 22.0795 10.7891 22.3159 10.7891 22.5625Z"
        fill="white" />
    <path
        d="M13.8359 22.5625C13.8359 22.8091 13.9339 23.0455 14.1082 23.2199C14.2826 23.3942 14.5191 23.4922 14.7656 23.4922C15.0122 23.4922 15.2487 23.3942 15.423 23.2199C15.5974 23.0455 15.6953 22.8091 15.6953 22.5625C15.6953 22.3159 15.5974 22.0795 15.423 21.9051C15.2487 21.7308 15.0122 21.6328 14.7656 21.6328C14.5191 21.6328 14.2826 21.7308 14.1082 21.9051C13.9339 22.0795 13.8359 22.3159 13.8359 22.5625Z"
        fill="white" />
    <path
        d="M17.3516 23.4922H22.1406C22.2656 23.4922 22.3594 23.3906 22.3594 23.2734V21.9062C22.3594 21.7812 22.2578 21.6875 22.1406 21.6875H17.3516C17.2266 21.6875 17.1328 21.7891 17.1328 21.9062V23.2734C17.1328 23.3984 17.2344 23.4922 17.3516 23.4922Z"
        fill="white" />
    <path
        d="M71.3203 57.2266C67.6484 57.2266 64.5781 59.8437 63.875 63.3047H54.8359C53.9219 63.3047 53.2578 63.125 53.0234 62.8125C52.8672 62.6016 52.8672 62.2656 52.8672 62.1094V58.1172H61.4531C64.3828 58.1172 66.7578 55.7344 66.7578 52.8125V18.375C66.7578 15.4453 64.375 13.0703 61.4531 13.0703H6.29688C3.36719 13.0703 0.992188 15.4531 0.992188 18.375V52.8047C0.992188 55.7344 3.375 58.1094 6.29688 58.1094H49.8281V62.1094C49.8281 62.4844 49.8281 63.6172 50.6016 64.6406C51.4531 65.7656 52.875 66.3359 54.8359 66.3359H78.9141V64.8203C78.9141 60.6328 75.5078 57.2266 71.3203 57.2266ZM6.29688 55.0859C5.03906 55.0859 4.02344 54.0625 4.02344 52.8125V18.375C4.02344 17.1172 5.04688 16.1016 6.29688 16.1016H61.4453C62.7031 16.1016 63.7187 17.125 63.7187 18.375V52.8047C63.7187 54.0625 62.6953 55.0781 61.4453 55.0781H6.29688V55.0859ZM71.3203 63.3047H67.0156C67.6406 61.5312 69.3359 60.2578 71.3203 60.2578C73.3047 60.2578 75 61.5312 75.625 63.3047H71.3203Z"
        fill="#00AAA9" />
    <path
        d="M52.4062 25.7344H36.0313C35.6094 25.7344 35.2734 26.0703 35.2734 26.4922C35.2734 26.9141 35.6094 27.25 36.0313 27.25H52.4141C52.8359 27.25 53.1719 26.9141 53.1719 26.4922C53.1719 26.0703 52.8281 25.7344 52.4062 25.7344Z"
        fill="black" />
    <path
        d="M52.4062 31.4609H36.0313C35.6094 31.4609 35.2734 31.7969 35.2734 32.2187C35.2734 32.6406 35.6094 32.9766 36.0313 32.9766H52.4141C52.8359 32.9766 53.1719 32.6406 53.1719 32.2187C53.1719 31.7969 52.8281 31.4609 52.4062 31.4609ZM52.4062 37.1953H41.0313C40.6094 37.1953 40.2734 37.5312 40.2734 37.9531C40.2734 38.375 40.6094 38.7109 41.0313 38.7109H52.4062C52.8281 38.7109 53.1641 38.375 53.1641 37.9531C53.1641 37.5312 52.8281 37.1953 52.4062 37.1953Z"
        fill="black" />
    <path
        d="M52.4062 42.9219H41.4141C40.9922 42.9219 40.6562 43.2578 40.6562 43.6797C40.6562 44.1016 40.9922 44.4375 41.4141 44.4375H52.4062C52.8281 44.4375 53.1641 44.1016 53.1641 43.6797C53.1641 43.2578 52.8281 42.9219 52.4062 42.9219Z"
        fill="black" />
</svg>