<svg width="69" height="43" viewBox="0 0 69 43" fill="none" xmlns="http://www.w3.org/2000/svg">
    <g clip-path="url(#clip0_5_57)">
        <path d="M43.8284 38.4014H25.1718V4.59865H43.8284V38.4014Z" fill="black" />
        <path
            d="M26.3561 21.5001C26.3561 28.0695 29.3767 34.3404 34.4703 38.4015C25.2308 45.7473 11.8454 44.1348 4.56044 34.7584C-2.72454 25.4418 -1.1254 11.9445 8.17332 4.59871C15.9321 -1.55268 26.7707 -1.55268 34.5295 4.59871C29.3767 8.65982 26.3561 14.9307 26.3561 21.5001Z"
            fill="black" />
        <path
            d="M69 21.5C69 9.61531 59.4644 3.43323e-05 47.6782 3.43323e-05C42.8807 3.43323e-05 38.261 1.61253 34.5297 4.59864C43.7691 11.9445 45.3683 25.4417 38.0833 34.8181C37.0172 36.132 35.8327 37.3861 34.5297 38.4014C43.7691 45.7473 57.2138 44.1348 64.4395 34.7584C67.4009 30.9959 69 26.3375 69 21.5Z"
            fill="#353434" />
        <path
            d="M66.9862 8.18196V8.89862H67.2824V9.01807H66.5717V8.89862H66.8678V8.18196H66.9862ZM68.3485 8.18196V9.01807H68.1116L67.8747 8.42084L67.6377 9.01807H67.4008V8.18196H67.5785V8.8389L67.8154 8.3014H67.9931L68.23 8.8389V8.18196H68.3485Z"
            fill="black" />
    </g>
    <defs>
        <clipPath id="clip0_5_57">
            <rect width="69" height="43" fill="white" transform="matrix(1 0 0 -1 0 43)" />
        </clipPath>
    </defs>
</svg>