<svg width="189" height="41" viewBox="0 0 189 41" fill="none" xmlns="http://www.w3.org/2000/svg">
<g clip-path="url(#clip0_5_70)">
<path d="M66.7132 23.6147L65.5867 26.8566H65.4928C65.3051 26.1256 64.9609 25.0132 64.3976 23.6783L58.3584 8.26356H52.4443V32.8318H56.3558V17.6713C56.3558 16.7178 56.3558 15.6372 56.3245 14.3023C56.2932 13.6349 56.2306 13.1264 56.1993 12.745H56.2932C56.4809 13.6984 56.7 14.3977 56.8564 14.8426L64.116 32.7682H66.8697L74.0667 14.6837C74.2231 14.2705 74.3796 13.4442 74.5361 12.745H74.6299C74.5361 14.5566 74.4735 16.1775 74.4422 17.1628V32.7364H78.6039V8.19999H72.9089L66.7132 23.6147ZM82.5466 15.1287H86.6145V32.7364H82.5466V15.1287ZM84.6119 7.69147C83.9235 7.69147 83.3602 7.94573 82.8909 8.39069C82.4215 8.83565 82.1712 9.40775 82.1712 10.107C82.1712 10.7744 82.4215 11.3465 82.8909 11.7915C83.3602 12.2364 83.9235 12.4589 84.6119 12.4589C85.3003 12.4589 85.8948 12.2046 86.3329 11.7915C86.8023 11.3465 87.0526 10.7744 87.0526 10.107C87.0526 9.43953 86.8023 8.86744 86.3329 8.39069C85.9261 7.94573 85.3316 7.69147 84.6119 7.69147ZM101.04 14.9698C100.289 14.8108 99.5066 14.7155 98.7556 14.7155C96.9094 14.7155 95.2197 15.1287 93.8115 15.955C92.4034 16.7814 91.2769 17.9256 90.5572 19.3558C89.8063 20.8178 89.4308 22.5023 89.4308 24.4411C89.4308 26.1256 89.8062 27.6194 90.526 28.986C91.2457 30.3209 92.247 31.4015 93.5925 32.1326C94.8755 32.8636 96.3774 33.245 98.0672 33.245C100.007 33.245 101.666 32.8318 102.98 32.069L103.011 32.0372V28.2233L102.855 28.3504C102.26 28.7953 101.572 29.1767 100.883 29.3992C100.164 29.6535 99.5066 29.7806 98.9433 29.7806C97.3162 29.7806 96.0332 29.3039 95.1258 28.255C94.187 27.238 93.7177 25.8395 93.7177 24.0915C93.7177 22.2798 94.187 20.8496 95.1571 19.8008C96.1271 18.7519 97.4101 18.2116 98.9746 18.2116C100.289 18.2116 101.634 18.6566 102.855 19.5465L103.011 19.6736V15.6372L102.98 15.6054C102.448 15.3829 101.853 15.1287 101.04 14.9698ZM114.464 14.8426C113.463 14.8426 112.524 15.1605 111.71 15.8279C111.022 16.4 110.552 17.2264 110.146 18.2116H110.114V15.1287H106.046V32.7364H110.114V23.7419C110.114 22.2163 110.427 20.945 111.116 20.0233C111.804 19.0698 112.68 18.593 113.744 18.593C114.12 18.593 114.495 18.6884 114.965 18.7519C115.403 18.8791 115.716 19.0062 115.935 19.1651L116.091 19.2922V15.1605L115.997 15.1287C115.716 14.938 115.152 14.8426 114.464 14.8426ZM125.541 14.7473C122.694 14.7473 120.409 15.6054 118.813 17.2899C117.186 18.9744 116.404 21.2946 116.404 24.2186C116.404 26.9519 117.218 29.1767 118.782 30.7977C120.347 32.3868 122.474 33.2132 125.134 33.2132C127.919 33.2132 130.141 32.355 131.737 30.6388C133.364 28.9225 134.146 26.6341 134.146 23.8054C134.146 21.0085 133.395 18.7837 131.862 17.1628C130.391 15.5419 128.232 14.7473 125.541 14.7473ZM128.795 28.2868C128.044 29.2721 126.855 29.7488 125.385 29.7488C123.914 29.7488 122.725 29.2721 121.88 28.2233C121.035 27.238 120.628 25.8077 120.628 23.9961C120.628 22.1209 121.066 20.6907 121.88 19.6736C122.725 18.6566 123.883 18.1481 125.353 18.1481C126.793 18.1481 127.919 18.6248 128.733 19.6101C129.546 20.5953 129.984 22.0256 129.984 23.9008C129.922 25.8077 129.578 27.3015 128.795 28.2868ZM143.221 22.4388C141.938 21.8984 141.124 21.4853 140.749 21.1357C140.436 20.8178 140.279 20.3729 140.279 19.8008C140.279 19.324 140.467 18.8473 140.936 18.5295C141.406 18.2116 141.938 18.0527 142.72 18.0527C143.408 18.0527 144.128 18.1798 144.817 18.3705C145.505 18.5612 146.131 18.8473 146.631 19.2287L146.788 19.3558V15.4783L146.694 15.4465C146.225 15.2558 145.599 15.0651 144.848 14.9062C144.097 14.7791 143.408 14.7155 142.845 14.7155C140.905 14.7155 139.309 15.1922 138.058 16.2411C136.806 17.2264 136.211 18.5612 136.211 20.1186C136.211 20.945 136.337 21.676 136.618 22.2798C136.9 22.8837 137.307 23.4558 137.87 23.9326C138.433 24.3775 139.247 24.886 140.373 25.3628C141.312 25.776 142.032 26.0938 142.47 26.3481C142.908 26.6023 143.189 26.8884 143.408 27.1108C143.565 27.3651 143.659 27.6829 143.659 28.0961C143.659 29.2721 142.783 29.8442 140.999 29.8442C140.311 29.8442 139.591 29.717 138.746 29.431C137.901 29.145 137.119 28.7318 136.462 28.255L136.305 28.1279V32.1643L136.399 32.1961C136.994 32.4822 137.713 32.6729 138.59 32.8953C139.466 33.0543 140.248 33.1814 140.936 33.1814C143.033 33.1814 144.754 32.7046 145.974 31.6558C147.226 30.6388 147.883 29.3357 147.883 27.6512C147.883 26.4752 147.57 25.4264 146.882 24.6318C145.974 23.869 144.848 23.0744 143.221 22.4388ZM158.616 14.7473C155.769 14.7473 153.484 15.6054 151.888 17.2899C150.293 18.9744 149.479 21.2946 149.479 24.2186C149.479 26.9519 150.293 29.1767 151.857 30.7977C153.422 32.3868 155.549 33.2132 158.209 33.2132C160.994 33.2132 163.216 32.355 164.812 30.6388C166.439 28.9225 167.221 26.6341 167.221 23.8054C167.221 21.0085 166.47 18.7837 164.937 17.1628C163.466 15.5419 161.307 14.7473 158.616 14.7473ZM161.839 28.2868C161.088 29.2721 159.899 29.7488 158.428 29.7488C156.926 29.7488 155.769 29.2721 154.924 28.2233C154.079 27.238 153.672 25.8077 153.672 23.9961C153.672 22.1209 154.11 20.6907 154.924 19.6736C155.769 18.6566 156.926 18.1481 158.397 18.1481C159.805 18.1481 160.963 18.6248 161.776 19.6101C162.59 20.5953 163.028 22.0256 163.028 23.9008C163.028 25.8077 162.621 27.3015 161.839 28.2868ZM188.969 18.5295V15.1287H184.869V9.91627L184.744 9.94806L180.864 11.124L180.77 11.1558V15.1287H174.637V12.9039C174.637 11.8868 174.888 11.0922 175.326 10.5837C175.764 10.0752 176.421 9.82092 177.234 9.82092C177.798 9.82092 178.392 9.94806 179.049 10.2341L179.206 10.3295V6.73798L179.112 6.7062C178.549 6.5155 177.798 6.38837 176.828 6.38837C175.607 6.38837 174.543 6.67441 173.573 7.15116C172.603 7.69147 171.884 8.42248 171.352 9.40775C170.82 10.3612 170.538 11.4419 170.538 12.6814V15.1287H167.691V18.4977H170.538V32.7364H174.637V18.5295H180.77V27.5876C180.77 31.3062 182.491 33.1814 185.933 33.1814C186.497 33.1814 187.091 33.086 187.654 32.9907C188.249 32.8636 188.687 32.7046 188.937 32.5775L188.969 32.5457V29.145L188.812 29.2721C188.562 29.431 188.343 29.5581 187.967 29.6535C187.654 29.7488 187.373 29.7806 187.154 29.7806C186.34 29.7806 185.777 29.5899 185.37 29.1132C184.995 28.6682 184.807 27.9372 184.807 26.8566V18.5295H188.969Z" fill="#737373"/>
<path d="M0 0H19.1816V19.4829H0V0Z" fill="black"/>
<path d="M21.1843 0H40.3659V19.4829H21.1843V0Z" fill="black"/>
<path d="M0 21.517H19.1816V41H0V21.517Z" fill="black"/>
<path d="M21.1843 21.517H40.3659V41H21.1843V21.517Z" fill="#222221"/>
</g>
<defs>
<clipPath id="clip0_5_70">
<rect width="189" height="41" fill="white"/>
</clipPath>
</defs>
</svg>
