<svg width="80" height="80" viewBox="0 0 80 80" fill="none" xmlns="http://www.w3.org/2000/svg">
    <path
        d="M33.8438 63.8125C32.7344 63.8125 31.8281 62.9062 31.8281 61.7969C31.8281 60.6875 32.7344 59.7812 33.8438 59.7812C34.9531 59.7812 35.8594 60.6875 35.8594 61.7969C35.8672 62.9062 34.9531 63.8125 33.8438 63.8125Z"
        fill="black" />
    <path
        d="M23.5781 27.6719C22.5156 27.6719 21.6484 28.5391 21.6484 29.6016C21.6484 30.6641 22.5156 31.5312 23.5781 31.5312C24.6406 31.5312 25.5078 30.6641 25.5078 29.6016C25.5078 28.5391 24.6406 27.6719 23.5781 27.6719ZM62.8125 45.1406C60.5156 45.1406 58.6406 47.0156 58.6406 49.3125C58.6406 51.6094 60.5156 53.4844 62.8125 53.4844C65.1094 53.4844 66.9844 51.6094 66.9844 49.3125C66.9844 47.0156 65.1094 45.1406 62.8125 45.1406Z"
        fill="white" />
    <path
        d="M62.8125 43.5781C59.6484 43.5781 57.0781 46.1484 57.0781 49.3125C57.0781 52.4766 59.6484 55.0469 62.8125 55.0469C65.9766 55.0469 68.5469 52.4766 68.5469 49.3125C68.5469 46.1484 65.9766 43.5781 62.8125 43.5781ZM58.6406 49.3125C58.6406 47.0156 60.5156 45.1406 62.8125 45.1406C65.1094 45.1406 66.9844 47.0156 66.9844 49.3125C66.9844 51.6094 65.1094 53.4844 62.8125 53.4844C60.5078 53.4844 58.6406 51.6094 58.6406 49.3125Z"
        fill="black" />
    <path
        d="M28.5703 42.6563C27.6797 42.6563 26.9609 43.375 26.9609 44.2656C26.9609 45.1562 27.6797 45.875 28.5703 45.875C29.4609 45.875 30.1797 45.1562 30.1797 44.2656C30.1797 43.375 29.4531 42.6563 28.5703 42.6563ZM10.0234 32.9141C8.96094 32.9141 8.09375 33.7813 8.09375 34.8438C8.09375 35.9063 8.96094 36.7734 10.0234 36.7734C11.0859 36.7734 11.9531 35.9063 11.9531 34.8438C11.9531 33.7813 11.0859 32.9141 10.0234 32.9141Z"
        fill="white" />
    <path
        d="M14.9531 32.3906C14.8125 31.9844 14.375 31.7656 13.9609 31.8984L12.5 32.3906C11.8672 31.75 10.9922 31.3516 10.0156 31.3516C8.09375 31.3516 6.52344 32.9141 6.52344 34.8437C6.52344 36.7734 8.08594 38.3359 10.0156 38.3359C11.9453 38.3359 13.5078 36.7734 13.5078 34.8437C13.5078 34.4687 13.4453 34.1016 13.3359 33.7656L14.4609 33.3906C14.8672 33.2422 15.0859 32.8047 14.9531 32.3906ZM10.0234 36.7656C8.96094 36.7656 8.09375 35.8984 8.09375 34.8359C8.09375 33.7734 8.96094 32.9062 10.0234 32.9062C11.0859 32.9062 11.9531 33.7734 11.9531 34.8359C11.9531 35.8984 11.0859 36.7656 10.0234 36.7656ZM25.7344 33.3906L25.4609 32.5312C26.4219 31.9062 27.0625 30.8281 27.0625 29.6016C27.0625 27.6797 25.5 26.1094 23.5703 26.1094C21.6406 26.1094 20.0781 27.6719 20.0781 29.6016C20.0781 31.5312 21.6406 33.0937 23.5703 33.0937C23.7109 33.0937 23.8516 33.0859 23.9844 33.0703L24.2344 33.8672C24.3359 34.2031 24.6484 34.4141 24.9766 34.4141C25.0547 34.4141 25.1328 34.3984 25.2109 34.375C25.6406 34.2422 25.8672 33.7969 25.7344 33.3906ZM24.2891 31.3906C24.2578 31.3984 24.2266 31.4141 24.2031 31.4219C24.0078 31.4922 23.7969 31.5312 23.5781 31.5312C22.5156 31.5312 21.6484 30.6641 21.6484 29.6016C21.6484 28.5391 22.5156 27.6719 23.5781 27.6719C24.6406 27.6719 25.5078 28.5391 25.5078 29.6016C25.5078 30.4062 25 31.1016 24.2891 31.3906ZM26.4062 38.875C26.4844 38.875 26.5625 38.8594 26.6406 38.8359C27.0547 38.7031 27.2812 38.2656 27.1484 37.8594L26.6797 36.3672C26.5469 35.9531 26.1094 35.7266 25.7031 35.8594C25.2891 35.9922 25.0625 36.4297 25.1953 36.8359L25.6641 38.3281C25.7656 38.6641 26.0703 38.875 26.4062 38.875ZM34.2188 39.4688L33.5938 39.9453C33.25 40.2031 33.1797 40.6953 33.4453 41.0391C33.6016 41.2422 33.8359 41.3438 34.0703 41.3438C34.2344 41.3438 34.3984 41.2891 34.5391 41.1875L35.1641 40.7109C35.5078 40.4531 35.5781 39.9609 35.3125 39.6172C35.0547 39.2734 34.5625 39.2109 34.2188 39.4688ZM41.5312 34.8906C41.2734 34.5469 40.7812 34.4766 40.4375 34.7422L39.8125 35.2187C39.4688 35.4766 39.3984 35.9687 39.6641 36.3125C39.8203 36.5156 40.0547 36.6172 40.2891 36.6172C40.4531 36.6172 40.6172 36.5625 40.7578 36.4609L41.3828 35.9844C41.7266 35.7266 41.7969 35.2344 41.5312 34.8906ZM37.3281 37.1016L36.7031 37.5781C36.3594 37.8359 36.2891 38.3281 36.5547 38.6719C36.7109 38.875 36.9453 38.9766 37.1797 38.9766C37.3438 38.9766 37.5078 38.9219 37.6484 38.8203L38.2734 38.3437C38.6172 38.0859 38.6875 37.5937 38.4219 37.25C38.1641 36.9141 37.6719 36.8437 37.3281 37.1016ZM31.1094 41.8359L30.8281 42.0469C30.25 41.4609 29.4531 41.0937 28.5703 41.0937C28.4375 41.0937 28.3125 41.1016 28.1875 41.1172L28.1016 40.8359C27.9688 40.4219 27.5312 40.1953 27.1172 40.3281C26.7031 40.4609 26.4766 40.8984 26.6094 41.3125L26.7266 41.6953C25.9219 42.2734 25.3984 43.2109 25.3984 44.2734C25.3984 46.0234 26.8203 47.4453 28.5703 47.4453C30.3203 47.4453 31.7422 46.0234 31.7422 44.2734C31.7422 43.9766 31.7031 43.6875 31.625 43.4141L32.0547 43.0859C32.3984 42.8281 32.4688 42.3359 32.2031 41.9922C31.9453 41.6406 31.4531 41.5703 31.1094 41.8359ZM26.9609 44.2656C26.9609 43.375 27.6797 42.6562 28.5703 42.6562C29.4609 42.6562 30.1797 43.375 30.1797 44.2656C30.1797 45.1562 29.4609 45.875 28.5703 45.875C27.6797 45.875 26.9609 45.1562 26.9609 44.2656Z"
        fill="black" />
    <path
        d="M67.4844 32.4062H52.1016V16.7812C52.1016 13.5156 49.4453 10.8594 46.1797 10.8594H21.5C18.2344 10.8594 15.5781 13.5156 15.5781 16.7812V62.5156C15.5781 65.7812 18.2344 68.4375 21.5 68.4375H67.4766C70.7422 68.4375 73.3984 65.8125 73.3984 62.5859V38.2656C73.4062 35.0312 70.75 32.4062 67.4844 32.4062ZM46.1875 65.3125H21.5C19.9609 65.3125 18.7031 64.0625 18.7031 62.5156V31.9531L18.8984 31.8906C19.3047 31.75 19.5234 31.3125 19.3906 30.8984C19.2891 30.5938 19.0078 30.3906 18.7109 30.3672V16.7891C18.7109 15.25 19.9609 13.9922 21.5078 13.9922H46.1875C47.7266 13.9922 48.9844 15.2422 48.9844 16.7891V33.9844C48.8359 34 48.6797 34.0625 48.5547 34.1641C48.2266 34.4453 48.1875 34.9375 48.4688 35.2656L48.9766 35.8594L48.9844 35.8672V62.5234C48.9766 64.0625 47.7266 65.3125 46.1875 65.3125ZM70.2812 62.5859C70.2812 64.0937 69.0312 65.3125 67.4844 65.3125H51.4062C51.8516 64.4766 52.1094 63.5312 52.1094 62.5156V39.1016C52.2891 39.1016 52.4688 39.0391 52.6094 38.9141C52.9375 38.6328 52.9766 38.1406 52.6953 37.8125L52.1875 37.2188C52.1641 37.1875 52.1328 37.1641 52.1016 37.1328V35.5312H67.4844C69.0234 35.5312 70.2812 36.7578 70.2812 38.2578V62.5859Z"
        fill="#00AAA9" />
    <path
        d="M57.2578 43.164C56.9765 42.8359 56.4843 42.7968 56.1562 43.0781C55.8281 43.3593 55.789 43.8515 56.0703 44.1796L56.5781 44.7734C56.7343 44.9531 56.9531 45.0468 57.1718 45.0468C57.3515 45.0468 57.5312 44.9843 57.6796 44.8593C58.0078 44.5781 58.0468 44.0859 57.7656 43.7578L57.2578 43.164ZM54.7187 40.1953C54.4375 39.8671 53.9453 39.8281 53.6171 40.1093C53.289 40.3906 53.25 40.8828 53.5312 41.2109L54.039 41.8046C54.1953 41.9843 54.414 42.0781 54.6328 42.0781C54.8125 42.0781 54.9921 42.0156 55.1406 41.8906C55.4687 41.6093 55.5078 41.1171 55.2265 40.789L54.7187 40.1953Z"
        fill="black" />
    <path
        d="M38.5703 17.4219H29.1172C28.6875 17.4219 28.3359 17.0703 28.3359 16.6406C28.3359 16.2109 28.6875 15.8594 29.1172 15.8594H38.5703C39 15.8594 39.3516 16.2109 39.3516 16.6406C39.3516 17.0703 39 17.4219 38.5703 17.4219Z"
        fill="black" />
    <path
        d="M46.6641 25.0078C44.0391 25.0078 41.9062 27.1406 41.9062 29.7656C41.9062 32.3906 44.0391 34.5234 46.6641 34.5234C49.2891 34.5234 51.4219 32.3906 51.4219 29.7656C51.4219 27.1406 49.2891 25.0078 46.6641 25.0078Z"
        fill="white" />
    <path
        d="M46.6641 23.4453C43.1797 23.4453 40.3438 26.2812 40.3438 29.7656C40.3438 33.25 43.1797 36.0859 46.6641 36.0859C50.1484 36.0859 52.9844 33.25 52.9844 29.7656C52.9844 26.2812 50.1484 23.4453 46.6641 23.4453ZM41.9141 29.7656C41.9141 27.1406 44.0469 25.0078 46.6719 25.0078C49.2969 25.0078 51.4297 27.1406 51.4297 29.7656C51.4297 32.3906 49.2969 34.5234 46.6719 34.5234C44.0469 34.5234 41.9141 32.3906 41.9141 29.7656Z"
        fill="black" />
</svg>