<svg width="225" height="53" viewBox="0 0 225 53" fill="none" xmlns="http://www.w3.org/2000/svg">
    <path
        d="M162.981 40.7669C155.017 40.7669 149.618 35.1372 149.618 27.4848V27.4174C149.618 20.1022 155.186 14.1354 162.981 14.1354C167.571 14.1354 170.304 15.349 173.037 17.675L169.427 21.9226C167.402 20.3044 165.816 19.3605 162.812 19.3605C158.695 19.3605 155.557 22.9676 155.557 27.4174C155.557 32.1706 158.695 35.6428 163.217 35.6428C165.31 35.6428 166.828 35.1709 168.448 34.1258V30.7548H162.576V25.2262H173.847V36.6541C171.114 38.9128 167.638 40.7669 162.981 40.7669ZM133.96 19.8325V25.2262H145.332V30.6873H133.96V40.4297H128.56V14.4388H148.538V19.8325H133.96ZM113.172 40.7669C106.322 40.7669 102.205 36.8901 102.205 29.2715V14.4725H107.604V29.1367C107.604 33.4179 109.764 35.5754 113.24 35.5754C116.615 35.5754 118.875 33.4853 118.875 29.3726V14.4725H124.275V29.1367C124.275 36.8901 120.09 40.7669 113.172 40.7669ZM92.5538 40.4297V23.5407L85.2985 34.4967H85.231L77.9419 23.6081V40.4297H72.5426V14.4388H78.5831L85.2647 25.2936L92.0476 14.4388H97.8519V40.4297H92.5538Z"
        fill="black" />
    <path
        d="M43.8655 27.4848C43.8655 31.9009 40.2547 35.5417 35.7328 35.5417C31.3121 35.5417 27.7688 31.9346 27.7688 27.4848C27.7688 22.9676 31.3121 19.3605 35.7328 19.3605C40.2547 19.3605 43.8655 22.9676 43.8655 27.4848ZM35.7328 45.0144C26.149 45.0144 18.2525 37.1261 18.2525 27.4511C18.2525 17.7087 26.149 9.82038 35.7328 9.82038C45.4853 9.82038 53.3143 17.7087 53.3143 27.4511C53.2806 37.1261 45.4853 45.0144 35.7328 45.0144ZM43.6968 8C40.8621 8 38.23 8.57308 35.7328 9.61811C33.4043 8.57308 30.6709 8 27.9038 8C17.1052 8 8.5 16.6299 8.5 27.4848C8.5 38.2048 17.1389 46.9696 27.9038 46.9696C30.6372 46.9696 33.3706 46.3291 35.7328 45.2841C38.23 46.3291 40.8959 46.9696 43.6968 46.9696C54.4279 46.9696 63.0331 38.2048 63.0331 27.4848C63.0331 16.6299 54.4279 8 43.6968 8Z"
        fill="black" />
</svg>