<svg width="50" height="33" viewBox="0 0 50 33" fill="none" xmlns="http://www.w3.org/2000/svg">
    <g clip-path="url(#clip0_207_263)">
        <path
            d="M24.7132 32.5462C24.5482 32.5462 24.3843 32.501 24.2396 32.414L22.7322 31.4813C22.507 31.3498 22.6169 31.3032 22.6911 31.2764C22.9913 31.1666 23.0523 31.1418 23.3727 30.9516C23.4064 30.9315 23.4504 30.9386 23.4849 30.9599L24.643 31.678C24.6848 31.7016 24.7442 31.7016 24.7829 31.678L29.2984 28.9543C29.3402 28.9295 29.3673 28.8787 29.3673 28.8268V23.3818C29.3673 23.3275 29.3402 23.2791 29.2975 23.2519L24.7838 20.5306C24.742 20.5046 24.6866 20.5046 24.6448 20.5306L20.1321 23.2519C20.0883 23.2779 20.0605 23.3287 20.0605 23.3806V28.8256C20.0605 28.8776 20.0877 28.9272 20.1306 28.952L21.3671 29.6984C22.0385 30.0492 22.4488 29.6358 22.4488 29.2201V23.846C22.4488 23.7692 22.5064 23.7102 22.5799 23.7102H23.1518C23.223 23.7102 23.2818 23.7692 23.2818 23.846V29.2225C23.2818 30.1579 22.7935 30.6953 21.9447 30.6953C21.6836 30.6953 21.4779 30.6953 20.9037 30.4L19.7192 29.6866C19.4264 29.5095 19.2456 29.1788 19.2456 28.8256V23.3806C19.2456 23.0263 19.4264 22.6956 19.7192 22.5208L24.2392 19.7959C24.5251 19.627 24.9049 19.627 25.1886 19.7959L29.7029 22.522C29.9945 22.6979 30.1765 23.0275 30.1765 23.3818V28.8268C30.1765 29.1799 29.9945 29.5095 29.7029 29.6866L25.1886 32.4115C25.0439 32.4989 24.88 32.5438 24.7127 32.5438"
            fill="black" />
        <path
            d="M26.1077 28.7943C24.132 28.7943 23.7178 27.8466 23.7178 27.0517C23.7178 26.9761 23.7761 26.9159 23.8485 26.9159H24.4318C24.4962 26.9159 24.5504 26.9649 24.5606 27.0314C24.6488 27.6524 24.911 27.9656 26.1057 27.9656C27.0574 27.9656 27.462 27.741 27.462 27.2136C27.462 26.9101 27.3467 26.6845 25.8683 26.5333C24.6318 26.4057 23.8678 26.1211 23.8678 25.0876C23.8678 24.1356 24.6363 23.5687 25.9237 23.5687C27.3693 23.5687 28.0859 24.0931 28.1764 25.2199C28.1798 25.2589 28.1662 25.2967 28.1413 25.325C28.1165 25.3522 28.0814 25.3687 28.0452 25.3687H27.4586C27.3976 25.3687 27.3445 25.3238 27.332 25.2624C27.1908 24.6093 26.8494 24.4002 25.9215 24.4002C24.8827 24.4002 24.7618 24.7782 24.7618 25.0616C24.7618 25.4053 24.9042 25.5057 26.3058 25.6994C27.6937 25.892 28.3527 26.1636 28.3527 27.1829C28.3527 28.2105 27.5321 28.7999 26.1012 28.7999M31.6011 23.0254H31.7525C31.8769 23.0254 31.9006 22.9344 31.9006 22.8813C31.9006 22.7419 31.8091 22.7419 31.7582 22.7419H31.6022L31.6011 23.0254ZM31.4169 22.5789H31.7525C31.8678 22.5789 32.0939 22.5789 32.0939 22.8482C32.0939 23.036 31.9786 23.075 31.9097 23.0986C32.0442 23.108 32.0532 23.2002 32.0713 23.3301C32.0803 23.4116 32.095 23.5522 32.1221 23.5994H31.9153C31.9097 23.5522 31.878 23.2923 31.878 23.2781C31.8644 23.2203 31.8452 23.1919 31.7763 23.1919H31.6056V23.6006H31.4169V22.5789ZM31.0133 23.0868C31.0133 23.5096 31.34 23.8522 31.7412 23.8522C32.1459 23.8522 32.4725 23.5025 32.4725 23.0868C32.4725 22.6628 32.1414 22.3261 31.7401 22.3261C31.3445 22.3261 31.0122 22.658 31.0122 23.0856M32.6127 23.0892C32.6127 23.5899 32.2205 23.9986 31.7424 23.9986C31.2677 23.9986 30.8721 23.5947 30.8721 23.0892C30.8721 22.5742 31.2767 22.1797 31.7424 22.1797C32.2114 22.1797 32.6116 22.5754 32.6116 23.0892"
            fill="black" />
        <path fill-rule="evenodd" clip-rule="evenodd"
            d="M10.7304 11.2412C10.7304 11.0238 10.6207 10.8242 10.4412 10.7162L5.65385 7.83777C5.57304 7.78816 5.4825 7.76218 5.39072 7.75863H5.34122C5.24944 7.76218 5.1589 7.78816 5.07673 7.83777L0.289576 10.7162C0.111219 10.8248 0 11.0244 0 11.2418L0.0105115 18.9946C0.0105115 19.1021 0.0636344 19.2025 0.154056 19.2557C0.242217 19.3124 0.352984 19.3124 0.441146 19.2557L3.28717 17.5525C3.46689 17.4408 3.57652 17.2433 3.57652 17.0281V13.4062C3.57652 13.19 3.68616 12.9904 3.86531 12.8829L5.07696 12.1537C5.16693 12.0994 5.26572 12.0724 5.36631 12.0724C5.46532 12.0724 5.56637 12.0991 5.65385 12.1536L6.86494 12.8826C7.0442 12.9901 7.15429 13.1897 7.15429 13.4058V17.0275C7.15429 17.2424 7.26539 17.4409 7.4442 17.5519L10.2884 19.2539C10.3777 19.3094 10.4888 19.3094 10.5778 19.2539C10.6655 19.2007 10.7211 19.1003 10.7211 18.9929L10.7304 11.2412ZM33.3209 15.2778C33.3209 15.3317 33.2934 15.3817 33.2486 15.4084L31.6042 16.3989C31.5596 16.4257 31.5044 16.4257 31.4599 16.3989L29.8154 15.4084C29.7701 15.3816 29.743 15.3316 29.743 15.2778V13.294C29.743 13.2399 29.7701 13.19 29.8142 13.1629L31.4576 12.1707C31.5029 12.1435 31.5582 12.1435 31.6034 12.1707L33.248 13.1629C33.2932 13.19 33.3203 13.2399 33.3203 13.294L33.3209 15.2778ZM33.7651 0.584385C33.6754 0.53218 33.5662 0.533597 33.4776 0.587574C33.3894 0.641906 33.3349 0.74112 33.3349 0.848602V8.52589C33.3349 8.60148 33.2965 8.67117 33.2339 8.70896C33.1717 8.74676 33.0943 8.74676 33.0315 8.70896L31.8323 7.98718C31.6537 7.87923 31.4338 7.87923 31.2545 7.98718L26.4656 10.8754C26.2866 10.9829 26.1762 11.1825 26.1762 11.3974V17.1755C26.1762 17.3916 26.2866 17.5901 26.4656 17.6987L31.2545 20.5889C31.4333 20.6964 31.6535 20.6964 31.8329 20.5889L36.6219 17.6975C36.8004 17.5889 36.9112 17.3904 36.9112 17.1743V2.77407C36.9112 2.55485 36.797 2.35323 36.6139 2.2461L33.7651 0.584385ZM49.7124 13.2418C49.8904 13.1338 49.9999 12.9344 49.9999 12.7195V11.3191C49.9999 11.1037 49.8902 10.9049 49.712 10.7965L44.9535 7.90982C44.7738 7.80115 44.5534 7.80115 44.3737 7.90982L39.5859 10.7977C39.4062 10.9063 39.2965 11.1047 39.2965 11.3209V17.0966C39.2965 17.3139 39.4084 17.5147 39.5881 17.6222L44.3455 20.4557C44.5207 20.5608 44.7354 20.562 44.9129 20.4592L47.7905 18.7879C47.881 18.7348 47.9386 18.6344 47.9386 18.5257C47.9386 18.4171 47.8832 18.3155 47.7928 18.2623L42.9756 15.3733C42.8852 15.3202 42.8298 15.2198 42.8298 15.1123V13.3005C42.8298 13.1923 42.884 13.0926 42.9744 13.0387L44.4732 12.1352C44.5625 12.0808 44.6721 12.0808 44.7614 12.1352L46.2613 13.0387C46.3506 13.0919 46.4059 13.1923 46.4059 13.2997V14.7242C46.4059 14.8317 46.4613 14.9321 46.5506 14.9864C46.6399 15.0395 46.7507 15.0395 46.84 14.9852L49.7124 13.2418Z"
            fill="#333333" />
        <path fill-rule="evenodd" clip-rule="evenodd"
            d="M44.5935 12.9716C44.6274 12.9506 44.6699 12.9506 44.7043 12.9716L45.6232 13.5255C45.6576 13.5463 45.6786 13.5846 45.6786 13.6259V14.735C45.6786 14.7763 45.6576 14.8146 45.6232 14.8354L44.7043 15.3893C44.6699 15.4102 44.6274 15.4102 44.5935 15.3893L43.6752 14.8354C43.6401 14.8146 43.6187 14.7763 43.6187 14.735V13.6259C43.6187 13.5846 43.639 13.5463 43.674 13.5255L44.5935 12.9716Z"
            fill="black" />
        <mask id="mask0_207_263" style="mask-type:luminance" maskUnits="userSpaceOnUse" x="13" y="7" width="11"
            height="14">
            <path
                d="M18.1663 7.93865L13.4045 10.8108C13.2261 10.9183 13.1167 11.1167 13.1167 11.3312V17.0795C13.1167 17.2941 13.2261 17.4924 13.4045 17.5999L18.1666 20.4742C18.3447 20.5814 18.5642 20.5814 18.742 20.4742L23.5033 17.5999C23.6808 17.4924 23.7904 17.294 23.7904 17.0795V11.3312C23.7904 11.1167 23.6808 10.9183 23.5022 10.8108L18.7415 7.93865C18.6522 7.88515 18.5527 7.85834 18.4533 7.85834C18.3538 7.85834 18.2544 7.88515 18.1651 7.93865"
                fill="white" />
        </mask>
        <g mask="url(#mask0_207_263)">
            <path d="M28.6027 10.3231L15.1847 3.45013L8.30469 18.1166L21.7224 24.9899L28.6027 10.3231Z" fill="black" />
        </g>
        <mask id="mask1_207_263" style="mask-type:luminance" maskUnits="userSpaceOnUse" x="13" y="7" width="11"
            height="14">
            <path
                d="M13.2349 17.4445C13.2804 17.5062 13.3374 17.5597 13.4044 17.5999L17.4892 20.0655L18.1696 20.4742C18.2714 20.5356 18.3873 20.5616 18.5013 20.5527C18.5392 20.5495 18.5772 20.5421 18.6143 20.5311L23.6365 10.9215C23.5981 10.8778 23.5531 10.8412 23.5027 10.8105L20.3847 8.92893L18.7366 7.93797C18.6898 7.90962 18.639 7.88954 18.5874 7.87537L13.2349 17.4445Z"
                fill="white" />
        </mask>
        <g mask="url(#mask1_207_263)">
            <path d="M7.43359 12.3559L16.9081 25.7561L29.4383 16.082L19.9632 2.68219L7.43359 12.3559Z" fill="black" />
        </g>
        <mask id="mask2_207_263" style="mask-type:luminance" maskUnits="userSpaceOnUse" x="13" y="7" width="11"
            height="14">
            <path
                d="M18.3963 7.86168C18.3163 7.86995 18.2382 7.89593 18.1662 7.93869L13.418 10.8026L18.5381 20.548C18.6093 20.5374 18.6794 20.5126 18.7427 20.4743L23.5045 17.5999C23.6515 17.5108 23.7521 17.3601 23.7826 17.1893L18.563 7.87148C18.5245 7.86357 18.4861 7.85944 18.4466 7.85944C18.4307 7.85944 18.4149 7.86026 18.3991 7.8618"
                fill="white" />
        </mask>
        <g mask="url(#mask2_207_263)">
            <path d="M13.418 7.85944V20.5482H23.7806V7.85944H13.418Z" fill="black" />
        </g>
    </g>
    <defs>
        <clipPath id="clip0_207_263">
            <rect width="50" height="32" fill="white" transform="translate(0 0.546143)" />
        </clipPath>
    </defs>
</svg>