<svg width="130" height="43" viewBox="0 0 130 43" fill="none" xmlns="http://www.w3.org/2000/svg">
<g clip-path="url(#clip0_5_32)">
<path d="M0.535278 23.2303C0.595707 23.0951 0.656136 22.9667 0.742463 22.8383C2.77978 19.6143 11.4902 18.2828 23.9731 19.4656L26.4852 12.2335C13.6397 10.9561 4.26461 12.3957 2.70209 16.9715L0.535278 23.2303Z" fill="black"/>
<path d="M47.4109 15.7009C47.3591 15.809 47.3073 15.9172 47.2468 16.0253C45.2959 19.2966 36.5509 20.6484 23.9731 19.4588L21.4609 26.6909C34.3064 27.9683 43.6815 26.5287 45.2441 21.9529L47.4109 15.7009Z" fill="black"/>
<path d="M8.75366 8.07678C27.7111 9.14469 47.0743 16.4849 45.2441 21.9664L46.9448 17.0729C47.4886 15.5319 47.7563 14.7343 47.7563 14.0922C47.7563 8.50935 29.0664 1.69635 11.2658 0.844727L8.75366 8.07678Z" fill="black"/>
<path d="M39.1926 30.8476C20.2351 29.7865 0.87196 22.4463 2.71073 16.9648L1.01008 21.8582C0.466222 23.3993 0.198608 24.1968 0.198608 24.8389C0.198608 30.4218 18.8884 37.2348 36.6891 38.0864L39.1926 30.8476Z" fill="black"/>
<path d="M108.341 29.1443C105.941 29.1714 104.663 27.9751 104.663 25.8527C104.663 25.7108 104.672 25.5756 104.68 25.4405H114.107C114.297 24.8795 114.418 24.2712 114.418 23.7102C114.418 21.1215 112.389 19.1479 108.246 19.1479C104.007 19.1479 100.243 22.4192 100.243 25.8527C100.243 29.1443 102.988 31.145 107.564 31.145C109.592 31.145 111.586 30.611 112.985 29.7797L112.113 28.0697C111.025 28.7321 109.687 29.1241 108.341 29.1443ZM108.315 20.9998C109.713 20.9998 110.43 21.7095 110.43 23.2708C110.43 23.4195 110.421 23.575 110.395 23.7372H105.017C105.604 22.088 106.856 20.9998 108.315 20.9998Z" fill="black"/>
<path d="M71.0214 18.4179C71.0214 15.7346 68.3452 13.7813 64.2879 13.7813H56.4407L50.5187 30.8544H55.4738L57.6579 24.5618H61.957C66.8777 24.5618 71.0214 22.0745 71.0214 18.4179ZM60.0578 22.5612H58.3572L60.7053 15.782H62.4922C64.7454 15.782 66.0144 16.9783 66.0144 18.5599C66.0058 21.0945 63.4677 22.5612 60.0578 22.5612Z" fill="black"/>
<path d="M77.4786 19.4656L78.0311 17.8772C78.3074 17.0459 78.7822 15.6333 79.4296 13.9976C80.1116 12.3146 81.3634 11.267 83.0467 11.267C83.8582 11.267 84.3589 11.5576 84.3589 12.0443C84.3244 12.5782 83.7633 12.8959 83.7633 13.7543C83.7633 14.7546 84.851 15.5319 86.2581 15.5319C88.0019 15.5319 89.4004 14.4369 89.4004 13.0919C89.4004 11.0169 87.13 9.65161 83.6683 9.65161C78.5923 9.65161 75.26 12.1862 73.1709 18.1138L64.6936 42.2364H69.4934L76.8139 21.331H81.8036L78.5232 30.8409H83.323L87.2509 19.4521H77.4786V19.4656Z" fill="black"/>
<path d="M101.771 19.4656H89.0637L88.4336 21.3446H94.5887L85.0409 30.8544H98.4993L99.1208 28.9754H92.1974L101.771 19.4656Z" fill="black"/>
<path d="M126.944 19.2696C125.226 19.2696 123.396 20.1415 121.963 21.9461L122.8 19.4656H118.001L114.073 30.8544H118.873L120.651 25.7311C121.367 23.6359 123.111 21.5879 124.268 21.5879C125.511 21.5879 125.045 23.4196 127.194 23.4196C128.748 23.4196 129.689 22.2976 129.689 21.2702C129.681 20.0739 128.472 19.2696 126.944 19.2696Z" fill="black"/>
</g>
<defs>
<clipPath id="clip0_5_32">
<rect width="130" height="42" fill="white" transform="translate(0 0.5)"/>
</clipPath>
</defs>
</svg>
