<svg width="18" height="18" viewBox="0 0 18 18" fill="none" xmlns="http://www.w3.org/2000/svg">
    <g clip-path="url(#clip0_6_106)">
        <path
            d="M7.68605 11.4661C7.68605 10.6831 7.47005 10.0171 7.03805 9.46809C6.38105 8.64009 5.11205 8.54109 4.37405 8.70309C4.06805 6.96609 5.54405 4.75209 7.45205 3.79809L5.98505 1.74609C3.10505 3.11409 0.279053 6.26409 0.765053 10.2331C1.07105 12.7441 2.52005 14.4001 4.57205 14.4001C5.47205 14.4001 6.21905 14.1391 6.80405 13.6081C7.39805 13.0771 7.68605 12.3661 7.68605 11.4661ZM16.1731 11.4661C16.1731 10.6831 15.9571 10.0171 15.5251 9.46809C14.8681 8.64009 13.5991 8.54109 12.8611 8.70309C12.5551 6.96609 14.0311 4.75209 15.9391 3.79809L14.4721 1.74609C11.5921 3.11409 8.76605 6.26409 9.25205 10.2331C9.55805 12.7441 11.0071 14.4001 13.0591 14.4001C13.9591 14.4001 14.7061 14.1391 15.2911 13.6081C15.8851 13.0771 16.1731 12.3661 16.1731 11.4661Z"
            fill="white" />
    </g>
    <defs>
        <clipPath id="clip0_6_106">
            <rect width="18" height="18" fill="white" />
        </clipPath>
    </defs>
</svg>