<svg width="37" height="34" viewBox="0 0 37 34" fill="none" xmlns="http://www.w3.org/2000/svg">
<path d="M37 17.0038C37 14.5421 33.9305 12.2092 29.2244 10.7625C30.3104 5.94521 29.8278 2.11258 27.701 0.885535C27.2108 0.597709 26.6376 0.461371 26.0116 0.461371V2.15045C26.3585 2.15045 26.6376 2.21862 26.8714 2.34739C27.8971 2.93819 28.342 5.18777 27.9951 8.08118C27.9122 8.79317 27.7764 9.54303 27.6105 10.308C26.1323 9.94447 24.5183 9.66422 22.8214 9.48243C21.8033 8.08118 20.7475 6.80868 19.6841 5.69525C22.1427 3.40022 24.4505 2.14288 26.0192 2.14288V0.453796C23.9452 0.453796 21.2301 1.93837 18.4849 4.51365C15.7397 1.95352 13.0247 0.484094 10.9507 0.484094V2.17318C12.5118 2.17318 14.8272 3.42295 17.2858 5.70283C16.2299 6.81626 15.1741 8.08118 14.171 9.48243C12.4666 9.66422 10.8526 9.94447 9.37444 10.3156C9.20098 9.55818 9.07277 8.82346 8.98227 8.11905C8.6278 5.22564 9.06523 2.97606 10.0834 2.37768C10.3096 2.24135 10.6038 2.18075 10.9507 2.18075V0.491668C10.3172 0.491668 9.74399 0.628007 9.24623 0.915832C7.12699 2.14288 6.65185 5.96793 7.74541 10.7701C3.05442 12.2244 0 14.5497 0 17.0038C0 19.4654 3.06951 21.7983 7.77558 23.245C6.68956 28.0623 7.17224 31.895 9.29902 33.122C9.78924 33.4098 10.3624 33.5462 10.9959 33.5462C13.0699 33.5462 15.785 32.0616 18.5302 29.4863C21.2754 32.0464 23.9904 33.5159 26.0644 33.5159C26.6979 33.5159 27.2711 33.3795 27.7689 33.0917C29.8881 31.8647 30.3632 28.0396 29.2697 23.2375C33.9456 21.7908 37 19.4579 37 17.0038ZM27.1806 11.9517C26.9015 12.9288 26.5546 13.9362 26.1625 14.9435C25.8532 14.3376 25.5289 13.7316 25.1745 13.1257C24.8276 12.5198 24.458 11.929 24.0885 11.3533C25.1594 11.5124 26.1926 11.7093 27.1806 11.9517ZM23.7265 20.0184C23.1382 21.0409 22.5349 22.0104 21.9089 22.9118C20.7852 23.0102 19.6464 23.0633 18.5 23.0633C17.3612 23.0633 16.2224 23.0102 15.1062 22.9193C14.4802 22.018 13.8693 21.0561 13.2811 20.0411C12.7079 19.0488 12.1875 18.0415 11.7124 17.0265C12.18 16.0115 12.7079 14.9966 13.2735 14.0043C13.8618 12.9818 14.4651 12.0123 15.0911 11.1109C16.2148 11.0125 17.3537 10.9594 18.5 10.9594C19.6388 10.9594 20.7776 11.0125 21.8938 11.1033C22.5198 12.0047 23.1307 12.9666 23.7189 13.9816C24.2921 14.9738 24.8125 15.9812 25.2876 16.9962C24.8125 18.0112 24.2921 19.0261 23.7265 20.0184ZM26.1625 19.0337C26.5697 20.0487 26.9166 21.0636 27.2032 22.0483C26.2153 22.2907 25.1745 22.4952 24.096 22.6542C24.4656 22.071 24.8351 21.4726 25.182 20.8591C25.5289 20.2532 25.8532 19.6396 26.1625 19.0337ZM18.5151 27.1155C17.8137 26.3884 17.1123 25.5779 16.4185 24.6917C17.0972 24.722 17.7911 24.7448 18.4925 24.7448C19.2014 24.7448 19.9028 24.7296 20.5891 24.6917C19.9103 25.5779 19.2089 26.3884 18.5151 27.1155ZM12.904 22.6542C11.8331 22.4952 10.7998 22.2983 9.81186 22.0559C10.0909 21.0788 10.4378 20.0714 10.83 19.064C11.1392 19.6699 11.4635 20.2759 11.818 20.8818C12.1724 21.4878 12.5344 22.0786 12.904 22.6542ZM18.4774 6.892C19.1788 7.61914 19.8801 8.4296 20.574 9.3158C19.8952 9.2855 19.2014 9.26278 18.5 9.26278C17.7911 9.26278 17.0897 9.27792 16.4034 9.3158C17.0821 8.4296 17.7835 7.61914 18.4774 6.892ZM12.8965 11.3533C12.5269 11.9365 12.1574 12.5349 11.8104 13.1484C11.4635 13.7544 11.1392 14.3603 10.83 14.9663C10.4227 13.9513 10.0758 12.9363 9.78924 11.9517C10.7772 11.7169 11.818 11.5124 12.8965 11.3533ZM6.07114 20.8364C3.40135 19.6927 1.67428 18.1929 1.67428 17.0038C1.67428 15.8146 3.40135 14.3073 6.07114 13.1711C6.71973 12.8909 7.42866 12.6409 8.16021 12.4061C8.59009 13.8907 9.15573 15.4359 9.85711 17.0189C9.16327 18.5944 8.60518 20.132 8.18284 21.609C7.4362 21.3742 6.72727 21.1166 6.07114 20.8364ZM10.1286 31.6602C9.10294 31.0694 8.65797 28.8198 9.00489 25.9264C9.08785 25.2144 9.22361 24.4645 9.38952 23.6995C10.8677 24.0631 12.4817 24.3433 14.1786 24.5251C15.1967 25.9264 16.2525 27.1989 17.3159 28.3123C14.8573 30.6073 12.5495 31.8647 10.9808 31.8647C10.6415 31.8571 10.3549 31.7889 10.1286 31.6602ZM28.0177 25.8885C28.3722 28.7819 27.9348 31.0315 26.9166 31.6299C26.6904 31.7662 26.3962 31.8268 26.0493 31.8268C24.4882 31.8268 22.1729 30.577 19.7142 28.2971C20.7701 27.1837 21.8259 25.9188 22.829 24.5175C24.5334 24.3358 26.1474 24.0555 27.6256 23.6844C27.799 24.4494 27.9348 25.1841 28.0177 25.8885ZM30.9213 20.8364C30.2727 21.1166 29.5638 21.3666 28.8322 21.6014C28.4024 20.1168 27.8367 18.5717 27.1353 16.9886C27.8292 15.4132 28.3873 13.8756 28.8096 12.3986C29.5563 12.6334 30.2652 12.8909 30.9289 13.1711C33.5987 14.3149 35.3257 15.8146 35.3257 17.0038C35.3182 18.1929 33.5911 19.7002 30.9213 20.8364Z" fill="black"/>
<path d="M18.4925 20.4653C20.396 20.4653 21.9391 18.9155 21.9391 17.0038C21.9391 15.0921 20.396 13.5423 18.4925 13.5423C16.589 13.5423 15.0459 15.0921 15.0459 17.0038C15.0459 18.9155 16.589 20.4653 18.4925 20.4653Z" fill="black"/>
</svg>
