<svg width="70" height="71" viewBox="0 0 70 71" fill="none" xmlns="http://www.w3.org/2000/svg">
<path d="M49.4667 18.4958C55.3 22.55 59.325 28.9958 60.1417 36.4332" stroke="#00AAA9" stroke-width="1.5" stroke-linecap="round" stroke-linejoin="round"/>
<path d="M10.1791 36.5792C10.9375 29.1708 14.9041 22.7249 20.6791 18.6416" stroke="#00AAA9" stroke-width="1.5" stroke-linecap="round" stroke-linejoin="round"/>
<path d="M23.8875 61.5747C27.2708 63.2955 31.1208 64.258 35.175 64.258C39.0833 64.258 42.7583 63.383 46.0542 61.7789" stroke="#00AAA9" stroke-width="1.5" stroke-linecap="round" stroke-linejoin="round"/>
<path d="M35.175 22.9584C39.6533 22.9584 43.2834 19.3282 43.2834 14.85C43.2834 10.3719 39.6533 6.7417 35.175 6.7417C30.6971 6.7417 27.0668 10.3719 27.0668 14.85C27.0668 19.3282 30.6971 22.9584 35.175 22.9584Z" stroke="#00AAA9" stroke-width="1.5" stroke-linecap="round" stroke-linejoin="round"/>
<path d="M14.0875 58.6C18.5656 58.6 22.1958 54.9696 22.1958 50.4916C22.1958 46.0134 18.5656 42.3833 14.0875 42.3833C9.60935 42.3833 5.97913 46.0134 5.97913 50.4916C5.97913 54.9696 9.60935 58.6 14.0875 58.6Z" stroke="#00AAA9" stroke-width="1.5" stroke-linecap="round" stroke-linejoin="round"/>
<path d="M55.9125 58.6C60.3907 58.6 64.0208 54.9696 64.0208 50.4916C64.0208 46.0134 60.3907 42.3833 55.9125 42.3833C51.4345 42.3833 47.8041 46.0134 47.8041 50.4916C47.8041 54.9696 51.4345 58.6 55.9125 58.6Z" stroke="#00AAA9" stroke-width="1.5" stroke-linecap="round" stroke-linejoin="round"/>
</svg>
